<?xml version="1.0" encoding="utf-8"?>
<!-- Generator: Adobe Illustrator 27.0.1, SVG Export Plug-In . SVG Version: 6.00 Build 0)  -->
<svg version="1.1" xmlns="http://www.w3.org/2000/svg" xmlns:xlink="http://www.w3.org/1999/xlink" x="0px" y="0px"
	 viewBox="0 0 363.07 61.06" style="enable-background:new 0 0 363.07 61.06;" xml:space="preserve">
<style type="text/css">
	
		.st0{clip-path:url(#SVGID_00000094596407935173555480000018359862754530320813_);fill:url(#SVGID_00000047757095852894215570000004788185387727380138_);}
	.st1{fill:#D3D3D3;}
	.st2{fill:none;stroke:#FFFFFF;stroke-width:0.5;stroke-miterlimit:10;}
	
		.st3{clip-path:url(#SVGID_00000099642580587558504100000018307585247821150398_);fill:url(#SVGID_00000122694838240848494710000017728584109883737495_);}
	
		.st4{clip-path:url(#SVGID_00000020397135464490859050000017746374704353657995_);fill:url(#SVGID_00000016063702995777638490000003333262875855728526_);}
	
		.st5{clip-path:url(#SVGID_00000121263593515880110410000005167848176423355561_);fill:url(#SVGID_00000069369214956615219390000003011394463386167988_);}
</style>
<g id="Hilfslinien">
</g>
<g id="Italienisch">
</g>
<g id="Französisch">
</g>
<g id="Englisch">
	<g>
		<defs>
			<rect id="SVGID_00000119081000576563997680000000897106711144181636_" x="47.92" width="315.15" height="18.61"/>
		</defs>
		<clipPath id="SVGID_00000052103184946541806470000007224638817386381231_">
			<use xlink:href="#SVGID_00000119081000576563997680000000897106711144181636_"  style="overflow:visible;"/>
		</clipPath>
		
			<linearGradient id="SVGID_00000124883750622780007600000007751756303872461443_" gradientUnits="userSpaceOnUse" x1="794.5431" y1="539.6767" x2="2015.76" y2="539.6767" gradientTransform="matrix(0.2581 0 0 1.1175 -157.1173 -593.7833)">
			<stop  offset="0" style="stop-color:#B2B1D8"/>
			<stop  offset="0.1192" style="stop-color:#B2B1D8"/>
			<stop  offset="0.162" style="stop-color:#6DCAD2"/>
			<stop  offset="0.2095" style="stop-color:#7DC46A"/>
			<stop  offset="0.2893" style="stop-color:#AACB3B"/>
			<stop  offset="0.339" style="stop-color:#D3DE28"/>
			<stop  offset="0.4119" style="stop-color:#F5EB10"/>
			<stop  offset="0.4655" style="stop-color:#FFCD2B"/>
			<stop  offset="0.5365" style="stop-color:#F2882D"/>
			<stop  offset="0.5898" style="stop-color:#F58020"/>
			<stop  offset="0.6661" style="stop-color:#EA4624"/>
			<stop  offset="0.7217" style="stop-color:#E01F26"/>
			<stop  offset="0.7931" style="stop-color:#E01F26"/>
			<stop  offset="0.8446" style="stop-color:#6F0F10"/>
			<stop  offset="0.8865" style="stop-color:#431211"/>
		</linearGradient>
		
			<rect x="47.92" style="clip-path:url(#SVGID_00000052103184946541806470000007224638817386381231_);fill:url(#SVGID_00000124883750622780007600000007751756303872461443_);" width="315.15" height="18.61"/>
	</g>
	<rect x="47.95" y="18.61" class="st1" width="315.11" height="15.77"/>
	<g>
		<line class="st2" x1="326.4" y1="0" x2="326.4" y2="18.61"/>
		<line class="st2" x1="86.74" y1="0" x2="86.74" y2="18.61"/>
		<line class="st2" x1="126.68" y1="0" x2="126.68" y2="18.61"/>
		<line class="st2" x1="166.63" y1="0" x2="166.63" y2="18.61"/>
		<line class="st2" x1="246.51" y1="0" x2="246.51" y2="18.61"/>
		<line class="st2" x1="286.46" y1="0" x2="286.46" y2="18.61"/>
		<line class="st2" x1="206.57" y1="0" x2="206.57" y2="18.61"/>
	</g>
	<rect x="47.95" y="34.38" class="st1" width="315.11" height="26.68"/>
	<g>
		<line class="st2" x1="326.4" y1="18.61" x2="326.4" y2="61.06"/>
		<line class="st2" x1="86.74" y1="18.61" x2="86.74" y2="61.06"/>
		<line class="st2" x1="126.68" y1="18.61" x2="126.68" y2="61.06"/>
		<line class="st2" x1="166.62" y1="18.61" x2="166.62" y2="61.06"/>
		<line class="st2" x1="246.51" y1="18.61" x2="246.51" y2="61.06"/>
		<line class="st2" x1="286.46" y1="18.61" x2="286.46" y2="61.06"/>
		<line class="st2" x1="206.57" y1="18.61" x2="206.57" y2="61.06"/>
	</g>
	<line class="st2" x1="363.07" y1="18.61" x2="47.92" y2="18.61"/>
	<line class="st2" x1="363.07" y1="34.38" x2="47.94" y2="34.38"/>
	<g id="Vektorisierter_Text_00000018957694468536552140000016192808279620859323_">
		<g>
			<g>
				<path d="M19.14,28.1h-1.72v-0.45h0.57v-3.47h-0.57v-0.45h1.72v0.45h-0.57v3.47h0.57V28.1z"/>
				<path d="M22.82,28.1h-0.55v-1.86c0-0.15-0.01-0.29-0.03-0.42s-0.05-0.24-0.1-0.31c-0.05-0.08-0.12-0.14-0.21-0.18
					s-0.21-0.06-0.36-0.06c-0.15,0-0.31,0.04-0.47,0.11s-0.32,0.17-0.47,0.28v2.44h-0.55v-3.27h0.55v0.36
					c0.17-0.14,0.35-0.25,0.53-0.33s0.37-0.12,0.57-0.12c0.35,0,0.62,0.11,0.81,0.32s0.28,0.52,0.28,0.92V28.1z"/>
				<path d="M25.58,28.07c-0.1,0.03-0.22,0.05-0.34,0.07s-0.23,0.03-0.33,0.03c-0.33,0-0.59-0.09-0.76-0.27s-0.26-0.47-0.26-0.86
					v-1.74h-0.37v-0.46h0.37v-0.94h0.55v0.94h1.14v0.46h-1.14v1.49c0,0.17,0,0.31,0.01,0.4s0.04,0.19,0.08,0.27
					c0.04,0.08,0.1,0.14,0.18,0.17s0.19,0.05,0.34,0.05c0.09,0,0.18-0.01,0.28-0.04s0.17-0.05,0.21-0.07h0.03V28.07z"/>
				<path d="M28.98,26.52h-2.41c0,0.2,0.03,0.38,0.09,0.53s0.14,0.27,0.25,0.37c0.1,0.09,0.22,0.16,0.36,0.21s0.29,0.07,0.46,0.07
					c0.22,0,0.45-0.04,0.67-0.13s0.39-0.18,0.48-0.26h0.03v0.6c-0.19,0.08-0.38,0.14-0.57,0.2s-0.4,0.08-0.61,0.08
					c-0.54,0-0.97-0.15-1.27-0.44s-0.46-0.71-0.46-1.25c0-0.54,0.15-0.96,0.44-1.27s0.68-0.47,1.15-0.47c0.44,0,0.78,0.13,1.02,0.39
					s0.36,0.62,0.36,1.1V26.52z M28.45,26.1c0-0.29-0.07-0.51-0.22-0.67s-0.36-0.24-0.65-0.24c-0.29,0-0.53,0.09-0.7,0.26
					s-0.27,0.39-0.3,0.65H28.45z"/>
				<path d="M32.56,28.1H32v-1.86c0-0.15-0.01-0.29-0.03-0.42s-0.05-0.24-0.1-0.31c-0.05-0.08-0.12-0.14-0.21-0.18
					s-0.21-0.06-0.36-0.06c-0.15,0-0.31,0.04-0.47,0.11s-0.32,0.17-0.47,0.28v2.44h-0.55v-3.27h0.55v0.36
					c0.17-0.14,0.35-0.25,0.53-0.33s0.37-0.12,0.57-0.12c0.35,0,0.62,0.11,0.81,0.32s0.28,0.52,0.28,0.92V28.1z"/>
				<path d="M35.95,27.16c0,0.3-0.12,0.54-0.37,0.74s-0.58,0.29-1.01,0.29c-0.24,0-0.46-0.03-0.67-0.09s-0.37-0.12-0.51-0.19v-0.62
					h0.03c0.17,0.13,0.37,0.24,0.58,0.31s0.42,0.12,0.61,0.12c0.24,0,0.43-0.04,0.57-0.12s0.21-0.2,0.21-0.37
					c0-0.13-0.04-0.23-0.11-0.29s-0.22-0.12-0.43-0.17c-0.08-0.02-0.18-0.04-0.31-0.06s-0.24-0.05-0.34-0.08
					c-0.29-0.08-0.49-0.19-0.61-0.33s-0.18-0.33-0.18-0.54c0-0.13,0.03-0.26,0.08-0.38s0.14-0.23,0.25-0.32
					c0.11-0.09,0.25-0.16,0.42-0.22s0.36-0.08,0.57-0.08c0.2,0,0.39,0.02,0.59,0.07s0.37,0.11,0.5,0.17v0.59H35.8
					c-0.14-0.1-0.31-0.19-0.51-0.26s-0.4-0.11-0.59-0.11c-0.2,0-0.37,0.04-0.51,0.12s-0.21,0.19-0.21,0.34
					c0,0.13,0.04,0.24,0.13,0.3c0.08,0.07,0.21,0.12,0.4,0.17c0.1,0.02,0.22,0.05,0.34,0.07s0.23,0.04,0.31,0.06
					c0.26,0.06,0.45,0.16,0.59,0.3C35.88,26.73,35.95,26.92,35.95,27.16z"/>
				<path d="M37.33,24.28h-0.62v-0.57h0.62V24.28z M37.3,28.1h-0.55v-3.27h0.55V28.1z"/>
				<path d="M40.09,28.07c-0.1,0.03-0.22,0.05-0.34,0.07s-0.23,0.03-0.33,0.03c-0.33,0-0.59-0.09-0.76-0.27s-0.26-0.47-0.26-0.86
					v-1.74h-0.37v-0.46h0.37v-0.94h0.55v0.94h1.14v0.46h-1.14v1.49c0,0.17,0,0.31,0.01,0.4s0.04,0.19,0.08,0.27
					c0.04,0.08,0.1,0.14,0.18,0.17s0.19,0.05,0.34,0.05c0.09,0,0.18-0.01,0.28-0.04s0.17-0.05,0.21-0.07h0.03V28.07z"/>
				<path d="M43.55,24.83l-1.91,4.48h-0.59l0.61-1.37l-1.3-3.11h0.6l1,2.43l1.01-2.43H43.55z"/>
			</g>
		</g>
		<g>
			<g>
				<path d="M24.66,48.69h-1.72v-0.45h0.57v-3.47h-0.57v-0.45h1.72v0.45h-0.57v3.47h0.57V48.69z"/>
				<path d="M30.38,48.69h-0.55v-1.86c0-0.14-0.01-0.28-0.02-0.41s-0.04-0.24-0.08-0.31c-0.04-0.08-0.11-0.15-0.19-0.19
					s-0.21-0.06-0.36-0.06c-0.15,0-0.31,0.04-0.46,0.12s-0.31,0.18-0.46,0.29c0.01,0.04,0.01,0.1,0.01,0.16s0.01,0.12,0.01,0.18
					v2.09h-0.55v-1.86c0-0.14-0.01-0.28-0.02-0.41s-0.04-0.23-0.08-0.31c-0.04-0.08-0.11-0.15-0.19-0.19s-0.21-0.06-0.36-0.06
					c-0.15,0-0.3,0.04-0.45,0.11s-0.3,0.17-0.45,0.28v2.44h-0.55v-3.27h0.55v0.36c0.17-0.14,0.34-0.25,0.51-0.33
					s0.35-0.12,0.55-0.12c0.22,0,0.41,0.05,0.57,0.14s0.27,0.22,0.35,0.39c0.22-0.19,0.43-0.32,0.61-0.41s0.38-0.12,0.59-0.12
					c0.36,0,0.62,0.11,0.8,0.33s0.26,0.52,0.26,0.91V48.69z"/>
				<path d="M34.32,47.01c0,0.27-0.04,0.51-0.11,0.73s-0.18,0.41-0.32,0.56c-0.13,0.14-0.28,0.26-0.46,0.33s-0.36,0.12-0.56,0.12
					c-0.17,0-0.32-0.02-0.46-0.06s-0.28-0.09-0.42-0.17v1.37h-0.55v-4.48h0.55v0.34c0.15-0.12,0.31-0.23,0.49-0.31
					s0.38-0.12,0.58-0.12c0.39,0,0.7,0.15,0.92,0.45S34.32,46.48,34.32,47.01z M33.75,47.03c0-0.39-0.07-0.69-0.2-0.88
					s-0.34-0.29-0.62-0.29c-0.16,0-0.32,0.03-0.48,0.1s-0.31,0.16-0.46,0.27v1.85c0.16,0.07,0.29,0.12,0.4,0.14s0.24,0.04,0.38,0.04
					c0.31,0,0.55-0.1,0.72-0.31S33.75,47.43,33.75,47.03z"/>
				<path d="M37.72,48.69h-0.55v-0.35c-0.05,0.03-0.11,0.08-0.2,0.14s-0.16,0.11-0.24,0.14c-0.09,0.04-0.2,0.08-0.32,0.11
					s-0.26,0.05-0.42,0.05c-0.29,0-0.54-0.1-0.75-0.29s-0.31-0.44-0.31-0.75c0-0.25,0.05-0.45,0.16-0.6s0.26-0.27,0.46-0.36
					c0.2-0.09,0.44-0.15,0.72-0.18s0.58-0.05,0.9-0.07v-0.08c0-0.12-0.02-0.23-0.07-0.31s-0.11-0.15-0.19-0.19
					c-0.08-0.04-0.17-0.08-0.28-0.09s-0.22-0.02-0.34-0.02c-0.14,0-0.31,0.02-0.48,0.06s-0.36,0.09-0.55,0.17h-0.03v-0.56
					c0.11-0.03,0.26-0.06,0.47-0.1s0.4-0.05,0.6-0.05c0.23,0,0.43,0.02,0.6,0.06s0.32,0.1,0.44,0.2c0.12,0.09,0.22,0.21,0.28,0.35
					s0.1,0.32,0.1,0.53V48.69z M37.17,47.88v-0.91c-0.17,0.01-0.37,0.02-0.59,0.04s-0.41,0.05-0.54,0.08
					c-0.16,0.04-0.29,0.11-0.38,0.21s-0.15,0.23-0.15,0.39c0,0.19,0.06,0.33,0.17,0.42s0.29,0.14,0.52,0.14
					c0.19,0,0.37-0.04,0.53-0.11S37.04,47.99,37.17,47.88z"/>
				<path d="M41.2,48.48c-0.18,0.09-0.36,0.16-0.52,0.21s-0.34,0.07-0.53,0.07c-0.24,0-0.45-0.04-0.65-0.1s-0.37-0.17-0.51-0.31
					c-0.14-0.14-0.25-0.32-0.33-0.53s-0.12-0.47-0.12-0.75c0-0.54,0.15-0.96,0.44-1.26s0.68-0.46,1.16-0.46
					c0.19,0,0.37,0.03,0.55,0.08s0.35,0.12,0.5,0.19v0.61h-0.03c-0.17-0.13-0.34-0.23-0.52-0.3s-0.35-0.11-0.52-0.11
					c-0.31,0-0.56,0.1-0.74,0.31s-0.27,0.52-0.27,0.92c0,0.39,0.09,0.7,0.27,0.91s0.43,0.32,0.75,0.32c0.11,0,0.22-0.01,0.34-0.04
					s0.22-0.07,0.31-0.11c0.08-0.04,0.16-0.08,0.23-0.13s0.13-0.08,0.17-0.12h0.03V48.48z"/>
				<path d="M43.61,48.66c-0.1,0.03-0.22,0.05-0.34,0.07s-0.23,0.03-0.33,0.03c-0.33,0-0.59-0.09-0.76-0.27s-0.26-0.47-0.26-0.86
					v-1.74h-0.37v-0.46h0.37v-0.94h0.55v0.94h1.14v0.46h-1.14v1.49c0,0.17,0,0.31,0.01,0.4s0.04,0.19,0.08,0.27
					c0.04,0.08,0.1,0.13,0.18,0.17s0.19,0.05,0.34,0.05c0.09,0,0.18-0.01,0.28-0.04s0.17-0.05,0.21-0.07h0.03V48.66z"/>
			</g>
		</g>
		<g>
			<g>
				<path d="M57.94,44.94c0,0.3-0.12,0.54-0.37,0.74s-0.58,0.29-1.01,0.29c-0.24,0-0.46-0.03-0.67-0.09s-0.37-0.12-0.51-0.19v-0.62
					h0.03c0.17,0.13,0.37,0.23,0.58,0.31s0.42,0.12,0.61,0.12c0.24,0,0.43-0.04,0.57-0.12s0.21-0.2,0.21-0.37
					c0-0.13-0.04-0.23-0.11-0.29s-0.22-0.12-0.43-0.17c-0.08-0.02-0.18-0.04-0.31-0.06s-0.24-0.05-0.34-0.08
					c-0.29-0.08-0.49-0.19-0.61-0.34s-0.18-0.33-0.18-0.54c0-0.13,0.03-0.26,0.08-0.38s0.14-0.23,0.25-0.32
					c0.11-0.09,0.25-0.17,0.42-0.22s0.36-0.08,0.57-0.08c0.2,0,0.39,0.02,0.59,0.07s0.37,0.11,0.5,0.17v0.59h-0.03
					c-0.14-0.1-0.31-0.19-0.51-0.26s-0.4-0.11-0.59-0.11c-0.2,0-0.37,0.04-0.51,0.12s-0.21,0.19-0.21,0.34
					c0,0.13,0.04,0.24,0.13,0.3c0.08,0.07,0.21,0.12,0.4,0.17c0.1,0.02,0.22,0.05,0.34,0.07s0.23,0.04,0.31,0.06
					c0.26,0.06,0.45,0.16,0.59,0.3C57.87,44.51,57.94,44.7,57.94,44.94z"/>
				<path d="M61.15,45.68c-0.18,0.09-0.36,0.16-0.52,0.21s-0.34,0.07-0.53,0.07c-0.24,0-0.45-0.04-0.65-0.1s-0.37-0.17-0.51-0.31
					c-0.14-0.14-0.25-0.32-0.33-0.53s-0.12-0.47-0.12-0.75c0-0.54,0.15-0.96,0.44-1.26s0.68-0.46,1.16-0.46
					c0.19,0,0.37,0.03,0.55,0.08s0.35,0.12,0.5,0.19v0.61h-0.03c-0.17-0.13-0.34-0.23-0.52-0.3s-0.35-0.11-0.52-0.11
					c-0.31,0-0.56,0.1-0.74,0.31s-0.27,0.52-0.27,0.92c0,0.39,0.09,0.7,0.27,0.91s0.43,0.32,0.75,0.32c0.11,0,0.22-0.01,0.34-0.04
					s0.22-0.07,0.31-0.11c0.08-0.04,0.16-0.08,0.23-0.13s0.13-0.08,0.17-0.12h0.03V45.68z"/>
				<path d="M64.4,45.88h-0.55v-0.35c-0.05,0.03-0.11,0.08-0.2,0.14s-0.16,0.11-0.24,0.14c-0.09,0.04-0.2,0.08-0.32,0.11
					s-0.26,0.05-0.42,0.05c-0.29,0-0.54-0.1-0.75-0.29s-0.31-0.44-0.31-0.75c0-0.25,0.05-0.45,0.16-0.6s0.26-0.27,0.46-0.36
					c0.2-0.09,0.44-0.15,0.72-0.18s0.58-0.05,0.9-0.07v-0.08c0-0.12-0.02-0.23-0.07-0.31s-0.11-0.15-0.19-0.19
					c-0.08-0.04-0.17-0.08-0.28-0.09s-0.22-0.02-0.34-0.02c-0.14,0-0.31,0.02-0.48,0.06s-0.36,0.09-0.55,0.17h-0.03v-0.56
					c0.11-0.03,0.26-0.06,0.47-0.1s0.4-0.05,0.6-0.05c0.23,0,0.43,0.02,0.6,0.06s0.32,0.1,0.44,0.2c0.12,0.09,0.22,0.21,0.28,0.35
					s0.1,0.32,0.1,0.53V45.88z M63.85,45.07v-0.91c-0.17,0.01-0.37,0.02-0.59,0.04s-0.41,0.05-0.54,0.08
					c-0.16,0.04-0.29,0.11-0.38,0.21s-0.15,0.23-0.15,0.39c0,0.19,0.06,0.33,0.17,0.42s0.29,0.14,0.52,0.14
					c0.19,0,0.37-0.04,0.53-0.11S63.71,45.18,63.85,45.07z"/>
				<path d="M67.5,43.21h-0.03c-0.08-0.02-0.16-0.03-0.24-0.04s-0.17-0.01-0.27-0.01c-0.17,0-0.33,0.04-0.49,0.11
					s-0.31,0.17-0.46,0.29v2.32h-0.55v-3.27h0.55v0.48c0.22-0.18,0.41-0.3,0.58-0.37s0.34-0.11,0.51-0.11c0.1,0,0.17,0,0.21,0.01
					s0.11,0.01,0.19,0.03V43.21z"/>
				<path d="M70.44,45.68c-0.18,0.09-0.36,0.16-0.52,0.21s-0.34,0.07-0.53,0.07c-0.24,0-0.45-0.04-0.65-0.1s-0.37-0.17-0.51-0.31
					c-0.14-0.14-0.25-0.32-0.33-0.53s-0.12-0.47-0.12-0.75c0-0.54,0.15-0.96,0.44-1.26s0.68-0.46,1.16-0.46
					c0.19,0,0.37,0.03,0.55,0.08s0.35,0.12,0.5,0.19v0.61h-0.03c-0.17-0.13-0.34-0.23-0.52-0.3s-0.35-0.11-0.52-0.11
					c-0.31,0-0.56,0.1-0.74,0.31s-0.27,0.52-0.27,0.92c0,0.39,0.09,0.7,0.27,0.91s0.43,0.32,0.75,0.32c0.11,0,0.22-0.01,0.34-0.04
					s0.22-0.07,0.31-0.11c0.08-0.04,0.16-0.08,0.23-0.13s0.13-0.08,0.17-0.12h0.03V45.68z"/>
				<path d="M73.88,44.3h-2.41c0,0.2,0.03,0.38,0.09,0.53s0.14,0.27,0.25,0.37c0.1,0.09,0.22,0.16,0.36,0.21s0.29,0.07,0.46,0.07
					c0.22,0,0.45-0.04,0.67-0.13s0.39-0.18,0.48-0.26h0.03v0.6c-0.19,0.08-0.38,0.14-0.57,0.2s-0.4,0.08-0.61,0.08
					c-0.54,0-0.97-0.15-1.27-0.44s-0.46-0.71-0.46-1.25c0-0.54,0.15-0.96,0.44-1.27s0.68-0.47,1.15-0.47c0.44,0,0.78,0.13,1.02,0.39
					s0.36,0.62,0.36,1.1V44.3z M73.35,43.88c0-0.29-0.07-0.51-0.22-0.67s-0.36-0.24-0.65-0.24c-0.29,0-0.53,0.09-0.7,0.26
					s-0.27,0.39-0.3,0.65H73.35z"/>
				<path d="M75.28,45.88h-0.55v-4.56h0.55V45.88z"/>
				<path d="M79.2,42.61l-1.91,4.48H76.7l0.61-1.37L76,42.61h0.6l1,2.43l1.01-2.43H79.2z"/>
				<path d="M64.67,49.06h-0.03c-0.06-0.02-0.14-0.04-0.24-0.05s-0.18-0.03-0.26-0.03c-0.24,0-0.41,0.05-0.51,0.16
					s-0.16,0.29-0.16,0.57v0.11h0.99v0.46h-0.98v2.81h-0.55v-2.81h-0.37v-0.46h0.37V49.7c0-0.39,0.1-0.69,0.29-0.9
					s0.47-0.31,0.84-0.31c0.12,0,0.23,0.01,0.33,0.02s0.19,0.03,0.27,0.04V49.06z"/>
				<path d="M67.76,51.5h-2.41c0,0.2,0.03,0.38,0.09,0.53s0.14,0.27,0.25,0.37c0.1,0.09,0.22,0.16,0.36,0.21s0.29,0.07,0.46,0.07
					c0.22,0,0.45-0.04,0.67-0.13s0.39-0.18,0.48-0.26h0.03v0.6c-0.19,0.08-0.38,0.14-0.57,0.2s-0.4,0.08-0.61,0.08
					c-0.54,0-0.97-0.15-1.27-0.44s-0.46-0.71-0.46-1.25c0-0.54,0.15-0.96,0.44-1.27s0.68-0.47,1.15-0.47c0.44,0,0.78,0.13,1.02,0.39
					s0.36,0.62,0.36,1.1V51.5z M67.22,51.08c0-0.29-0.07-0.51-0.22-0.67s-0.36-0.24-0.65-0.24c-0.29,0-0.53,0.09-0.7,0.26
					s-0.27,0.39-0.3,0.65H67.22z"/>
				<path d="M69.15,53.08H68.6v-4.56h0.55V53.08z"/>
				<path d="M71.94,53.05c-0.1,0.03-0.22,0.05-0.34,0.07s-0.23,0.03-0.33,0.03c-0.33,0-0.59-0.09-0.76-0.27s-0.26-0.47-0.26-0.86
					v-1.74h-0.37v-0.46h0.37v-0.94h0.55v0.94h1.14v0.46h-1.14v1.49c0,0.17,0,0.31,0.01,0.4s0.04,0.19,0.08,0.27
					c0.04,0.08,0.1,0.13,0.18,0.17s0.19,0.05,0.34,0.05c0.09,0,0.18-0.01,0.28-0.04s0.17-0.05,0.21-0.07h0.03V53.05z"/>
			</g>
		</g>
		<g>
			<g>
				<path d="M103.62,46.21l-0.85,3.27h-0.51l-0.84-2.52l-0.83,2.52h-0.51l-0.86-3.27h0.57l0.6,2.53l0.82-2.53h0.45l0.84,2.53
					l0.57-2.53H103.62z"/>
				<path d="M107.15,47.9h-2.41c0,0.2,0.03,0.38,0.09,0.53s0.14,0.27,0.25,0.37c0.1,0.09,0.22,0.16,0.36,0.21s0.29,0.07,0.46,0.07
					c0.22,0,0.45-0.04,0.67-0.13s0.39-0.18,0.48-0.26h0.03v0.6c-0.19,0.08-0.38,0.14-0.57,0.2s-0.4,0.08-0.61,0.08
					c-0.54,0-0.97-0.15-1.27-0.44s-0.46-0.71-0.46-1.25c0-0.54,0.15-0.96,0.44-1.27s0.68-0.47,1.15-0.47c0.44,0,0.78,0.13,1.02,0.39
					s0.36,0.62,0.36,1.1V47.9z M106.61,47.48c0-0.29-0.07-0.51-0.22-0.67s-0.36-0.24-0.65-0.24c-0.29,0-0.53,0.09-0.7,0.26
					s-0.27,0.39-0.3,0.65H106.61z"/>
				<path d="M110.53,49.48h-0.55v-0.35c-0.05,0.03-0.11,0.08-0.2,0.14s-0.16,0.11-0.24,0.14c-0.09,0.04-0.2,0.08-0.32,0.11
					s-0.26,0.04-0.42,0.04c-0.29,0-0.54-0.1-0.75-0.29s-0.31-0.44-0.31-0.75c0-0.25,0.05-0.45,0.16-0.6s0.26-0.27,0.46-0.36
					c0.2-0.09,0.44-0.15,0.72-0.18s0.58-0.05,0.9-0.07v-0.08c0-0.12-0.02-0.23-0.07-0.31s-0.11-0.15-0.19-0.19
					c-0.08-0.04-0.17-0.08-0.28-0.09s-0.22-0.02-0.34-0.02c-0.14,0-0.31,0.02-0.48,0.06s-0.36,0.09-0.55,0.17h-0.03v-0.56
					c0.11-0.03,0.26-0.06,0.47-0.1s0.4-0.05,0.6-0.05c0.23,0,0.43,0.02,0.6,0.06s0.32,0.1,0.44,0.19c0.12,0.09,0.22,0.21,0.28,0.35
					s0.1,0.32,0.1,0.53V49.48z M109.98,48.67v-0.91c-0.17,0.01-0.37,0.02-0.59,0.04s-0.41,0.05-0.54,0.08
					c-0.16,0.04-0.29,0.12-0.38,0.21s-0.15,0.22-0.15,0.39c0,0.19,0.06,0.33,0.17,0.42s0.29,0.14,0.52,0.14
					c0.19,0,0.37-0.04,0.53-0.11S109.84,48.78,109.98,48.67z"/>
				<path d="M114.56,49.48h-0.73l-1.31-1.43l-0.36,0.34v1.09h-0.55v-4.56h0.55v2.92l1.59-1.64h0.69l-1.52,1.51L114.56,49.48z"/>
			</g>
		</g>
		<g>
			<g>
				<path d="M137.6,45.88h-0.55v-4.56h0.55V45.88z"/>
				<path d="M141.23,45.88h-0.55v-0.35c-0.05,0.03-0.11,0.08-0.2,0.14s-0.16,0.11-0.24,0.14c-0.09,0.04-0.2,0.08-0.32,0.11
					s-0.26,0.04-0.42,0.04c-0.29,0-0.54-0.1-0.75-0.29s-0.31-0.44-0.31-0.75c0-0.25,0.05-0.45,0.16-0.6s0.26-0.27,0.46-0.36
					c0.2-0.09,0.44-0.15,0.72-0.18s0.58-0.05,0.9-0.07v-0.08c0-0.12-0.02-0.23-0.07-0.31s-0.11-0.15-0.19-0.19
					c-0.08-0.04-0.17-0.08-0.28-0.09s-0.22-0.02-0.34-0.02c-0.14,0-0.31,0.02-0.48,0.06s-0.36,0.09-0.55,0.17h-0.03v-0.56
					c0.11-0.03,0.26-0.06,0.47-0.1s0.4-0.05,0.6-0.05c0.23,0,0.43,0.02,0.6,0.06s0.32,0.1,0.44,0.19c0.12,0.09,0.22,0.21,0.28,0.35
					s0.1,0.32,0.1,0.53V45.88z M140.68,45.07v-0.91c-0.17,0.01-0.37,0.02-0.59,0.04s-0.41,0.05-0.54,0.08
					c-0.16,0.04-0.29,0.12-0.38,0.21s-0.15,0.22-0.15,0.39c0,0.19,0.06,0.33,0.17,0.42s0.29,0.14,0.52,0.14
					c0.19,0,0.37-0.04,0.53-0.11S140.55,45.18,140.68,45.07z"/>
				<path d="M144.33,43.21h-0.03c-0.08-0.02-0.16-0.03-0.24-0.04s-0.17-0.01-0.27-0.01c-0.17,0-0.33,0.04-0.49,0.11
					s-0.31,0.17-0.46,0.29v2.32h-0.55v-3.27h0.55v0.48c0.22-0.18,0.41-0.3,0.58-0.37s0.34-0.11,0.51-0.11c0.1,0,0.17,0,0.21,0.01
					s0.11,0.01,0.19,0.03V43.21z"/>
				<path d="M147.51,45.51c0,0.55-0.13,0.96-0.38,1.22s-0.64,0.39-1.16,0.39c-0.17,0-0.34-0.01-0.51-0.04s-0.33-0.06-0.49-0.1v-0.56
					H145c0.09,0.04,0.23,0.08,0.43,0.13s0.39,0.08,0.59,0.08c0.19,0,0.34-0.02,0.47-0.07s0.22-0.11,0.29-0.19
					c0.07-0.08,0.12-0.17,0.15-0.28s0.04-0.23,0.04-0.36v-0.3c-0.17,0.13-0.32,0.23-0.48,0.3s-0.34,0.1-0.58,0.1
					c-0.39,0-0.7-0.14-0.93-0.42s-0.34-0.68-0.34-1.19c0-0.28,0.04-0.52,0.12-0.73s0.19-0.38,0.32-0.53
					c0.13-0.14,0.28-0.25,0.46-0.32s0.36-0.12,0.54-0.12c0.19,0,0.35,0.02,0.48,0.06s0.26,0.1,0.41,0.17l0.04-0.14h0.52V45.51z
					 M146.95,44.98V43.2c-0.15-0.07-0.28-0.11-0.41-0.14s-0.25-0.04-0.38-0.04c-0.3,0-0.54,0.1-0.71,0.3s-0.26,0.5-0.26,0.88
					c0,0.37,0.06,0.65,0.19,0.83s0.34,0.28,0.64,0.28c0.16,0,0.32-0.03,0.48-0.09S146.82,45.08,146.95,44.98z"/>
				<path d="M151.33,44.3h-2.41c0,0.2,0.03,0.38,0.09,0.53s0.14,0.27,0.25,0.37c0.1,0.09,0.22,0.16,0.36,0.21s0.29,0.07,0.46,0.07
					c0.22,0,0.45-0.04,0.67-0.13s0.39-0.18,0.48-0.26h0.03v0.6c-0.19,0.08-0.38,0.14-0.57,0.2s-0.4,0.08-0.61,0.08
					c-0.54,0-0.97-0.15-1.27-0.44s-0.46-0.71-0.46-1.25c0-0.54,0.15-0.96,0.44-1.27s0.68-0.47,1.15-0.47c0.44,0,0.78,0.13,1.02,0.39
					s0.36,0.62,0.36,1.1V44.3z M150.79,43.88c0-0.29-0.07-0.51-0.22-0.67s-0.36-0.24-0.66-0.24c-0.29,0-0.53,0.09-0.7,0.26
					s-0.27,0.39-0.3,0.65H150.79z"/>
				<path d="M152.72,45.88h-0.55v-4.56h0.55V45.88z"/>
				<path d="M156.64,42.61l-1.91,4.48h-0.59l0.61-1.37l-1.3-3.11h0.6l1,2.43l1.01-2.43H156.64z"/>
				<path d="M136.26,51.45c0,0.53-0.14,0.95-0.41,1.26s-0.64,0.46-1.1,0.46c-0.46,0-0.83-0.15-1.1-0.46s-0.41-0.73-0.41-1.26
					s0.14-0.95,0.41-1.26s0.64-0.46,1.1-0.46c0.46,0,0.83,0.16,1.1,0.46S136.26,50.91,136.26,51.45z M135.7,51.45
					c0-0.42-0.08-0.74-0.25-0.94s-0.4-0.31-0.69-0.31c-0.3,0-0.53,0.1-0.7,0.31s-0.25,0.52-0.25,0.94c0,0.41,0.08,0.72,0.25,0.93
					s0.4,0.32,0.69,0.32c0.29,0,0.52-0.1,0.69-0.31S135.7,51.86,135.7,51.45z"/>
				<path d="M140,51.42c0,0.27-0.04,0.52-0.12,0.74s-0.18,0.4-0.31,0.55c-0.14,0.15-0.29,0.27-0.46,0.35s-0.35,0.12-0.55,0.12
					c-0.19,0-0.35-0.02-0.49-0.07s-0.28-0.1-0.41-0.18l-0.04,0.15h-0.52v-4.56h0.55v1.63c0.15-0.13,0.32-0.23,0.49-0.31
					s0.37-0.12,0.59-0.12c0.39,0,0.69,0.15,0.92,0.45S140,50.88,140,51.42z M139.43,51.43c0-0.39-0.06-0.69-0.19-0.89
					s-0.34-0.3-0.62-0.3c-0.16,0-0.32,0.04-0.49,0.1s-0.32,0.16-0.46,0.27v1.88c0.16,0.07,0.29,0.12,0.4,0.15s0.24,0.04,0.38,0.04
					c0.3,0,0.54-0.1,0.72-0.3S139.43,51.86,139.43,51.43z"/>
				<path d="M143.19,52.14c0,0.3-0.12,0.54-0.37,0.74s-0.58,0.29-1.01,0.29c-0.24,0-0.46-0.03-0.67-0.09s-0.37-0.12-0.51-0.19v-0.62
					h0.03c0.17,0.13,0.37,0.24,0.58,0.31s0.42,0.12,0.61,0.12c0.24,0,0.43-0.04,0.57-0.12s0.21-0.2,0.21-0.37
					c0-0.13-0.04-0.23-0.11-0.29s-0.22-0.12-0.43-0.17c-0.08-0.02-0.18-0.04-0.31-0.06s-0.24-0.05-0.34-0.08
					c-0.29-0.08-0.49-0.19-0.61-0.33s-0.18-0.33-0.18-0.54c0-0.13,0.03-0.26,0.08-0.38s0.14-0.23,0.25-0.32
					c0.11-0.09,0.25-0.16,0.42-0.22s0.36-0.08,0.57-0.08c0.2,0,0.39,0.02,0.59,0.07s0.37,0.11,0.5,0.17v0.59h-0.03
					c-0.14-0.1-0.31-0.19-0.51-0.26s-0.4-0.11-0.59-0.11c-0.2,0-0.37,0.04-0.51,0.12s-0.21,0.19-0.21,0.34
					c0,0.13,0.04,0.24,0.13,0.3c0.08,0.07,0.21,0.12,0.4,0.17c0.1,0.02,0.22,0.05,0.34,0.07s0.23,0.04,0.31,0.06
					c0.26,0.06,0.45,0.16,0.59,0.3C143.12,51.71,143.19,51.9,143.19,52.14z"/>
				<path d="M146.72,51.5h-2.41c0,0.2,0.03,0.38,0.09,0.53s0.14,0.27,0.25,0.37c0.1,0.09,0.22,0.16,0.36,0.21s0.29,0.07,0.46,0.07
					c0.22,0,0.45-0.04,0.67-0.13s0.39-0.18,0.48-0.26h0.03v0.6c-0.19,0.08-0.38,0.14-0.57,0.2s-0.4,0.08-0.61,0.08
					c-0.54,0-0.97-0.15-1.27-0.44s-0.46-0.71-0.46-1.25c0-0.54,0.15-0.96,0.44-1.27s0.68-0.47,1.15-0.47c0.44,0,0.78,0.13,1.02,0.39
					s0.36,0.62,0.36,1.1V51.5z M146.18,51.08c0-0.29-0.07-0.51-0.22-0.67s-0.36-0.24-0.66-0.24c-0.29,0-0.53,0.09-0.7,0.26
					s-0.27,0.39-0.3,0.65H146.18z"/>
				<path d="M149.6,50.41h-0.03c-0.08-0.02-0.16-0.03-0.24-0.04s-0.17-0.01-0.27-0.01c-0.17,0-0.33,0.04-0.49,0.11
					s-0.31,0.17-0.46,0.29v2.32h-0.55v-3.27h0.55v0.48c0.22-0.18,0.41-0.3,0.58-0.37s0.34-0.11,0.51-0.11c0.1,0,0.17,0,0.21,0.01
					s0.11,0.01,0.19,0.03V50.41z"/>
				<path d="M152.95,49.81l-1.32,3.27h-0.55l-1.32-3.27h0.6l1.01,2.6l1-2.6H152.95z"/>
				<path d="M156.35,51.5h-2.41c0,0.2,0.03,0.38,0.09,0.53s0.14,0.27,0.25,0.37c0.1,0.09,0.22,0.16,0.36,0.21s0.29,0.07,0.46,0.07
					c0.22,0,0.45-0.04,0.67-0.13s0.39-0.18,0.48-0.26h0.03v0.6c-0.19,0.08-0.38,0.14-0.57,0.2s-0.4,0.08-0.61,0.08
					c-0.54,0-0.97-0.15-1.27-0.44s-0.46-0.71-0.46-1.25c0-0.54,0.15-0.96,0.44-1.27s0.68-0.47,1.15-0.47c0.44,0,0.78,0.13,1.02,0.39
					s0.36,0.62,0.36,1.1V51.5z M155.82,51.08c0-0.29-0.07-0.51-0.22-0.67s-0.36-0.24-0.66-0.24c-0.29,0-0.53,0.09-0.7,0.26
					s-0.27,0.39-0.3,0.65H155.82z"/>
				<path d="M159.84,53.08h-0.55v-0.34c-0.16,0.14-0.32,0.24-0.5,0.32s-0.36,0.11-0.56,0.11c-0.39,0-0.7-0.15-0.93-0.45
					s-0.34-0.72-0.34-1.25c0-0.28,0.04-0.52,0.12-0.74s0.19-0.4,0.32-0.55c0.13-0.15,0.29-0.26,0.46-0.34s0.36-0.12,0.55-0.12
					c0.17,0,0.32,0.02,0.46,0.05s0.27,0.09,0.42,0.17v-1.42h0.55V53.08z M159.29,52.27V50.4c-0.15-0.07-0.28-0.11-0.4-0.14
					s-0.25-0.04-0.38-0.04c-0.31,0-0.55,0.11-0.72,0.32s-0.26,0.52-0.26,0.91c0,0.39,0.07,0.68,0.2,0.89s0.35,0.3,0.64,0.3
					c0.16,0,0.31-0.03,0.47-0.1S159.15,52.38,159.29,52.27z"/>
			</g>
		</g>
		<g>
			<g>
				<path d="M179.86,48.54c0,0.3-0.12,0.54-0.37,0.74s-0.58,0.29-1.01,0.29c-0.24,0-0.46-0.03-0.67-0.09s-0.37-0.12-0.51-0.19v-0.62
					h0.03c0.17,0.13,0.37,0.24,0.58,0.31s0.42,0.12,0.61,0.12c0.24,0,0.43-0.04,0.57-0.12s0.21-0.2,0.21-0.37
					c0-0.13-0.04-0.23-0.11-0.29s-0.22-0.12-0.43-0.17c-0.08-0.02-0.18-0.04-0.31-0.06s-0.24-0.05-0.34-0.08
					c-0.29-0.08-0.49-0.19-0.61-0.33s-0.18-0.33-0.18-0.54c0-0.13,0.03-0.26,0.08-0.38s0.14-0.23,0.25-0.32
					c0.11-0.09,0.25-0.16,0.42-0.22s0.36-0.08,0.57-0.08c0.2,0,0.39,0.02,0.59,0.07s0.37,0.11,0.5,0.17v0.59h-0.03
					c-0.14-0.1-0.31-0.19-0.51-0.26s-0.4-0.11-0.59-0.11c-0.2,0-0.37,0.04-0.51,0.12s-0.21,0.19-0.21,0.34
					c0,0.13,0.04,0.24,0.13,0.3c0.08,0.07,0.21,0.12,0.4,0.17c0.1,0.02,0.22,0.05,0.34,0.07s0.23,0.04,0.31,0.06
					c0.26,0.06,0.45,0.16,0.59,0.3C179.79,48.11,179.86,48.3,179.86,48.54z"/>
				<path d="M182.35,49.45c-0.1,0.03-0.22,0.05-0.34,0.07s-0.23,0.03-0.33,0.03c-0.33,0-0.59-0.09-0.76-0.27s-0.26-0.47-0.26-0.86
					v-1.74h-0.37v-0.46h0.37v-0.94h0.55v0.94h1.14v0.46h-1.14v1.49c0,0.17,0,0.31,0.01,0.4s0.04,0.19,0.08,0.27
					c0.04,0.08,0.1,0.14,0.18,0.17s0.19,0.05,0.34,0.05c0.09,0,0.18-0.01,0.28-0.04s0.17-0.05,0.21-0.07h0.03V49.45z"/>
				<path d="M185.06,46.81h-0.03c-0.08-0.02-0.16-0.03-0.24-0.04s-0.17-0.01-0.27-0.01c-0.17,0-0.33,0.04-0.49,0.11
					s-0.31,0.17-0.46,0.29v2.32h-0.55v-3.27h0.55v0.48c0.22-0.18,0.41-0.3,0.58-0.37s0.34-0.11,0.51-0.11c0.1,0,0.17,0,0.21,0.01
					s0.11,0.01,0.19,0.03V46.81z"/>
				<path d="M188.36,47.85c0,0.53-0.14,0.95-0.41,1.26s-0.64,0.46-1.1,0.46c-0.46,0-0.83-0.15-1.1-0.46s-0.41-0.73-0.41-1.26
					s0.14-0.95,0.41-1.26s0.64-0.46,1.1-0.46c0.46,0,0.83,0.16,1.1,0.46S188.36,47.31,188.36,47.85z M187.79,47.85
					c0-0.42-0.08-0.74-0.25-0.94s-0.4-0.31-0.69-0.31c-0.3,0-0.53,0.1-0.7,0.31s-0.25,0.52-0.25,0.94c0,0.41,0.08,0.72,0.25,0.93
					s0.4,0.32,0.69,0.32c0.29,0,0.52-0.1,0.69-0.31S187.79,48.26,187.79,47.85z"/>
				<path d="M191.95,49.48h-0.55v-1.86c0-0.15-0.01-0.29-0.03-0.42s-0.05-0.24-0.1-0.31c-0.05-0.08-0.12-0.14-0.21-0.18
					s-0.21-0.06-0.36-0.06c-0.15,0-0.31,0.04-0.47,0.11s-0.32,0.17-0.47,0.28v2.44h-0.55v-3.27h0.55v0.36
					c0.17-0.14,0.35-0.25,0.53-0.33s0.37-0.12,0.57-0.12c0.35,0,0.62,0.11,0.81,0.32s0.28,0.52,0.28,0.92V49.48z"/>
				<path d="M195.67,49.11c0,0.55-0.13,0.96-0.38,1.22s-0.64,0.39-1.16,0.39c-0.17,0-0.34-0.01-0.51-0.04s-0.33-0.06-0.49-0.1v-0.56
					h0.03c0.09,0.04,0.23,0.08,0.43,0.13s0.39,0.08,0.59,0.08c0.19,0,0.34-0.02,0.47-0.07s0.22-0.11,0.29-0.19
					c0.07-0.08,0.12-0.17,0.15-0.28s0.04-0.23,0.04-0.36v-0.3c-0.17,0.13-0.32,0.23-0.48,0.3s-0.34,0.1-0.58,0.1
					c-0.39,0-0.7-0.14-0.93-0.42s-0.34-0.68-0.34-1.19c0-0.28,0.04-0.52,0.12-0.73s0.19-0.38,0.32-0.53
					c0.13-0.14,0.28-0.25,0.46-0.32s0.36-0.12,0.54-0.12c0.19,0,0.35,0.02,0.48,0.06s0.26,0.1,0.41,0.17l0.04-0.14h0.52V49.11z
					 M195.12,48.58V46.8c-0.15-0.07-0.28-0.11-0.41-0.14s-0.25-0.04-0.38-0.04c-0.3,0-0.54,0.1-0.71,0.3s-0.26,0.5-0.26,0.88
					c0,0.37,0.06,0.65,0.19,0.83s0.34,0.28,0.64,0.28c0.16,0,0.32-0.03,0.48-0.09S194.98,48.68,195.12,48.58z"/>
			</g>
		</g>
		<g>
			<g>
				<path d="M218.65,44.94c0,0.3-0.12,0.54-0.37,0.74s-0.58,0.29-1.01,0.29c-0.24,0-0.46-0.03-0.67-0.09s-0.37-0.12-0.51-0.19v-0.62
					h0.03c0.17,0.13,0.37,0.23,0.58,0.31s0.42,0.12,0.61,0.12c0.24,0,0.43-0.04,0.57-0.12s0.21-0.2,0.21-0.37
					c0-0.13-0.04-0.23-0.11-0.29s-0.22-0.12-0.43-0.17c-0.08-0.02-0.18-0.04-0.31-0.06s-0.24-0.05-0.34-0.08
					c-0.29-0.08-0.49-0.19-0.61-0.34s-0.18-0.33-0.18-0.54c0-0.13,0.03-0.26,0.08-0.38s0.14-0.23,0.25-0.32
					c0.11-0.09,0.25-0.17,0.42-0.22s0.36-0.08,0.57-0.08c0.2,0,0.39,0.02,0.59,0.07s0.37,0.11,0.5,0.17v0.59h-0.03
					c-0.14-0.1-0.31-0.19-0.51-0.26s-0.4-0.11-0.59-0.11c-0.2,0-0.37,0.04-0.51,0.12s-0.21,0.19-0.21,0.34
					c0,0.13,0.04,0.24,0.13,0.3c0.08,0.07,0.21,0.12,0.4,0.17c0.1,0.02,0.22,0.05,0.34,0.07s0.23,0.04,0.31,0.06
					c0.26,0.06,0.45,0.16,0.59,0.3C218.58,44.51,218.65,44.7,218.65,44.94z"/>
				<path d="M219.99,45.88h-0.55v-4.56h0.55V45.88z"/>
				<path d="M221.67,42.06h-0.62v-0.57h0.62V42.06z M221.64,45.88h-0.55v-3.27h0.55V45.88z"/>
				<path d="M225.38,45.51c0,0.55-0.13,0.96-0.38,1.22s-0.64,0.39-1.16,0.39c-0.17,0-0.34-0.01-0.51-0.04s-0.33-0.06-0.49-0.1v-0.56
					h0.03c0.09,0.04,0.23,0.08,0.43,0.13s0.39,0.08,0.59,0.08c0.19,0,0.34-0.02,0.47-0.07s0.22-0.11,0.29-0.19
					c0.07-0.08,0.12-0.17,0.15-0.28s0.04-0.23,0.04-0.36v-0.3c-0.17,0.13-0.32,0.23-0.48,0.3s-0.34,0.1-0.58,0.1
					c-0.39,0-0.7-0.14-0.93-0.42s-0.34-0.68-0.34-1.19c0-0.28,0.04-0.52,0.12-0.73s0.19-0.38,0.32-0.53
					c0.13-0.14,0.28-0.25,0.46-0.32s0.36-0.12,0.54-0.12c0.19,0,0.35,0.02,0.48,0.06s0.26,0.1,0.41,0.17l0.04-0.14h0.52V45.51z
					 M224.83,44.98V43.2c-0.15-0.07-0.28-0.11-0.41-0.14s-0.25-0.04-0.38-0.04c-0.3,0-0.54,0.1-0.71,0.3s-0.26,0.5-0.26,0.88
					c0,0.37,0.06,0.65,0.19,0.83s0.34,0.28,0.64,0.28c0.16,0,0.32-0.03,0.48-0.09S224.7,45.08,224.83,44.98z"/>
				<path d="M229.2,45.88h-0.55v-1.86c0-0.15-0.01-0.29-0.03-0.42s-0.05-0.23-0.1-0.31c-0.05-0.08-0.12-0.14-0.21-0.18
					s-0.21-0.06-0.36-0.06c-0.15,0-0.31,0.04-0.47,0.11s-0.32,0.17-0.47,0.28v2.44h-0.55v-4.56h0.55v1.65
					c0.17-0.14,0.35-0.25,0.53-0.33s0.37-0.12,0.57-0.12c0.35,0,0.62,0.11,0.81,0.32s0.28,0.52,0.28,0.92V45.88z"/>
				<path d="M231.96,45.85c-0.1,0.03-0.22,0.05-0.34,0.07s-0.23,0.03-0.33,0.03c-0.33,0-0.59-0.09-0.76-0.27s-0.26-0.47-0.26-0.86
					v-1.74h-0.37v-0.46h0.37v-0.94h0.55v0.94h1.14v0.46h-1.14v1.49c0,0.17,0,0.31,0.01,0.4s0.04,0.19,0.08,0.27
					c0.04,0.08,0.1,0.13,0.18,0.17s0.19,0.05,0.34,0.05c0.09,0,0.18-0.01,0.28-0.04s0.17-0.05,0.21-0.07h0.03V45.85z"/>
				<path d="M233.19,45.88h-0.55v-4.56h0.55V45.88z"/>
				<path d="M237.11,42.61l-1.91,4.48h-0.59l0.61-1.37l-1.3-3.11h0.6l1,2.43l1.01-2.43H237.11z"/>
				<path d="M214.87,53.08h-0.55v-0.34c-0.16,0.14-0.32,0.24-0.5,0.32s-0.36,0.11-0.56,0.11c-0.39,0-0.7-0.15-0.93-0.45
					s-0.34-0.72-0.34-1.25c0-0.28,0.04-0.52,0.12-0.74s0.19-0.4,0.32-0.55c0.13-0.15,0.29-0.26,0.46-0.34s0.36-0.12,0.55-0.12
					c0.17,0,0.32,0.02,0.46,0.05s0.27,0.09,0.42,0.17v-1.42h0.55V53.08z M214.32,52.28V50.4c-0.15-0.07-0.28-0.11-0.4-0.14
					s-0.25-0.04-0.38-0.04c-0.31,0-0.55,0.11-0.72,0.32s-0.26,0.52-0.26,0.91c0,0.39,0.07,0.68,0.2,0.89s0.35,0.3,0.64,0.3
					c0.16,0,0.31-0.04,0.47-0.1S214.18,52.38,214.32,52.28z"/>
				<path d="M218.5,53.08h-0.55v-0.35c-0.05,0.03-0.11,0.08-0.2,0.14s-0.16,0.11-0.24,0.14c-0.09,0.04-0.2,0.08-0.32,0.11
					s-0.26,0.05-0.42,0.05c-0.29,0-0.54-0.1-0.75-0.29s-0.31-0.44-0.31-0.75c0-0.25,0.05-0.45,0.16-0.6s0.26-0.27,0.46-0.36
					c0.2-0.09,0.44-0.15,0.72-0.18s0.58-0.05,0.9-0.07v-0.08c0-0.12-0.02-0.23-0.07-0.31s-0.11-0.15-0.19-0.19
					c-0.08-0.04-0.17-0.08-0.28-0.09s-0.22-0.02-0.34-0.02c-0.14,0-0.31,0.02-0.48,0.06s-0.36,0.09-0.55,0.17h-0.03v-0.56
					c0.11-0.03,0.26-0.06,0.47-0.1s0.4-0.05,0.6-0.05c0.23,0,0.43,0.02,0.6,0.06s0.32,0.1,0.44,0.2c0.12,0.09,0.22,0.21,0.28,0.35
					s0.1,0.32,0.1,0.53V53.08z M217.95,52.28v-0.91c-0.17,0.01-0.37,0.02-0.59,0.04s-0.41,0.05-0.54,0.08
					c-0.16,0.04-0.29,0.11-0.38,0.21s-0.15,0.23-0.15,0.39c0,0.19,0.06,0.33,0.17,0.42s0.29,0.14,0.52,0.14
					c0.19,0,0.37-0.04,0.53-0.11S217.81,52.38,217.95,52.28z"/>
				<path d="M224.33,53.08h-0.55v-1.86c0-0.14-0.01-0.28-0.02-0.41s-0.04-0.24-0.08-0.31c-0.04-0.08-0.11-0.15-0.19-0.19
					s-0.21-0.06-0.36-0.06c-0.15,0-0.31,0.04-0.46,0.12s-0.31,0.18-0.46,0.29c0.01,0.04,0.01,0.1,0.01,0.16s0.01,0.12,0.01,0.18
					v2.09h-0.55v-1.86c0-0.14-0.01-0.28-0.02-0.41s-0.04-0.23-0.08-0.31c-0.04-0.08-0.11-0.15-0.19-0.19s-0.21-0.06-0.36-0.06
					c-0.15,0-0.3,0.04-0.45,0.11s-0.3,0.17-0.45,0.28v2.44h-0.55v-3.27h0.55v0.36c0.17-0.14,0.34-0.25,0.51-0.33
					s0.35-0.12,0.55-0.12c0.22,0,0.41,0.05,0.57,0.14s0.27,0.22,0.35,0.39c0.22-0.19,0.43-0.32,0.61-0.41s0.38-0.12,0.59-0.12
					c0.36,0,0.62,0.11,0.8,0.33s0.26,0.52,0.26,0.91V53.08z"/>
				<path d="M227.94,53.08h-0.55v-0.35c-0.05,0.03-0.11,0.08-0.2,0.14s-0.16,0.11-0.24,0.14c-0.09,0.04-0.2,0.08-0.32,0.11
					s-0.26,0.05-0.42,0.05c-0.29,0-0.54-0.1-0.75-0.29s-0.31-0.44-0.31-0.75c0-0.25,0.05-0.45,0.16-0.6s0.26-0.27,0.46-0.36
					c0.2-0.09,0.44-0.15,0.72-0.18s0.58-0.05,0.9-0.07v-0.08c0-0.12-0.02-0.23-0.07-0.31s-0.11-0.15-0.19-0.19
					c-0.08-0.04-0.17-0.08-0.28-0.09s-0.22-0.02-0.34-0.02c-0.14,0-0.31,0.02-0.48,0.06s-0.36,0.09-0.55,0.17h-0.03v-0.56
					c0.11-0.03,0.26-0.06,0.47-0.1s0.4-0.05,0.6-0.05c0.23,0,0.43,0.02,0.6,0.06s0.32,0.1,0.44,0.2c0.12,0.09,0.22,0.21,0.28,0.35
					s0.1,0.32,0.1,0.53V53.08z M227.39,52.28v-0.91c-0.17,0.01-0.37,0.02-0.59,0.04s-0.41,0.05-0.54,0.08
					c-0.16,0.04-0.29,0.11-0.38,0.21s-0.15,0.23-0.15,0.39c0,0.19,0.06,0.33,0.17,0.42s0.29,0.14,0.52,0.14
					c0.19,0,0.37-0.04,0.53-0.11S227.25,52.38,227.39,52.28z"/>
				<path d="M231.65,52.71c0,0.55-0.13,0.96-0.38,1.22s-0.64,0.39-1.16,0.39c-0.17,0-0.34-0.01-0.51-0.04s-0.33-0.06-0.49-0.1v-0.56
					h0.03c0.09,0.04,0.23,0.08,0.43,0.13s0.39,0.08,0.59,0.08c0.19,0,0.34-0.02,0.47-0.07s0.22-0.11,0.29-0.19
					c0.07-0.08,0.12-0.17,0.15-0.28s0.04-0.23,0.04-0.36v-0.3c-0.17,0.13-0.32,0.23-0.48,0.3s-0.34,0.1-0.58,0.1
					c-0.39,0-0.7-0.14-0.93-0.42s-0.34-0.68-0.34-1.19c0-0.28,0.04-0.52,0.12-0.73s0.19-0.38,0.32-0.53
					c0.13-0.14,0.28-0.25,0.46-0.32s0.36-0.12,0.54-0.12c0.19,0,0.35,0.02,0.48,0.06s0.26,0.1,0.41,0.17l0.04-0.14h0.52V52.71z
					 M231.1,52.18V50.4c-0.15-0.07-0.28-0.11-0.41-0.14s-0.25-0.04-0.38-0.04c-0.3,0-0.54,0.1-0.71,0.3s-0.26,0.5-0.26,0.88
					c0,0.37,0.06,0.65,0.19,0.83s0.34,0.28,0.64,0.28c0.16,0,0.32-0.03,0.48-0.09S230.97,52.28,231.1,52.18z"/>
				<path d="M233.33,49.26h-0.62v-0.57h0.62V49.26z M233.29,53.08h-0.55v-3.27h0.55V53.08z"/>
				<path d="M237.12,53.08h-0.55v-1.86c0-0.15-0.01-0.29-0.03-0.42s-0.05-0.23-0.1-0.31c-0.05-0.08-0.12-0.14-0.21-0.18
					s-0.21-0.06-0.36-0.06c-0.15,0-0.31,0.04-0.47,0.11s-0.32,0.17-0.47,0.28v2.44h-0.55v-3.27h0.55v0.36
					c0.17-0.14,0.35-0.25,0.53-0.33s0.37-0.12,0.57-0.12c0.35,0,0.62,0.11,0.81,0.32s0.28,0.52,0.28,0.92V53.08z"/>
				<path d="M240.83,52.71c0,0.55-0.13,0.96-0.38,1.22s-0.64,0.39-1.16,0.39c-0.17,0-0.34-0.01-0.51-0.04s-0.33-0.06-0.49-0.1v-0.56
					h0.03c0.09,0.04,0.23,0.08,0.43,0.13s0.39,0.08,0.59,0.08c0.19,0,0.34-0.02,0.47-0.07s0.22-0.11,0.29-0.19
					c0.07-0.08,0.12-0.17,0.15-0.28s0.04-0.23,0.04-0.36v-0.3c-0.17,0.13-0.32,0.23-0.48,0.3s-0.34,0.1-0.58,0.1
					c-0.39,0-0.7-0.14-0.93-0.42s-0.34-0.68-0.34-1.19c0-0.28,0.04-0.52,0.12-0.73s0.19-0.38,0.32-0.53
					c0.13-0.14,0.28-0.25,0.46-0.32s0.36-0.12,0.54-0.12c0.19,0,0.35,0.02,0.48,0.06s0.26,0.1,0.41,0.17l0.04-0.14h0.52V52.71z
					 M240.28,52.18V50.4c-0.15-0.07-0.28-0.11-0.41-0.14s-0.25-0.04-0.38-0.04c-0.3,0-0.54,0.1-0.71,0.3s-0.26,0.5-0.26,0.88
					c0,0.37,0.06,0.65,0.19,0.83s0.34,0.28,0.64,0.28c0.16,0,0.32-0.03,0.48-0.09S240.15,52.28,240.28,52.18z"/>
			</g>
		</g>
		<g>
			<g>
				<path d="M254.82,49.48h-0.55v-0.34c-0.16,0.14-0.32,0.24-0.5,0.32s-0.36,0.11-0.56,0.11c-0.39,0-0.7-0.15-0.93-0.45
					s-0.34-0.72-0.34-1.25c0-0.28,0.04-0.52,0.12-0.74s0.19-0.4,0.32-0.55c0.13-0.15,0.29-0.26,0.46-0.34s0.36-0.12,0.55-0.12
					c0.17,0,0.32,0.02,0.46,0.05s0.27,0.09,0.42,0.17v-1.42h0.55V49.48z M254.27,48.67V46.8c-0.15-0.07-0.28-0.11-0.4-0.14
					s-0.25-0.04-0.38-0.04c-0.31,0-0.55,0.11-0.72,0.32s-0.26,0.52-0.26,0.91c0,0.39,0.07,0.68,0.2,0.89s0.35,0.3,0.64,0.3
					c0.16,0,0.31-0.03,0.47-0.1S254.13,48.78,254.27,48.67z"/>
				<path d="M258.44,49.48h-0.55v-0.35c-0.05,0.03-0.12,0.08-0.2,0.14s-0.16,0.11-0.24,0.14c-0.09,0.04-0.2,0.08-0.32,0.11
					s-0.26,0.04-0.42,0.04c-0.29,0-0.54-0.1-0.75-0.29c-0.21-0.2-0.31-0.44-0.31-0.75c0-0.25,0.05-0.45,0.16-0.6
					s0.26-0.27,0.46-0.36c0.2-0.09,0.44-0.15,0.72-0.18s0.58-0.05,0.9-0.07v-0.08c0-0.12-0.02-0.23-0.07-0.31s-0.11-0.15-0.19-0.19
					c-0.08-0.04-0.17-0.08-0.28-0.09s-0.22-0.02-0.34-0.02c-0.14,0-0.31,0.02-0.48,0.06s-0.36,0.09-0.55,0.17h-0.03v-0.56
					c0.11-0.03,0.26-0.06,0.47-0.1s0.4-0.05,0.6-0.05c0.23,0,0.43,0.02,0.6,0.06s0.32,0.1,0.44,0.19c0.12,0.09,0.22,0.21,0.28,0.35
					s0.1,0.32,0.1,0.53V49.48z M257.9,48.67v-0.91c-0.17,0.01-0.37,0.02-0.59,0.04s-0.41,0.05-0.54,0.08
					c-0.16,0.04-0.29,0.12-0.38,0.21s-0.15,0.22-0.15,0.39c0,0.19,0.06,0.33,0.17,0.42s0.29,0.14,0.52,0.14
					c0.19,0,0.37-0.04,0.53-0.11S257.76,48.78,257.9,48.67z"/>
				<path d="M264.28,49.48h-0.55v-1.86c0-0.14-0.01-0.28-0.02-0.41s-0.04-0.24-0.08-0.31c-0.04-0.08-0.11-0.15-0.19-0.19
					s-0.21-0.06-0.36-0.06c-0.15,0-0.31,0.04-0.46,0.12s-0.31,0.17-0.46,0.29c0.01,0.04,0.01,0.1,0.01,0.16s0.01,0.12,0.01,0.18
					v2.09h-0.55v-1.86c0-0.14-0.01-0.28-0.02-0.41s-0.04-0.23-0.08-0.31c-0.04-0.08-0.11-0.15-0.19-0.19s-0.21-0.06-0.36-0.06
					c-0.15,0-0.3,0.04-0.45,0.11s-0.3,0.17-0.45,0.28v2.44h-0.55v-3.27h0.55v0.36c0.17-0.14,0.34-0.25,0.51-0.33
					s0.35-0.12,0.55-0.12c0.22,0,0.41,0.05,0.57,0.14s0.27,0.22,0.35,0.39c0.22-0.19,0.43-0.32,0.61-0.41s0.38-0.12,0.59-0.12
					c0.36,0,0.62,0.11,0.79,0.33s0.26,0.52,0.26,0.91V49.48z"/>
				<path d="M267.88,49.48h-0.55v-0.35c-0.05,0.03-0.12,0.08-0.2,0.14s-0.16,0.11-0.24,0.14c-0.09,0.04-0.2,0.08-0.32,0.11
					s-0.26,0.04-0.42,0.04c-0.29,0-0.54-0.1-0.75-0.29s-0.31-0.44-0.31-0.75c0-0.25,0.05-0.45,0.16-0.6s0.26-0.27,0.46-0.36
					c0.2-0.09,0.44-0.15,0.72-0.18s0.58-0.05,0.9-0.07v-0.08c0-0.12-0.02-0.23-0.07-0.31s-0.11-0.15-0.19-0.19
					c-0.08-0.04-0.17-0.08-0.28-0.09s-0.22-0.02-0.34-0.02c-0.14,0-0.31,0.02-0.48,0.06s-0.36,0.09-0.55,0.17h-0.03v-0.56
					c0.11-0.03,0.26-0.06,0.47-0.1s0.4-0.05,0.6-0.05c0.23,0,0.43,0.02,0.6,0.06s0.32,0.1,0.44,0.19c0.12,0.09,0.22,0.21,0.28,0.35
					s0.1,0.32,0.1,0.53V49.48z M267.33,48.67v-0.91c-0.17,0.01-0.37,0.02-0.59,0.04s-0.41,0.05-0.54,0.08
					c-0.16,0.04-0.29,0.12-0.38,0.21s-0.15,0.22-0.15,0.39c0,0.19,0.06,0.33,0.17,0.42s0.29,0.14,0.52,0.14
					c0.19,0,0.37-0.04,0.53-0.11S267.2,48.78,267.33,48.67z"/>
				<path d="M271.6,49.11c0,0.55-0.13,0.96-0.38,1.22s-0.64,0.39-1.16,0.39c-0.17,0-0.34-0.01-0.51-0.04s-0.33-0.06-0.49-0.1v-0.56
					h0.03c0.09,0.04,0.23,0.08,0.43,0.13s0.39,0.08,0.59,0.08c0.19,0,0.34-0.02,0.47-0.07s0.22-0.11,0.29-0.19
					c0.07-0.08,0.12-0.17,0.15-0.28s0.04-0.23,0.04-0.36v-0.3c-0.17,0.13-0.33,0.23-0.48,0.3s-0.34,0.1-0.58,0.1
					c-0.39,0-0.7-0.14-0.93-0.42s-0.34-0.68-0.34-1.19c0-0.28,0.04-0.52,0.12-0.73s0.19-0.38,0.32-0.53
					c0.13-0.14,0.28-0.25,0.46-0.32s0.36-0.12,0.54-0.12c0.19,0,0.35,0.02,0.48,0.06s0.26,0.1,0.41,0.17l0.04-0.14h0.52V49.11z
					 M271.05,48.58V46.8c-0.15-0.07-0.28-0.11-0.41-0.14s-0.25-0.04-0.38-0.04c-0.3,0-0.54,0.1-0.71,0.3s-0.26,0.5-0.26,0.88
					c0,0.37,0.06,0.65,0.19,0.83s0.34,0.28,0.64,0.28c0.16,0,0.32-0.03,0.48-0.09S270.91,48.68,271.05,48.58z"/>
				<path d="M273.27,45.66h-0.62v-0.57h0.62V45.66z M273.24,49.48h-0.55v-3.27h0.55V49.48z"/>
				<path d="M277.06,49.48h-0.55v-1.86c0-0.15-0.01-0.29-0.03-0.42s-0.05-0.24-0.1-0.31c-0.05-0.08-0.12-0.14-0.21-0.18
					s-0.21-0.06-0.36-0.06c-0.15,0-0.31,0.04-0.47,0.11s-0.32,0.17-0.47,0.28v2.44h-0.55v-3.27h0.55v0.36
					c0.17-0.14,0.35-0.25,0.53-0.33s0.37-0.12,0.57-0.12c0.35,0,0.62,0.11,0.81,0.32s0.28,0.52,0.28,0.92V49.48z"/>
				<path d="M280.78,49.11c0,0.55-0.13,0.96-0.38,1.22s-0.64,0.39-1.16,0.39c-0.17,0-0.34-0.01-0.51-0.04s-0.33-0.06-0.49-0.1v-0.56
					h0.03c0.09,0.04,0.23,0.08,0.43,0.13s0.39,0.08,0.59,0.08c0.19,0,0.34-0.02,0.47-0.07s0.22-0.11,0.29-0.19
					c0.07-0.08,0.12-0.17,0.15-0.28s0.04-0.23,0.04-0.36v-0.3c-0.17,0.13-0.33,0.23-0.48,0.3s-0.34,0.1-0.58,0.1
					c-0.39,0-0.7-0.14-0.93-0.42s-0.34-0.68-0.34-1.19c0-0.28,0.04-0.52,0.12-0.73s0.19-0.38,0.32-0.53
					c0.13-0.14,0.28-0.25,0.46-0.32s0.36-0.12,0.54-0.12c0.19,0,0.35,0.02,0.48,0.06s0.26,0.1,0.41,0.17l0.04-0.14h0.52V49.11z
					 M280.23,48.58V46.8c-0.15-0.07-0.28-0.11-0.41-0.14s-0.25-0.04-0.38-0.04c-0.3,0-0.54,0.1-0.71,0.3s-0.26,0.5-0.26,0.88
					c0,0.37,0.06,0.65,0.19,0.83s0.34,0.28,0.64,0.28c0.16,0,0.32-0.03,0.48-0.09S280.09,48.68,280.23,48.58z"/>
			</g>
		</g>
		<g>
			<g>
				<path d="M299.04,45.88h-0.55v-1.86c0-0.15-0.01-0.29-0.03-0.42s-0.05-0.23-0.1-0.31c-0.05-0.08-0.12-0.14-0.21-0.18
					s-0.21-0.06-0.36-0.06c-0.15,0-0.31,0.04-0.47,0.11s-0.32,0.17-0.47,0.28v2.44h-0.55v-4.56h0.55v1.65
					c0.17-0.14,0.35-0.25,0.53-0.33s0.37-0.12,0.57-0.12c0.35,0,0.62,0.11,0.81,0.32s0.28,0.52,0.28,0.92V45.88z"/>
				<path d="M302.84,44.3h-2.41c0,0.2,0.03,0.38,0.09,0.53s0.14,0.27,0.25,0.37c0.1,0.09,0.22,0.16,0.36,0.21s0.29,0.07,0.46,0.07
					c0.22,0,0.45-0.04,0.67-0.13s0.39-0.18,0.48-0.26h0.03v0.6c-0.19,0.08-0.38,0.14-0.57,0.2s-0.4,0.08-0.61,0.08
					c-0.54,0-0.97-0.15-1.27-0.44s-0.46-0.71-0.46-1.25c0-0.54,0.15-0.96,0.44-1.27s0.68-0.47,1.15-0.47c0.44,0,0.78,0.13,1.02,0.39
					s0.36,0.62,0.36,1.1V44.3z M302.3,43.88c0-0.29-0.08-0.51-0.22-0.67s-0.36-0.24-0.65-0.24c-0.29,0-0.53,0.09-0.71,0.26
					s-0.27,0.39-0.3,0.65H302.3z"/>
				<path d="M306.21,45.88h-0.55v-0.35c-0.05,0.03-0.12,0.08-0.2,0.14s-0.16,0.11-0.24,0.14c-0.09,0.04-0.2,0.08-0.32,0.11
					s-0.26,0.05-0.42,0.05c-0.29,0-0.54-0.1-0.75-0.29s-0.31-0.44-0.31-0.75c0-0.25,0.05-0.45,0.16-0.6s0.26-0.27,0.46-0.36
					c0.2-0.09,0.44-0.15,0.72-0.18s0.58-0.05,0.9-0.07v-0.08c0-0.12-0.02-0.23-0.07-0.31s-0.11-0.15-0.19-0.19
					c-0.08-0.04-0.17-0.08-0.28-0.09s-0.22-0.02-0.34-0.02c-0.14,0-0.31,0.02-0.48,0.06s-0.36,0.09-0.55,0.17h-0.03v-0.56
					c0.11-0.03,0.26-0.06,0.47-0.1s0.4-0.05,0.6-0.05c0.23,0,0.43,0.02,0.6,0.06s0.32,0.1,0.44,0.2c0.12,0.09,0.22,0.21,0.28,0.35
					s0.1,0.32,0.1,0.53V45.88z M305.67,45.07v-0.91c-0.17,0.01-0.37,0.02-0.59,0.04s-0.41,0.05-0.54,0.08
					c-0.16,0.04-0.29,0.11-0.38,0.21S304,44.73,304,44.89c0,0.19,0.06,0.33,0.17,0.42s0.29,0.14,0.52,0.14
					c0.19,0,0.37-0.04,0.53-0.11S305.53,45.18,305.67,45.07z"/>
				<path d="M310.06,42.61l-1.32,3.27h-0.55l-1.32-3.27h0.6l1.01,2.6l1-2.6H310.06z"/>
				<path d="M311.37,42.06h-0.62v-0.57h0.62V42.06z M311.34,45.88h-0.55v-3.27h0.55V45.88z"/>
				<path d="M312.98,45.88h-0.55v-4.56h0.55V45.88z"/>
				<path d="M316.9,42.61l-1.91,4.48h-0.59l0.61-1.37l-1.3-3.11h0.6l1,2.43l1.01-2.43H316.9z"/>
				<path d="M294.77,53.08h-0.55v-0.34c-0.16,0.14-0.32,0.24-0.5,0.32s-0.36,0.11-0.56,0.11c-0.39,0-0.7-0.15-0.93-0.45
					s-0.34-0.72-0.34-1.25c0-0.28,0.04-0.52,0.12-0.74s0.19-0.4,0.32-0.55c0.13-0.15,0.29-0.26,0.46-0.34s0.36-0.12,0.55-0.12
					c0.17,0,0.32,0.02,0.46,0.05s0.27,0.09,0.42,0.17v-1.42h0.55V53.08z M294.21,52.28V50.4c-0.15-0.07-0.28-0.11-0.4-0.14
					s-0.25-0.04-0.38-0.04c-0.31,0-0.55,0.11-0.72,0.32s-0.26,0.52-0.26,0.91c0,0.39,0.07,0.68,0.2,0.89s0.35,0.3,0.64,0.3
					c0.16,0,0.31-0.04,0.47-0.1S294.08,52.38,294.21,52.28z"/>
				<path d="M298.39,53.08h-0.55v-0.35c-0.05,0.03-0.12,0.08-0.2,0.14s-0.16,0.11-0.24,0.14c-0.09,0.04-0.2,0.08-0.32,0.11
					s-0.26,0.05-0.42,0.05c-0.29,0-0.54-0.1-0.75-0.29s-0.31-0.44-0.31-0.75c0-0.25,0.05-0.45,0.16-0.6s0.26-0.27,0.46-0.36
					c0.2-0.09,0.44-0.15,0.72-0.18s0.58-0.05,0.9-0.07v-0.08c0-0.12-0.02-0.23-0.07-0.31s-0.11-0.15-0.19-0.19
					c-0.08-0.04-0.17-0.08-0.28-0.09s-0.22-0.02-0.34-0.02c-0.14,0-0.31,0.02-0.48,0.06s-0.36,0.09-0.55,0.17h-0.03v-0.56
					c0.11-0.03,0.26-0.06,0.47-0.1s0.4-0.05,0.6-0.05c0.23,0,0.43,0.02,0.6,0.06s0.32,0.1,0.44,0.2c0.12,0.09,0.22,0.21,0.28,0.35
					s0.1,0.32,0.1,0.53V53.08z M297.84,52.28v-0.91c-0.17,0.01-0.37,0.02-0.59,0.04s-0.41,0.05-0.54,0.08
					c-0.16,0.04-0.29,0.11-0.38,0.21s-0.15,0.23-0.15,0.39c0,0.19,0.06,0.33,0.17,0.42s0.29,0.14,0.52,0.14
					c0.19,0,0.37-0.04,0.53-0.11S297.71,52.38,297.84,52.28z"/>
				<path d="M304.23,53.08h-0.55v-1.86c0-0.14-0.01-0.28-0.02-0.41s-0.04-0.24-0.08-0.31c-0.04-0.08-0.11-0.15-0.19-0.19
					s-0.21-0.06-0.36-0.06c-0.15,0-0.31,0.04-0.46,0.12s-0.31,0.18-0.46,0.29c0.01,0.04,0.01,0.1,0.01,0.16s0.01,0.12,0.01,0.18
					v2.09h-0.55v-1.86c0-0.14-0.01-0.28-0.02-0.41s-0.04-0.23-0.08-0.31c-0.04-0.08-0.11-0.15-0.19-0.19s-0.21-0.06-0.36-0.06
					c-0.15,0-0.3,0.04-0.45,0.11s-0.3,0.17-0.45,0.28v2.44h-0.55v-3.27H300v0.36c0.17-0.14,0.34-0.25,0.51-0.33s0.35-0.12,0.55-0.12
					c0.22,0,0.41,0.05,0.57,0.14s0.27,0.22,0.35,0.39c0.22-0.19,0.43-0.32,0.61-0.41s0.38-0.12,0.59-0.12
					c0.36,0,0.62,0.11,0.79,0.33s0.26,0.52,0.26,0.91V53.08z"/>
				<path d="M307.83,53.08h-0.55v-0.35c-0.05,0.03-0.12,0.08-0.2,0.14s-0.16,0.11-0.24,0.14c-0.09,0.04-0.2,0.08-0.32,0.11
					s-0.26,0.05-0.42,0.05c-0.29,0-0.54-0.1-0.75-0.29s-0.31-0.44-0.31-0.75c0-0.25,0.05-0.45,0.16-0.6s0.26-0.27,0.46-0.36
					c0.2-0.09,0.44-0.15,0.72-0.18s0.58-0.05,0.9-0.07v-0.08c0-0.12-0.02-0.23-0.07-0.31s-0.11-0.15-0.19-0.19
					c-0.08-0.04-0.17-0.08-0.28-0.09s-0.22-0.02-0.34-0.02c-0.14,0-0.31,0.02-0.48,0.06s-0.36,0.09-0.55,0.17h-0.03v-0.56
					c0.11-0.03,0.26-0.06,0.47-0.1s0.4-0.05,0.6-0.05c0.23,0,0.43,0.02,0.6,0.06s0.32,0.1,0.44,0.2c0.12,0.09,0.22,0.21,0.28,0.35
					s0.1,0.32,0.1,0.53V53.08z M307.28,52.28v-0.91c-0.17,0.01-0.37,0.02-0.59,0.04s-0.41,0.05-0.54,0.08
					c-0.16,0.04-0.29,0.11-0.38,0.21s-0.15,0.23-0.15,0.39c0,0.19,0.06,0.33,0.17,0.42s0.29,0.14,0.52,0.14
					c0.19,0,0.37-0.04,0.53-0.11S307.15,52.38,307.28,52.28z"/>
				<path d="M311.55,52.71c0,0.55-0.13,0.96-0.38,1.22s-0.64,0.39-1.16,0.39c-0.17,0-0.34-0.01-0.51-0.04s-0.33-0.06-0.49-0.1v-0.56
					h0.03c0.09,0.04,0.23,0.08,0.43,0.13s0.39,0.08,0.59,0.08c0.19,0,0.34-0.02,0.47-0.07s0.22-0.11,0.29-0.19
					c0.07-0.08,0.12-0.17,0.15-0.28s0.04-0.23,0.04-0.36v-0.3c-0.17,0.13-0.33,0.23-0.48,0.3s-0.34,0.1-0.58,0.1
					c-0.39,0-0.7-0.14-0.93-0.42s-0.34-0.68-0.34-1.19c0-0.28,0.04-0.52,0.12-0.73s0.19-0.38,0.32-0.53
					c0.13-0.14,0.28-0.25,0.46-0.32s0.36-0.12,0.54-0.12c0.19,0,0.35,0.02,0.48,0.06s0.26,0.1,0.41,0.17l0.04-0.14h0.52V52.71z
					 M311,52.18V50.4c-0.15-0.07-0.28-0.11-0.41-0.14s-0.25-0.04-0.38-0.04c-0.3,0-0.54,0.1-0.71,0.3s-0.26,0.5-0.26,0.88
					c0,0.37,0.06,0.65,0.19,0.83s0.34,0.28,0.64,0.28c0.16,0,0.32-0.03,0.48-0.09S310.86,52.28,311,52.18z"/>
				<path d="M313.22,49.26h-0.62v-0.57h0.62V49.26z M313.19,53.08h-0.55v-3.27h0.55V53.08z"/>
				<path d="M317.01,53.08h-0.55v-1.86c0-0.15-0.01-0.29-0.03-0.42s-0.05-0.23-0.1-0.31c-0.05-0.08-0.12-0.14-0.21-0.18
					s-0.21-0.06-0.36-0.06c-0.15,0-0.31,0.04-0.47,0.11s-0.32,0.17-0.47,0.28v2.44h-0.55v-3.27h0.55v0.36
					c0.17-0.14,0.35-0.25,0.53-0.33s0.37-0.12,0.57-0.12c0.35,0,0.62,0.11,0.81,0.32s0.28,0.52,0.28,0.92V53.08z"/>
				<path d="M320.73,52.71c0,0.55-0.13,0.96-0.38,1.22s-0.64,0.39-1.16,0.39c-0.17,0-0.34-0.01-0.51-0.04s-0.33-0.06-0.49-0.1v-0.56
					h0.03c0.09,0.04,0.23,0.08,0.43,0.13s0.39,0.08,0.59,0.08c0.19,0,0.34-0.02,0.47-0.07s0.22-0.11,0.29-0.19
					c0.07-0.08,0.12-0.17,0.15-0.28s0.04-0.23,0.04-0.36v-0.3c-0.17,0.13-0.33,0.23-0.48,0.3s-0.34,0.1-0.58,0.1
					c-0.39,0-0.7-0.14-0.93-0.42s-0.34-0.68-0.34-1.19c0-0.28,0.04-0.52,0.12-0.73s0.19-0.38,0.32-0.53
					c0.13-0.14,0.28-0.25,0.46-0.32s0.36-0.12,0.54-0.12c0.19,0,0.35,0.02,0.48,0.06s0.26,0.1,0.41,0.17l0.04-0.14h0.52V52.71z
					 M320.18,52.18V50.4c-0.15-0.07-0.28-0.11-0.41-0.14s-0.25-0.04-0.38-0.04c-0.3,0-0.54,0.1-0.71,0.3s-0.26,0.5-0.26,0.88
					c0,0.37,0.06,0.65,0.19,0.83s0.34,0.28,0.64,0.28c0.16,0,0.32-0.03,0.48-0.09S320.04,52.28,320.18,52.18z"/>
			</g>
		</g>
		<g>
			<g>
				<path d="M331.38,49.48h-0.55v-0.34c-0.16,0.14-0.32,0.24-0.5,0.32s-0.36,0.11-0.56,0.11c-0.39,0-0.7-0.15-0.93-0.45
					s-0.34-0.72-0.34-1.25c0-0.28,0.04-0.52,0.12-0.74s0.19-0.4,0.32-0.55c0.13-0.15,0.29-0.26,0.46-0.34s0.36-0.12,0.55-0.12
					c0.17,0,0.32,0.02,0.46,0.05s0.27,0.09,0.42,0.17v-1.42h0.55V49.48z M330.83,48.67V46.8c-0.15-0.07-0.28-0.11-0.4-0.14
					s-0.25-0.04-0.38-0.04c-0.31,0-0.55,0.11-0.72,0.32s-0.26,0.52-0.26,0.91c0,0.39,0.07,0.68,0.2,0.89s0.35,0.3,0.64,0.3
					c0.16,0,0.31-0.03,0.47-0.1S330.69,48.78,330.83,48.67z"/>
				<path d="M335.2,47.9h-2.41c0,0.2,0.03,0.38,0.09,0.53s0.14,0.27,0.25,0.37c0.1,0.09,0.22,0.16,0.36,0.21s0.29,0.07,0.46,0.07
					c0.22,0,0.45-0.04,0.67-0.13s0.39-0.18,0.48-0.26h0.03v0.6c-0.19,0.08-0.38,0.14-0.57,0.2s-0.4,0.08-0.61,0.08
					c-0.54,0-0.97-0.15-1.27-0.44s-0.46-0.71-0.46-1.25c0-0.54,0.15-0.96,0.44-1.27s0.68-0.47,1.15-0.47c0.44,0,0.78,0.13,1.02,0.39
					s0.36,0.62,0.36,1.1V47.9z M334.67,47.48c0-0.29-0.07-0.51-0.22-0.67s-0.36-0.24-0.66-0.24c-0.29,0-0.53,0.09-0.7,0.26
					s-0.27,0.39-0.3,0.65H334.67z"/>
				<path d="M338.38,48.54c0,0.3-0.12,0.54-0.37,0.74s-0.58,0.29-1.01,0.29c-0.24,0-0.46-0.03-0.67-0.09s-0.37-0.12-0.51-0.19v-0.62
					h0.03c0.17,0.13,0.37,0.24,0.58,0.31s0.42,0.12,0.61,0.12c0.24,0,0.43-0.04,0.57-0.12s0.21-0.2,0.21-0.37
					c0-0.13-0.04-0.23-0.11-0.29s-0.22-0.12-0.43-0.17c-0.08-0.02-0.18-0.04-0.31-0.06s-0.24-0.05-0.34-0.08
					c-0.29-0.08-0.49-0.19-0.61-0.33s-0.18-0.33-0.18-0.54c0-0.13,0.03-0.26,0.08-0.38s0.14-0.23,0.25-0.32
					c0.11-0.09,0.25-0.16,0.42-0.22s0.36-0.08,0.57-0.08c0.2,0,0.39,0.02,0.59,0.07s0.37,0.11,0.5,0.17v0.59h-0.03
					c-0.14-0.1-0.31-0.19-0.51-0.26s-0.4-0.11-0.59-0.11c-0.2,0-0.37,0.04-0.51,0.12s-0.21,0.19-0.21,0.34
					c0,0.13,0.04,0.24,0.13,0.3c0.08,0.07,0.21,0.12,0.4,0.17c0.1,0.02,0.22,0.05,0.34,0.07s0.23,0.04,0.31,0.06
					c0.26,0.06,0.45,0.16,0.59,0.3C338.31,48.11,338.38,48.3,338.38,48.54z"/>
				<path d="M340.86,49.45c-0.1,0.03-0.22,0.05-0.34,0.07s-0.23,0.03-0.33,0.03c-0.33,0-0.59-0.09-0.76-0.27s-0.26-0.47-0.26-0.86
					v-1.74h-0.37v-0.46h0.37v-0.94h0.55v0.94h1.14v0.46h-1.14v1.49c0,0.17,0,0.31,0.01,0.4s0.04,0.19,0.08,0.27
					c0.04,0.08,0.1,0.14,0.18,0.17s0.19,0.05,0.34,0.05c0.09,0,0.18-0.01,0.28-0.04s0.17-0.05,0.21-0.07h0.03V49.45z"/>
				<path d="M343.57,46.81h-0.03c-0.08-0.02-0.16-0.03-0.24-0.04s-0.17-0.01-0.27-0.01c-0.17,0-0.33,0.04-0.49,0.11
					s-0.31,0.17-0.46,0.29v2.32h-0.55v-3.27h0.55v0.48c0.22-0.18,0.41-0.3,0.58-0.37s0.34-0.11,0.51-0.11c0.1,0,0.17,0,0.21,0.01
					s0.11,0.01,0.19,0.03V46.81z"/>
				<path d="M346.8,49.48h-0.55v-0.36c-0.19,0.15-0.36,0.26-0.53,0.34s-0.36,0.12-0.56,0.12c-0.34,0-0.61-0.1-0.8-0.31
					s-0.29-0.52-0.29-0.92v-2.12h0.55v1.86c0,0.17,0.01,0.31,0.02,0.43s0.05,0.22,0.1,0.3c0.05,0.09,0.12,0.15,0.21,0.19
					s0.21,0.06,0.37,0.06c0.14,0,0.3-0.04,0.47-0.11s0.33-0.17,0.47-0.28v-2.44h0.55V49.48z"/>
				<path d="M350.31,49.28c-0.18,0.09-0.36,0.16-0.52,0.21s-0.34,0.07-0.53,0.07c-0.24,0-0.45-0.03-0.65-0.1s-0.37-0.17-0.51-0.32
					c-0.14-0.14-0.25-0.32-0.33-0.53s-0.12-0.47-0.12-0.75c0-0.54,0.15-0.96,0.44-1.26s0.68-0.46,1.16-0.46
					c0.19,0,0.37,0.03,0.55,0.08s0.35,0.12,0.5,0.19v0.61h-0.03c-0.17-0.13-0.34-0.23-0.52-0.3s-0.35-0.11-0.52-0.11
					c-0.31,0-0.56,0.11-0.74,0.32s-0.27,0.52-0.27,0.92c0,0.39,0.09,0.7,0.27,0.91s0.42,0.32,0.75,0.32c0.11,0,0.22-0.01,0.34-0.04
					s0.22-0.07,0.31-0.11c0.08-0.04,0.16-0.08,0.23-0.13s0.13-0.09,0.17-0.12h0.03V49.28z"/>
				<path d="M352.71,49.45c-0.1,0.03-0.22,0.05-0.34,0.07s-0.23,0.03-0.33,0.03c-0.33,0-0.59-0.09-0.76-0.27s-0.26-0.47-0.26-0.86
					v-1.74h-0.37v-0.46h0.37v-0.94h0.55v0.94h1.14v0.46h-1.14v1.49c0,0.17,0,0.31,0.01,0.4s0.04,0.19,0.08,0.27
					c0.04,0.08,0.1,0.14,0.18,0.17s0.19,0.05,0.34,0.05c0.09,0,0.18-0.01,0.28-0.04s0.17-0.05,0.21-0.07h0.03V49.45z"/>
				<path d="M353.97,45.66h-0.62v-0.57h0.62V45.66z M353.93,49.48h-0.55v-3.27h0.55V49.48z"/>
				<path d="M357.85,46.21l-1.32,3.27h-0.55l-1.32-3.27h0.6l1.01,2.6l1-2.6H357.85z"/>
				<path d="M361.26,47.9h-2.41c0,0.2,0.03,0.38,0.09,0.53s0.14,0.27,0.25,0.37c0.1,0.09,0.22,0.16,0.36,0.21s0.29,0.07,0.46,0.07
					c0.22,0,0.45-0.04,0.67-0.13s0.39-0.18,0.48-0.26h0.03v0.6c-0.19,0.08-0.38,0.14-0.57,0.2s-0.4,0.08-0.61,0.08
					c-0.54,0-0.97-0.15-1.27-0.44s-0.46-0.71-0.46-1.25c0-0.54,0.15-0.96,0.44-1.27s0.68-0.47,1.15-0.47c0.44,0,0.78,0.13,1.02,0.39
					s0.36,0.62,0.36,1.1V47.9z M360.72,47.48c0-0.29-0.07-0.51-0.22-0.67s-0.36-0.24-0.66-0.24c-0.29,0-0.53,0.09-0.7,0.26
					s-0.27,0.39-0.3,0.65H360.72z"/>
			</g>
		</g>
		<g>
			<path d="M66.82,28.1h-1.72v-0.45h0.57v-3.47h-0.57v-0.45h1.72v0.45h-0.57v3.47h0.57V28.1z"/>
			<path d="M69.34,28.1h-1.72v-0.45h0.57v-3.47h-0.57v-0.45h1.72v0.45h-0.57v3.47h0.57V28.1z"/>
		</g>
		<g>
			<path d="M105.11,28.1h-1.72v-0.45h0.57v-3.47h-0.57v-0.45h1.72v0.45h-0.57v3.47h0.57V28.1z"/>
			<path d="M107.64,28.1h-1.72v-0.45h0.57v-3.47h-0.57v-0.45h1.72v0.45h-0.57v3.47h0.57V28.1z"/>
			<path d="M110.16,28.1h-1.72v-0.45h0.57v-3.47h-0.57v-0.45h1.72v0.45h-0.57v3.47h0.57V28.1z"/>
		</g>
		<g>
			<path d="M145.47,28.1h-1.72v-0.45h0.57v-3.47h-0.57v-0.45h1.72v0.45h-0.57v3.47h0.57V28.1z"/>
			<path d="M149.9,23.74l-1.59,4.36h-0.77l-1.59-4.36h0.62l1.37,3.84l1.37-3.84H149.9z"/>
		</g>
		<g>
			<path d="M188.57,23.74l-1.59,4.36h-0.77l-1.59-4.36h0.62l1.37,3.84l1.37-3.84H188.57z"/>
		</g>
		<g>
			<path d="M227.24,23.74l-1.59,4.36h-0.77l-1.59-4.36h0.62l1.37,3.84l1.37-3.84H227.24z"/>
			<path d="M229.44,28.1h-1.72v-0.45h0.57v-3.47h-0.57v-0.45h1.72v0.45h-0.57v3.47h0.57V28.1z"/>
		</g>
		<g>
			<path d="M265.92,23.74l-1.59,4.36h-0.77l-1.59-4.36h0.62l1.37,3.84l1.37-3.84H265.92z"/>
			<path d="M268.12,28.1h-1.72v-0.45h0.57v-3.47h-0.57v-0.45h1.72v0.45h-0.57v3.47h0.57V28.1z"/>
			<path d="M270.65,28.1h-1.72v-0.45h0.57v-3.47h-0.57v-0.45h1.72v0.45h-0.57v3.47h0.57V28.1z"/>
		</g>
		<g>
			<path d="M304.61,23.74l-1.59,4.36h-0.77l-1.59-4.36h0.62l1.37,3.84l1.37-3.84H304.61z"/>
			<path d="M306.81,28.1h-1.72v-0.45h0.57v-3.47h-0.57v-0.45h1.72v0.45h-0.57v3.47h0.57V28.1z"/>
			<path d="M309.33,28.1h-1.72v-0.45h0.57v-3.47h-0.57v-0.45h1.72v0.45h-0.57v3.47h0.57V28.1z"/>
			<path d="M311.86,28.1h-1.72v-0.45h0.57v-3.47h-0.57v-0.45h1.72v0.45h-0.57v3.47h0.57V28.1z"/>
		</g>
		<g>
			<path d="M343.67,28.1h-1.72v-0.45h0.57v-3.47h-0.57v-0.45h1.72v0.45h-0.57v3.47h0.57V28.1z"/>
			<path d="M347.99,23.74l-1.51,2.16l1.5,2.21h-0.67l-1.19-1.8l-1.22,1.8h-0.63l1.52-2.18l-1.49-2.18h0.67l1.17,1.77l1.2-1.77
				H347.99z"/>
		</g>
	</g>
</g>
<g id="Deutsch">
</g>
</svg>
