<?xml version="1.0" encoding="utf-8"?>
<!-- Generator: Adobe Illustrator 27.0.1, SVG Export Plug-In . SVG Version: 6.00 Build 0)  -->
<svg version="1.1" xmlns="http://www.w3.org/2000/svg" xmlns:xlink="http://www.w3.org/1999/xlink" x="0px" y="0px"
	 viewBox="0 0 363.07 61.06" style="enable-background:new 0 0 363.07 61.06;" xml:space="preserve">
<style type="text/css">
	
		.st0{clip-path:url(#SVGID_00000143601819770031881540000013949819350597642652_);fill:url(#SVGID_00000072977260738989302050000015167542235114555298_);}
	.st1{fill:#D3D3D3;}
	.st2{fill:none;stroke:#FFFFFF;stroke-width:0.5;stroke-miterlimit:10;}
	
		.st3{clip-path:url(#SVGID_00000102534950916766844990000004314688744843281577_);fill:url(#SVGID_00000117668129098682412390000009806448975827375233_);}
	
		.st4{clip-path:url(#SVGID_00000061464575354743637410000017420174203686708906_);fill:url(#SVGID_00000072263276492346376840000002730624839399450034_);}
	
		.st5{clip-path:url(#SVGID_00000075135758639472327950000014549005185110924435_);fill:url(#SVGID_00000073685561865578272050000004830153028892763317_);}
</style>
<g id="Hilfslinien">
</g>
<g id="Italienisch">
	<g>
		<defs>
			<rect id="SVGID_1_" x="47.92" width="315.15" height="18.61"/>
		</defs>
		<clipPath id="SVGID_00000171721644715388066110000001886827416719334046_">
			<use xlink:href="#SVGID_1_"  style="overflow:visible;"/>
		</clipPath>
		
			<linearGradient id="SVGID_00000050657783812966940290000008460141346063438467_" gradientUnits="userSpaceOnUse" x1="794.5431" y1="523.2549" x2="2015.76" y2="523.2549" gradientTransform="matrix(0.2581 0 0 1.1175 -157.1173 -575.4319)">
			<stop  offset="0" style="stop-color:#B2B1D8"/>
			<stop  offset="0.1192" style="stop-color:#B2B1D8"/>
			<stop  offset="0.162" style="stop-color:#6DCAD2"/>
			<stop  offset="0.2095" style="stop-color:#7DC46A"/>
			<stop  offset="0.2893" style="stop-color:#AACB3B"/>
			<stop  offset="0.339" style="stop-color:#D3DE28"/>
			<stop  offset="0.4119" style="stop-color:#F5EB10"/>
			<stop  offset="0.4655" style="stop-color:#FFCD2B"/>
			<stop  offset="0.5365" style="stop-color:#F2882D"/>
			<stop  offset="0.5898" style="stop-color:#F58020"/>
			<stop  offset="0.6661" style="stop-color:#EA4624"/>
			<stop  offset="0.7217" style="stop-color:#E01F26"/>
			<stop  offset="0.7931" style="stop-color:#E01F26"/>
			<stop  offset="0.8446" style="stop-color:#6F0F10"/>
			<stop  offset="0.8865" style="stop-color:#431211"/>
		</linearGradient>
		
			<rect x="47.92" style="clip-path:url(#SVGID_00000171721644715388066110000001886827416719334046_);fill:url(#SVGID_00000050657783812966940290000008460141346063438467_);" width="315.15" height="18.61"/>
	</g>
	<rect x="47.95" y="18.61" class="st1" width="315.11" height="15.77"/>
	<g>
		<line class="st2" x1="326.4" y1="0" x2="326.4" y2="18.61"/>
		<line class="st2" x1="86.74" y1="0" x2="86.74" y2="18.61"/>
		<line class="st2" x1="126.68" y1="0" x2="126.68" y2="18.61"/>
		<line class="st2" x1="166.63" y1="0" x2="166.63" y2="18.61"/>
		<line class="st2" x1="246.51" y1="0" x2="246.51" y2="18.61"/>
		<line class="st2" x1="286.46" y1="0" x2="286.46" y2="18.61"/>
		<line class="st2" x1="206.57" y1="0" x2="206.57" y2="18.61"/>
	</g>
	<rect x="47.95" y="34.38" class="st1" width="315.11" height="26.68"/>
	<g>
		<line class="st2" x1="326.4" y1="18.61" x2="326.4" y2="61.06"/>
		<line class="st2" x1="86.74" y1="18.61" x2="86.74" y2="61.06"/>
		<line class="st2" x1="126.68" y1="18.61" x2="126.68" y2="61.06"/>
		<line class="st2" x1="166.62" y1="18.61" x2="166.62" y2="61.06"/>
		<line class="st2" x1="246.51" y1="18.61" x2="246.51" y2="61.06"/>
		<line class="st2" x1="286.46" y1="18.61" x2="286.46" y2="61.06"/>
		<line class="st2" x1="206.57" y1="18.61" x2="206.57" y2="61.06"/>
	</g>
	<line class="st2" x1="363.07" y1="18.61" x2="47.92" y2="18.61"/>
	<line class="st2" x1="363.07" y1="34.38" x2="47.94" y2="34.38"/>
	<g id="Vektorisierter_Text_00000123400202463270213300000000810741739005027511_">
		<g>
			<g>
				<path d="M19.06,28.1h-1.72v-0.45h0.57v-3.47h-0.57v-0.45h1.72v0.45h-0.57v3.47h0.57V28.1z"/>
				<path d="M22.74,28.1h-0.55v-1.86c0-0.15-0.01-0.29-0.03-0.42s-0.05-0.24-0.1-0.31c-0.05-0.08-0.12-0.14-0.21-0.18
					s-0.21-0.06-0.36-0.06c-0.15,0-0.31,0.04-0.47,0.11s-0.32,0.17-0.47,0.28v2.44H20v-3.27h0.55v0.36
					c0.17-0.14,0.35-0.25,0.53-0.33s0.37-0.12,0.57-0.12c0.35,0,0.62,0.11,0.81,0.32s0.28,0.52,0.28,0.92V28.1z"/>
				<path d="M25.5,28.07c-0.1,0.03-0.22,0.05-0.34,0.07s-0.23,0.03-0.33,0.03c-0.33,0-0.59-0.09-0.76-0.27s-0.26-0.47-0.26-0.86
					v-1.74h-0.37v-0.46h0.37v-0.94h0.55v0.94h1.14v0.46h-1.14v1.49c0,0.17,0,0.31,0.01,0.4s0.04,0.19,0.08,0.27
					c0.04,0.08,0.1,0.14,0.18,0.17s0.19,0.05,0.34,0.05c0.09,0,0.18-0.01,0.28-0.04s0.17-0.05,0.21-0.07h0.03V28.07z"/>
				<path d="M28.9,26.52h-2.41c0,0.2,0.03,0.38,0.09,0.53s0.14,0.27,0.25,0.37c0.1,0.09,0.22,0.16,0.36,0.21s0.29,0.07,0.46,0.07
					c0.22,0,0.45-0.04,0.67-0.13s0.39-0.18,0.48-0.26h0.03v0.6c-0.19,0.08-0.38,0.14-0.57,0.2s-0.4,0.08-0.61,0.08
					c-0.54,0-0.97-0.15-1.27-0.44s-0.46-0.71-0.46-1.25c0-0.54,0.15-0.96,0.44-1.27s0.68-0.47,1.15-0.47c0.44,0,0.78,0.13,1.02,0.39
					s0.36,0.62,0.36,1.1V26.52z M28.37,26.1c0-0.29-0.07-0.51-0.22-0.67s-0.36-0.24-0.65-0.24c-0.29,0-0.53,0.09-0.7,0.26
					s-0.27,0.39-0.3,0.65H28.37z"/>
				<path d="M32.47,28.1h-0.55v-1.86c0-0.15-0.01-0.29-0.03-0.42s-0.05-0.24-0.1-0.31c-0.05-0.08-0.12-0.14-0.21-0.18
					s-0.21-0.06-0.36-0.06c-0.15,0-0.31,0.04-0.47,0.11s-0.32,0.17-0.47,0.28v2.44h-0.55v-3.27h0.55v0.36
					c0.17-0.14,0.35-0.25,0.53-0.33s0.37-0.12,0.57-0.12c0.35,0,0.62,0.11,0.81,0.32s0.28,0.52,0.28,0.92V28.1z"/>
				<path d="M35.87,27.16c0,0.3-0.12,0.54-0.37,0.74s-0.58,0.29-1.01,0.29c-0.24,0-0.46-0.03-0.67-0.09s-0.37-0.12-0.51-0.19v-0.62
					h0.03c0.17,0.13,0.37,0.24,0.58,0.31s0.42,0.12,0.61,0.12c0.24,0,0.43-0.04,0.57-0.12s0.21-0.2,0.21-0.37
					c0-0.13-0.04-0.23-0.11-0.29s-0.22-0.12-0.43-0.17c-0.08-0.02-0.18-0.04-0.31-0.06s-0.24-0.05-0.34-0.08
					c-0.29-0.08-0.49-0.19-0.61-0.33s-0.18-0.33-0.18-0.54c0-0.13,0.03-0.26,0.08-0.38s0.14-0.23,0.25-0.32
					c0.11-0.09,0.25-0.16,0.42-0.22s0.36-0.08,0.57-0.08c0.2,0,0.39,0.02,0.59,0.07s0.37,0.11,0.5,0.17v0.59h-0.03
					c-0.14-0.1-0.31-0.19-0.51-0.26s-0.4-0.11-0.59-0.11c-0.2,0-0.37,0.04-0.51,0.12s-0.21,0.19-0.21,0.34
					c0,0.13,0.04,0.24,0.13,0.3c0.08,0.07,0.21,0.12,0.4,0.17c0.1,0.02,0.22,0.05,0.34,0.07s0.23,0.04,0.31,0.06
					c0.26,0.06,0.45,0.16,0.59,0.3C35.8,26.73,35.87,26.92,35.87,27.16z"/>
				<path d="M37.25,24.28h-0.62v-0.57h0.62V24.28z M37.22,28.1h-0.55v-3.27h0.55V28.1z"/>
				<path d="M40.01,28.07c-0.1,0.03-0.22,0.05-0.34,0.07s-0.23,0.03-0.33,0.03c-0.33,0-0.59-0.09-0.76-0.27s-0.26-0.47-0.26-0.86
					v-1.74h-0.37v-0.46h0.37v-0.94h0.55v0.94h1.14v0.46h-1.14v1.49c0,0.17,0,0.31,0.01,0.4s0.04,0.19,0.08,0.27
					c0.04,0.08,0.1,0.14,0.18,0.17s0.19,0.05,0.34,0.05c0.09,0,0.18-0.01,0.28-0.04s0.17-0.05,0.21-0.07h0.03V28.07z"/>
				<path d="M43.21,28.1h-0.55v-0.35c-0.05,0.03-0.11,0.08-0.2,0.14S42.3,28,42.23,28.03c-0.09,0.04-0.2,0.08-0.32,0.11
					s-0.26,0.04-0.42,0.04c-0.29,0-0.54-0.1-0.75-0.29s-0.31-0.44-0.31-0.75c0-0.25,0.05-0.45,0.16-0.6s0.26-0.27,0.46-0.36
					c0.2-0.09,0.44-0.15,0.72-0.18s0.58-0.05,0.9-0.07v-0.08c0-0.12-0.02-0.23-0.07-0.31s-0.11-0.15-0.19-0.19
					c-0.08-0.04-0.17-0.08-0.28-0.09s-0.22-0.02-0.34-0.02c-0.14,0-0.31,0.02-0.48,0.06s-0.36,0.09-0.55,0.17h-0.03V24.9
					c0.11-0.03,0.26-0.06,0.47-0.1s0.4-0.05,0.6-0.05c0.23,0,0.43,0.02,0.6,0.06s0.32,0.1,0.44,0.19c0.12,0.09,0.22,0.21,0.28,0.35
					s0.1,0.32,0.1,0.53V28.1z M42.67,27.29v-0.91c-0.17,0.01-0.37,0.02-0.59,0.04s-0.41,0.05-0.54,0.08
					c-0.16,0.04-0.29,0.12-0.38,0.21S41,26.95,41,27.11c0,0.19,0.06,0.33,0.17,0.42s0.29,0.14,0.52,0.14c0.19,0,0.37-0.04,0.53-0.11
					S42.53,27.4,42.67,27.29z M42.29,24.28h-0.44l-0.8-1.1h0.71L42.29,24.28z"/>
			</g>
		</g>
		<g>
			<g>
				<path d="M21.78,48.69h-1.72v-0.45h0.57v-3.47h-0.57v-0.45h1.72v0.45h-0.57v3.47h0.57V48.69z"/>
				<path d="M27.5,48.69h-0.55v-1.86c0-0.14-0.01-0.28-0.02-0.41s-0.04-0.24-0.08-0.31c-0.04-0.08-0.11-0.15-0.19-0.19
					s-0.21-0.06-0.36-0.06c-0.15,0-0.31,0.04-0.46,0.12s-0.31,0.18-0.46,0.29c0.01,0.04,0.01,0.1,0.01,0.16s0.01,0.12,0.01,0.18
					v2.09h-0.55v-1.86c0-0.14-0.01-0.28-0.02-0.41s-0.04-0.23-0.08-0.31c-0.04-0.08-0.11-0.15-0.19-0.19s-0.21-0.06-0.36-0.06
					c-0.15,0-0.3,0.04-0.45,0.11s-0.3,0.17-0.45,0.28v2.44h-0.55v-3.27h0.55v0.36c0.17-0.14,0.34-0.25,0.51-0.33
					s0.35-0.12,0.55-0.12c0.22,0,0.41,0.05,0.57,0.14s0.27,0.22,0.35,0.39c0.22-0.19,0.43-0.32,0.61-0.41s0.38-0.12,0.59-0.12
					c0.36,0,0.62,0.11,0.8,0.33s0.26,0.52,0.26,0.91V48.69z"/>
				<path d="M31.44,47.01c0,0.27-0.04,0.51-0.11,0.73S31.14,48.15,31,48.3c-0.13,0.14-0.28,0.26-0.46,0.33s-0.36,0.12-0.56,0.12
					c-0.17,0-0.32-0.02-0.46-0.06s-0.28-0.09-0.42-0.17v1.37h-0.55v-4.48h0.55v0.34c0.15-0.12,0.31-0.23,0.49-0.31
					s0.38-0.12,0.58-0.12c0.39,0,0.7,0.15,0.92,0.45S31.44,46.48,31.44,47.01z M30.87,47.03c0-0.39-0.07-0.69-0.2-0.88
					s-0.34-0.29-0.62-0.29c-0.16,0-0.32,0.03-0.48,0.1s-0.31,0.16-0.46,0.27v1.85c0.16,0.07,0.29,0.12,0.4,0.14s0.24,0.04,0.38,0.04
					c0.31,0,0.55-0.1,0.72-0.31S30.87,47.43,30.87,47.03z"/>
				<path d="M34.84,48.69h-0.55v-0.35c-0.05,0.03-0.11,0.08-0.2,0.14s-0.16,0.11-0.24,0.14c-0.09,0.04-0.2,0.08-0.32,0.11
					s-0.26,0.05-0.42,0.05c-0.29,0-0.54-0.1-0.75-0.29s-0.31-0.44-0.31-0.75c0-0.25,0.05-0.45,0.16-0.6s0.26-0.27,0.46-0.36
					c0.2-0.09,0.44-0.15,0.72-0.18s0.58-0.05,0.9-0.07v-0.08c0-0.12-0.02-0.23-0.07-0.31s-0.11-0.15-0.19-0.19
					c-0.08-0.04-0.17-0.08-0.28-0.09s-0.22-0.02-0.34-0.02c-0.14,0-0.31,0.02-0.48,0.06s-0.36,0.09-0.55,0.17h-0.03v-0.56
					c0.11-0.03,0.26-0.06,0.47-0.1s0.4-0.05,0.6-0.05c0.23,0,0.43,0.02,0.6,0.06s0.32,0.1,0.44,0.2c0.12,0.09,0.22,0.21,0.28,0.35
					s0.1,0.32,0.1,0.53V48.69z M34.29,47.88v-0.91c-0.17,0.01-0.37,0.02-0.59,0.04s-0.41,0.05-0.54,0.08
					c-0.16,0.04-0.29,0.11-0.38,0.21s-0.15,0.23-0.15,0.39c0,0.19,0.06,0.33,0.17,0.42s0.29,0.14,0.52,0.14
					c0.19,0,0.37-0.04,0.53-0.11S34.16,47.99,34.29,47.88z"/>
				<path d="M37.6,48.66c-0.1,0.03-0.22,0.05-0.34,0.07s-0.23,0.03-0.33,0.03c-0.33,0-0.59-0.09-0.76-0.27s-0.26-0.47-0.26-0.86
					v-1.74h-0.37v-0.46h0.37v-0.94h0.55v0.94h1.14v0.46h-1.14v1.49c0,0.17,0,0.31,0.01,0.4s0.04,0.19,0.08,0.27
					c0.04,0.08,0.1,0.13,0.18,0.17s0.19,0.05,0.34,0.05c0.09,0,0.18-0.01,0.28-0.04s0.17-0.05,0.21-0.07h0.03V48.66z"/>
				<path d="M39.97,48.66c-0.1,0.03-0.22,0.05-0.34,0.07s-0.23,0.03-0.33,0.03c-0.33,0-0.59-0.09-0.76-0.27s-0.26-0.47-0.26-0.86
					v-1.74h-0.37v-0.46h0.37v-0.94h0.55v0.94h1.14v0.46h-1.14v1.49c0,0.17,0,0.31,0.01,0.4s0.04,0.19,0.08,0.27
					c0.04,0.08,0.1,0.13,0.18,0.17s0.19,0.05,0.34,0.05c0.09,0,0.18-0.01,0.28-0.04s0.17-0.05,0.21-0.07h0.03V48.66z"/>
				<path d="M43.42,47.05c0,0.53-0.14,0.95-0.41,1.26s-0.64,0.46-1.1,0.46c-0.46,0-0.83-0.15-1.1-0.46s-0.41-0.73-0.41-1.26
					s0.14-0.96,0.41-1.26s0.64-0.46,1.1-0.46c0.46,0,0.83,0.15,1.1,0.46S43.42,46.52,43.42,47.05z M42.85,47.05
					c0-0.42-0.08-0.74-0.25-0.95s-0.4-0.31-0.69-0.31c-0.3,0-0.53,0.1-0.7,0.31s-0.25,0.52-0.25,0.95c0,0.41,0.08,0.72,0.25,0.93
					s0.4,0.32,0.69,0.32c0.29,0,0.52-0.11,0.69-0.32S42.85,47.47,42.85,47.05z"/>
			</g>
		</g>
		<g>
			<g>
				<path d="M56.92,45.88h-0.55v-0.35c-0.05,0.03-0.11,0.08-0.2,0.14s-0.16,0.11-0.24,0.14c-0.09,0.04-0.2,0.08-0.32,0.11
					s-0.26,0.04-0.42,0.04c-0.29,0-0.54-0.1-0.75-0.29s-0.31-0.44-0.31-0.75c0-0.25,0.05-0.45,0.16-0.6s0.26-0.27,0.46-0.36
					c0.2-0.09,0.44-0.15,0.72-0.18s0.58-0.05,0.9-0.07v-0.08c0-0.12-0.02-0.23-0.07-0.31s-0.11-0.15-0.19-0.19
					c-0.08-0.04-0.17-0.08-0.28-0.09s-0.22-0.02-0.34-0.02c-0.14,0-0.31,0.02-0.48,0.06s-0.36,0.09-0.55,0.17h-0.03v-0.56
					c0.11-0.03,0.26-0.06,0.47-0.1s0.4-0.05,0.6-0.05c0.23,0,0.43,0.02,0.6,0.06s0.32,0.1,0.44,0.19c0.12,0.09,0.22,0.21,0.28,0.35
					s0.1,0.32,0.1,0.53V45.88z M56.38,45.07v-0.91c-0.17,0.01-0.37,0.02-0.59,0.04s-0.41,0.05-0.54,0.08
					c-0.16,0.04-0.29,0.12-0.38,0.21s-0.15,0.22-0.15,0.39c0,0.19,0.06,0.33,0.17,0.42s0.29,0.14,0.52,0.14
					c0.19,0,0.37-0.04,0.53-0.11S56.24,45.18,56.38,45.07z"/>
				<path d="M60.77,42.61l-1.32,3.27h-0.55l-1.32-3.27h0.6l1.01,2.6l1-2.6H60.77z"/>
				<path d="M64.32,42.61l-1.32,3.27h-0.55l-1.32-3.27h0.6l1.01,2.6l1-2.6H64.32z"/>
				<path d="M67.73,44.3h-2.41c0,0.2,0.03,0.38,0.09,0.53s0.14,0.27,0.25,0.37c0.1,0.09,0.22,0.16,0.36,0.21s0.29,0.07,0.46,0.07
					c0.22,0,0.45-0.04,0.67-0.13s0.39-0.18,0.48-0.26h0.03v0.6c-0.19,0.08-0.38,0.14-0.57,0.2s-0.4,0.08-0.61,0.08
					c-0.54,0-0.97-0.15-1.27-0.44s-0.46-0.71-0.46-1.25c0-0.54,0.15-0.96,0.44-1.27s0.68-0.47,1.15-0.47c0.44,0,0.78,0.13,1.02,0.39
					s0.36,0.62,0.36,1.1V44.3z M67.19,43.88c0-0.29-0.07-0.51-0.22-0.67s-0.36-0.24-0.65-0.24c-0.29,0-0.53,0.09-0.7,0.26
					s-0.27,0.39-0.3,0.65H67.19z"/>
				<path d="M70.6,43.21h-0.03c-0.08-0.02-0.16-0.03-0.24-0.04s-0.17-0.01-0.27-0.01c-0.17,0-0.33,0.04-0.49,0.11
					s-0.31,0.17-0.46,0.29v2.32h-0.55v-3.27h0.55v0.48c0.22-0.18,0.41-0.3,0.58-0.37s0.34-0.11,0.51-0.11c0.1,0,0.17,0,0.21,0.01
					s0.11,0.01,0.19,0.03V43.21z"/>
				<path d="M72.82,45.85c-0.1,0.03-0.22,0.05-0.34,0.07s-0.23,0.03-0.33,0.03c-0.33,0-0.59-0.09-0.76-0.27s-0.26-0.47-0.26-0.86
					v-1.74h-0.37v-0.46h0.37v-0.94h0.55v0.94h1.14v0.46h-1.14v1.49c0,0.17,0,0.31,0.01,0.4s0.04,0.19,0.08,0.27
					c0.04,0.08,0.1,0.14,0.18,0.17s0.19,0.05,0.34,0.05c0.09,0,0.18-0.01,0.28-0.04s0.17-0.05,0.21-0.07h0.03V45.85z"/>
				<path d="M74.08,42.06h-0.62v-0.57h0.62V42.06z M74.04,45.88h-0.55v-3.27h0.55V45.88z"/>
				<path d="M76.83,45.85c-0.1,0.03-0.22,0.05-0.34,0.07s-0.23,0.03-0.33,0.03c-0.33,0-0.59-0.09-0.76-0.27s-0.26-0.47-0.26-0.86
					v-1.74h-0.37v-0.46h0.37v-0.94h0.55v0.94h1.14v0.46H75.7v1.49c0,0.17,0,0.31,0.01,0.4s0.04,0.19,0.08,0.27
					c0.04,0.08,0.1,0.14,0.18,0.17s0.19,0.05,0.34,0.05c0.09,0,0.18-0.01,0.28-0.04s0.17-0.05,0.21-0.07h0.03V45.85z"/>
				<path d="M80.29,44.25c0,0.53-0.14,0.95-0.41,1.26s-0.64,0.46-1.1,0.46c-0.46,0-0.83-0.15-1.1-0.46s-0.41-0.73-0.41-1.26
					s0.14-0.95,0.41-1.26s0.64-0.46,1.1-0.46c0.46,0,0.83,0.16,1.1,0.46S80.29,43.71,80.29,44.25z M79.72,44.25
					c0-0.42-0.08-0.74-0.25-0.94s-0.4-0.31-0.69-0.31c-0.3,0-0.53,0.1-0.7,0.31s-0.25,0.52-0.25,0.94c0,0.41,0.08,0.72,0.25,0.93
					s0.4,0.32,0.69,0.32c0.29,0,0.52-0.1,0.69-0.31S79.72,44.66,79.72,44.25z"/>
				<path d="M54.17,50.41h-0.03c-0.08-0.02-0.16-0.03-0.24-0.04s-0.17-0.01-0.27-0.01c-0.17,0-0.33,0.04-0.49,0.11
					s-0.31,0.17-0.46,0.29v2.32h-0.55v-3.27h0.55v0.48c0.22-0.18,0.41-0.3,0.58-0.37s0.34-0.11,0.51-0.11c0.1,0,0.17,0,0.21,0.01
					s0.11,0.01,0.19,0.03V50.41z"/>
				<path d="M57.13,53.08h-0.55v-0.35c-0.05,0.03-0.11,0.08-0.2,0.14s-0.16,0.11-0.24,0.14c-0.09,0.04-0.2,0.08-0.32,0.11
					s-0.26,0.04-0.42,0.04c-0.29,0-0.54-0.1-0.75-0.29s-0.31-0.44-0.31-0.75c0-0.25,0.05-0.45,0.16-0.6s0.26-0.27,0.46-0.36
					c0.2-0.09,0.44-0.15,0.72-0.18s0.58-0.05,0.9-0.07v-0.08c0-0.12-0.02-0.23-0.07-0.31s-0.11-0.15-0.19-0.19
					c-0.08-0.04-0.17-0.08-0.28-0.09s-0.22-0.02-0.34-0.02c-0.14,0-0.31,0.02-0.48,0.06s-0.36,0.09-0.55,0.17h-0.03v-0.56
					c0.11-0.03,0.26-0.06,0.47-0.1s0.4-0.05,0.6-0.05c0.23,0,0.43,0.02,0.6,0.06s0.32,0.1,0.44,0.19c0.12,0.09,0.22,0.21,0.28,0.35
					s0.1,0.32,0.1,0.53V53.08z M56.58,52.27v-0.91c-0.17,0.01-0.37,0.02-0.59,0.04s-0.41,0.05-0.54,0.08
					c-0.16,0.04-0.29,0.12-0.38,0.21s-0.15,0.22-0.15,0.39c0,0.19,0.06,0.33,0.17,0.42s0.29,0.14,0.52,0.14
					c0.19,0,0.37-0.04,0.53-0.11S56.44,52.38,56.58,52.27z"/>
				<path d="M60.23,50.41H60.2c-0.08-0.02-0.16-0.03-0.24-0.04s-0.17-0.01-0.27-0.01c-0.17,0-0.33,0.04-0.49,0.11
					s-0.31,0.17-0.46,0.29v2.32h-0.55v-3.27h0.55v0.48c0.22-0.18,0.41-0.3,0.58-0.37s0.34-0.11,0.51-0.11c0.1,0,0.17,0,0.21,0.01
					s0.11,0.01,0.19,0.03V50.41z"/>
				<path d="M63.19,53.08h-0.55v-0.35c-0.05,0.03-0.11,0.08-0.2,0.14s-0.16,0.11-0.24,0.14c-0.09,0.04-0.2,0.08-0.32,0.11
					s-0.26,0.04-0.42,0.04c-0.29,0-0.54-0.1-0.75-0.29s-0.31-0.44-0.31-0.75c0-0.25,0.05-0.45,0.16-0.6s0.26-0.27,0.46-0.36
					c0.2-0.09,0.44-0.15,0.72-0.18s0.58-0.05,0.9-0.07v-0.08c0-0.12-0.02-0.23-0.07-0.31s-0.11-0.15-0.19-0.19
					c-0.08-0.04-0.17-0.08-0.28-0.09s-0.22-0.02-0.34-0.02c-0.14,0-0.31,0.02-0.48,0.06s-0.36,0.09-0.55,0.17H60.7v-0.56
					c0.11-0.03,0.26-0.06,0.47-0.1s0.4-0.05,0.6-0.05c0.23,0,0.43,0.02,0.6,0.06s0.32,0.1,0.44,0.19c0.12,0.09,0.22,0.21,0.28,0.35
					s0.1,0.32,0.1,0.53V53.08z M62.64,52.27v-0.91c-0.17,0.01-0.37,0.02-0.59,0.04s-0.41,0.05-0.54,0.08
					c-0.16,0.04-0.29,0.12-0.38,0.21s-0.15,0.22-0.15,0.39c0,0.19,0.06,0.33,0.17,0.42s0.29,0.14,0.52,0.14
					c0.19,0,0.37-0.04,0.53-0.11S62.5,52.38,62.64,52.27z"/>
				<path d="M69.02,53.08h-0.55v-1.86c0-0.14-0.01-0.28-0.02-0.41s-0.04-0.24-0.08-0.31c-0.04-0.08-0.11-0.15-0.19-0.19
					s-0.21-0.06-0.36-0.06c-0.15,0-0.31,0.04-0.46,0.12s-0.31,0.17-0.46,0.29c0.01,0.04,0.01,0.1,0.01,0.16s0.01,0.12,0.01,0.18
					v2.09h-0.55v-1.86c0-0.14-0.01-0.28-0.02-0.41s-0.04-0.23-0.08-0.31c-0.04-0.08-0.11-0.15-0.19-0.19s-0.21-0.06-0.36-0.06
					c-0.15,0-0.3,0.04-0.45,0.11s-0.3,0.17-0.45,0.28v2.44h-0.55v-3.27h0.55v0.36c0.17-0.14,0.34-0.25,0.51-0.33
					s0.35-0.12,0.55-0.12c0.22,0,0.41,0.05,0.57,0.14s0.27,0.22,0.35,0.39c0.22-0.19,0.43-0.32,0.61-0.41s0.38-0.12,0.59-0.12
					c0.36,0,0.62,0.11,0.8,0.33s0.26,0.52,0.26,0.91V53.08z"/>
				<path d="M72.82,51.5h-2.41c0,0.2,0.03,0.38,0.09,0.53s0.14,0.27,0.25,0.37c0.1,0.09,0.22,0.16,0.36,0.21s0.29,0.07,0.46,0.07
					c0.22,0,0.45-0.04,0.67-0.13s0.39-0.18,0.48-0.26h0.03v0.6c-0.19,0.08-0.38,0.14-0.57,0.2s-0.4,0.08-0.61,0.08
					c-0.54,0-0.97-0.15-1.27-0.44s-0.46-0.71-0.46-1.25c0-0.54,0.15-0.96,0.44-1.27s0.68-0.47,1.15-0.47c0.44,0,0.78,0.13,1.02,0.39
					s0.36,0.62,0.36,1.1V51.5z M72.28,51.08c0-0.29-0.07-0.51-0.22-0.67s-0.36-0.24-0.65-0.24c-0.29,0-0.53,0.09-0.7,0.26
					s-0.27,0.39-0.3,0.65H72.28z"/>
				<path d="M76.39,53.08h-0.55v-1.86c0-0.15-0.01-0.29-0.03-0.42s-0.05-0.24-0.1-0.31c-0.05-0.08-0.12-0.14-0.21-0.18
					s-0.21-0.06-0.36-0.06c-0.15,0-0.31,0.04-0.47,0.11s-0.32,0.17-0.47,0.28v2.44h-0.55v-3.27h0.55v0.36
					c0.17-0.14,0.35-0.25,0.53-0.33s0.37-0.12,0.57-0.12c0.35,0,0.62,0.11,0.81,0.32s0.28,0.52,0.28,0.92V53.08z"/>
				<path d="M79.15,53.05c-0.1,0.03-0.22,0.05-0.34,0.07s-0.23,0.03-0.33,0.03c-0.33,0-0.59-0.09-0.76-0.27s-0.26-0.47-0.26-0.86
					v-1.74h-0.37v-0.46h0.37v-0.94h0.55v0.94h1.14v0.46h-1.14v1.49c0,0.17,0,0.31,0.01,0.4s0.04,0.19,0.08,0.27
					c0.04,0.08,0.1,0.14,0.18,0.17s0.19,0.05,0.34,0.05c0.09,0,0.18-0.01,0.28-0.04s0.17-0.05,0.21-0.07h0.03V53.05z"/>
				<path d="M82.56,51.5h-2.41c0,0.2,0.03,0.38,0.09,0.53s0.14,0.27,0.25,0.37c0.1,0.09,0.22,0.16,0.36,0.21s0.29,0.07,0.46,0.07
					c0.22,0,0.45-0.04,0.67-0.13s0.39-0.18,0.48-0.26h0.03v0.6c-0.19,0.08-0.38,0.14-0.57,0.2s-0.4,0.08-0.61,0.08
					c-0.54,0-0.97-0.15-1.27-0.44s-0.46-0.71-0.46-1.25c0-0.54,0.15-0.96,0.44-1.27s0.68-0.47,1.15-0.47c0.44,0,0.78,0.13,1.02,0.39
					s0.36,0.62,0.36,1.1V51.5z M82.02,51.08c0-0.29-0.07-0.51-0.22-0.67s-0.36-0.24-0.65-0.24c-0.29,0-0.53,0.09-0.7,0.26
					s-0.27,0.39-0.3,0.65H82.02z"/>
			</g>
		</g>
		<g>
			<g>
				<path d="M100.02,49.48h-0.55v-0.34c-0.16,0.14-0.32,0.24-0.5,0.32s-0.36,0.11-0.56,0.11c-0.39,0-0.7-0.15-0.93-0.45
					s-0.34-0.72-0.34-1.25c0-0.28,0.04-0.52,0.12-0.74s0.19-0.4,0.32-0.55c0.13-0.15,0.29-0.26,0.46-0.34s0.36-0.12,0.55-0.12
					c0.17,0,0.32,0.02,0.46,0.05s0.27,0.09,0.42,0.17v-1.42h0.55V49.48z M99.47,48.67V46.8c-0.15-0.07-0.28-0.11-0.4-0.14
					s-0.25-0.04-0.38-0.04c-0.31,0-0.55,0.11-0.72,0.32s-0.26,0.52-0.26,0.91c0,0.39,0.07,0.68,0.2,0.89s0.35,0.3,0.64,0.3
					c0.16,0,0.31-0.03,0.47-0.1S99.33,48.78,99.47,48.67z"/>
				<path d="M103.84,47.9h-2.41c0,0.2,0.03,0.38,0.09,0.53s0.14,0.27,0.25,0.37c0.1,0.09,0.22,0.16,0.36,0.21s0.29,0.07,0.46,0.07
					c0.22,0,0.45-0.04,0.67-0.13s0.39-0.18,0.48-0.26h0.03v0.6c-0.19,0.08-0.38,0.14-0.57,0.2s-0.4,0.08-0.61,0.08
					c-0.54,0-0.97-0.15-1.27-0.44s-0.46-0.71-0.46-1.25c0-0.54,0.15-0.96,0.44-1.27s0.68-0.47,1.15-0.47c0.44,0,0.78,0.13,1.02,0.39
					s0.36,0.62,0.36,1.1V47.9z M103.3,47.48c0-0.29-0.07-0.51-0.22-0.67s-0.36-0.24-0.65-0.24c-0.29,0-0.53,0.09-0.7,0.26
					s-0.27,0.39-0.3,0.65H103.3z"/>
				<path d="M107.55,47.82c0,0.27-0.04,0.52-0.12,0.74s-0.18,0.4-0.31,0.55c-0.14,0.15-0.29,0.27-0.46,0.35s-0.35,0.12-0.55,0.12
					c-0.19,0-0.35-0.02-0.49-0.07s-0.28-0.1-0.41-0.18l-0.04,0.15h-0.52v-4.56h0.55v1.63c0.15-0.13,0.32-0.23,0.49-0.31
					s0.37-0.12,0.59-0.12c0.39,0,0.69,0.15,0.92,0.45S107.55,47.28,107.55,47.82z M106.99,47.83c0-0.39-0.06-0.69-0.19-0.89
					s-0.34-0.3-0.62-0.3c-0.16,0-0.32,0.04-0.49,0.1s-0.32,0.16-0.46,0.27v1.88c0.16,0.07,0.29,0.12,0.4,0.15s0.24,0.04,0.38,0.04
					c0.3,0,0.54-0.1,0.72-0.3S106.99,48.26,106.99,47.83z"/>
				<path d="M111.2,47.85c0,0.53-0.14,0.95-0.41,1.26s-0.64,0.46-1.1,0.46c-0.46,0-0.83-0.15-1.1-0.46s-0.41-0.73-0.41-1.26
					s0.14-0.95,0.41-1.26s0.64-0.46,1.1-0.46c0.46,0,0.83,0.16,1.1,0.46S111.2,47.31,111.2,47.85z M110.63,47.85
					c0-0.42-0.08-0.74-0.25-0.94s-0.4-0.31-0.69-0.31c-0.3,0-0.53,0.1-0.7,0.31s-0.25,0.52-0.25,0.94c0,0.41,0.08,0.72,0.25,0.93
					s0.4,0.32,0.69,0.32c0.29,0,0.52-0.1,0.69-0.31S110.63,48.26,110.63,47.85z"/>
				<path d="M112.61,49.48h-0.55v-4.56h0.55V49.48z"/>
				<path d="M116.44,47.9h-2.41c0,0.2,0.03,0.38,0.09,0.53s0.14,0.27,0.25,0.37c0.1,0.09,0.22,0.16,0.36,0.21
					c0.14,0.05,0.29,0.07,0.46,0.07c0.22,0,0.45-0.04,0.67-0.13s0.39-0.18,0.48-0.26h0.03v0.6c-0.19,0.08-0.38,0.14-0.57,0.2
					s-0.4,0.08-0.61,0.08c-0.54,0-0.97-0.15-1.27-0.44s-0.46-0.71-0.46-1.25c0-0.54,0.15-0.96,0.44-1.27s0.68-0.47,1.15-0.47
					c0.44,0,0.78,0.13,1.02,0.39s0.36,0.62,0.36,1.1V47.9z M115.9,47.48c0-0.29-0.07-0.51-0.22-0.67s-0.36-0.24-0.65-0.24
					c-0.29,0-0.53,0.09-0.7,0.26s-0.27,0.39-0.3,0.65H115.9z"/>
			</g>
		</g>
		<g>
			<g>
				<path d="M130.96,45.88h-0.55v-0.35c-0.05,0.03-0.11,0.08-0.2,0.14s-0.16,0.11-0.24,0.14c-0.09,0.04-0.2,0.08-0.32,0.11
					s-0.26,0.05-0.42,0.05c-0.29,0-0.54-0.1-0.75-0.29s-0.31-0.44-0.31-0.75c0-0.25,0.05-0.45,0.16-0.6s0.26-0.27,0.46-0.36
					c0.2-0.09,0.44-0.15,0.72-0.18s0.58-0.05,0.9-0.07v-0.08c0-0.12-0.02-0.23-0.07-0.31s-0.11-0.15-0.19-0.19
					c-0.08-0.04-0.17-0.08-0.28-0.09s-0.22-0.02-0.34-0.02c-0.14,0-0.31,0.02-0.48,0.06s-0.36,0.09-0.55,0.17h-0.03v-0.56
					c0.11-0.03,0.26-0.06,0.47-0.1s0.4-0.05,0.6-0.05c0.23,0,0.43,0.02,0.6,0.06s0.32,0.1,0.44,0.2c0.12,0.09,0.22,0.21,0.28,0.35
					s0.1,0.32,0.1,0.53V45.88z M130.41,45.08v-0.91c-0.17,0.01-0.37,0.02-0.59,0.04s-0.41,0.05-0.54,0.08
					c-0.16,0.04-0.29,0.11-0.38,0.21s-0.15,0.23-0.15,0.39c0,0.19,0.06,0.33,0.17,0.42s0.29,0.14,0.52,0.14
					c0.19,0,0.37-0.04,0.53-0.11S130.27,45.18,130.41,45.08z"/>
				<path d="M136.79,45.88h-0.55v-1.86c0-0.14-0.01-0.28-0.02-0.41s-0.04-0.24-0.08-0.31c-0.04-0.08-0.11-0.15-0.19-0.19
					s-0.21-0.06-0.36-0.06c-0.15,0-0.31,0.04-0.46,0.12s-0.31,0.18-0.46,0.29c0.01,0.04,0.01,0.1,0.01,0.16s0.01,0.12,0.01,0.18
					v2.09h-0.55v-1.86c0-0.14-0.01-0.28-0.02-0.41s-0.04-0.23-0.08-0.31c-0.04-0.08-0.11-0.15-0.19-0.19s-0.21-0.06-0.36-0.06
					c-0.15,0-0.3,0.04-0.45,0.11s-0.3,0.17-0.45,0.28v2.44h-0.55v-3.27h0.55v0.36c0.17-0.14,0.34-0.25,0.51-0.33
					s0.35-0.12,0.55-0.12c0.22,0,0.41,0.05,0.57,0.14s0.27,0.22,0.35,0.39c0.22-0.19,0.43-0.32,0.61-0.41s0.38-0.12,0.59-0.12
					c0.36,0,0.62,0.11,0.79,0.33s0.26,0.52,0.26,0.91V45.88z"/>
				<path d="M140.73,44.21c0,0.27-0.04,0.51-0.11,0.73s-0.18,0.41-0.32,0.56c-0.13,0.14-0.28,0.26-0.46,0.33s-0.36,0.12-0.55,0.12
					c-0.17,0-0.32-0.02-0.46-0.06s-0.28-0.09-0.42-0.17v1.37h-0.55v-4.48h0.55v0.34c0.15-0.12,0.31-0.23,0.49-0.31
					s0.38-0.12,0.58-0.12c0.39,0,0.7,0.15,0.92,0.45S140.73,43.68,140.73,44.21z M140.17,44.22c0-0.39-0.07-0.69-0.2-0.88
					s-0.34-0.29-0.62-0.29c-0.16,0-0.32,0.03-0.48,0.1s-0.31,0.16-0.46,0.27v1.85c0.16,0.07,0.29,0.12,0.4,0.14s0.24,0.04,0.38,0.04
					c0.31,0,0.55-0.1,0.72-0.31S140.17,44.63,140.17,44.22z"/>
				<path d="M142.18,42.06h-0.62v-0.57h0.62V42.06z M142.15,45.88h-0.55v-3.27h0.55V45.88z"/>
				<path d="M145.78,45.88h-0.55v-0.35c-0.05,0.03-0.12,0.08-0.2,0.14s-0.16,0.11-0.24,0.14c-0.09,0.04-0.2,0.08-0.32,0.11
					s-0.26,0.05-0.42,0.05c-0.29,0-0.54-0.1-0.75-0.29S143,45.23,143,44.93c0-0.25,0.05-0.45,0.16-0.6s0.26-0.27,0.46-0.36
					c0.2-0.09,0.44-0.15,0.72-0.18s0.58-0.05,0.9-0.07v-0.08c0-0.12-0.02-0.23-0.07-0.31s-0.11-0.15-0.19-0.19
					c-0.08-0.04-0.17-0.08-0.28-0.09s-0.22-0.02-0.34-0.02c-0.14,0-0.31,0.02-0.48,0.06s-0.36,0.09-0.55,0.17h-0.03v-0.56
					c0.11-0.03,0.26-0.06,0.47-0.1s0.4-0.05,0.6-0.05c0.23,0,0.43,0.02,0.6,0.06s0.32,0.1,0.44,0.2c0.12,0.09,0.22,0.21,0.28,0.35
					s0.1,0.32,0.1,0.53V45.88z M145.23,45.08v-0.91c-0.17,0.01-0.37,0.02-0.59,0.04s-0.41,0.05-0.54,0.08
					c-0.16,0.04-0.29,0.11-0.38,0.21s-0.15,0.23-0.15,0.39c0,0.19,0.06,0.33,0.17,0.42s0.29,0.14,0.52,0.14
					c0.19,0,0.37-0.04,0.53-0.11S145.1,45.18,145.23,45.08z"/>
				<path d="M151.62,45.88h-0.55v-1.86c0-0.14-0.01-0.28-0.02-0.41s-0.04-0.24-0.08-0.31c-0.04-0.08-0.11-0.15-0.19-0.19
					s-0.21-0.06-0.36-0.06c-0.15,0-0.31,0.04-0.46,0.12s-0.31,0.18-0.46,0.29c0.01,0.04,0.01,0.1,0.01,0.16s0.01,0.12,0.01,0.18
					v2.09h-0.55v-1.86c0-0.14-0.01-0.28-0.02-0.41s-0.04-0.23-0.08-0.31c-0.04-0.08-0.11-0.15-0.19-0.19s-0.21-0.06-0.36-0.06
					c-0.15,0-0.3,0.04-0.45,0.11s-0.3,0.17-0.45,0.28v2.44h-0.55v-3.27h0.55v0.36c0.17-0.14,0.34-0.25,0.51-0.33
					s0.35-0.12,0.55-0.12c0.22,0,0.41,0.05,0.57,0.14s0.27,0.22,0.35,0.39c0.22-0.19,0.43-0.32,0.61-0.41s0.38-0.12,0.59-0.12
					c0.36,0,0.62,0.11,0.79,0.33s0.26,0.52,0.26,0.91V45.88z"/>
				<path d="M155.42,44.3h-2.41c0,0.2,0.03,0.38,0.09,0.53s0.14,0.27,0.25,0.37c0.1,0.09,0.22,0.16,0.36,0.21s0.29,0.07,0.46,0.07
					c0.22,0,0.45-0.04,0.67-0.13s0.39-0.18,0.48-0.26h0.03v0.6c-0.19,0.08-0.38,0.14-0.57,0.2s-0.4,0.08-0.61,0.08
					c-0.54,0-0.97-0.15-1.27-0.44s-0.46-0.71-0.46-1.25c0-0.54,0.15-0.96,0.44-1.27s0.68-0.47,1.15-0.47c0.44,0,0.78,0.13,1.02,0.39
					s0.36,0.62,0.36,1.1V44.3z M154.88,43.88c0-0.29-0.08-0.51-0.22-0.67s-0.36-0.24-0.65-0.24c-0.29,0-0.53,0.09-0.71,0.26
					s-0.27,0.39-0.3,0.65H154.88z"/>
				<path d="M158.99,45.88h-0.55v-1.86c0-0.15-0.01-0.29-0.03-0.42s-0.05-0.23-0.1-0.31c-0.05-0.08-0.12-0.14-0.21-0.18
					s-0.21-0.06-0.36-0.06c-0.15,0-0.31,0.04-0.47,0.11s-0.32,0.17-0.47,0.28v2.44h-0.55v-3.27h0.55v0.36
					c0.17-0.14,0.35-0.25,0.53-0.33s0.37-0.12,0.57-0.12c0.35,0,0.62,0.11,0.81,0.32s0.28,0.52,0.28,0.92V45.88z"/>
				<path d="M161.75,45.85c-0.1,0.03-0.22,0.05-0.34,0.07s-0.23,0.03-0.33,0.03c-0.33,0-0.59-0.09-0.76-0.27s-0.26-0.47-0.26-0.86
					v-1.74h-0.37v-0.46h0.37v-0.94h0.55v0.94h1.14v0.46h-1.14v1.49c0,0.17,0,0.31,0.01,0.4s0.04,0.19,0.08,0.27
					c0.04,0.08,0.1,0.13,0.18,0.17s0.19,0.05,0.34,0.05c0.09,0,0.18-0.01,0.28-0.04s0.17-0.05,0.21-0.07h0.03V45.85z"/>
				<path d="M165.15,44.3h-2.41c0,0.2,0.03,0.38,0.09,0.53s0.14,0.27,0.25,0.37c0.1,0.09,0.22,0.16,0.36,0.21s0.29,0.07,0.46,0.07
					c0.22,0,0.45-0.04,0.67-0.13s0.39-0.18,0.48-0.26h0.03v0.6c-0.19,0.08-0.38,0.14-0.57,0.2s-0.4,0.08-0.61,0.08
					c-0.54,0-0.97-0.15-1.27-0.44s-0.46-0.71-0.46-1.25c0-0.54,0.15-0.96,0.44-1.27s0.68-0.47,1.15-0.47c0.44,0,0.78,0.13,1.02,0.39
					s0.36,0.62,0.36,1.1V44.3z M164.62,43.88c0-0.29-0.08-0.51-0.22-0.67s-0.36-0.24-0.65-0.24c-0.29,0-0.53,0.09-0.71,0.26
					s-0.27,0.39-0.3,0.65H164.62z"/>
				<path d="M138.01,50.41h-0.03c-0.08-0.02-0.16-0.03-0.24-0.04s-0.17-0.01-0.27-0.01c-0.17,0-0.33,0.04-0.49,0.11
					s-0.31,0.17-0.46,0.29v2.32h-0.55v-3.27h0.55v0.48c0.22-0.18,0.41-0.3,0.58-0.37s0.34-0.11,0.51-0.11c0.1,0,0.17,0,0.21,0.01
					s0.11,0.01,0.19,0.03V50.41z"/>
				<path d="M139.12,49.26h-0.62v-0.57h0.62V49.26z M139.08,53.08h-0.55v-3.27h0.55V53.08z"/>
				<path d="M140.73,53.08h-0.55v-4.56h0.55V53.08z"/>
				<path d="M144.56,51.5h-2.41c0,0.2,0.03,0.38,0.09,0.53s0.14,0.27,0.25,0.37c0.1,0.09,0.22,0.16,0.36,0.21s0.29,0.07,0.46,0.07
					c0.22,0,0.45-0.04,0.67-0.13s0.39-0.18,0.48-0.26h0.03v0.6c-0.19,0.08-0.38,0.14-0.57,0.2s-0.4,0.08-0.61,0.08
					c-0.54,0-0.97-0.15-1.27-0.44s-0.46-0.71-0.46-1.25c0-0.54,0.15-0.96,0.44-1.27s0.68-0.47,1.15-0.47c0.44,0,0.78,0.13,1.02,0.39
					s0.36,0.62,0.36,1.1V51.5z M144.02,51.08c0-0.29-0.07-0.51-0.22-0.67s-0.36-0.24-0.66-0.24c-0.29,0-0.53,0.09-0.7,0.26
					s-0.27,0.39-0.3,0.65H144.02z"/>
				<path d="M148.22,49.81l-1.32,3.27h-0.55l-1.32-3.27h0.6l1.01,2.6l1-2.6H148.22z"/>
				<path d="M151.37,53.08h-0.55v-0.35c-0.05,0.03-0.11,0.08-0.2,0.14s-0.16,0.11-0.24,0.14c-0.09,0.04-0.2,0.08-0.32,0.11
					s-0.26,0.05-0.42,0.05c-0.29,0-0.54-0.1-0.75-0.29s-0.31-0.44-0.31-0.75c0-0.25,0.05-0.45,0.16-0.6s0.26-0.27,0.46-0.36
					c0.2-0.09,0.44-0.15,0.72-0.18s0.58-0.05,0.9-0.07v-0.08c0-0.12-0.02-0.23-0.07-0.31s-0.11-0.15-0.19-0.19
					c-0.08-0.04-0.17-0.08-0.28-0.09s-0.22-0.02-0.34-0.02c-0.14,0-0.31,0.02-0.48,0.06s-0.36,0.09-0.55,0.17h-0.03v-0.56
					c0.11-0.03,0.26-0.06,0.47-0.1s0.4-0.05,0.6-0.05c0.23,0,0.43,0.02,0.6,0.06s0.32,0.1,0.44,0.2c0.12,0.09,0.22,0.21,0.28,0.35
					s0.1,0.32,0.1,0.53V53.08z M150.82,52.28v-0.91c-0.17,0.01-0.37,0.02-0.59,0.04s-0.41,0.05-0.54,0.08
					c-0.16,0.04-0.29,0.11-0.38,0.21s-0.15,0.23-0.15,0.39c0,0.19,0.06,0.33,0.17,0.42s0.29,0.14,0.52,0.14
					c0.19,0,0.37-0.04,0.53-0.11S150.69,52.38,150.82,52.28z"/>
				<path d="M154.13,53.05c-0.1,0.03-0.22,0.05-0.34,0.07s-0.23,0.03-0.33,0.03c-0.33,0-0.59-0.09-0.76-0.27s-0.26-0.47-0.26-0.86
					v-1.74h-0.37v-0.46h0.37v-0.94h0.55v0.94h1.14v0.46h-1.14v1.49c0,0.17,0,0.31,0.01,0.4s0.04,0.19,0.08,0.27
					c0.04,0.08,0.1,0.13,0.18,0.17s0.19,0.05,0.34,0.05c0.09,0,0.18-0.01,0.28-0.04s0.17-0.05,0.21-0.07h0.03V53.05z"/>
				<path d="M157.58,51.45c0,0.53-0.14,0.95-0.41,1.26s-0.64,0.46-1.1,0.46c-0.46,0-0.83-0.15-1.1-0.46s-0.41-0.73-0.41-1.26
					s0.14-0.96,0.41-1.26s0.64-0.46,1.1-0.46c0.46,0,0.83,0.15,1.1,0.46S157.58,50.91,157.58,51.45z M157.02,51.45
					c0-0.42-0.08-0.74-0.25-0.95s-0.4-0.31-0.69-0.31c-0.3,0-0.53,0.1-0.7,0.31s-0.25,0.52-0.25,0.95c0,0.41,0.08,0.72,0.25,0.93
					s0.4,0.32,0.69,0.32c0.29,0,0.52-0.11,0.69-0.32S157.02,51.86,157.02,51.45z"/>
			</g>
		</g>
		<g>
			<g>
				<path d="M181.77,45.46h-0.03c-0.06-0.02-0.14-0.04-0.24-0.05c-0.1-0.02-0.18-0.03-0.26-0.03c-0.24,0-0.41,0.05-0.51,0.16
					c-0.11,0.1-0.16,0.29-0.16,0.57v0.11h0.99v0.46h-0.98v2.81h-0.55v-2.81h-0.37v-0.46h0.37V46.1c0-0.39,0.1-0.69,0.29-0.9
					c0.19-0.21,0.47-0.31,0.84-0.31c0.12,0,0.23,0.01,0.33,0.02s0.19,0.03,0.27,0.04V45.46z"/>
				<path d="M184.91,47.85c0,0.53-0.14,0.95-0.41,1.26s-0.64,0.46-1.1,0.46c-0.46,0-0.83-0.15-1.1-0.46s-0.41-0.73-0.41-1.26
					s0.14-0.95,0.41-1.26c0.27-0.31,0.64-0.46,1.1-0.46c0.46,0,0.83,0.16,1.1,0.46C184.77,46.89,184.91,47.31,184.91,47.85z
					 M184.34,47.85c0-0.42-0.08-0.74-0.25-0.94c-0.17-0.21-0.4-0.31-0.69-0.31c-0.3,0-0.53,0.1-0.7,0.31
					c-0.17,0.21-0.25,0.52-0.25,0.94c0,0.41,0.08,0.72,0.25,0.93c0.17,0.21,0.4,0.32,0.69,0.32c0.29,0,0.52-0.11,0.69-0.31
					C184.26,48.57,184.34,48.26,184.34,47.85z"/>
				<path d="M187.81,46.81h-0.03c-0.08-0.02-0.16-0.03-0.24-0.04c-0.08-0.01-0.17-0.01-0.27-0.01c-0.17,0-0.33,0.04-0.49,0.11
					c-0.16,0.07-0.31,0.17-0.46,0.29v2.32h-0.55v-3.27h0.55v0.48c0.22-0.18,0.41-0.3,0.58-0.37c0.17-0.07,0.34-0.11,0.51-0.11
					c0.1,0,0.17,0,0.21,0.01c0.04,0,0.11,0.01,0.19,0.03V46.81z"/>
				<path d="M190.02,49.45c-0.1,0.03-0.22,0.05-0.34,0.07s-0.23,0.03-0.33,0.03c-0.33,0-0.59-0.09-0.76-0.27s-0.26-0.47-0.26-0.86
					v-1.74h-0.37v-0.46h0.37v-0.94h0.55v0.94h1.14v0.46h-1.14v1.49c0,0.17,0,0.31,0.01,0.4c0.01,0.1,0.04,0.19,0.08,0.27
					c0.04,0.08,0.1,0.14,0.18,0.17c0.08,0.04,0.19,0.05,0.34,0.05c0.09,0,0.18-0.01,0.28-0.04c0.1-0.03,0.17-0.05,0.21-0.07h0.03
					V49.45z"/>
				<path d="M193.43,47.9h-2.41c0,0.2,0.03,0.38,0.09,0.53c0.06,0.15,0.14,0.27,0.25,0.37c0.1,0.09,0.22,0.16,0.36,0.21
					s0.29,0.07,0.46,0.07c0.22,0,0.45-0.04,0.67-0.13c0.23-0.09,0.39-0.18,0.48-0.26h0.03v0.6c-0.19,0.08-0.38,0.14-0.57,0.2
					s-0.4,0.08-0.61,0.08c-0.54,0-0.97-0.15-1.27-0.44c-0.3-0.29-0.46-0.71-0.46-1.25c0-0.54,0.15-0.96,0.44-1.27
					s0.68-0.47,1.15-0.47c0.44,0,0.78,0.13,1.02,0.39s0.36,0.62,0.36,1.1V47.9z M192.89,47.48c0-0.29-0.07-0.51-0.22-0.67
					s-0.36-0.24-0.66-0.24c-0.29,0-0.53,0.09-0.7,0.26s-0.27,0.39-0.3,0.65H192.89z"/>
			</g>
		</g>
		<g>
			<g>
				<path d="M208.64,45.88h-0.55v-4.56h0.55V45.88z"/>
				<path d="M212.47,44.3h-2.41c0,0.2,0.03,0.38,0.09,0.53s0.14,0.27,0.25,0.37c0.1,0.09,0.22,0.16,0.36,0.21s0.29,0.07,0.46,0.07
					c0.22,0,0.45-0.04,0.67-0.13s0.39-0.18,0.48-0.26h0.03v0.6c-0.19,0.08-0.38,0.14-0.57,0.2s-0.4,0.08-0.61,0.08
					c-0.54,0-0.97-0.15-1.27-0.44s-0.46-0.71-0.46-1.25c0-0.54,0.15-0.96,0.44-1.27s0.68-0.47,1.15-0.47c0.44,0,0.78,0.13,1.02,0.39
					s0.36,0.62,0.36,1.1V44.3z M211.93,43.88c0-0.29-0.07-0.51-0.22-0.67s-0.36-0.24-0.66-0.24c-0.29,0-0.53,0.09-0.7,0.26
					s-0.27,0.39-0.3,0.65H211.93z"/>
				<path d="M215.95,45.51c0,0.55-0.13,0.96-0.38,1.22s-0.64,0.39-1.16,0.39c-0.17,0-0.34-0.01-0.51-0.04s-0.33-0.06-0.49-0.1v-0.56
					h0.03c0.09,0.04,0.23,0.08,0.43,0.13s0.39,0.08,0.59,0.08c0.19,0,0.34-0.02,0.47-0.07s0.22-0.11,0.29-0.19
					c0.07-0.08,0.12-0.17,0.15-0.28s0.04-0.23,0.04-0.36v-0.3c-0.17,0.13-0.32,0.23-0.48,0.3s-0.34,0.1-0.58,0.1
					c-0.39,0-0.7-0.14-0.93-0.42s-0.34-0.68-0.34-1.19c0-0.28,0.04-0.52,0.12-0.73s0.19-0.38,0.32-0.53
					c0.13-0.14,0.28-0.25,0.46-0.32s0.36-0.12,0.54-0.12c0.19,0,0.35,0.02,0.48,0.06s0.26,0.1,0.41,0.17l0.04-0.14h0.52V45.51z
					 M215.4,44.98V43.2c-0.15-0.07-0.28-0.11-0.41-0.14s-0.25-0.04-0.38-0.04c-0.3,0-0.54,0.1-0.71,0.3s-0.26,0.5-0.26,0.88
					c0,0.37,0.06,0.65,0.19,0.83s0.34,0.28,0.64,0.28c0.16,0,0.32-0.03,0.48-0.09S215.27,45.08,215.4,44.98z"/>
				<path d="M219.69,45.51c0,0.55-0.13,0.96-0.38,1.22s-0.64,0.39-1.16,0.39c-0.17,0-0.34-0.01-0.51-0.04s-0.33-0.06-0.49-0.1v-0.56
					h0.03c0.09,0.04,0.23,0.08,0.43,0.13s0.39,0.08,0.59,0.08c0.19,0,0.34-0.02,0.47-0.07s0.22-0.11,0.29-0.19
					c0.07-0.08,0.12-0.17,0.15-0.28s0.04-0.23,0.04-0.36v-0.3c-0.17,0.13-0.32,0.23-0.48,0.3s-0.34,0.1-0.58,0.1
					c-0.39,0-0.7-0.14-0.93-0.42s-0.34-0.68-0.34-1.19c0-0.28,0.04-0.52,0.12-0.73s0.19-0.38,0.32-0.53
					c0.13-0.14,0.28-0.25,0.46-0.32s0.36-0.12,0.54-0.12c0.19,0,0.35,0.02,0.48,0.06s0.26,0.1,0.41,0.17l0.04-0.14h0.52V45.51z
					 M219.14,44.98V43.2c-0.15-0.07-0.28-0.11-0.41-0.14s-0.25-0.04-0.38-0.04c-0.3,0-0.54,0.1-0.71,0.3s-0.26,0.5-0.26,0.88
					c0,0.37,0.06,0.65,0.19,0.83s0.34,0.28,0.64,0.28c0.16,0,0.32-0.03,0.48-0.09S219.01,45.08,219.14,44.98z"/>
				<path d="M223.52,44.3h-2.41c0,0.2,0.03,0.38,0.09,0.53s0.14,0.27,0.25,0.37c0.1,0.09,0.22,0.16,0.36,0.21s0.29,0.07,0.46,0.07
					c0.22,0,0.45-0.04,0.67-0.13s0.39-0.18,0.48-0.26h0.03v0.6c-0.19,0.08-0.38,0.14-0.57,0.2s-0.4,0.08-0.61,0.08
					c-0.54,0-0.97-0.15-1.27-0.44s-0.46-0.71-0.46-1.25c0-0.54,0.15-0.96,0.44-1.27s0.68-0.47,1.15-0.47c0.44,0,0.78,0.13,1.02,0.39
					s0.36,0.62,0.36,1.1V44.3z M222.98,43.88c0-0.29-0.07-0.51-0.22-0.67s-0.36-0.24-0.66-0.24c-0.29,0-0.53,0.09-0.7,0.26
					s-0.27,0.39-0.3,0.65H222.98z"/>
				<path d="M226.39,43.21h-0.03c-0.08-0.02-0.16-0.03-0.24-0.04s-0.17-0.01-0.27-0.01c-0.17,0-0.33,0.04-0.49,0.11
					s-0.31,0.17-0.46,0.29v2.32h-0.55v-3.27h0.55v0.48c0.22-0.18,0.41-0.3,0.58-0.37s0.34-0.11,0.51-0.11c0.1,0,0.17,0,0.21,0.01
					s0.11,0.01,0.19,0.03V43.21z"/>
				<path d="M231.69,45.88h-0.55v-1.86c0-0.14-0.01-0.28-0.02-0.41s-0.04-0.24-0.08-0.31c-0.04-0.08-0.11-0.15-0.19-0.19
					s-0.21-0.06-0.36-0.06c-0.15,0-0.31,0.04-0.46,0.12s-0.31,0.18-0.46,0.29c0.01,0.04,0.01,0.1,0.01,0.16s0.01,0.12,0.01,0.18
					v2.09h-0.55v-1.86c0-0.14-0.01-0.28-0.02-0.41s-0.04-0.23-0.08-0.31c-0.04-0.08-0.11-0.15-0.19-0.19s-0.21-0.06-0.36-0.06
					c-0.15,0-0.3,0.04-0.45,0.11s-0.3,0.17-0.45,0.28v2.44h-0.55v-3.27h0.55v0.36c0.17-0.14,0.34-0.25,0.51-0.33
					s0.35-0.12,0.55-0.12c0.22,0,0.41,0.05,0.57,0.14s0.27,0.22,0.35,0.39c0.22-0.19,0.43-0.32,0.61-0.41s0.38-0.12,0.59-0.12
					c0.36,0,0.62,0.11,0.8,0.33s0.26,0.52,0.26,0.91V45.88z"/>
				<path d="M235.49,44.3h-2.41c0,0.2,0.03,0.38,0.09,0.53s0.14,0.27,0.25,0.37c0.1,0.09,0.22,0.16,0.36,0.21s0.29,0.07,0.46,0.07
					c0.22,0,0.45-0.04,0.67-0.13s0.39-0.18,0.48-0.26h0.03v0.6c-0.19,0.08-0.38,0.14-0.57,0.2s-0.4,0.08-0.61,0.08
					c-0.54,0-0.97-0.15-1.27-0.44s-0.46-0.71-0.46-1.25c0-0.54,0.15-0.96,0.44-1.27s0.68-0.47,1.15-0.47c0.44,0,0.78,0.13,1.02,0.39
					s0.36,0.62,0.36,1.1V44.3z M234.95,43.88c0-0.29-0.07-0.51-0.22-0.67s-0.36-0.24-0.66-0.24c-0.29,0-0.53,0.09-0.7,0.26
					s-0.27,0.39-0.3,0.65H234.95z"/>
				<path d="M239.06,45.88h-0.55v-1.86c0-0.15-0.01-0.29-0.03-0.42s-0.05-0.23-0.1-0.31c-0.05-0.08-0.12-0.14-0.21-0.18
					s-0.21-0.06-0.36-0.06c-0.15,0-0.31,0.04-0.47,0.11s-0.32,0.17-0.47,0.28v2.44h-0.55v-3.27h0.55v0.36
					c0.17-0.14,0.35-0.25,0.53-0.33s0.37-0.12,0.57-0.12c0.35,0,0.62,0.11,0.81,0.32s0.28,0.52,0.28,0.92V45.88z"/>
				<path d="M241.82,45.85c-0.1,0.03-0.22,0.05-0.34,0.07s-0.23,0.03-0.33,0.03c-0.33,0-0.59-0.09-0.76-0.27s-0.26-0.47-0.26-0.86
					v-1.74h-0.37v-0.46h0.37v-0.94h0.55v0.94h1.14v0.46h-1.14v1.49c0,0.17,0,0.31,0.01,0.4s0.04,0.19,0.08,0.27
					c0.04,0.08,0.1,0.13,0.18,0.17s0.19,0.05,0.34,0.05c0.09,0,0.18-0.01,0.28-0.04s0.17-0.05,0.21-0.07h0.03V45.85z"/>
				<path d="M245.22,44.3h-2.41c0,0.2,0.03,0.38,0.09,0.53s0.14,0.27,0.25,0.37c0.1,0.09,0.22,0.16,0.36,0.21s0.29,0.07,0.46,0.07
					c0.22,0,0.45-0.04,0.67-0.13s0.39-0.18,0.48-0.26h0.03v0.6c-0.19,0.08-0.38,0.14-0.57,0.2s-0.4,0.08-0.61,0.08
					c-0.54,0-0.97-0.15-1.27-0.44s-0.46-0.71-0.46-1.25c0-0.54,0.15-0.96,0.44-1.27s0.68-0.47,1.15-0.47c0.44,0,0.78,0.13,1.02,0.39
					s0.36,0.62,0.36,1.1V44.3z M244.69,43.88c0-0.29-0.07-0.51-0.22-0.67s-0.36-0.24-0.66-0.24c-0.29,0-0.53,0.09-0.7,0.26
					s-0.27,0.39-0.3,0.65H244.69z"/>
				<path d="M217.05,53.08h-0.55v-0.34c-0.16,0.14-0.32,0.24-0.5,0.32s-0.36,0.11-0.56,0.11c-0.39,0-0.7-0.15-0.93-0.45
					s-0.34-0.72-0.34-1.25c0-0.28,0.04-0.52,0.12-0.74s0.19-0.4,0.32-0.55c0.13-0.15,0.29-0.26,0.46-0.34s0.36-0.12,0.55-0.12
					c0.17,0,0.32,0.02,0.46,0.05s0.27,0.09,0.42,0.17v-1.42h0.55V53.08z M216.5,52.28V50.4c-0.15-0.07-0.28-0.11-0.4-0.14
					s-0.25-0.04-0.38-0.04c-0.31,0-0.55,0.11-0.72,0.32s-0.26,0.52-0.26,0.91c0,0.39,0.07,0.68,0.2,0.89s0.35,0.3,0.64,0.3
					c0.16,0,0.31-0.04,0.47-0.1S216.36,52.38,216.5,52.28z"/>
				<path d="M220.68,53.08h-0.55v-0.35c-0.05,0.03-0.11,0.08-0.2,0.14s-0.16,0.11-0.24,0.14c-0.09,0.04-0.2,0.08-0.32,0.11
					s-0.26,0.05-0.42,0.05c-0.29,0-0.54-0.1-0.75-0.29s-0.31-0.44-0.31-0.75c0-0.25,0.05-0.45,0.16-0.6s0.26-0.27,0.46-0.36
					c0.2-0.09,0.44-0.15,0.72-0.18s0.58-0.05,0.9-0.07v-0.08c0-0.12-0.02-0.23-0.07-0.31s-0.11-0.15-0.19-0.19
					c-0.08-0.04-0.17-0.08-0.28-0.09s-0.22-0.02-0.34-0.02c-0.14,0-0.31,0.02-0.48,0.06s-0.36,0.09-0.55,0.17h-0.03v-0.56
					c0.11-0.03,0.26-0.06,0.47-0.1s0.4-0.05,0.6-0.05c0.23,0,0.43,0.02,0.6,0.06s0.32,0.1,0.44,0.2c0.12,0.09,0.22,0.21,0.28,0.35
					s0.1,0.32,0.1,0.53V53.08z M220.13,52.28v-0.91c-0.17,0.01-0.37,0.02-0.59,0.04s-0.41,0.05-0.54,0.08
					c-0.16,0.04-0.29,0.11-0.38,0.21s-0.15,0.23-0.15,0.39c0,0.19,0.06,0.33,0.17,0.42s0.29,0.14,0.52,0.14
					c0.19,0,0.37-0.04,0.53-0.11S219.99,52.38,220.13,52.28z"/>
				<path d="M224.47,53.08h-0.55v-1.86c0-0.15-0.01-0.29-0.03-0.42s-0.05-0.23-0.1-0.31c-0.05-0.08-0.12-0.14-0.21-0.18
					s-0.21-0.06-0.36-0.06c-0.15,0-0.31,0.04-0.47,0.11s-0.32,0.17-0.47,0.28v2.44h-0.55v-3.27h0.55v0.36
					c0.17-0.14,0.35-0.25,0.53-0.33s0.37-0.12,0.57-0.12c0.35,0,0.62,0.11,0.81,0.32s0.28,0.52,0.28,0.92V53.08z"/>
				<path d="M228.27,53.08h-0.55v-1.86c0-0.15-0.01-0.29-0.03-0.42s-0.05-0.23-0.1-0.31c-0.05-0.08-0.12-0.14-0.21-0.18
					s-0.21-0.06-0.36-0.06c-0.15,0-0.31,0.04-0.47,0.11s-0.32,0.17-0.47,0.28v2.44h-0.55v-3.27h0.55v0.36
					c0.17-0.14,0.35-0.25,0.53-0.33s0.37-0.12,0.57-0.12c0.35,0,0.62,0.11,0.81,0.32s0.28,0.52,0.28,0.92V53.08z"/>
				<path d="M232.12,51.45c0,0.53-0.14,0.95-0.41,1.26s-0.64,0.46-1.1,0.46c-0.46,0-0.83-0.15-1.1-0.46s-0.41-0.73-0.41-1.26
					s0.14-0.96,0.41-1.26s0.64-0.46,1.1-0.46c0.46,0,0.83,0.15,1.1,0.46S232.12,50.91,232.12,51.45z M231.55,51.45
					c0-0.42-0.08-0.74-0.25-0.95s-0.4-0.31-0.69-0.31c-0.3,0-0.53,0.1-0.7,0.31s-0.25,0.52-0.25,0.95c0,0.41,0.08,0.72,0.25,0.93
					s0.4,0.32,0.69,0.32c0.29,0,0.52-0.11,0.69-0.32S231.55,51.86,231.55,51.45z"/>
				<path d="M235.31,52.14c0,0.3-0.12,0.54-0.37,0.74s-0.58,0.29-1.01,0.29c-0.24,0-0.46-0.03-0.67-0.09s-0.37-0.12-0.51-0.19v-0.62
					h0.03c0.17,0.13,0.37,0.23,0.58,0.31s0.42,0.12,0.61,0.12c0.24,0,0.43-0.04,0.57-0.12s0.21-0.2,0.21-0.37
					c0-0.13-0.04-0.23-0.11-0.29s-0.22-0.12-0.43-0.17c-0.08-0.02-0.18-0.04-0.31-0.06s-0.24-0.05-0.34-0.08
					c-0.29-0.08-0.49-0.19-0.61-0.34s-0.18-0.33-0.18-0.54c0-0.13,0.03-0.26,0.08-0.38s0.14-0.23,0.25-0.32
					c0.11-0.09,0.25-0.17,0.42-0.22s0.36-0.08,0.57-0.08c0.2,0,0.39,0.02,0.59,0.07s0.37,0.11,0.5,0.17v0.59h-0.03
					c-0.14-0.1-0.31-0.19-0.51-0.26s-0.4-0.11-0.59-0.11c-0.2,0-0.37,0.04-0.51,0.12s-0.21,0.19-0.21,0.34
					c0,0.13,0.04,0.24,0.13,0.3c0.08,0.07,0.21,0.12,0.4,0.17c0.1,0.02,0.22,0.05,0.34,0.07s0.23,0.04,0.31,0.06
					c0.26,0.06,0.45,0.16,0.59,0.3C235.24,51.71,235.31,51.9,235.31,52.14z"/>
				<path d="M238.89,51.45c0,0.53-0.14,0.95-0.41,1.26s-0.64,0.46-1.1,0.46c-0.46,0-0.83-0.15-1.1-0.46s-0.41-0.73-0.41-1.26
					s0.14-0.96,0.41-1.26s0.64-0.46,1.1-0.46c0.46,0,0.83,0.15,1.1,0.46S238.89,50.91,238.89,51.45z M238.32,51.45
					c0-0.42-0.08-0.74-0.25-0.95s-0.4-0.31-0.69-0.31c-0.3,0-0.53,0.1-0.7,0.31s-0.25,0.52-0.25,0.95c0,0.41,0.08,0.72,0.25,0.93
					s0.4,0.32,0.69,0.32c0.29,0,0.52-0.11,0.69-0.32S238.32,51.86,238.32,51.45z"/>
			</g>
		</g>
		<g>
			<g>
				<path d="M256.99,49.48h-0.55v-0.34c-0.16,0.14-0.32,0.24-0.5,0.32c-0.17,0.08-0.36,0.11-0.56,0.11c-0.39,0-0.7-0.15-0.93-0.45
					s-0.34-0.72-0.34-1.25c0-0.28,0.04-0.52,0.12-0.74s0.19-0.4,0.32-0.55c0.13-0.15,0.29-0.26,0.46-0.34s0.36-0.12,0.55-0.12
					c0.17,0,0.32,0.02,0.46,0.05c0.13,0.04,0.27,0.09,0.42,0.17v-1.42h0.55V49.48z M256.44,48.67V46.8
					c-0.15-0.07-0.28-0.11-0.4-0.14c-0.12-0.03-0.25-0.04-0.38-0.04c-0.31,0-0.55,0.11-0.72,0.32s-0.26,0.52-0.26,0.91
					c0,0.39,0.07,0.68,0.2,0.89s0.35,0.3,0.64,0.3c0.16,0,0.31-0.03,0.47-0.1C256.15,48.87,256.3,48.78,256.44,48.67z"/>
				<path d="M260.62,49.48h-0.55v-0.35c-0.05,0.03-0.11,0.08-0.2,0.14s-0.16,0.11-0.24,0.14c-0.09,0.04-0.2,0.08-0.32,0.11
					s-0.26,0.04-0.42,0.04c-0.29,0-0.54-0.1-0.75-0.29s-0.31-0.44-0.31-0.75c0-0.25,0.05-0.45,0.16-0.6s0.26-0.27,0.46-0.36
					c0.2-0.09,0.44-0.15,0.72-0.18s0.58-0.05,0.9-0.07v-0.08c0-0.12-0.02-0.23-0.07-0.31s-0.11-0.15-0.19-0.19
					c-0.08-0.04-0.17-0.08-0.28-0.09s-0.22-0.02-0.34-0.02c-0.14,0-0.31,0.02-0.48,0.06s-0.36,0.09-0.55,0.17h-0.03v-0.56
					c0.11-0.03,0.26-0.06,0.47-0.1s0.4-0.05,0.6-0.05c0.23,0,0.43,0.02,0.6,0.06s0.32,0.1,0.44,0.19c0.12,0.09,0.22,0.21,0.28,0.35
					s0.1,0.32,0.1,0.53V49.48z M260.07,48.67v-0.91c-0.17,0.01-0.37,0.02-0.59,0.04s-0.41,0.05-0.54,0.08
					c-0.16,0.04-0.29,0.12-0.38,0.21s-0.15,0.22-0.15,0.39c0,0.19,0.06,0.33,0.17,0.42s0.29,0.14,0.52,0.14
					c0.19,0,0.37-0.04,0.53-0.11S259.94,48.78,260.07,48.67z"/>
				<path d="M264.42,49.48h-0.55v-1.86c0-0.15-0.01-0.29-0.03-0.42s-0.05-0.24-0.1-0.31c-0.05-0.08-0.12-0.14-0.21-0.18
					s-0.21-0.06-0.36-0.06c-0.15,0-0.31,0.04-0.47,0.11s-0.32,0.17-0.47,0.28v2.44h-0.55v-3.27h0.55v0.36
					c0.17-0.14,0.35-0.25,0.53-0.33s0.37-0.12,0.57-0.12c0.35,0,0.62,0.11,0.81,0.32s0.28,0.52,0.28,0.92V49.48z"/>
				<path d="M268.21,49.48h-0.55v-1.86c0-0.15-0.01-0.29-0.03-0.42s-0.05-0.24-0.1-0.31c-0.05-0.08-0.12-0.14-0.21-0.18
					s-0.21-0.06-0.36-0.06c-0.15,0-0.31,0.04-0.47,0.11s-0.32,0.17-0.47,0.28v2.44h-0.55v-3.27h0.55v0.36
					c0.17-0.14,0.35-0.25,0.53-0.33s0.37-0.12,0.57-0.12c0.35,0,0.62,0.11,0.81,0.32s0.28,0.52,0.28,0.92V49.48z"/>
				<path d="M272.06,47.85c0,0.53-0.14,0.95-0.41,1.26s-0.64,0.46-1.1,0.46c-0.46,0-0.83-0.15-1.1-0.46s-0.41-0.73-0.41-1.26
					s0.14-0.95,0.41-1.26s0.64-0.46,1.1-0.46c0.46,0,0.83,0.16,1.1,0.46S272.06,47.31,272.06,47.85z M271.49,47.85
					c0-0.42-0.08-0.74-0.25-0.94s-0.4-0.31-0.69-0.31c-0.3,0-0.53,0.1-0.7,0.31s-0.25,0.52-0.25,0.94c0,0.41,0.08,0.72,0.25,0.93
					s0.4,0.32,0.69,0.32c0.29,0,0.52-0.1,0.69-0.31S271.49,48.26,271.49,47.85z"/>
				<path d="M275.25,48.54c0,0.3-0.12,0.54-0.37,0.74s-0.58,0.29-1.01,0.29c-0.24,0-0.46-0.03-0.67-0.09s-0.37-0.12-0.51-0.19v-0.62
					h0.03c0.17,0.13,0.37,0.24,0.58,0.31s0.42,0.12,0.61,0.12c0.24,0,0.43-0.04,0.57-0.12s0.21-0.2,0.21-0.37
					c0-0.13-0.04-0.23-0.11-0.29s-0.22-0.12-0.43-0.17c-0.08-0.02-0.18-0.04-0.31-0.06s-0.24-0.05-0.34-0.08
					c-0.29-0.08-0.49-0.19-0.61-0.33s-0.18-0.33-0.18-0.54c0-0.13,0.03-0.26,0.08-0.38s0.14-0.23,0.25-0.32
					c0.11-0.09,0.25-0.16,0.42-0.22s0.36-0.08,0.57-0.08c0.2,0,0.39,0.02,0.59,0.07s0.37,0.11,0.5,0.17v0.59h-0.03
					c-0.14-0.1-0.31-0.19-0.51-0.26s-0.4-0.11-0.59-0.11c-0.2,0-0.37,0.04-0.51,0.12s-0.21,0.19-0.21,0.34
					c0,0.13,0.04,0.24,0.13,0.3c0.08,0.07,0.21,0.12,0.4,0.17c0.1,0.02,0.22,0.05,0.34,0.07s0.23,0.04,0.31,0.06
					c0.26,0.06,0.45,0.16,0.59,0.3C275.18,48.11,275.25,48.3,275.25,48.54z"/>
				<path d="M278.83,47.85c0,0.53-0.14,0.95-0.41,1.26s-0.64,0.46-1.1,0.46c-0.46,0-0.83-0.15-1.1-0.46s-0.41-0.73-0.41-1.26
					s0.14-0.95,0.41-1.26s0.64-0.46,1.1-0.46c0.46,0,0.83,0.16,1.1,0.46S278.83,47.31,278.83,47.85z M278.26,47.85
					c0-0.42-0.08-0.74-0.25-0.94s-0.4-0.31-0.69-0.31c-0.3,0-0.53,0.1-0.7,0.31s-0.25,0.52-0.25,0.94c0,0.41,0.08,0.72,0.25,0.93
					s0.4,0.32,0.69,0.32c0.29,0,0.52-0.1,0.69-0.31S278.26,48.26,278.26,47.85z"/>
			</g>
		</g>
		<g>
			<g>
				<path d="M292.02,41.85h-0.03c-0.06-0.02-0.14-0.04-0.24-0.05s-0.18-0.03-0.26-0.03c-0.24,0-0.41,0.05-0.51,0.16
					s-0.16,0.29-0.16,0.57v0.11h0.99v0.46h-0.98v2.81h-0.55v-2.81h-0.37v-0.46h0.37V42.5c0-0.39,0.1-0.69,0.29-0.89
					s0.47-0.31,0.84-0.31c0.12,0,0.23,0.01,0.33,0.02s0.19,0.03,0.27,0.04V41.85z"/>
				<path d="M295.16,44.25c0,0.53-0.14,0.95-0.41,1.26s-0.64,0.46-1.1,0.46c-0.46,0-0.83-0.15-1.1-0.46s-0.41-0.73-0.41-1.26
					s0.14-0.95,0.41-1.26s0.64-0.46,1.1-0.46c0.46,0,0.83,0.16,1.1,0.46S295.16,43.71,295.16,44.25z M294.59,44.25
					c0-0.42-0.08-0.74-0.25-0.94s-0.4-0.31-0.69-0.31c-0.3,0-0.53,0.1-0.7,0.31s-0.25,0.52-0.25,0.94c0,0.41,0.08,0.72,0.25,0.93
					s0.4,0.32,0.69,0.32c0.29,0,0.52-0.1,0.69-0.31S294.59,44.66,294.59,44.25z"/>
				<path d="M298.06,43.21h-0.03c-0.08-0.02-0.16-0.03-0.24-0.04s-0.17-0.01-0.27-0.01c-0.17,0-0.33,0.04-0.49,0.11
					s-0.31,0.17-0.46,0.29v2.32h-0.55v-3.27h0.55v0.48c0.22-0.18,0.41-0.3,0.58-0.37s0.34-0.11,0.51-0.11c0.1,0,0.17,0,0.21,0.01
					s0.11,0.01,0.19,0.03V43.21z"/>
				<path d="M300.27,45.85c-0.1,0.03-0.22,0.05-0.34,0.07s-0.23,0.03-0.33,0.03c-0.33,0-0.59-0.09-0.76-0.27s-0.26-0.47-0.26-0.86
					v-1.74h-0.37v-0.46h0.37v-0.94h0.55v0.94h1.14v0.46h-1.14v1.49c0,0.17,0,0.31,0.01,0.4s0.04,0.19,0.08,0.27
					c0.04,0.08,0.1,0.14,0.18,0.17s0.19,0.05,0.34,0.05c0.09,0,0.18-0.01,0.28-0.04s0.17-0.05,0.21-0.07h0.03V45.85z"/>
				<path d="M303.68,44.3h-2.41c0,0.2,0.03,0.38,0.09,0.53s0.14,0.27,0.25,0.37c0.1,0.09,0.22,0.16,0.36,0.21s0.29,0.07,0.46,0.07
					c0.22,0,0.45-0.04,0.67-0.13s0.39-0.18,0.48-0.26h0.03v0.6c-0.19,0.08-0.38,0.14-0.57,0.2s-0.4,0.08-0.61,0.08
					c-0.54,0-0.97-0.15-1.27-0.44s-0.46-0.71-0.46-1.25c0-0.54,0.15-0.96,0.44-1.27s0.68-0.47,1.15-0.47c0.44,0,0.78,0.13,1.02,0.39
					s0.36,0.62,0.36,1.1V44.3z M303.14,43.88c0-0.29-0.07-0.51-0.22-0.67s-0.36-0.24-0.66-0.24c-0.29,0-0.53,0.09-0.7,0.26
					s-0.27,0.39-0.3,0.65H303.14z"/>
				<path d="M309.29,45.88h-0.55v-1.86c0-0.14-0.01-0.28-0.02-0.41s-0.04-0.24-0.08-0.31c-0.04-0.08-0.11-0.15-0.19-0.19
					s-0.21-0.06-0.36-0.06c-0.15,0-0.31,0.04-0.46,0.12s-0.31,0.17-0.46,0.29c0.01,0.04,0.01,0.1,0.01,0.16s0.01,0.12,0.01,0.18
					v2.09h-0.55v-1.86c0-0.14-0.01-0.28-0.02-0.41s-0.04-0.23-0.08-0.31c-0.04-0.08-0.11-0.15-0.19-0.19s-0.21-0.06-0.36-0.06
					c-0.15,0-0.3,0.04-0.45,0.11s-0.3,0.17-0.45,0.28v2.44h-0.55v-3.27h0.55v0.36c0.17-0.14,0.34-0.25,0.51-0.33
					s0.35-0.12,0.55-0.12c0.22,0,0.41,0.05,0.57,0.14s0.27,0.22,0.35,0.39c0.22-0.19,0.43-0.32,0.61-0.41s0.38-0.12,0.59-0.12
					c0.36,0,0.62,0.11,0.8,0.33s0.26,0.52,0.26,0.91V45.88z"/>
				<path d="M313.09,44.3h-2.41c0,0.2,0.03,0.38,0.09,0.53s0.14,0.27,0.25,0.37c0.1,0.09,0.22,0.16,0.36,0.21s0.29,0.07,0.46,0.07
					c0.22,0,0.45-0.04,0.67-0.13s0.39-0.18,0.48-0.26h0.03v0.6c-0.19,0.08-0.38,0.14-0.57,0.2s-0.4,0.08-0.61,0.08
					c-0.54,0-0.97-0.15-1.27-0.44s-0.46-0.71-0.46-1.25c0-0.54,0.15-0.96,0.44-1.27s0.68-0.47,1.15-0.47c0.44,0,0.78,0.13,1.02,0.39
					s0.36,0.62,0.36,1.1V44.3z M312.55,43.88c0-0.29-0.07-0.51-0.22-0.67s-0.36-0.24-0.66-0.24c-0.29,0-0.53,0.09-0.7,0.26
					s-0.27,0.39-0.3,0.65H312.55z"/>
				<path d="M316.66,45.88h-0.55v-1.86c0-0.15-0.01-0.29-0.03-0.42s-0.05-0.24-0.1-0.31c-0.05-0.08-0.12-0.14-0.21-0.18
					s-0.21-0.06-0.36-0.06c-0.15,0-0.31,0.04-0.47,0.11s-0.32,0.17-0.47,0.28v2.44h-0.55v-3.27h0.55v0.36
					c0.17-0.14,0.35-0.25,0.53-0.33s0.37-0.12,0.57-0.12c0.35,0,0.62,0.11,0.81,0.32s0.28,0.52,0.28,0.92V45.88z"/>
				<path d="M319.42,45.85c-0.1,0.03-0.22,0.05-0.34,0.07s-0.23,0.03-0.33,0.03c-0.33,0-0.59-0.09-0.76-0.27s-0.26-0.47-0.26-0.86
					v-1.74h-0.37v-0.46h0.37v-0.94h0.55v0.94h1.14v0.46h-1.14v1.49c0,0.17,0,0.31,0.01,0.4s0.04,0.19,0.08,0.27
					c0.04,0.08,0.1,0.14,0.18,0.17s0.19,0.05,0.34,0.05c0.09,0,0.18-0.01,0.28-0.04s0.17-0.05,0.21-0.07h0.03V45.85z"/>
				<path d="M322.82,44.3h-2.41c0,0.2,0.03,0.38,0.09,0.53s0.14,0.27,0.25,0.37c0.1,0.09,0.22,0.16,0.36,0.21s0.29,0.07,0.46,0.07
					c0.22,0,0.45-0.04,0.67-0.13s0.39-0.18,0.48-0.26h0.03v0.6c-0.19,0.08-0.38,0.14-0.57,0.2s-0.4,0.08-0.61,0.08
					c-0.54,0-0.97-0.15-1.27-0.44s-0.46-0.71-0.46-1.25c0-0.54,0.15-0.96,0.44-1.27s0.68-0.47,1.15-0.47c0.44,0,0.78,0.13,1.02,0.39
					s0.36,0.62,0.36,1.1V44.3z M322.29,43.88c0-0.29-0.07-0.51-0.22-0.67s-0.36-0.24-0.66-0.24c-0.29,0-0.53,0.09-0.7,0.26
					s-0.27,0.39-0.3,0.65H322.29z"/>
				<path d="M296.94,53.08h-0.55v-0.34c-0.16,0.14-0.32,0.24-0.5,0.32s-0.36,0.11-0.56,0.11c-0.39,0-0.7-0.15-0.93-0.45
					s-0.34-0.72-0.34-1.25c0-0.28,0.04-0.52,0.12-0.74s0.19-0.4,0.32-0.55c0.13-0.15,0.29-0.26,0.46-0.34s0.36-0.12,0.55-0.12
					c0.17,0,0.32,0.02,0.46,0.05s0.27,0.09,0.42,0.17v-1.42h0.55V53.08z M296.39,52.27V50.4c-0.15-0.07-0.28-0.11-0.4-0.14
					s-0.25-0.04-0.38-0.04c-0.31,0-0.55,0.11-0.72,0.32s-0.26,0.52-0.26,0.91c0,0.39,0.07,0.68,0.2,0.89s0.35,0.3,0.64,0.3
					c0.16,0,0.31-0.03,0.47-0.1S296.25,52.38,296.39,52.27z"/>
				<path d="M300.57,53.08h-0.55v-0.35c-0.05,0.03-0.11,0.08-0.2,0.14s-0.16,0.11-0.24,0.14c-0.09,0.04-0.2,0.08-0.32,0.11
					s-0.26,0.04-0.42,0.04c-0.29,0-0.54-0.1-0.75-0.29s-0.31-0.44-0.31-0.75c0-0.25,0.05-0.45,0.16-0.6s0.26-0.27,0.46-0.36
					c0.2-0.09,0.44-0.15,0.72-0.18s0.58-0.05,0.9-0.07v-0.08c0-0.12-0.02-0.23-0.07-0.31s-0.11-0.15-0.19-0.19
					c-0.08-0.04-0.17-0.08-0.28-0.09s-0.22-0.02-0.34-0.02c-0.14,0-0.31,0.02-0.48,0.06s-0.36,0.09-0.55,0.17h-0.03v-0.56
					c0.11-0.03,0.26-0.06,0.47-0.1s0.4-0.05,0.6-0.05c0.23,0,0.43,0.02,0.6,0.06s0.32,0.1,0.44,0.19c0.12,0.09,0.22,0.21,0.28,0.35
					s0.1,0.32,0.1,0.53V53.08z M300.02,52.27v-0.91c-0.17,0.01-0.37,0.02-0.59,0.04s-0.41,0.05-0.54,0.08
					c-0.16,0.04-0.29,0.12-0.38,0.21s-0.15,0.22-0.15,0.39c0,0.19,0.06,0.33,0.17,0.42s0.29,0.14,0.52,0.14
					c0.19,0,0.37-0.04,0.53-0.11S299.89,52.38,300.02,52.27z"/>
				<path d="M304.37,53.08h-0.55v-1.86c0-0.15-0.01-0.29-0.03-0.42s-0.05-0.24-0.1-0.31c-0.05-0.08-0.12-0.14-0.21-0.18
					s-0.21-0.06-0.36-0.06c-0.15,0-0.31,0.04-0.47,0.11s-0.32,0.17-0.47,0.28v2.44h-0.55v-3.27h0.55v0.36
					c0.17-0.14,0.35-0.25,0.53-0.33s0.37-0.12,0.57-0.12c0.35,0,0.62,0.11,0.81,0.32s0.28,0.52,0.28,0.92V53.08z"/>
				<path d="M308.16,53.08h-0.55v-1.86c0-0.15-0.01-0.29-0.03-0.42s-0.05-0.24-0.1-0.31c-0.05-0.08-0.12-0.14-0.21-0.18
					s-0.21-0.06-0.36-0.06c-0.15,0-0.31,0.04-0.47,0.11s-0.32,0.17-0.47,0.28v2.44h-0.55v-3.27h0.55v0.36
					c0.17-0.14,0.35-0.25,0.53-0.33s0.37-0.12,0.57-0.12c0.35,0,0.62,0.11,0.81,0.32s0.28,0.52,0.28,0.92V53.08z"/>
				<path d="M312.01,51.45c0,0.53-0.14,0.95-0.41,1.26s-0.64,0.46-1.1,0.46c-0.46,0-0.83-0.15-1.1-0.46s-0.41-0.73-0.41-1.26
					s0.14-0.95,0.41-1.26s0.64-0.46,1.1-0.46c0.46,0,0.83,0.16,1.1,0.46S312.01,50.91,312.01,51.45z M311.45,51.45
					c0-0.42-0.08-0.74-0.25-0.94s-0.4-0.31-0.69-0.31c-0.3,0-0.53,0.1-0.7,0.31s-0.25,0.52-0.25,0.94c0,0.41,0.08,0.72,0.25,0.93
					s0.4,0.32,0.69,0.32c0.29,0,0.52-0.1,0.69-0.31S311.45,51.86,311.45,51.45z"/>
				<path d="M315.2,52.14c0,0.3-0.12,0.54-0.37,0.74s-0.58,0.29-1.01,0.29c-0.24,0-0.46-0.03-0.67-0.09s-0.37-0.12-0.51-0.19v-0.62
					h0.03c0.17,0.13,0.37,0.24,0.58,0.31s0.42,0.12,0.61,0.12c0.24,0,0.43-0.04,0.57-0.12s0.21-0.2,0.21-0.37
					c0-0.13-0.04-0.23-0.11-0.29s-0.22-0.12-0.43-0.17c-0.08-0.02-0.18-0.04-0.31-0.06s-0.24-0.05-0.34-0.08
					c-0.29-0.08-0.49-0.19-0.61-0.33s-0.18-0.33-0.18-0.54c0-0.13,0.03-0.26,0.08-0.38s0.14-0.23,0.25-0.32
					c0.11-0.09,0.25-0.16,0.42-0.22s0.36-0.08,0.57-0.08c0.2,0,0.39,0.02,0.59,0.07s0.37,0.11,0.5,0.17v0.59h-0.03
					c-0.14-0.1-0.31-0.19-0.51-0.26s-0.4-0.11-0.59-0.11c-0.2,0-0.37,0.04-0.51,0.12s-0.21,0.19-0.21,0.34
					c0,0.13,0.04,0.24,0.13,0.3c0.08,0.07,0.21,0.12,0.4,0.17c0.1,0.02,0.22,0.05,0.34,0.07s0.23,0.04,0.31,0.06
					c0.26,0.06,0.45,0.16,0.59,0.3C315.13,51.71,315.2,51.9,315.2,52.14z"/>
				<path d="M318.78,51.45c0,0.53-0.14,0.95-0.41,1.26s-0.64,0.46-1.1,0.46c-0.46,0-0.83-0.15-1.1-0.46s-0.41-0.73-0.41-1.26
					s0.14-0.95,0.41-1.26s0.64-0.46,1.1-0.46c0.46,0,0.83,0.16,1.1,0.46S318.78,50.91,318.78,51.45z M318.21,51.45
					c0-0.42-0.08-0.74-0.25-0.94s-0.4-0.31-0.69-0.31c-0.3,0-0.53,0.1-0.7,0.31s-0.25,0.52-0.25,0.94c0,0.41,0.08,0.72,0.25,0.93
					s0.4,0.32,0.69,0.32c0.29,0,0.52-0.1,0.69-0.31S318.21,51.86,318.21,51.45z"/>
			</g>
		</g>
		<g>
			<g>
				<path d="M332.69,49.48h-0.55v-0.34c-0.16,0.14-0.32,0.24-0.5,0.32s-0.36,0.11-0.56,0.11c-0.39,0-0.7-0.15-0.93-0.45
					s-0.34-0.72-0.34-1.25c0-0.28,0.04-0.52,0.12-0.74s0.19-0.4,0.32-0.55c0.13-0.15,0.29-0.26,0.46-0.34s0.36-0.12,0.55-0.12
					c0.17,0,0.32,0.02,0.46,0.05c0.13,0.04,0.27,0.09,0.42,0.17v-1.42h0.55V49.48z M332.14,48.67V46.8
					c-0.15-0.07-0.28-0.11-0.4-0.14s-0.25-0.04-0.38-0.04c-0.31,0-0.55,0.11-0.72,0.32s-0.26,0.52-0.26,0.91
					c0,0.39,0.07,0.68,0.2,0.89c0.13,0.2,0.35,0.3,0.64,0.3c0.16,0,0.31-0.03,0.47-0.1C331.85,48.87,332,48.78,332.14,48.67z"/>
				<path d="M334.37,45.66h-0.62v-0.57h0.62V45.66z M334.33,49.48h-0.55v-3.27h0.55V49.48z"/>
				<path d="M337.76,48.54c0,0.3-0.12,0.54-0.37,0.74s-0.58,0.29-1.01,0.29c-0.24,0-0.46-0.03-0.67-0.09
					c-0.2-0.06-0.37-0.12-0.51-0.19v-0.62h0.03c0.17,0.13,0.37,0.24,0.58,0.31c0.21,0.08,0.42,0.12,0.61,0.12
					c0.24,0,0.43-0.04,0.57-0.12s0.21-0.2,0.21-0.37c0-0.13-0.04-0.23-0.11-0.29s-0.22-0.12-0.43-0.17
					c-0.08-0.02-0.18-0.04-0.31-0.06s-0.24-0.05-0.34-0.08c-0.29-0.08-0.49-0.19-0.61-0.34c-0.12-0.15-0.18-0.33-0.18-0.54
					c0-0.13,0.03-0.26,0.08-0.38s0.14-0.23,0.25-0.32c0.11-0.09,0.25-0.17,0.42-0.22c0.17-0.05,0.36-0.08,0.57-0.08
					c0.2,0,0.39,0.02,0.59,0.07c0.2,0.05,0.37,0.11,0.5,0.17v0.59h-0.03c-0.14-0.1-0.31-0.19-0.51-0.26
					c-0.2-0.07-0.4-0.11-0.59-0.11c-0.2,0-0.37,0.04-0.51,0.12c-0.14,0.08-0.21,0.19-0.21,0.34c0,0.13,0.04,0.24,0.13,0.3
					c0.08,0.07,0.21,0.12,0.4,0.17c0.1,0.02,0.22,0.05,0.34,0.07s0.23,0.04,0.31,0.06c0.26,0.06,0.45,0.16,0.59,0.3
					C337.69,48.11,337.76,48.3,337.76,48.54z"/>
				<path d="M340.25,49.45c-0.1,0.03-0.22,0.05-0.34,0.07s-0.23,0.03-0.33,0.03c-0.33,0-0.59-0.09-0.76-0.27s-0.26-0.47-0.26-0.86
					v-1.74h-0.37v-0.46h0.37v-0.94h0.55v0.94h1.14v0.46h-1.14v1.49c0,0.17,0,0.31,0.01,0.4c0.01,0.1,0.04,0.19,0.08,0.27
					c0.04,0.08,0.1,0.14,0.18,0.17c0.08,0.04,0.19,0.05,0.34,0.05c0.09,0,0.18-0.01,0.28-0.04c0.1-0.03,0.17-0.05,0.21-0.07h0.03
					V49.45z"/>
				<path d="M342.95,46.81h-0.03c-0.08-0.02-0.16-0.03-0.24-0.04c-0.08-0.01-0.17-0.01-0.27-0.01c-0.17,0-0.33,0.04-0.49,0.11
					c-0.16,0.07-0.31,0.17-0.46,0.29v2.32h-0.55v-3.27h0.55v0.48c0.22-0.18,0.41-0.3,0.58-0.37c0.17-0.07,0.34-0.11,0.51-0.11
					c0.1,0,0.17,0,0.21,0.01c0.04,0,0.11,0.01,0.19,0.03V46.81z"/>
				<path d="M346.19,49.48h-0.55v-0.36c-0.19,0.15-0.36,0.26-0.53,0.34s-0.36,0.12-0.56,0.12c-0.34,0-0.61-0.11-0.8-0.31
					c-0.19-0.21-0.29-0.52-0.29-0.92v-2.12H344v1.86c0,0.17,0.01,0.31,0.02,0.43c0.02,0.12,0.05,0.22,0.1,0.3
					c0.05,0.09,0.12,0.15,0.21,0.19s0.21,0.06,0.37,0.06c0.14,0,0.3-0.04,0.47-0.11s0.33-0.17,0.47-0.28v-2.44h0.55V49.48z"/>
				<path d="M348.97,49.45c-0.1,0.03-0.22,0.05-0.34,0.07s-0.23,0.03-0.33,0.03c-0.33,0-0.59-0.09-0.76-0.27s-0.26-0.47-0.26-0.86
					v-1.74h-0.37v-0.46h0.37v-0.94h0.55v0.94h1.14v0.46h-1.14v1.49c0,0.17,0,0.31,0.01,0.4c0.01,0.1,0.04,0.19,0.08,0.27
					c0.04,0.08,0.1,0.14,0.18,0.17c0.08,0.04,0.19,0.05,0.34,0.05c0.09,0,0.18-0.01,0.28-0.04c0.1-0.03,0.17-0.05,0.21-0.07h0.03
					V49.45z"/>
				<path d="M351.33,49.45c-0.1,0.03-0.22,0.05-0.34,0.07s-0.23,0.03-0.33,0.03c-0.33,0-0.59-0.09-0.76-0.27s-0.26-0.47-0.26-0.86
					v-1.74h-0.37v-0.46h0.37v-0.94h0.55v0.94h1.14v0.46h-1.14v1.49c0,0.17,0,0.31,0.01,0.4c0.01,0.1,0.04,0.19,0.08,0.27
					c0.04,0.08,0.1,0.14,0.18,0.17c0.08,0.04,0.19,0.05,0.34,0.05c0.09,0,0.18-0.01,0.28-0.04c0.1-0.03,0.17-0.05,0.21-0.07h0.03
					V49.45z"/>
				<path d="M352.59,45.66h-0.62v-0.57h0.62V45.66z M352.55,49.48H352v-3.27h0.55V49.48z"/>
				<path d="M356.47,46.21l-1.32,3.27h-0.55l-1.32-3.27h0.6l1.01,2.6l1-2.6H356.47z"/>
				<path d="M359.93,47.85c0,0.53-0.14,0.95-0.41,1.26s-0.64,0.46-1.1,0.46c-0.46,0-0.83-0.15-1.1-0.46s-0.41-0.73-0.41-1.26
					s0.14-0.95,0.41-1.26c0.27-0.31,0.64-0.46,1.1-0.46c0.46,0,0.83,0.16,1.1,0.46C359.79,46.89,359.93,47.31,359.93,47.85z
					 M359.36,47.85c0-0.42-0.08-0.74-0.25-0.94c-0.17-0.21-0.4-0.31-0.69-0.31c-0.3,0-0.53,0.1-0.7,0.31
					c-0.17,0.21-0.25,0.52-0.25,0.94c0,0.41,0.08,0.72,0.25,0.93c0.17,0.21,0.4,0.32,0.69,0.32c0.29,0,0.52-0.11,0.69-0.31
					C359.28,48.57,359.36,48.26,359.36,47.85z"/>
			</g>
		</g>
		<g>
			<path d="M66.82,28.1h-1.72v-0.45h0.57v-3.47h-0.57v-0.45h1.72v0.45h-0.57v3.47h0.57V28.1z"/>
			<path d="M69.34,28.1h-1.72v-0.45h0.57v-3.47h-0.57v-0.45h1.72v0.45h-0.57v3.47h0.57V28.1z"/>
		</g>
		<g>
			<path d="M105.11,28.1h-1.72v-0.45h0.57v-3.47h-0.57v-0.45h1.72v0.45h-0.57v3.47h0.57V28.1z"/>
			<path d="M107.64,28.1h-1.72v-0.45h0.57v-3.47h-0.57v-0.45h1.72v0.45h-0.57v3.47h0.57V28.1z"/>
			<path d="M110.16,28.1h-1.72v-0.45h0.57v-3.47h-0.57v-0.45h1.72v0.45h-0.57v3.47h0.57V28.1z"/>
		</g>
		<g>
			<path d="M145.47,28.1h-1.72v-0.45h0.57v-3.47h-0.57v-0.45h1.72v0.45h-0.57v3.47h0.57V28.1z"/>
			<path d="M149.9,23.74l-1.59,4.36h-0.77l-1.59-4.36h0.62l1.37,3.84l1.37-3.84H149.9z"/>
		</g>
		<g>
			<path d="M188.57,23.74l-1.59,4.36h-0.77l-1.59-4.36h0.62l1.37,3.84l1.37-3.84H188.57z"/>
		</g>
		<g>
			<path d="M227.24,23.74l-1.59,4.36h-0.77l-1.59-4.36h0.62l1.37,3.84l1.37-3.84H227.24z"/>
			<path d="M229.44,28.1h-1.72v-0.45h0.57v-3.47h-0.57v-0.45h1.72v0.45h-0.57v3.47h0.57V28.1z"/>
		</g>
		<g>
			<path d="M265.92,23.74l-1.59,4.36h-0.77l-1.59-4.36h0.62l1.37,3.84l1.37-3.84H265.92z"/>
			<path d="M268.12,28.1h-1.72v-0.45h0.57v-3.47h-0.57v-0.45h1.72v0.45h-0.57v3.47h0.57V28.1z"/>
			<path d="M270.65,28.1h-1.72v-0.45h0.57v-3.47h-0.57v-0.45h1.72v0.45h-0.57v3.47h0.57V28.1z"/>
		</g>
		<g>
			<path d="M304.61,23.74l-1.59,4.36h-0.77l-1.59-4.36h0.62l1.37,3.84l1.37-3.84H304.61z"/>
			<path d="M306.81,28.1h-1.72v-0.45h0.57v-3.47h-0.57v-0.45h1.72v0.45h-0.57v3.47h0.57V28.1z"/>
			<path d="M309.33,28.1h-1.72v-0.45h0.57v-3.47h-0.57v-0.45h1.72v0.45h-0.57v3.47h0.57V28.1z"/>
			<path d="M311.86,28.1h-1.72v-0.45h0.57v-3.47h-0.57v-0.45h1.72v0.45h-0.57v3.47h0.57V28.1z"/>
		</g>
		<g>
			<path d="M343.67,28.1h-1.72v-0.45h0.57v-3.47h-0.57v-0.45h1.72v0.45h-0.57v3.47h0.57V28.1z"/>
			<path d="M347.99,23.74l-1.51,2.16l1.5,2.21h-0.67l-1.19-1.8l-1.22,1.8h-0.63l1.52-2.18l-1.49-2.18h0.67l1.17,1.77l1.2-1.77
				H347.99z"/>
		</g>
	</g>
</g>
<g id="Franzsisch">
</g>
<g id="Englisch">
</g>
<g id="Deutsch">
</g>
</svg>
