<?xml version="1.0" encoding="utf-8"?>
<!-- Generator: Adobe Illustrator 27.0.1, SVG Export Plug-In . SVG Version: 6.00 Build 0)  -->
<svg version="1.1" xmlns="http://www.w3.org/2000/svg" xmlns:xlink="http://www.w3.org/1999/xlink" x="0px" y="0px"
	 viewBox="0 0 363.07 61.06" style="enable-background:new 0 0 363.07 61.06;" xml:space="preserve">
<style type="text/css">
	
		.st0{clip-path:url(#SVGID_00000041289525349493562350000013000076834906861754_);fill:url(#SVGID_00000018942815823654634290000001947820996329470626_);}
	.st1{fill:#D3D3D3;}
	.st2{fill:none;stroke:#FFFFFF;stroke-width:0.5;stroke-miterlimit:10;}
	
		.st3{clip-path:url(#SVGID_00000000928986935901220510000011873264757364309896_);fill:url(#SVGID_00000108286788207367019760000012757573296116455072_);}
	
		.st4{clip-path:url(#SVGID_00000050655886213777489380000015310787742062040217_);fill:url(#SVGID_00000142177510848437880660000007125154410065404585_);}
	
		.st5{clip-path:url(#SVGID_00000151532430887034667670000004287540596611966356_);fill:url(#SVGID_00000121272838861160823860000001791967412860835003_);}
</style>
<g id="Hilfslinien">
</g>
<g id="Italienisch">
</g>
<g id="Französisch">
	<g>
		<defs>
			<rect id="SVGID_00000084495288255322618700000011674663294621314711_" x="47.92" width="315.15" height="18.61"/>
		</defs>
		<clipPath id="SVGID_00000026863406895444927630000010099997056602731909_">
			<use xlink:href="#SVGID_00000084495288255322618700000011674663294621314711_"  style="overflow:visible;"/>
		</clipPath>
		
			<linearGradient id="SVGID_00000094576949238540695720000014328073376370114239_" gradientUnits="userSpaceOnUse" x1="794.5431" y1="531.5331" x2="2015.76" y2="531.5331" gradientTransform="matrix(0.2581 0 0 1.1175 -157.1173 -584.6828)">
			<stop  offset="0" style="stop-color:#B2B1D8"/>
			<stop  offset="0.1192" style="stop-color:#B2B1D8"/>
			<stop  offset="0.162" style="stop-color:#6DCAD2"/>
			<stop  offset="0.2095" style="stop-color:#7DC46A"/>
			<stop  offset="0.2893" style="stop-color:#AACB3B"/>
			<stop  offset="0.339" style="stop-color:#D3DE28"/>
			<stop  offset="0.4119" style="stop-color:#F5EB10"/>
			<stop  offset="0.4655" style="stop-color:#FFCD2B"/>
			<stop  offset="0.5365" style="stop-color:#F2882D"/>
			<stop  offset="0.5898" style="stop-color:#F58020"/>
			<stop  offset="0.6661" style="stop-color:#EA4624"/>
			<stop  offset="0.7217" style="stop-color:#E01F26"/>
			<stop  offset="0.7931" style="stop-color:#E01F26"/>
			<stop  offset="0.8446" style="stop-color:#6F0F10"/>
			<stop  offset="0.8865" style="stop-color:#431211"/>
		</linearGradient>
		
			<rect x="47.92" style="clip-path:url(#SVGID_00000026863406895444927630000010099997056602731909_);fill:url(#SVGID_00000094576949238540695720000014328073376370114239_);" width="315.15" height="18.61"/>
	</g>
	<rect x="47.95" y="18.61" class="st1" width="315.11" height="15.77"/>
	<g>
		<line class="st2" x1="326.4" y1="0" x2="326.4" y2="18.61"/>
		<line class="st2" x1="86.74" y1="0" x2="86.74" y2="18.61"/>
		<line class="st2" x1="126.68" y1="0" x2="126.68" y2="18.61"/>
		<line class="st2" x1="166.63" y1="0" x2="166.63" y2="18.61"/>
		<line class="st2" x1="246.51" y1="0" x2="246.51" y2="18.61"/>
		<line class="st2" x1="286.46" y1="0" x2="286.46" y2="18.61"/>
		<line class="st2" x1="206.57" y1="0" x2="206.57" y2="18.61"/>
	</g>
	<rect x="47.95" y="34.38" class="st1" width="315.11" height="26.68"/>
	<g>
		<line class="st2" x1="326.4" y1="18.61" x2="326.4" y2="61.06"/>
		<line class="st2" x1="86.74" y1="18.61" x2="86.74" y2="61.06"/>
		<line class="st2" x1="126.68" y1="18.61" x2="126.68" y2="61.06"/>
		<line class="st2" x1="166.62" y1="18.61" x2="166.62" y2="61.06"/>
		<line class="st2" x1="246.51" y1="18.61" x2="246.51" y2="61.06"/>
		<line class="st2" x1="286.46" y1="18.61" x2="286.46" y2="61.06"/>
		<line class="st2" x1="206.57" y1="18.61" x2="206.57" y2="61.06"/>
	</g>
	<line class="st2" x1="363.07" y1="18.61" x2="47.92" y2="18.61"/>
	<line class="st2" x1="363.07" y1="34.38" x2="47.94" y2="34.38"/>
	<g id="Vektorisierter_Text_00000113334499446118080460000018330469414844070826_">
		<g>
			<g>
				<path d="M19.09,28.1h-1.72v-0.45h0.57v-3.47h-0.57v-0.45h1.72v0.45h-0.57v3.47h0.57V28.1z"/>
				<path d="M22.77,28.1h-0.55v-1.86c0-0.15-0.01-0.29-0.03-0.42s-0.05-0.23-0.1-0.31c-0.05-0.08-0.12-0.14-0.21-0.18
					s-0.21-0.06-0.36-0.06c-0.15,0-0.31,0.04-0.47,0.11s-0.32,0.17-0.47,0.28v2.44h-0.55v-3.27h0.55v0.36
					c0.17-0.14,0.35-0.25,0.53-0.33s0.37-0.12,0.57-0.12c0.35,0,0.62,0.11,0.81,0.32s0.28,0.52,0.28,0.92V28.1z"/>
				<path d="M25.53,28.07c-0.1,0.03-0.22,0.05-0.34,0.07s-0.23,0.03-0.33,0.03c-0.33,0-0.59-0.09-0.76-0.27s-0.26-0.47-0.26-0.86
					v-1.74h-0.37v-0.46h0.37v-0.94h0.55v0.94h1.14v0.46h-1.14v1.49c0,0.17,0,0.31,0.01,0.4s0.04,0.19,0.08,0.27
					c0.04,0.08,0.1,0.13,0.18,0.17s0.19,0.05,0.34,0.05c0.09,0,0.18-0.01,0.28-0.04s0.17-0.05,0.21-0.07h0.03V28.07z"/>
				<path d="M28.93,26.52h-2.41c0,0.2,0.03,0.38,0.09,0.53s0.14,0.27,0.25,0.37c0.1,0.09,0.22,0.16,0.36,0.21s0.29,0.07,0.46,0.07
					c0.22,0,0.45-0.04,0.67-0.13s0.39-0.18,0.48-0.26h0.03v0.6c-0.19,0.08-0.38,0.14-0.57,0.2s-0.4,0.08-0.61,0.08
					c-0.54,0-0.97-0.15-1.27-0.44s-0.46-0.71-0.46-1.25c0-0.54,0.15-0.96,0.44-1.27s0.68-0.47,1.15-0.47c0.44,0,0.78,0.13,1.02,0.39
					s0.36,0.62,0.36,1.1V26.52z M28.39,26.1c0-0.29-0.07-0.51-0.22-0.67s-0.36-0.24-0.65-0.24c-0.29,0-0.53,0.09-0.7,0.26
					s-0.27,0.39-0.3,0.65H28.39z"/>
				<path d="M32.5,28.1h-0.55v-1.86c0-0.15-0.01-0.29-0.03-0.42s-0.05-0.23-0.1-0.31c-0.05-0.08-0.12-0.14-0.21-0.18
					s-0.21-0.06-0.36-0.06c-0.15,0-0.31,0.04-0.47,0.11s-0.32,0.17-0.47,0.28v2.44h-0.55v-3.27h0.55v0.36
					c0.17-0.14,0.35-0.25,0.53-0.33s0.37-0.12,0.57-0.12c0.35,0,0.62,0.11,0.81,0.32s0.28,0.52,0.28,0.92V28.1z"/>
				<path d="M35.9,27.16c0,0.3-0.12,0.54-0.37,0.74s-0.58,0.29-1.01,0.29c-0.24,0-0.46-0.03-0.67-0.09s-0.37-0.12-0.51-0.19v-0.62
					h0.03c0.17,0.13,0.37,0.23,0.58,0.31s0.42,0.12,0.61,0.12c0.24,0,0.43-0.04,0.57-0.12s0.21-0.2,0.21-0.37
					c0-0.13-0.04-0.23-0.11-0.29s-0.22-0.12-0.43-0.17c-0.08-0.02-0.18-0.04-0.31-0.06s-0.24-0.05-0.34-0.08
					c-0.29-0.08-0.49-0.19-0.61-0.34s-0.18-0.33-0.18-0.54c0-0.13,0.03-0.26,0.08-0.38s0.14-0.23,0.25-0.32
					c0.11-0.09,0.25-0.17,0.42-0.22s0.36-0.08,0.57-0.08c0.2,0,0.39,0.02,0.59,0.07s0.37,0.11,0.5,0.17v0.59h-0.03
					c-0.14-0.1-0.31-0.19-0.51-0.26s-0.4-0.11-0.59-0.11c-0.2,0-0.37,0.04-0.51,0.12s-0.21,0.19-0.21,0.34
					c0,0.13,0.04,0.24,0.13,0.3c0.08,0.07,0.21,0.12,0.4,0.17c0.1,0.02,0.22,0.05,0.34,0.07s0.23,0.04,0.31,0.06
					c0.26,0.06,0.45,0.16,0.59,0.3C35.83,26.73,35.9,26.92,35.9,27.16z"/>
				<path d="M37.28,24.28h-0.62v-0.57h0.62V24.28z M37.25,28.1h-0.55v-3.27h0.55V28.1z"/>
				<path d="M40.03,28.07c-0.1,0.03-0.22,0.05-0.34,0.07s-0.23,0.03-0.33,0.03c-0.33,0-0.59-0.09-0.76-0.27s-0.26-0.47-0.26-0.86
					v-1.74h-0.37v-0.46h0.37v-0.94h0.55v0.94h1.14v0.46H38.9v1.49c0,0.17,0,0.31,0.01,0.4s0.04,0.19,0.08,0.27
					c0.04,0.08,0.1,0.13,0.18,0.17s0.19,0.05,0.34,0.05c0.09,0,0.18-0.01,0.28-0.04s0.17-0.05,0.21-0.07h0.03V28.07z"/>
				<path d="M43.44,26.52h-2.41c0,0.2,0.03,0.38,0.09,0.53s0.14,0.27,0.25,0.37c0.1,0.09,0.22,0.16,0.36,0.21s0.29,0.07,0.46,0.07
					c0.22,0,0.45-0.04,0.67-0.13s0.39-0.18,0.48-0.26h0.03v0.6c-0.19,0.08-0.38,0.14-0.57,0.2s-0.4,0.08-0.61,0.08
					c-0.54,0-0.97-0.15-1.27-0.44s-0.46-0.71-0.46-1.25c0-0.54,0.15-0.96,0.44-1.27s0.68-0.47,1.15-0.47c0.44,0,0.78,0.13,1.02,0.39
					s0.36,0.62,0.36,1.1V26.52z M42.9,26.1c0-0.29-0.07-0.51-0.22-0.67s-0.36-0.24-0.65-0.24c-0.29,0-0.53,0.09-0.7,0.26
					s-0.27,0.39-0.3,0.65H42.9z M42.97,23.19l-0.8,1.1h-0.44l0.52-1.1H42.97z"/>
			</g>
		</g>
		<g>
			<g>
				<path d="M30.11,48.68h-2.87v-4.36h2.87v0.52h-2.29v1.2h2.29v0.52h-2.29v1.62h2.29V48.68z"/>
				<path d="M32.75,44.65h-0.03c-0.06-0.02-0.14-0.04-0.24-0.05s-0.18-0.03-0.26-0.03c-0.24,0-0.41,0.05-0.51,0.16
					s-0.16,0.29-0.16,0.57v0.11h0.99v0.46h-0.98v2.81h-0.55v-2.81h-0.37V45.4h0.37V45.3c0-0.39,0.1-0.69,0.29-0.9
					s0.47-0.31,0.84-0.31c0.12,0,0.23,0.01,0.33,0.02s0.19,0.03,0.27,0.04V44.65z"/>
				<path d="M34.86,44.65h-0.03c-0.06-0.02-0.14-0.04-0.24-0.05s-0.18-0.03-0.26-0.03c-0.24,0-0.41,0.05-0.51,0.16
					s-0.16,0.29-0.16,0.57v0.11h0.99v0.46h-0.98v2.81h-0.55v-2.81h-0.37V45.4h0.37V45.3c0-0.39,0.1-0.69,0.29-0.9
					s0.47-0.31,0.84-0.31c0.12,0,0.23,0.01,0.33,0.02s0.19,0.03,0.27,0.04V44.65z"/>
				<path d="M37.95,47.1h-2.41c0,0.2,0.03,0.38,0.09,0.53s0.14,0.27,0.25,0.37c0.1,0.09,0.22,0.16,0.36,0.21s0.29,0.07,0.46,0.07
					c0.22,0,0.45-0.04,0.67-0.13s0.39-0.18,0.48-0.26h0.03v0.6c-0.19,0.08-0.38,0.14-0.57,0.2s-0.4,0.08-0.61,0.08
					c-0.54,0-0.97-0.15-1.27-0.44s-0.46-0.71-0.46-1.25c0-0.54,0.15-0.96,0.44-1.27s0.68-0.47,1.15-0.47c0.44,0,0.78,0.13,1.02,0.39
					s0.36,0.62,0.36,1.1V47.1z M37.41,46.68c0-0.29-0.07-0.51-0.22-0.67s-0.36-0.24-0.65-0.24c-0.29,0-0.53,0.09-0.7,0.26
					s-0.27,0.39-0.3,0.65H37.41z"/>
				<path d="M40.48,48.65c-0.1,0.03-0.22,0.05-0.34,0.07s-0.23,0.03-0.33,0.03c-0.33,0-0.59-0.09-0.76-0.27s-0.26-0.47-0.26-0.86
					v-1.74h-0.37V45.4h0.37v-0.94h0.55v0.94h1.14v0.46h-1.14v1.49c0,0.17,0,0.31,0.01,0.4s0.04,0.19,0.08,0.27
					c0.04,0.08,0.1,0.13,0.18,0.17s0.19,0.05,0.34,0.05c0.09,0,0.18-0.01,0.28-0.04s0.17-0.05,0.21-0.07h0.03V48.65z"/>
				<path d="M43.48,47.73c0,0.3-0.12,0.54-0.37,0.74s-0.58,0.29-1.01,0.29c-0.24,0-0.46-0.03-0.67-0.09s-0.37-0.12-0.51-0.19v-0.62
					h0.03c0.17,0.13,0.37,0.23,0.58,0.31s0.42,0.12,0.61,0.12c0.24,0,0.43-0.04,0.57-0.12s0.21-0.2,0.21-0.37
					c0-0.13-0.04-0.23-0.11-0.29s-0.22-0.12-0.43-0.17c-0.08-0.02-0.18-0.04-0.31-0.06s-0.24-0.05-0.34-0.08
					c-0.29-0.08-0.49-0.19-0.61-0.34s-0.18-0.33-0.18-0.54c0-0.13,0.03-0.26,0.08-0.38s0.14-0.23,0.25-0.32
					c0.11-0.09,0.25-0.17,0.42-0.22s0.36-0.08,0.57-0.08c0.2,0,0.39,0.02,0.59,0.07s0.37,0.11,0.5,0.17v0.59h-0.03
					c-0.14-0.1-0.31-0.19-0.51-0.26s-0.4-0.11-0.59-0.11c-0.2,0-0.37,0.04-0.51,0.12s-0.21,0.19-0.21,0.34
					c0,0.13,0.04,0.24,0.13,0.3c0.08,0.07,0.21,0.12,0.4,0.17c0.1,0.02,0.22,0.05,0.34,0.07s0.23,0.04,0.31,0.06
					c0.26,0.06,0.45,0.16,0.59,0.3C43.41,47.3,43.48,47.49,43.48,47.73z"/>
			</g>
		</g>
		<g>
			<g>
				<path d="M56.3,43.3h-0.03c-0.08-0.02-0.16-0.03-0.23-0.04s-0.16-0.01-0.26-0.01c-0.16,0-0.32,0.04-0.48,0.11
					c-0.15,0.07-0.3,0.17-0.44,0.28v2.25h-0.53v-3.16h0.53v0.47c0.21-0.17,0.4-0.29,0.56-0.36c0.16-0.07,0.33-0.11,0.49-0.11
					c0.09,0,0.16,0,0.2,0.01s0.1,0.01,0.19,0.03V43.3z"/>
				<path d="M59.15,45.88h-0.53v-0.34c-0.05,0.03-0.11,0.08-0.19,0.13c-0.08,0.06-0.16,0.1-0.23,0.14
					c-0.09,0.04-0.19,0.08-0.31,0.11c-0.11,0.03-0.25,0.04-0.4,0.04c-0.29,0-0.53-0.09-0.73-0.28c-0.2-0.19-0.3-0.43-0.3-0.72
					c0-0.24,0.05-0.43,0.15-0.58c0.1-0.15,0.25-0.26,0.44-0.35c0.19-0.08,0.42-0.14,0.69-0.17s0.56-0.05,0.87-0.07v-0.08
					c0-0.12-0.02-0.22-0.06-0.3s-0.1-0.14-0.18-0.19c-0.08-0.04-0.17-0.07-0.27-0.09c-0.11-0.02-0.22-0.02-0.33-0.02
					c-0.14,0-0.3,0.02-0.47,0.05s-0.35,0.09-0.53,0.16h-0.03v-0.54c0.1-0.03,0.25-0.06,0.45-0.09c0.2-0.03,0.39-0.05,0.58-0.05
					c0.22,0,0.42,0.02,0.58,0.06c0.17,0.04,0.31,0.1,0.43,0.19c0.12,0.09,0.21,0.2,0.27,0.34s0.09,0.31,0.09,0.51V45.88z
					 M58.62,45.1v-0.88c-0.16,0.01-0.35,0.02-0.57,0.04c-0.22,0.02-0.39,0.05-0.52,0.08c-0.15,0.04-0.28,0.11-0.37,0.2
					c-0.09,0.09-0.14,0.22-0.14,0.38c0,0.18,0.06,0.32,0.16,0.41c0.11,0.09,0.28,0.14,0.5,0.14c0.19,0,0.36-0.04,0.51-0.11
					C58.35,45.29,58.49,45.2,58.62,45.1z"/>
				<path d="M62.15,43.3h-0.03c-0.08-0.02-0.16-0.03-0.23-0.04s-0.16-0.01-0.26-0.01c-0.16,0-0.32,0.04-0.48,0.11
					c-0.15,0.07-0.3,0.17-0.44,0.28v2.25h-0.53v-3.16h0.53v0.47c0.21-0.17,0.4-0.29,0.56-0.36c0.16-0.07,0.33-0.11,0.49-0.11
					c0.09,0,0.16,0,0.2,0.01s0.1,0.01,0.19,0.03V43.3z"/>
				<path d="M65.3,44.35h-2.33c0,0.19,0.03,0.36,0.09,0.51c0.06,0.14,0.14,0.26,0.24,0.36c0.1,0.09,0.21,0.16,0.35,0.2
					c0.13,0.04,0.28,0.07,0.45,0.07c0.22,0,0.43-0.04,0.65-0.13c0.22-0.09,0.37-0.17,0.47-0.25h0.03v0.58
					c-0.18,0.08-0.36,0.14-0.55,0.19s-0.38,0.08-0.59,0.08c-0.52,0-0.93-0.14-1.23-0.43c-0.29-0.28-0.44-0.69-0.44-1.21
					c0-0.52,0.14-0.93,0.42-1.23c0.28-0.3,0.65-0.46,1.11-0.46c0.43,0,0.76,0.12,0.99,0.37c0.23,0.25,0.35,0.6,0.35,1.06V44.35z
					 M64.78,43.95c0-0.28-0.07-0.5-0.21-0.65c-0.14-0.15-0.35-0.23-0.63-0.23c-0.29,0-0.51,0.08-0.68,0.25s-0.26,0.38-0.29,0.63
					H64.78z"/>
				<path d="M70.73,45.88h-0.53v-1.8c0-0.14-0.01-0.27-0.02-0.39c-0.01-0.13-0.04-0.23-0.08-0.3c-0.04-0.08-0.11-0.14-0.19-0.18
					c-0.08-0.04-0.2-0.06-0.35-0.06c-0.15,0-0.3,0.04-0.45,0.11c-0.15,0.08-0.3,0.17-0.45,0.29c0.01,0.04,0.01,0.09,0.01,0.15
					c0,0.06,0.01,0.11,0.01,0.17v2.03h-0.53v-1.8c0-0.14-0.01-0.27-0.02-0.4c-0.01-0.13-0.04-0.23-0.08-0.3
					c-0.04-0.08-0.11-0.14-0.19-0.18s-0.2-0.06-0.35-0.06c-0.15,0-0.29,0.04-0.44,0.11c-0.15,0.07-0.29,0.16-0.44,0.27v2.36h-0.53
					v-3.16h0.53v0.35c0.17-0.14,0.33-0.25,0.5-0.32c0.17-0.08,0.34-0.12,0.53-0.12c0.22,0,0.4,0.04,0.55,0.14
					c0.15,0.09,0.26,0.22,0.34,0.38c0.21-0.18,0.41-0.31,0.59-0.39s0.37-0.12,0.57-0.12c0.35,0,0.6,0.1,0.77,0.32
					c0.17,0.21,0.25,0.5,0.25,0.88V45.88z"/>
				<path d="M74.4,44.35h-2.33c0,0.19,0.03,0.36,0.09,0.51c0.06,0.14,0.14,0.26,0.24,0.36c0.1,0.09,0.21,0.16,0.35,0.2
					c0.13,0.04,0.28,0.07,0.45,0.07c0.22,0,0.43-0.04,0.65-0.13c0.22-0.09,0.37-0.17,0.47-0.25h0.03v0.58
					c-0.18,0.08-0.36,0.14-0.55,0.19s-0.38,0.08-0.59,0.08c-0.52,0-0.93-0.14-1.23-0.43c-0.29-0.28-0.44-0.69-0.44-1.21
					c0-0.52,0.14-0.93,0.42-1.23c0.28-0.3,0.65-0.46,1.11-0.46c0.43,0,0.76,0.12,0.99,0.37c0.23,0.25,0.35,0.6,0.35,1.06V44.35z
					 M73.88,43.95c0-0.28-0.07-0.5-0.21-0.65c-0.14-0.15-0.35-0.23-0.63-0.23c-0.29,0-0.51,0.08-0.68,0.25s-0.26,0.38-0.29,0.63
					H73.88z"/>
				<path d="M77.85,45.88h-0.53v-1.8c0-0.15-0.01-0.28-0.03-0.41c-0.02-0.13-0.05-0.23-0.09-0.3c-0.05-0.08-0.12-0.14-0.2-0.18
					c-0.09-0.04-0.2-0.06-0.35-0.06c-0.15,0-0.3,0.04-0.46,0.11c-0.16,0.07-0.31,0.16-0.46,0.27v2.36h-0.53v-3.16h0.53v0.35
					c0.17-0.14,0.34-0.25,0.52-0.32c0.18-0.08,0.36-0.12,0.55-0.12c0.34,0,0.6,0.1,0.78,0.31c0.18,0.21,0.27,0.5,0.27,0.89V45.88z"
					/>
				<path d="M80.52,45.85c-0.1,0.03-0.21,0.05-0.33,0.06c-0.12,0.02-0.22,0.03-0.32,0.03c-0.32,0-0.57-0.09-0.74-0.26
					c-0.17-0.17-0.25-0.45-0.25-0.84v-1.68h-0.36v-0.45h0.36v-0.91h0.53v0.91h1.1v0.45h-1.1v1.44c0,0.17,0,0.3,0.01,0.39
					c0.01,0.09,0.03,0.18,0.08,0.26c0.04,0.08,0.1,0.13,0.17,0.17c0.07,0.04,0.18,0.05,0.33,0.05c0.09,0,0.18-0.01,0.27-0.04
					c0.09-0.03,0.16-0.05,0.2-0.06h0.03V45.85z"/>
				<path d="M58.23,50.26H58.2c-0.08-0.02-0.16-0.03-0.23-0.04s-0.16-0.01-0.26-0.01c-0.16,0-0.32,0.04-0.48,0.11
					c-0.15,0.07-0.3,0.17-0.44,0.28v2.25h-0.53v-3.16h0.53v0.47c0.21-0.17,0.4-0.29,0.56-0.36c0.16-0.07,0.33-0.11,0.49-0.11
					c0.09,0,0.16,0,0.2,0.01s0.1,0.01,0.19,0.03V50.26z"/>
				<path d="M61.38,51.31h-2.33c0,0.19,0.03,0.36,0.09,0.51c0.06,0.14,0.14,0.26,0.24,0.36c0.1,0.09,0.21,0.16,0.35,0.2
					c0.13,0.04,0.28,0.07,0.45,0.07c0.22,0,0.43-0.04,0.65-0.13c0.22-0.09,0.37-0.17,0.47-0.25h0.03v0.58
					c-0.18,0.08-0.36,0.14-0.55,0.19s-0.38,0.08-0.59,0.08c-0.52,0-0.93-0.14-1.23-0.43c-0.29-0.28-0.44-0.69-0.44-1.21
					c0-0.52,0.14-0.93,0.42-1.23c0.28-0.3,0.65-0.46,1.11-0.46c0.43,0,0.76,0.12,0.99,0.37c0.23,0.25,0.35,0.6,0.35,1.06V51.31z
					 M60.86,50.91c0-0.28-0.07-0.5-0.21-0.65c-0.14-0.15-0.35-0.23-0.63-0.23c-0.29,0-0.51,0.08-0.68,0.25s-0.26,0.38-0.29,0.63
					H60.86z"/>
				<path d="M64.44,51.93c0,0.29-0.12,0.53-0.36,0.71c-0.24,0.18-0.56,0.28-0.98,0.28c-0.23,0-0.45-0.03-0.64-0.08
					c-0.2-0.06-0.36-0.12-0.49-0.18v-0.6H62c0.17,0.13,0.35,0.23,0.56,0.3c0.21,0.08,0.4,0.11,0.59,0.11c0.23,0,0.42-0.04,0.55-0.11
					c0.13-0.08,0.2-0.19,0.2-0.36c0-0.12-0.04-0.22-0.11-0.28c-0.07-0.06-0.21-0.12-0.41-0.17c-0.08-0.02-0.17-0.04-0.3-0.06
					c-0.12-0.02-0.23-0.05-0.33-0.07c-0.28-0.07-0.47-0.18-0.59-0.32s-0.17-0.32-0.17-0.53c0-0.13,0.03-0.25,0.08-0.37
					c0.05-0.12,0.14-0.22,0.25-0.31c0.11-0.09,0.24-0.16,0.4-0.21c0.16-0.05,0.35-0.08,0.55-0.08c0.19,0,0.38,0.02,0.57,0.07
					c0.19,0.05,0.35,0.1,0.48,0.17v0.57h-0.03c-0.14-0.1-0.3-0.18-0.5-0.25c-0.19-0.07-0.39-0.1-0.57-0.1
					c-0.19,0-0.36,0.04-0.49,0.11c-0.13,0.07-0.2,0.19-0.2,0.33c0,0.13,0.04,0.23,0.12,0.29c0.08,0.07,0.21,0.12,0.39,0.16
					c0.1,0.02,0.21,0.05,0.33,0.07c0.12,0.02,0.22,0.04,0.3,0.06c0.25,0.06,0.44,0.15,0.57,0.29C64.38,51.51,64.44,51.7,64.44,51.93
					z"/>
				<path d="M67.47,51.93c0,0.29-0.12,0.53-0.36,0.71c-0.24,0.18-0.56,0.28-0.98,0.28c-0.23,0-0.45-0.03-0.64-0.08
					c-0.2-0.06-0.36-0.12-0.49-0.18v-0.6h0.03c0.17,0.13,0.35,0.23,0.56,0.3c0.21,0.08,0.4,0.11,0.59,0.11
					c0.23,0,0.42-0.04,0.55-0.11c0.13-0.08,0.2-0.19,0.2-0.36c0-0.12-0.04-0.22-0.11-0.28c-0.07-0.06-0.21-0.12-0.41-0.17
					c-0.08-0.02-0.17-0.04-0.3-0.06c-0.12-0.02-0.23-0.05-0.33-0.07c-0.28-0.07-0.47-0.18-0.59-0.32s-0.17-0.32-0.17-0.53
					c0-0.13,0.03-0.25,0.08-0.37c0.05-0.12,0.14-0.22,0.25-0.31c0.11-0.09,0.24-0.16,0.4-0.21c0.16-0.05,0.35-0.08,0.55-0.08
					c0.19,0,0.38,0.02,0.57,0.07c0.19,0.05,0.35,0.1,0.48,0.17v0.57h-0.03c-0.14-0.1-0.3-0.18-0.5-0.25
					c-0.19-0.07-0.39-0.1-0.57-0.1c-0.19,0-0.36,0.04-0.49,0.11c-0.13,0.07-0.2,0.19-0.2,0.33c0,0.13,0.04,0.23,0.12,0.29
					c0.08,0.07,0.21,0.12,0.39,0.16c0.1,0.02,0.21,0.05,0.33,0.07c0.12,0.02,0.22,0.04,0.3,0.06c0.25,0.06,0.44,0.15,0.57,0.29
					C67.4,51.51,67.47,51.7,67.47,51.93z"/>
				<path d="M70.87,51.31h-2.33c0,0.19,0.03,0.36,0.09,0.51c0.06,0.14,0.14,0.26,0.24,0.36c0.1,0.09,0.21,0.16,0.35,0.2
					c0.13,0.04,0.28,0.07,0.45,0.07c0.22,0,0.43-0.04,0.65-0.13c0.22-0.09,0.37-0.17,0.47-0.25h0.03v0.58
					c-0.18,0.08-0.36,0.14-0.55,0.19s-0.38,0.08-0.59,0.08c-0.52,0-0.93-0.14-1.23-0.43C68.15,52.2,68,51.8,68,51.28
					c0-0.52,0.14-0.93,0.42-1.23c0.28-0.3,0.65-0.46,1.11-0.46c0.43,0,0.76,0.12,0.99,0.37c0.23,0.25,0.35,0.6,0.35,1.06V51.31z
					 M70.36,50.91c0-0.28-0.07-0.5-0.21-0.65c-0.14-0.15-0.35-0.23-0.63-0.23c-0.29,0-0.51,0.08-0.68,0.25s-0.26,0.38-0.29,0.63
					H70.36z"/>
				<path d="M74.33,52.84h-0.53v-1.8c0-0.15-0.01-0.28-0.03-0.41c-0.02-0.13-0.05-0.23-0.09-0.3c-0.05-0.08-0.12-0.14-0.2-0.18
					c-0.09-0.04-0.2-0.06-0.35-0.06c-0.15,0-0.3,0.04-0.46,0.11c-0.16,0.07-0.31,0.16-0.46,0.27v2.36h-0.53v-3.16h0.53v0.35
					c0.17-0.14,0.34-0.25,0.52-0.32c0.18-0.08,0.36-0.12,0.55-0.12c0.34,0,0.6,0.1,0.78,0.31c0.18,0.21,0.27,0.5,0.27,0.89V52.84z"
					/>
				<path d="M76.99,52.81c-0.1,0.03-0.21,0.05-0.33,0.06c-0.12,0.02-0.22,0.03-0.32,0.03c-0.32,0-0.57-0.09-0.74-0.26
					c-0.17-0.17-0.25-0.45-0.25-0.84v-1.68H75v-0.45h0.36v-0.91h0.53v0.91h1.1v0.45h-1.1v1.44c0,0.17,0,0.3,0.01,0.39
					c0.01,0.09,0.03,0.18,0.08,0.26c0.04,0.08,0.1,0.13,0.17,0.17c0.07,0.04,0.18,0.05,0.33,0.05c0.09,0,0.18-0.01,0.27-0.04
					c0.09-0.03,0.16-0.05,0.2-0.06h0.03V52.81z"/>
				<path d="M78.21,49.15h-0.6V48.6h0.6V49.15z M78.18,52.84h-0.53v-3.16h0.53V52.84z"/>
			</g>
		</g>
		<g>
			<g>
				<path d="M101.11,45.59h-0.03c-0.06-0.02-0.14-0.03-0.23-0.05c-0.09-0.02-0.18-0.03-0.25-0.03c-0.23,0-0.39,0.05-0.5,0.15
					c-0.1,0.1-0.15,0.28-0.15,0.55v0.11h0.96v0.45h-0.94v2.72h-0.53v-2.72h-0.36v-0.45h0.36v-0.1c0-0.38,0.09-0.66,0.28-0.87
					s0.46-0.3,0.81-0.3c0.12,0,0.23,0.01,0.32,0.02c0.1,0.01,0.18,0.02,0.26,0.04V45.59z"/>
				<path d="M103.91,49.48h-0.53v-0.34c-0.05,0.03-0.11,0.08-0.19,0.13c-0.08,0.06-0.16,0.1-0.23,0.14
					c-0.09,0.04-0.19,0.08-0.31,0.11c-0.11,0.03-0.25,0.04-0.4,0.04c-0.29,0-0.53-0.09-0.73-0.28c-0.2-0.19-0.3-0.43-0.3-0.72
					c0-0.24,0.05-0.43,0.15-0.58c0.1-0.15,0.25-0.26,0.44-0.35c0.19-0.08,0.42-0.14,0.69-0.17s0.56-0.05,0.87-0.07v-0.08
					c0-0.12-0.02-0.22-0.06-0.3s-0.1-0.14-0.18-0.19c-0.08-0.04-0.17-0.07-0.27-0.09c-0.11-0.02-0.22-0.02-0.33-0.02
					c-0.14,0-0.3,0.02-0.47,0.05s-0.35,0.09-0.53,0.16h-0.03v-0.54c0.1-0.03,0.25-0.06,0.45-0.09c0.2-0.03,0.39-0.05,0.58-0.05
					c0.22,0,0.42,0.02,0.58,0.06c0.17,0.04,0.31,0.1,0.43,0.19c0.12,0.09,0.21,0.2,0.27,0.34s0.09,0.31,0.09,0.51V49.48z
					 M103.38,48.7v-0.88c-0.16,0.01-0.35,0.02-0.57,0.04c-0.22,0.02-0.39,0.05-0.52,0.08c-0.15,0.04-0.28,0.11-0.37,0.2
					c-0.09,0.09-0.14,0.22-0.14,0.38c0,0.18,0.06,0.32,0.16,0.41c0.11,0.09,0.28,0.14,0.5,0.14c0.19,0,0.36-0.04,0.51-0.11
					C103.1,48.89,103.25,48.8,103.38,48.7z"/>
				<path d="M105.51,45.79h-0.6v-0.55h0.6V45.79z M105.47,49.48h-0.53v-3.16h0.53V49.48z"/>
				<path d="M109.31,47.87c0,0.26-0.04,0.5-0.11,0.71c-0.07,0.21-0.17,0.39-0.3,0.53c-0.13,0.15-0.28,0.26-0.44,0.34
					c-0.16,0.07-0.34,0.11-0.53,0.11c-0.18,0-0.34-0.02-0.47-0.06c-0.13-0.04-0.27-0.1-0.4-0.17l-0.03,0.15h-0.5v-4.41h0.53v1.58
					c0.15-0.12,0.31-0.22,0.48-0.3s0.36-0.12,0.57-0.12c0.37,0,0.67,0.14,0.88,0.43C109.2,46.95,109.31,47.35,109.31,47.87z
					 M108.76,47.89c0-0.38-0.06-0.66-0.19-0.86c-0.12-0.2-0.33-0.29-0.6-0.29c-0.15,0-0.31,0.03-0.47,0.1
					c-0.16,0.07-0.31,0.15-0.44,0.26v1.81c0.15,0.07,0.28,0.12,0.39,0.14s0.23,0.04,0.37,0.04c0.29,0,0.53-0.1,0.69-0.29
					S108.76,48.3,108.76,47.89z"/>
				<path d="M110.68,49.48h-0.53v-4.41h0.53V49.48z"/>
				<path d="M114.38,47.95h-2.33c0,0.19,0.03,0.36,0.09,0.51c0.06,0.14,0.14,0.26,0.24,0.36c0.1,0.09,0.21,0.16,0.35,0.2
					c0.13,0.04,0.28,0.07,0.45,0.07c0.22,0,0.43-0.04,0.65-0.13c0.22-0.09,0.37-0.17,0.47-0.25h0.03v0.58
					c-0.18,0.08-0.36,0.14-0.55,0.19s-0.38,0.08-0.59,0.08c-0.52,0-0.93-0.14-1.23-0.43c-0.29-0.28-0.44-0.69-0.44-1.21
					c0-0.52,0.14-0.93,0.42-1.23c0.28-0.3,0.65-0.46,1.11-0.46c0.43,0,0.76,0.12,0.99,0.37c0.23,0.25,0.35,0.6,0.35,1.06V47.95z
					 M113.86,47.55c0-0.28-0.07-0.5-0.21-0.65c-0.14-0.15-0.35-0.23-0.63-0.23c-0.29,0-0.51,0.08-0.68,0.25s-0.26,0.38-0.29,0.63
					H113.86z"/>
			</g>
		</g>
		<g>
			<g>
				<path d="M132.89,45.88h-0.53v-4.41h0.53V45.88z"/>
				<path d="M136.4,45.88h-0.53v-0.34c-0.05,0.03-0.11,0.08-0.19,0.13c-0.08,0.06-0.16,0.1-0.23,0.14
					c-0.09,0.04-0.19,0.08-0.31,0.11s-0.25,0.04-0.41,0.04c-0.29,0-0.53-0.09-0.73-0.28s-0.3-0.43-0.3-0.72
					c0-0.24,0.05-0.43,0.15-0.58c0.1-0.15,0.25-0.26,0.44-0.35c0.19-0.08,0.42-0.14,0.69-0.17c0.27-0.03,0.56-0.05,0.87-0.07v-0.08
					c0-0.12-0.02-0.22-0.06-0.3c-0.04-0.08-0.1-0.14-0.18-0.19c-0.08-0.04-0.17-0.07-0.27-0.09c-0.11-0.01-0.22-0.02-0.33-0.02
					c-0.14,0-0.3,0.02-0.47,0.06c-0.17,0.04-0.35,0.09-0.53,0.16h-0.03v-0.54c0.1-0.03,0.25-0.06,0.45-0.09
					c0.2-0.03,0.39-0.05,0.58-0.05c0.22,0,0.42,0.02,0.58,0.05s0.31,0.1,0.43,0.19c0.12,0.09,0.21,0.2,0.27,0.34
					s0.09,0.31,0.09,0.51V45.88z M135.87,45.1v-0.88c-0.16,0.01-0.35,0.02-0.57,0.04c-0.22,0.02-0.39,0.05-0.52,0.08
					c-0.15,0.04-0.28,0.11-0.37,0.2c-0.09,0.09-0.14,0.22-0.14,0.38c0,0.18,0.06,0.32,0.16,0.41s0.28,0.14,0.5,0.14
					c0.19,0,0.36-0.04,0.51-0.11C135.59,45.29,135.74,45.2,135.87,45.1z"/>
				<path d="M139.4,43.3h-0.03c-0.08-0.02-0.16-0.03-0.23-0.04c-0.07-0.01-0.16-0.01-0.26-0.01c-0.16,0-0.32,0.04-0.48,0.11
					c-0.15,0.07-0.3,0.17-0.44,0.28v2.25h-0.53v-3.16h0.53v0.47c0.21-0.17,0.4-0.29,0.56-0.36c0.16-0.07,0.33-0.11,0.49-0.11
					c0.09,0,0.16,0,0.2,0.01c0.04,0,0.1,0.01,0.19,0.03V43.3z"/>
				<path d="M142.46,45.52c0,0.54-0.12,0.93-0.37,1.18s-0.62,0.38-1.12,0.38c-0.17,0-0.33-0.01-0.49-0.04
					c-0.16-0.02-0.32-0.06-0.47-0.1V46.4h0.03c0.09,0.03,0.22,0.08,0.41,0.13s0.38,0.08,0.57,0.08c0.18,0,0.33-0.02,0.45-0.07
					c0.12-0.04,0.21-0.1,0.28-0.18c0.07-0.07,0.11-0.16,0.14-0.27s0.04-0.22,0.04-0.35v-0.29c-0.16,0.13-0.31,0.22-0.46,0.29
					s-0.33,0.09-0.56,0.09c-0.38,0-0.68-0.14-0.9-0.41s-0.33-0.66-0.33-1.15c0-0.27,0.04-0.51,0.12-0.7
					c0.08-0.2,0.18-0.37,0.31-0.51c0.12-0.13,0.27-0.24,0.45-0.31c0.17-0.08,0.35-0.11,0.52-0.11c0.18,0,0.34,0.02,0.46,0.06
					c0.12,0.04,0.25,0.09,0.39,0.17l0.03-0.14h0.5V45.52z M141.93,45.01v-1.72c-0.14-0.06-0.27-0.11-0.4-0.14
					c-0.12-0.03-0.24-0.04-0.36-0.04c-0.29,0-0.52,0.1-0.69,0.29s-0.25,0.48-0.25,0.86c0,0.35,0.06,0.62,0.19,0.81
					c0.12,0.18,0.33,0.27,0.62,0.27c0.15,0,0.31-0.03,0.47-0.09C141.66,45.19,141.8,45.11,141.93,45.01z"/>
				<path d="M146.16,44.35h-2.33c0,0.19,0.03,0.36,0.09,0.51s0.14,0.26,0.24,0.36c0.1,0.09,0.21,0.16,0.35,0.2
					c0.13,0.05,0.28,0.07,0.45,0.07c0.22,0,0.43-0.04,0.65-0.13s0.37-0.17,0.47-0.25h0.03v0.58c-0.18,0.08-0.36,0.14-0.55,0.19
					c-0.19,0.05-0.38,0.08-0.59,0.08c-0.52,0-0.93-0.14-1.23-0.43c-0.29-0.28-0.44-0.69-0.44-1.21c0-0.52,0.14-0.93,0.42-1.23
					s0.65-0.46,1.11-0.46c0.43,0,0.76,0.12,0.99,0.37c0.23,0.25,0.35,0.6,0.35,1.06V44.35z M145.64,43.95c0-0.28-0.07-0.5-0.21-0.65
					c-0.14-0.15-0.35-0.23-0.63-0.23c-0.29,0-0.51,0.08-0.68,0.25s-0.26,0.38-0.29,0.63H145.64z"/>
				<path d="M151.58,45.88h-0.53v-1.8c0-0.14-0.01-0.27-0.02-0.39c-0.01-0.13-0.04-0.23-0.08-0.3c-0.04-0.08-0.11-0.14-0.19-0.18
					c-0.08-0.04-0.2-0.06-0.35-0.06c-0.15,0-0.3,0.04-0.45,0.11c-0.15,0.07-0.3,0.17-0.45,0.28c0.01,0.04,0.01,0.09,0.01,0.15
					c0,0.06,0,0.12,0,0.17v2.02h-0.53v-1.8c0-0.14-0.01-0.27-0.02-0.4c-0.01-0.12-0.04-0.23-0.08-0.3
					c-0.04-0.08-0.11-0.14-0.19-0.18c-0.08-0.04-0.2-0.06-0.35-0.06c-0.15,0-0.29,0.04-0.44,0.11c-0.15,0.07-0.29,0.16-0.44,0.28
					v2.36h-0.53v-3.16h0.53v0.35c0.17-0.14,0.33-0.25,0.5-0.32c0.17-0.08,0.34-0.12,0.53-0.12c0.22,0,0.4,0.04,0.55,0.14
					c0.15,0.09,0.26,0.22,0.34,0.38c0.21-0.18,0.41-0.31,0.59-0.39c0.18-0.08,0.37-0.12,0.57-0.12c0.35,0,0.6,0.11,0.77,0.32
					c0.17,0.21,0.25,0.5,0.25,0.88V45.88z"/>
				<path d="M155.26,44.35h-2.33c0,0.19,0.03,0.36,0.09,0.51c0.06,0.14,0.14,0.26,0.24,0.36c0.1,0.09,0.21,0.16,0.35,0.2
					c0.13,0.05,0.28,0.07,0.45,0.07c0.21,0,0.43-0.04,0.65-0.13c0.22-0.09,0.37-0.17,0.47-0.25h0.03v0.58
					c-0.18,0.08-0.36,0.14-0.55,0.19c-0.19,0.05-0.38,0.08-0.59,0.08c-0.53,0-0.93-0.14-1.23-0.43s-0.44-0.69-0.44-1.21
					c0-0.52,0.14-0.93,0.42-1.23s0.65-0.46,1.11-0.46c0.43,0,0.76,0.12,0.99,0.37s0.35,0.6,0.35,1.06V44.35z M154.74,43.95
					c0-0.28-0.07-0.5-0.21-0.65c-0.14-0.15-0.35-0.23-0.63-0.23c-0.29,0-0.51,0.08-0.68,0.25s-0.26,0.38-0.29,0.63H154.74z"/>
				<path d="M158.71,45.88h-0.53v-1.8c0-0.15-0.01-0.28-0.03-0.41c-0.02-0.13-0.05-0.23-0.09-0.3c-0.05-0.08-0.12-0.14-0.2-0.18
					c-0.09-0.04-0.2-0.06-0.35-0.06c-0.15,0-0.3,0.04-0.46,0.11c-0.16,0.07-0.31,0.16-0.46,0.28v2.36h-0.53v-3.16h0.53v0.35
					c0.17-0.14,0.34-0.25,0.52-0.32c0.18-0.08,0.36-0.12,0.55-0.12c0.34,0,0.6,0.1,0.78,0.31s0.27,0.5,0.27,0.89V45.88z"/>
				<path d="M161.38,45.85c-0.1,0.03-0.21,0.05-0.33,0.07s-0.22,0.03-0.32,0.03c-0.32,0-0.57-0.09-0.74-0.26s-0.25-0.45-0.25-0.83
					v-1.68h-0.36v-0.45h0.36v-0.91h0.53v0.91h1.1v0.45h-1.1v1.44c0,0.17,0,0.3,0.01,0.39c0.01,0.09,0.03,0.18,0.08,0.26
					c0.04,0.08,0.1,0.13,0.17,0.17c0.07,0.04,0.18,0.05,0.33,0.05c0.09,0,0.18-0.01,0.27-0.04c0.09-0.03,0.16-0.05,0.2-0.06h0.03
					V45.85z"/>
				<path d="M138.39,51.26c0,0.52-0.13,0.92-0.4,1.22c-0.26,0.3-0.62,0.45-1.06,0.45c-0.45,0-0.8-0.15-1.07-0.45
					c-0.26-0.3-0.4-0.71-0.4-1.22s0.13-0.92,0.4-1.22c0.26-0.3,0.62-0.45,1.07-0.45c0.44,0,0.8,0.15,1.06,0.45
					C138.26,50.34,138.39,50.74,138.39,51.26z M137.84,51.26c0-0.41-0.08-0.71-0.24-0.91s-0.38-0.3-0.67-0.3
					c-0.29,0-0.51,0.1-0.67,0.3c-0.16,0.2-0.24,0.5-0.24,0.91c0,0.4,0.08,0.7,0.24,0.9c0.16,0.2,0.38,0.31,0.67,0.31
					c0.28,0,0.5-0.1,0.67-0.3C137.76,51.96,137.84,51.66,137.84,51.26z"/>
				<path d="M142,51.23c0,0.26-0.04,0.5-0.11,0.71c-0.07,0.21-0.17,0.39-0.3,0.53c-0.13,0.15-0.28,0.26-0.44,0.34
					c-0.16,0.07-0.34,0.11-0.53,0.11c-0.18,0-0.34-0.02-0.47-0.06c-0.13-0.04-0.27-0.1-0.4-0.17l-0.03,0.15h-0.5v-4.41h0.53v1.57
					c0.15-0.12,0.31-0.22,0.48-0.3c0.17-0.08,0.36-0.12,0.57-0.12c0.37,0,0.67,0.14,0.88,0.43C141.89,50.31,142,50.71,142,51.23z
					 M141.45,51.25c0-0.38-0.06-0.66-0.19-0.86c-0.12-0.2-0.33-0.29-0.6-0.29c-0.16,0-0.31,0.03-0.47,0.1
					c-0.16,0.07-0.31,0.15-0.44,0.26v1.81c0.15,0.07,0.28,0.12,0.39,0.14c0.11,0.03,0.23,0.04,0.37,0.04c0.29,0,0.53-0.1,0.69-0.29
					S141.45,51.66,141.45,51.25z"/>
				<path d="M145.09,51.93c0,0.29-0.12,0.53-0.36,0.71c-0.24,0.19-0.57,0.28-0.98,0.28c-0.23,0-0.45-0.03-0.64-0.08
					s-0.36-0.12-0.49-0.18v-0.6h0.03c0.17,0.13,0.35,0.23,0.56,0.3s0.4,0.11,0.59,0.11c0.23,0,0.42-0.04,0.55-0.11
					c0.13-0.08,0.2-0.19,0.2-0.36c0-0.12-0.04-0.22-0.11-0.28c-0.07-0.06-0.21-0.12-0.41-0.16c-0.08-0.02-0.17-0.04-0.3-0.06
					s-0.23-0.05-0.33-0.07c-0.28-0.07-0.47-0.18-0.59-0.33c-0.12-0.14-0.17-0.32-0.17-0.52c0-0.13,0.03-0.25,0.08-0.37
					c0.05-0.12,0.14-0.22,0.25-0.31c0.11-0.09,0.24-0.16,0.4-0.21c0.16-0.05,0.35-0.08,0.55-0.08c0.19,0,0.38,0.02,0.57,0.07
					c0.19,0.05,0.35,0.1,0.48,0.17v0.57h-0.03c-0.14-0.1-0.3-0.18-0.5-0.25c-0.19-0.07-0.38-0.1-0.57-0.1
					c-0.2,0-0.36,0.04-0.49,0.11c-0.13,0.08-0.2,0.19-0.2,0.33c0,0.13,0.04,0.23,0.12,0.29c0.08,0.07,0.21,0.12,0.38,0.16
					c0.1,0.02,0.21,0.04,0.33,0.07c0.12,0.02,0.22,0.04,0.3,0.06c0.25,0.06,0.44,0.15,0.57,0.29
					C145.02,51.51,145.09,51.7,145.09,51.93z"/>
				<path d="M148.5,51.31h-2.33c0,0.19,0.03,0.36,0.09,0.51c0.06,0.14,0.14,0.26,0.24,0.36c0.1,0.09,0.21,0.16,0.35,0.2
					c0.13,0.05,0.28,0.07,0.45,0.07c0.21,0,0.43-0.04,0.65-0.13c0.22-0.09,0.37-0.17,0.47-0.25h0.03v0.58
					c-0.18,0.08-0.36,0.14-0.55,0.19c-0.19,0.05-0.38,0.08-0.59,0.08c-0.53,0-0.93-0.14-1.23-0.43s-0.44-0.69-0.44-1.21
					c0-0.52,0.14-0.93,0.42-1.23s0.65-0.46,1.11-0.46c0.43,0,0.76,0.12,0.99,0.37s0.35,0.6,0.35,1.06V51.31z M147.98,50.91
					c0-0.28-0.07-0.5-0.21-0.65c-0.14-0.15-0.35-0.23-0.63-0.23c-0.29,0-0.51,0.08-0.68,0.25s-0.26,0.38-0.29,0.63H147.98z"/>
				<path d="M151.28,50.26h-0.03c-0.08-0.02-0.16-0.03-0.23-0.04c-0.08-0.01-0.16-0.01-0.26-0.01c-0.17,0-0.32,0.04-0.48,0.11
					c-0.15,0.07-0.3,0.17-0.44,0.28v2.25h-0.53v-3.16h0.53v0.47c0.21-0.17,0.4-0.29,0.56-0.36c0.16-0.07,0.33-0.11,0.49-0.11
					c0.09,0,0.16,0,0.2,0.01c0.04,0,0.1,0.01,0.19,0.03V50.26z"/>
				<path d="M154.52,49.68l-1.28,3.16h-0.54l-1.27-3.16h0.58l0.98,2.52l0.97-2.52H154.52z"/>
				<path d="M157.86,51.31h-2.33c0,0.19,0.03,0.36,0.09,0.51s0.14,0.26,0.24,0.36c0.1,0.09,0.21,0.16,0.35,0.2
					c0.13,0.05,0.28,0.07,0.45,0.07c0.22,0,0.43-0.04,0.65-0.13s0.37-0.17,0.47-0.25h0.03v0.58c-0.18,0.08-0.36,0.14-0.55,0.19
					c-0.19,0.05-0.38,0.08-0.59,0.08c-0.52,0-0.93-0.14-1.23-0.43c-0.29-0.28-0.44-0.69-0.44-1.21c0-0.52,0.14-0.93,0.42-1.23
					s0.65-0.46,1.11-0.46c0.43,0,0.76,0.12,0.99,0.37c0.23,0.25,0.35,0.6,0.35,1.06V51.31z M157.34,50.91c0-0.28-0.07-0.5-0.21-0.65
					c-0.14-0.15-0.35-0.23-0.63-0.23c-0.29,0-0.51,0.08-0.68,0.25s-0.26,0.38-0.29,0.63H157.34z M157.41,48.09l-0.77,1.06h-0.42
					l0.51-1.06H157.41z"/>
			</g>
		</g>
		<g>
			<g>
				<path d="M183.66,45.59h-0.03c-0.06-0.02-0.13-0.03-0.23-0.05c-0.09-0.02-0.18-0.03-0.25-0.03c-0.23,0-0.39,0.05-0.5,0.15
					c-0.1,0.1-0.15,0.28-0.15,0.55v0.11h0.96v0.45h-0.94v2.72h-0.53v-2.72h-0.36v-0.45h0.36v-0.1c0-0.38,0.09-0.66,0.28-0.87
					c0.19-0.2,0.46-0.3,0.81-0.3c0.12,0,0.23,0.01,0.32,0.02c0.1,0.01,0.18,0.02,0.26,0.04V45.59z"/>
				<path d="M186.7,47.9c0,0.51-0.13,0.92-0.4,1.22c-0.26,0.3-0.62,0.45-1.06,0.45c-0.45,0-0.8-0.15-1.07-0.45
					c-0.26-0.3-0.4-0.71-0.4-1.22c0-0.52,0.13-0.92,0.4-1.22c0.26-0.3,0.62-0.45,1.07-0.45c0.44,0,0.8,0.15,1.06,0.45
					C186.56,46.98,186.7,47.39,186.7,47.9z M186.15,47.9c0-0.41-0.08-0.71-0.24-0.91s-0.38-0.3-0.67-0.3c-0.29,0-0.51,0.1-0.67,0.3
					c-0.16,0.2-0.24,0.5-0.24,0.91c0,0.4,0.08,0.7,0.24,0.9c0.16,0.21,0.38,0.31,0.67,0.31c0.28,0,0.5-0.1,0.67-0.3
					C186.07,48.6,186.15,48.3,186.15,47.9z"/>
				<path d="M189.49,46.9h-0.03c-0.08-0.02-0.16-0.03-0.23-0.04c-0.08-0.01-0.16-0.01-0.26-0.01c-0.17,0-0.32,0.04-0.48,0.11
					c-0.15,0.07-0.3,0.17-0.44,0.28v2.25h-0.53v-3.16h0.53v0.47c0.21-0.17,0.4-0.29,0.56-0.36c0.16-0.07,0.33-0.11,0.49-0.11
					c0.09,0,0.16,0,0.2,0.01c0.04,0,0.1,0.01,0.19,0.03V46.9z"/>
				<path d="M191.64,49.45c-0.1,0.03-0.21,0.05-0.33,0.06c-0.12,0.02-0.22,0.03-0.32,0.03c-0.32,0-0.57-0.09-0.74-0.26
					c-0.17-0.17-0.25-0.45-0.25-0.84v-1.68h-0.36v-0.45h0.36v-0.91h0.53v0.91h1.1v0.45h-1.1v1.44c0,0.17,0,0.3,0.01,0.39
					c0.01,0.09,0.03,0.18,0.08,0.26c0.04,0.08,0.1,0.13,0.17,0.17c0.07,0.04,0.18,0.05,0.33,0.05c0.09,0,0.18-0.01,0.27-0.04
					s0.16-0.05,0.2-0.06h0.03V49.45z"/>
			</g>
		</g>
		<g>
			<g>
				<path d="M219.88,45.88h-0.53v-0.33c-0.15,0.13-0.31,0.24-0.48,0.31s-0.35,0.11-0.54,0.11c-0.38,0-0.68-0.15-0.9-0.44
					c-0.22-0.29-0.33-0.69-0.33-1.21c0-0.27,0.04-0.51,0.12-0.72c0.08-0.21,0.18-0.39,0.31-0.54c0.13-0.14,0.28-0.25,0.45-0.33
					s0.35-0.11,0.53-0.11c0.17,0,0.31,0.02,0.44,0.05c0.13,0.04,0.26,0.09,0.41,0.16v-1.37h0.53V45.88z M219.35,45.1v-1.81
					c-0.14-0.06-0.27-0.11-0.38-0.13c-0.11-0.03-0.24-0.04-0.37-0.04c-0.3,0-0.53,0.1-0.7,0.31c-0.17,0.21-0.25,0.5-0.25,0.88
					c0,0.38,0.06,0.66,0.19,0.86c0.13,0.2,0.33,0.29,0.62,0.29c0.15,0,0.3-0.03,0.46-0.1C219.07,45.29,219.21,45.21,219.35,45.1z"/>
				<path d="M223.58,44.35h-2.33c0,0.19,0.03,0.36,0.09,0.51s0.14,0.26,0.24,0.36c0.1,0.09,0.21,0.16,0.35,0.2
					c0.13,0.04,0.28,0.07,0.45,0.07c0.22,0,0.43-0.04,0.65-0.13s0.37-0.17,0.47-0.25h0.03v0.58c-0.18,0.08-0.36,0.14-0.55,0.19
					c-0.19,0.05-0.38,0.08-0.59,0.08c-0.52,0-0.93-0.14-1.23-0.43c-0.29-0.28-0.44-0.69-0.44-1.21c0-0.52,0.14-0.93,0.42-1.23
					c0.28-0.3,0.65-0.46,1.11-0.46c0.43,0,0.76,0.12,0.99,0.37c0.23,0.25,0.35,0.6,0.35,1.06V44.35z M223.06,43.95
					c0-0.28-0.07-0.5-0.21-0.65s-0.35-0.23-0.63-0.23c-0.29,0-0.51,0.08-0.68,0.25s-0.26,0.38-0.29,0.63H223.06z M223.12,41.13
					l-0.77,1.06h-0.42l0.51-1.06H223.12z"/>
				<path d="M226.95,45.52c0,0.54-0.12,0.93-0.37,1.18c-0.24,0.25-0.62,0.38-1.12,0.38c-0.17,0-0.33-0.01-0.49-0.04
					s-0.32-0.06-0.47-0.1V46.4h0.03c0.09,0.04,0.22,0.08,0.41,0.13c0.19,0.05,0.38,0.07,0.57,0.07c0.18,0,0.33-0.02,0.45-0.06
					s0.21-0.1,0.28-0.18c0.07-0.07,0.11-0.16,0.14-0.27s0.04-0.22,0.04-0.35v-0.29c-0.16,0.13-0.31,0.22-0.46,0.29
					c-0.15,0.06-0.33,0.09-0.56,0.09c-0.38,0-0.68-0.14-0.9-0.41c-0.22-0.27-0.33-0.66-0.33-1.15c0-0.27,0.04-0.51,0.11-0.7
					c0.08-0.2,0.18-0.37,0.31-0.51c0.12-0.13,0.27-0.24,0.45-0.31c0.18-0.08,0.35-0.11,0.52-0.11c0.18,0,0.34,0.02,0.46,0.06
					c0.12,0.04,0.25,0.09,0.39,0.17l0.03-0.14h0.5V45.52z M226.42,45.01v-1.72c-0.14-0.06-0.27-0.11-0.39-0.14s-0.24-0.04-0.36-0.04
					c-0.29,0-0.52,0.1-0.69,0.29c-0.17,0.2-0.25,0.48-0.25,0.86c0,0.36,0.06,0.62,0.19,0.81s0.33,0.27,0.62,0.27
					c0.16,0,0.31-0.03,0.47-0.09C226.14,45.19,226.29,45.11,226.42,45.01z"/>
				<path d="M230.45,45.88h-0.53v-0.34c-0.05,0.03-0.11,0.08-0.19,0.13c-0.08,0.06-0.16,0.1-0.23,0.14
					c-0.09,0.04-0.19,0.08-0.31,0.11c-0.11,0.03-0.25,0.04-0.4,0.04c-0.29,0-0.53-0.09-0.73-0.28c-0.2-0.19-0.3-0.43-0.3-0.72
					c0-0.24,0.05-0.43,0.15-0.58s0.25-0.26,0.44-0.35c0.19-0.08,0.42-0.14,0.69-0.17c0.27-0.03,0.56-0.05,0.87-0.07v-0.08
					c0-0.12-0.02-0.22-0.06-0.3c-0.04-0.08-0.1-0.14-0.18-0.19c-0.08-0.04-0.17-0.07-0.27-0.09s-0.22-0.02-0.33-0.02
					c-0.14,0-0.3,0.02-0.47,0.05s-0.35,0.09-0.53,0.16h-0.03v-0.54c0.1-0.03,0.25-0.06,0.45-0.09c0.2-0.03,0.39-0.05,0.58-0.05
					c0.22,0,0.42,0.02,0.58,0.06c0.17,0.04,0.31,0.1,0.43,0.19c0.12,0.09,0.21,0.2,0.27,0.34s0.09,0.31,0.09,0.51V45.88z
					 M230.19,42.21h-0.45l-0.52-0.72l-0.52,0.72h-0.44l0.65-1.07h0.64L230.19,42.21z M229.93,45.1v-0.88
					c-0.16,0.01-0.35,0.02-0.57,0.04c-0.22,0.02-0.39,0.05-0.52,0.08c-0.15,0.04-0.28,0.11-0.37,0.2c-0.09,0.09-0.14,0.22-0.14,0.38
					c0,0.18,0.06,0.32,0.17,0.41s0.28,0.14,0.5,0.14c0.19,0,0.36-0.04,0.51-0.11C229.65,45.29,229.79,45.2,229.93,45.1z"/>
				<path d="M233.12,45.85c-0.1,0.03-0.21,0.05-0.33,0.07c-0.12,0.02-0.22,0.03-0.32,0.03c-0.32,0-0.57-0.09-0.74-0.26
					c-0.17-0.17-0.25-0.45-0.25-0.83v-1.68h-0.36v-0.45h0.36v-0.91h0.53v0.91h1.1v0.45h-1.1v1.44c0,0.17,0,0.3,0.01,0.39
					s0.03,0.18,0.08,0.26c0.04,0.08,0.1,0.13,0.17,0.17c0.07,0.04,0.18,0.05,0.33,0.05c0.09,0,0.18-0.01,0.27-0.04
					s0.16-0.05,0.2-0.06h0.03V45.85z"/>
				<path d="M236.03,44.97c0,0.29-0.12,0.53-0.36,0.71c-0.24,0.19-0.56,0.28-0.98,0.28c-0.23,0-0.45-0.03-0.64-0.08
					c-0.2-0.06-0.36-0.12-0.49-0.18v-0.6h0.03c0.17,0.13,0.36,0.23,0.56,0.3c0.21,0.08,0.4,0.11,0.59,0.11
					c0.23,0,0.42-0.04,0.55-0.11s0.2-0.19,0.2-0.36c0-0.12-0.04-0.22-0.11-0.28c-0.07-0.06-0.21-0.12-0.41-0.16
					c-0.08-0.02-0.17-0.04-0.3-0.06c-0.12-0.02-0.23-0.05-0.33-0.07c-0.28-0.07-0.47-0.18-0.59-0.33c-0.12-0.14-0.17-0.32-0.17-0.52
					c0-0.13,0.03-0.25,0.08-0.37c0.05-0.12,0.14-0.22,0.25-0.31c0.11-0.09,0.24-0.16,0.4-0.21c0.16-0.05,0.35-0.08,0.55-0.08
					c0.19,0,0.38,0.02,0.57,0.07c0.19,0.05,0.35,0.1,0.48,0.17v0.57h-0.03c-0.14-0.1-0.3-0.18-0.5-0.25
					c-0.19-0.07-0.39-0.1-0.57-0.1c-0.19,0-0.36,0.04-0.49,0.11c-0.13,0.07-0.2,0.19-0.2,0.33c0,0.13,0.04,0.23,0.12,0.29
					c0.08,0.07,0.21,0.12,0.39,0.16c0.1,0.02,0.21,0.04,0.33,0.07c0.12,0.02,0.22,0.04,0.3,0.06c0.25,0.06,0.44,0.15,0.57,0.29
					C235.96,44.55,236.03,44.74,236.03,44.97z"/>
				<path d="M218.78,52.84h-0.53v-4.41h0.53V52.84z"/>
				<path d="M222.48,51.31h-2.33c0,0.19,0.03,0.36,0.09,0.51s0.14,0.26,0.24,0.36c0.1,0.09,0.21,0.16,0.35,0.2
					c0.13,0.05,0.28,0.07,0.45,0.07c0.22,0,0.43-0.04,0.65-0.13s0.37-0.17,0.47-0.25h0.03v0.58c-0.18,0.08-0.36,0.14-0.55,0.19
					c-0.19,0.05-0.38,0.08-0.59,0.08c-0.52,0-0.93-0.14-1.23-0.43c-0.29-0.28-0.44-0.69-0.44-1.21c0-0.52,0.14-0.93,0.42-1.23
					c0.28-0.3,0.65-0.46,1.11-0.46c0.43,0,0.76,0.12,0.99,0.37c0.23,0.25,0.35,0.6,0.35,1.06V51.31z M221.97,50.91
					c0-0.28-0.07-0.5-0.21-0.65c-0.14-0.15-0.35-0.23-0.63-0.23c-0.29,0-0.51,0.08-0.68,0.25s-0.26,0.38-0.29,0.62H221.97z
					 M222.03,48.09l-0.77,1.06h-0.42l0.51-1.06H222.03z"/>
				<path d="M225.86,52.48c0,0.54-0.12,0.93-0.37,1.18c-0.24,0.25-0.62,0.38-1.12,0.38c-0.17,0-0.33-0.01-0.49-0.04
					s-0.32-0.06-0.47-0.1v-0.54h0.03c0.09,0.03,0.22,0.08,0.41,0.13c0.19,0.05,0.38,0.08,0.57,0.08c0.18,0,0.33-0.02,0.45-0.07
					s0.21-0.1,0.28-0.18c0.07-0.07,0.11-0.16,0.14-0.27c0.03-0.1,0.04-0.22,0.04-0.35v-0.29c-0.16,0.13-0.31,0.22-0.46,0.29
					c-0.15,0.06-0.33,0.1-0.56,0.1c-0.38,0-0.68-0.14-0.9-0.41c-0.22-0.27-0.33-0.66-0.33-1.15c0-0.27,0.04-0.51,0.11-0.7
					c0.08-0.2,0.18-0.37,0.31-0.51c0.12-0.13,0.27-0.24,0.45-0.31s0.35-0.11,0.52-0.11c0.18,0,0.34,0.02,0.46,0.05
					c0.12,0.04,0.25,0.09,0.39,0.17l0.03-0.14h0.5V52.48z M225.32,51.97v-1.72c-0.14-0.06-0.27-0.11-0.39-0.14s-0.24-0.04-0.36-0.04
					c-0.29,0-0.52,0.1-0.69,0.29c-0.17,0.2-0.25,0.48-0.25,0.86c0,0.35,0.06,0.62,0.19,0.81s0.33,0.27,0.62,0.27
					c0.16,0,0.31-0.03,0.47-0.09C225.05,52.15,225.19,52.07,225.32,51.97z"/>
				<path d="M229.55,51.31h-2.33c0,0.19,0.03,0.36,0.09,0.51s0.14,0.26,0.24,0.36c0.1,0.09,0.21,0.16,0.35,0.2
					c0.13,0.05,0.28,0.07,0.45,0.07c0.22,0,0.43-0.04,0.65-0.13s0.37-0.17,0.47-0.25h0.03v0.58c-0.18,0.08-0.36,0.14-0.55,0.19
					c-0.19,0.05-0.38,0.08-0.59,0.08c-0.52,0-0.93-0.14-1.23-0.43c-0.29-0.28-0.44-0.69-0.44-1.21c0-0.52,0.14-0.93,0.42-1.23
					c0.28-0.3,0.65-0.46,1.11-0.46c0.43,0,0.76,0.12,0.99,0.37c0.23,0.25,0.35,0.6,0.35,1.06V51.31z M229.03,50.91
					c0-0.28-0.07-0.5-0.21-0.65c-0.14-0.15-0.35-0.23-0.63-0.23c-0.29,0-0.51,0.08-0.68,0.25s-0.26,0.38-0.29,0.62H229.03z"/>
				<path d="M232.33,50.26h-0.03c-0.08-0.02-0.16-0.03-0.23-0.04c-0.07-0.01-0.16-0.01-0.26-0.01c-0.16,0-0.32,0.04-0.48,0.11
					c-0.15,0.07-0.3,0.17-0.44,0.28v2.25h-0.53v-3.16h0.53v0.47c0.21-0.17,0.4-0.29,0.56-0.36c0.16-0.07,0.33-0.11,0.49-0.11
					c0.09,0,0.16,0,0.2,0.01c0.04,0,0.1,0.01,0.19,0.03V50.26z"/>
				<path d="M235.09,51.93c0,0.29-0.12,0.53-0.36,0.71c-0.24,0.18-0.57,0.28-0.98,0.28c-0.23,0-0.45-0.03-0.64-0.08
					c-0.2-0.06-0.36-0.12-0.49-0.18v-0.6h0.03c0.17,0.13,0.35,0.23,0.56,0.3s0.4,0.11,0.59,0.11c0.23,0,0.42-0.04,0.55-0.11
					c0.13-0.08,0.2-0.19,0.2-0.36c0-0.12-0.04-0.22-0.11-0.28c-0.07-0.06-0.21-0.12-0.41-0.17c-0.08-0.02-0.17-0.04-0.3-0.06
					c-0.12-0.02-0.23-0.05-0.33-0.07c-0.28-0.07-0.47-0.18-0.59-0.32s-0.17-0.32-0.17-0.53c0-0.13,0.03-0.25,0.08-0.37
					c0.05-0.12,0.14-0.22,0.25-0.31c0.11-0.09,0.24-0.16,0.4-0.21s0.35-0.08,0.55-0.08c0.19,0,0.38,0.02,0.57,0.07
					c0.19,0.05,0.35,0.1,0.48,0.17v0.57h-0.03c-0.14-0.1-0.3-0.18-0.5-0.25c-0.19-0.07-0.38-0.1-0.57-0.1
					c-0.2,0-0.36,0.04-0.49,0.11s-0.2,0.19-0.2,0.33c0,0.13,0.04,0.23,0.12,0.29c0.08,0.07,0.21,0.12,0.38,0.16
					c0.1,0.02,0.21,0.05,0.33,0.07c0.12,0.02,0.22,0.04,0.3,0.06c0.25,0.06,0.44,0.15,0.57,0.29
					C235.03,51.51,235.09,51.7,235.09,51.93z"/>
			</g>
		</g>
		<g>
			<g>
				<path d="M259.82,49.48h-0.53v-0.33c-0.15,0.13-0.31,0.24-0.48,0.31c-0.17,0.07-0.35,0.11-0.54,0.11c-0.38,0-0.68-0.15-0.9-0.44
					s-0.33-0.69-0.33-1.21c0-0.27,0.04-0.51,0.12-0.72s0.18-0.39,0.31-0.54c0.13-0.14,0.28-0.25,0.45-0.33
					c0.17-0.08,0.35-0.11,0.53-0.11c0.17,0,0.31,0.02,0.44,0.05c0.13,0.04,0.26,0.09,0.41,0.16v-1.37h0.53V49.48z M259.29,48.7
					v-1.82c-0.14-0.06-0.27-0.11-0.38-0.13s-0.24-0.04-0.37-0.04c-0.3,0-0.53,0.1-0.7,0.31c-0.17,0.21-0.25,0.5-0.25,0.88
					c0,0.38,0.06,0.66,0.19,0.86c0.13,0.2,0.33,0.29,0.62,0.29c0.15,0,0.3-0.03,0.46-0.1C259.01,48.89,259.16,48.81,259.29,48.7z"/>
				<path d="M263.52,47.95h-2.33c0,0.19,0.03,0.36,0.09,0.51s0.14,0.26,0.24,0.36c0.1,0.09,0.21,0.16,0.35,0.2
					c0.13,0.04,0.28,0.07,0.45,0.07c0.22,0,0.43-0.04,0.65-0.13s0.37-0.17,0.47-0.25h0.03v0.58c-0.18,0.08-0.36,0.14-0.55,0.19
					c-0.19,0.05-0.38,0.08-0.59,0.08c-0.52,0-0.93-0.14-1.23-0.43c-0.29-0.28-0.44-0.69-0.44-1.21c0-0.52,0.14-0.93,0.42-1.23
					c0.28-0.3,0.65-0.46,1.11-0.46c0.43,0,0.76,0.12,0.99,0.37c0.23,0.25,0.35,0.6,0.35,1.06V47.95z M263,47.55
					c0-0.28-0.07-0.5-0.21-0.65s-0.35-0.23-0.63-0.23c-0.29,0-0.51,0.08-0.68,0.25s-0.26,0.38-0.29,0.63H263z M263.07,44.73
					l-0.77,1.06h-0.42l0.51-1.06H263.07z"/>
				<path d="M266.89,49.12c0,0.54-0.12,0.93-0.37,1.18c-0.24,0.25-0.62,0.38-1.12,0.38c-0.17,0-0.33-0.01-0.49-0.04
					s-0.32-0.06-0.47-0.1V50h0.03c0.09,0.03,0.22,0.08,0.41,0.13c0.19,0.05,0.38,0.07,0.57,0.07c0.18,0,0.33-0.02,0.45-0.06
					c0.12-0.04,0.21-0.1,0.28-0.18c0.07-0.07,0.11-0.16,0.14-0.27c0.03-0.1,0.04-0.22,0.04-0.35v-0.29
					c-0.16,0.13-0.31,0.22-0.46,0.29c-0.15,0.06-0.33,0.09-0.56,0.09c-0.38,0-0.68-0.14-0.9-0.41c-0.22-0.27-0.33-0.66-0.33-1.15
					c0-0.27,0.04-0.51,0.11-0.7c0.08-0.2,0.18-0.37,0.31-0.51c0.12-0.13,0.27-0.24,0.45-0.31s0.35-0.11,0.52-0.11
					c0.18,0,0.34,0.02,0.46,0.05c0.12,0.04,0.25,0.09,0.39,0.17l0.03-0.14h0.5V49.12z M266.36,48.61v-1.72
					c-0.14-0.06-0.27-0.11-0.39-0.14s-0.24-0.04-0.36-0.04c-0.29,0-0.52,0.1-0.69,0.29s-0.25,0.48-0.25,0.86
					c0,0.36,0.06,0.62,0.19,0.81c0.12,0.18,0.33,0.27,0.62,0.27c0.16,0,0.31-0.03,0.47-0.09C266.09,48.79,266.23,48.71,266.36,48.61
					z"/>
				<path d="M270.4,49.48h-0.53v-0.34c-0.05,0.03-0.11,0.08-0.19,0.13s-0.16,0.1-0.23,0.14c-0.09,0.04-0.19,0.08-0.31,0.11
					c-0.11,0.03-0.25,0.04-0.4,0.04c-0.29,0-0.53-0.09-0.73-0.28c-0.2-0.19-0.3-0.43-0.3-0.72c0-0.24,0.05-0.43,0.15-0.58
					s0.25-0.26,0.44-0.35c0.19-0.08,0.42-0.14,0.69-0.17c0.27-0.03,0.56-0.05,0.87-0.07v-0.08c0-0.12-0.02-0.22-0.06-0.3
					c-0.04-0.08-0.1-0.14-0.18-0.19c-0.08-0.04-0.17-0.07-0.27-0.09c-0.11-0.02-0.22-0.02-0.33-0.02c-0.14,0-0.3,0.02-0.47,0.05
					s-0.35,0.09-0.53,0.16h-0.03v-0.54c0.1-0.03,0.25-0.06,0.45-0.09c0.2-0.03,0.39-0.05,0.58-0.05c0.22,0,0.42,0.02,0.58,0.06
					c0.17,0.04,0.31,0.1,0.43,0.19c0.12,0.09,0.21,0.2,0.27,0.34s0.09,0.31,0.09,0.51V49.48z M270.14,45.81h-0.45l-0.52-0.72
					l-0.52,0.72h-0.44l0.65-1.07h0.64L270.14,45.81z M269.87,48.7v-0.88c-0.16,0.01-0.35,0.02-0.57,0.04
					c-0.22,0.02-0.39,0.05-0.52,0.08c-0.15,0.04-0.28,0.11-0.37,0.2c-0.09,0.09-0.14,0.22-0.14,0.38c0,0.18,0.06,0.32,0.17,0.41
					c0.11,0.09,0.28,0.14,0.5,0.14c0.19,0,0.36-0.04,0.51-0.11C269.59,48.89,269.74,48.8,269.87,48.7z"/>
				<path d="M273.07,49.45c-0.1,0.03-0.21,0.05-0.33,0.06c-0.12,0.02-0.22,0.03-0.32,0.03c-0.32,0-0.57-0.09-0.74-0.26
					c-0.17-0.17-0.25-0.45-0.25-0.84v-1.68h-0.36v-0.45h0.36v-0.91h0.53v0.91h1.1v0.45h-1.1v1.44c0,0.17,0,0.3,0.01,0.39
					c0.01,0.09,0.03,0.18,0.08,0.26c0.04,0.08,0.1,0.13,0.17,0.17c0.07,0.04,0.18,0.05,0.33,0.05c0.09,0,0.18-0.01,0.27-0.04
					s0.16-0.05,0.2-0.06h0.03V49.45z"/>
				<path d="M275.97,48.57c0,0.29-0.12,0.53-0.36,0.71c-0.24,0.18-0.56,0.28-0.98,0.28c-0.23,0-0.45-0.03-0.64-0.08
					c-0.2-0.06-0.36-0.12-0.49-0.18v-0.6h0.03c0.17,0.13,0.36,0.23,0.56,0.3c0.21,0.08,0.4,0.11,0.59,0.11
					c0.23,0,0.42-0.04,0.55-0.11s0.2-0.19,0.2-0.36c0-0.12-0.04-0.22-0.11-0.28c-0.07-0.06-0.21-0.12-0.41-0.17
					c-0.08-0.02-0.17-0.04-0.3-0.06c-0.12-0.02-0.23-0.05-0.33-0.07c-0.28-0.07-0.47-0.18-0.59-0.32s-0.17-0.32-0.17-0.53
					c0-0.13,0.03-0.25,0.08-0.37c0.05-0.12,0.14-0.22,0.25-0.31c0.11-0.09,0.24-0.16,0.4-0.21c0.16-0.05,0.35-0.08,0.55-0.08
					c0.19,0,0.38,0.02,0.57,0.07c0.19,0.05,0.35,0.1,0.48,0.17v0.57h-0.03c-0.14-0.1-0.3-0.18-0.5-0.25
					c-0.19-0.07-0.39-0.1-0.57-0.1c-0.19,0-0.36,0.04-0.49,0.11c-0.13,0.07-0.2,0.19-0.2,0.33c0,0.13,0.04,0.23,0.12,0.29
					c0.08,0.07,0.21,0.12,0.39,0.16c0.1,0.02,0.21,0.05,0.33,0.07c0.12,0.02,0.22,0.04,0.3,0.06c0.25,0.06,0.44,0.15,0.57,0.29
					C275.9,48.15,275.97,48.34,275.97,48.57z"/>
			</g>
		</g>
		<g>
			<g>
				<path d="M299.77,45.88h-0.53v-0.33c-0.15,0.13-0.31,0.24-0.48,0.31c-0.17,0.07-0.35,0.11-0.54,0.11c-0.38,0-0.68-0.15-0.9-0.44
					s-0.33-0.69-0.33-1.21c0-0.27,0.04-0.51,0.11-0.72c0.08-0.21,0.18-0.39,0.31-0.54c0.13-0.14,0.28-0.25,0.45-0.33
					c0.17-0.08,0.35-0.11,0.53-0.11c0.17,0,0.31,0.02,0.44,0.05c0.13,0.04,0.26,0.09,0.4,0.16v-1.37h0.53V45.88z M299.24,45.1v-1.82
					c-0.14-0.06-0.27-0.11-0.38-0.13s-0.24-0.04-0.37-0.04c-0.3,0-0.53,0.1-0.7,0.31c-0.17,0.21-0.25,0.5-0.25,0.88
					c0,0.38,0.06,0.66,0.19,0.86c0.13,0.2,0.33,0.29,0.62,0.29c0.15,0,0.3-0.03,0.46-0.1C298.96,45.29,299.11,45.21,299.24,45.1z"/>
				<path d="M303.47,44.35h-2.33c0,0.19,0.03,0.36,0.09,0.51c0.06,0.14,0.14,0.26,0.24,0.36c0.1,0.09,0.21,0.16,0.35,0.2
					s0.28,0.07,0.45,0.07c0.21,0,0.43-0.04,0.65-0.13c0.22-0.09,0.37-0.17,0.47-0.25h0.03v0.58c-0.18,0.08-0.36,0.14-0.55,0.19
					c-0.19,0.05-0.38,0.08-0.59,0.08c-0.53,0-0.93-0.14-1.23-0.43s-0.44-0.69-0.44-1.21c0-0.52,0.14-0.93,0.42-1.23
					c0.28-0.3,0.65-0.46,1.11-0.46c0.43,0,0.76,0.12,0.99,0.37c0.23,0.25,0.35,0.6,0.35,1.06V44.35z M302.95,43.95
					c0-0.28-0.07-0.5-0.21-0.65c-0.14-0.15-0.35-0.23-0.63-0.23c-0.29,0-0.51,0.08-0.68,0.25s-0.26,0.38-0.29,0.63H302.95z
					 M303.02,41.13l-0.77,1.06h-0.42l0.51-1.06H303.02z"/>
				<path d="M306.84,45.52c0,0.54-0.12,0.93-0.37,1.18s-0.62,0.38-1.12,0.38c-0.17,0-0.33-0.01-0.49-0.04
					c-0.16-0.02-0.32-0.06-0.47-0.1V46.4h0.03c0.09,0.03,0.22,0.08,0.41,0.13c0.19,0.05,0.38,0.07,0.57,0.07
					c0.18,0,0.33-0.02,0.45-0.06c0.12-0.04,0.21-0.1,0.28-0.18c0.07-0.07,0.11-0.16,0.14-0.27c0.03-0.1,0.04-0.22,0.04-0.35v-0.29
					c-0.16,0.13-0.31,0.22-0.46,0.29c-0.15,0.06-0.33,0.09-0.56,0.09c-0.38,0-0.68-0.14-0.9-0.41c-0.22-0.27-0.33-0.66-0.33-1.15
					c0-0.27,0.04-0.51,0.12-0.7s0.18-0.37,0.31-0.51c0.12-0.13,0.27-0.24,0.45-0.31c0.17-0.07,0.35-0.11,0.52-0.11
					c0.18,0,0.34,0.02,0.46,0.05c0.12,0.04,0.25,0.09,0.39,0.17l0.03-0.14h0.5V45.52z M306.31,45.01v-1.72
					c-0.14-0.06-0.27-0.11-0.4-0.14c-0.12-0.03-0.24-0.04-0.36-0.04c-0.29,0-0.52,0.1-0.69,0.29s-0.25,0.48-0.25,0.86
					c0,0.36,0.06,0.62,0.19,0.81c0.12,0.18,0.33,0.27,0.62,0.27c0.15,0,0.31-0.03,0.47-0.09C306.04,45.19,306.18,45.11,306.31,45.01
					z"/>
				<path d="M310.35,45.88h-0.53v-0.34c-0.05,0.03-0.11,0.08-0.19,0.13c-0.08,0.06-0.16,0.1-0.23,0.14
					c-0.09,0.04-0.19,0.08-0.31,0.11s-0.25,0.04-0.41,0.04c-0.29,0-0.53-0.09-0.72-0.28c-0.2-0.19-0.3-0.43-0.3-0.72
					c0-0.24,0.05-0.43,0.15-0.58c0.1-0.15,0.25-0.26,0.44-0.35c0.19-0.08,0.42-0.14,0.69-0.17c0.27-0.03,0.56-0.05,0.87-0.07v-0.08
					c0-0.12-0.02-0.22-0.06-0.3c-0.04-0.08-0.1-0.14-0.18-0.19c-0.08-0.04-0.17-0.07-0.27-0.09c-0.11-0.02-0.22-0.02-0.33-0.02
					c-0.14,0-0.29,0.02-0.47,0.05s-0.35,0.09-0.53,0.16h-0.03v-0.54c0.1-0.03,0.25-0.06,0.45-0.09c0.2-0.03,0.39-0.05,0.58-0.05
					c0.22,0,0.42,0.02,0.58,0.06c0.17,0.04,0.31,0.1,0.43,0.19c0.12,0.09,0.21,0.2,0.27,0.34s0.09,0.31,0.09,0.51V45.88z
					 M310.09,42.21h-0.45l-0.52-0.72l-0.52,0.72h-0.44l0.65-1.07h0.64L310.09,42.21z M309.82,45.1v-0.88
					c-0.16,0.01-0.35,0.02-0.57,0.04s-0.39,0.05-0.52,0.08c-0.15,0.04-0.28,0.11-0.37,0.2c-0.09,0.09-0.14,0.22-0.14,0.38
					c0,0.18,0.05,0.32,0.16,0.41c0.11,0.09,0.28,0.14,0.5,0.14c0.19,0,0.36-0.04,0.51-0.11C309.54,45.29,309.69,45.2,309.82,45.1z"
					/>
				<path d="M313.02,45.85c-0.1,0.03-0.21,0.05-0.33,0.06c-0.12,0.02-0.22,0.03-0.32,0.03c-0.32,0-0.57-0.09-0.74-0.26
					s-0.25-0.45-0.25-0.84v-1.68h-0.36v-0.45h0.36v-0.91h0.53v0.91h1.1v0.45h-1.1v1.44c0,0.17,0,0.3,0.01,0.39
					c0.01,0.09,0.03,0.18,0.08,0.26c0.04,0.08,0.1,0.13,0.17,0.17c0.07,0.04,0.18,0.05,0.33,0.05c0.09,0,0.18-0.01,0.27-0.04
					c0.09-0.03,0.16-0.05,0.2-0.06h0.03V45.85z"/>
				<path d="M315.92,44.97c0,0.29-0.12,0.53-0.36,0.71c-0.24,0.18-0.57,0.28-0.98,0.28c-0.23,0-0.45-0.03-0.64-0.08
					c-0.2-0.06-0.36-0.12-0.49-0.18v-0.6h0.03c0.17,0.13,0.35,0.23,0.56,0.3c0.21,0.08,0.4,0.11,0.59,0.11
					c0.23,0,0.42-0.04,0.55-0.11c0.13-0.08,0.2-0.19,0.2-0.36c0-0.12-0.04-0.22-0.11-0.28c-0.07-0.06-0.21-0.12-0.41-0.17
					c-0.08-0.02-0.17-0.04-0.3-0.06c-0.12-0.02-0.23-0.05-0.33-0.07c-0.28-0.07-0.47-0.18-0.59-0.32s-0.17-0.32-0.17-0.53
					c0-0.13,0.03-0.25,0.08-0.37s0.14-0.22,0.25-0.31c0.11-0.09,0.24-0.16,0.4-0.21s0.35-0.08,0.55-0.08c0.19,0,0.38,0.02,0.57,0.07
					c0.19,0.05,0.35,0.1,0.48,0.17v0.57h-0.03c-0.14-0.1-0.3-0.18-0.5-0.25c-0.19-0.07-0.38-0.1-0.57-0.1
					c-0.2,0-0.36,0.04-0.49,0.11c-0.13,0.07-0.2,0.19-0.2,0.33c0,0.13,0.04,0.23,0.12,0.29c0.08,0.07,0.21,0.12,0.38,0.16
					c0.1,0.02,0.21,0.05,0.33,0.07s0.22,0.04,0.3,0.06c0.25,0.06,0.44,0.15,0.57,0.29C315.85,44.55,315.92,44.74,315.92,44.97z"/>
				<path d="M291.72,49.15h-0.6V48.6h0.6V49.15z M291.69,52.84h-0.53v-3.16h0.53V52.84z"/>
				<path d="M297.36,52.84h-0.53v-1.8c0-0.14-0.01-0.27-0.02-0.39c-0.01-0.13-0.04-0.23-0.08-0.3c-0.04-0.08-0.11-0.14-0.19-0.18
					c-0.08-0.04-0.2-0.06-0.35-0.06c-0.15,0-0.3,0.04-0.45,0.11c-0.15,0.08-0.3,0.17-0.45,0.29c0,0.04,0.01,0.09,0.01,0.15
					s0.01,0.11,0.01,0.17v2.03h-0.53v-1.8c0-0.14-0.01-0.27-0.02-0.4c-0.01-0.13-0.04-0.23-0.08-0.3c-0.04-0.08-0.11-0.14-0.19-0.18
					s-0.2-0.06-0.35-0.06c-0.15,0-0.29,0.04-0.44,0.11c-0.15,0.07-0.29,0.16-0.44,0.27v2.36h-0.53v-3.16h0.53v0.35
					c0.17-0.14,0.33-0.25,0.5-0.32c0.17-0.08,0.34-0.12,0.53-0.12c0.21,0,0.4,0.04,0.55,0.14s0.26,0.22,0.34,0.38
					c0.21-0.18,0.41-0.31,0.59-0.39c0.18-0.08,0.37-0.12,0.57-0.12c0.35,0,0.6,0.1,0.77,0.32c0.17,0.21,0.25,0.5,0.25,0.88V52.84z"
					/>
				<path d="M301.17,51.22c0,0.26-0.04,0.49-0.11,0.7c-0.07,0.21-0.18,0.39-0.31,0.54c-0.12,0.14-0.27,0.25-0.44,0.32
					s-0.35,0.12-0.54,0.12c-0.16,0-0.31-0.02-0.45-0.05c-0.13-0.04-0.27-0.09-0.41-0.17v1.33h-0.53v-4.33h0.53v0.33
					c0.14-0.12,0.3-0.22,0.48-0.3s0.37-0.12,0.57-0.12c0.38,0,0.68,0.14,0.89,0.43C301.06,50.31,301.17,50.71,301.17,51.22z
					 M300.62,51.23c0-0.38-0.06-0.67-0.2-0.85c-0.13-0.19-0.33-0.28-0.6-0.28c-0.15,0-0.31,0.03-0.46,0.1
					c-0.16,0.07-0.3,0.15-0.45,0.26v1.79c0.15,0.07,0.28,0.11,0.39,0.14s0.23,0.04,0.37,0.04c0.3,0,0.53-0.1,0.69-0.3
					S300.62,51.63,300.62,51.23z"/>
				<path d="M304.69,51.26c0,0.51-0.13,0.92-0.4,1.22c-0.26,0.3-0.62,0.45-1.06,0.45c-0.45,0-0.8-0.15-1.07-0.45
					c-0.26-0.3-0.39-0.71-0.39-1.22c0-0.52,0.13-0.92,0.39-1.22c0.26-0.3,0.62-0.45,1.07-0.45c0.44,0,0.8,0.15,1.06,0.45
					C304.56,50.34,304.69,50.74,304.69,51.26z M304.14,51.26c0-0.41-0.08-0.71-0.24-0.91c-0.16-0.2-0.38-0.3-0.67-0.3
					c-0.29,0-0.51,0.1-0.67,0.3c-0.16,0.2-0.24,0.5-0.24,0.91c0,0.4,0.08,0.7,0.24,0.9c0.16,0.21,0.38,0.31,0.67,0.31
					c0.28,0,0.51-0.1,0.67-0.3S304.14,51.66,304.14,51.26z"/>
				<path d="M307.49,50.26h-0.03c-0.08-0.02-0.16-0.03-0.23-0.04c-0.07-0.01-0.16-0.01-0.26-0.01c-0.16,0-0.32,0.04-0.48,0.11
					c-0.15,0.07-0.3,0.17-0.44,0.28v2.25h-0.53v-3.16h0.53v0.47c0.21-0.17,0.4-0.29,0.56-0.36c0.16-0.07,0.33-0.11,0.49-0.11
					c0.09,0,0.16,0,0.2,0.01c0.04,0,0.1,0.01,0.19,0.03V50.26z"/>
				<path d="M309.63,52.81c-0.1,0.03-0.21,0.05-0.33,0.06c-0.12,0.02-0.22,0.03-0.32,0.03c-0.32,0-0.57-0.09-0.74-0.26
					S308,52.19,308,51.81v-1.68h-0.36v-0.45H308v-0.91h0.53v0.91h1.1v0.45h-1.1v1.44c0,0.17,0,0.3,0.01,0.39
					c0.01,0.09,0.03,0.18,0.08,0.26c0.04,0.08,0.1,0.13,0.17,0.17c0.07,0.04,0.18,0.05,0.33,0.05c0.09,0,0.18-0.01,0.27-0.04
					c0.09-0.03,0.16-0.05,0.2-0.06h0.03V52.81z"/>
				<path d="M312.73,52.84h-0.53V52.5c-0.05,0.03-0.11,0.08-0.19,0.13c-0.08,0.06-0.16,0.1-0.23,0.14
					c-0.09,0.04-0.19,0.08-0.31,0.11s-0.25,0.04-0.41,0.04c-0.29,0-0.53-0.09-0.72-0.28c-0.2-0.19-0.3-0.43-0.3-0.72
					c0-0.24,0.05-0.43,0.15-0.58c0.1-0.15,0.25-0.26,0.44-0.35c0.19-0.08,0.42-0.14,0.69-0.17c0.27-0.03,0.56-0.05,0.87-0.07v-0.08
					c0-0.12-0.02-0.22-0.06-0.3c-0.04-0.08-0.1-0.14-0.18-0.19c-0.08-0.04-0.17-0.07-0.27-0.09c-0.11-0.02-0.22-0.02-0.33-0.02
					c-0.14,0-0.29,0.02-0.47,0.05s-0.35,0.09-0.53,0.16h-0.03v-0.54c0.1-0.03,0.25-0.06,0.45-0.09c0.2-0.03,0.39-0.05,0.58-0.05
					c0.22,0,0.42,0.02,0.58,0.06c0.17,0.04,0.31,0.1,0.43,0.19c0.12,0.09,0.21,0.2,0.27,0.34s0.09,0.31,0.09,0.51V52.84z
					 M312.2,52.06v-0.88c-0.16,0.01-0.35,0.02-0.57,0.04s-0.39,0.05-0.52,0.08c-0.15,0.04-0.28,0.11-0.37,0.2
					c-0.09,0.09-0.14,0.22-0.14,0.38c0,0.18,0.05,0.32,0.16,0.41c0.11,0.09,0.28,0.14,0.5,0.14c0.19,0,0.36-0.04,0.51-0.11
					C311.93,52.25,312.07,52.16,312.2,52.06z"/>
				<path d="M316.41,52.84h-0.53v-1.8c0-0.15-0.01-0.28-0.03-0.41c-0.02-0.13-0.05-0.23-0.09-0.3c-0.05-0.08-0.12-0.14-0.2-0.18
					s-0.2-0.06-0.35-0.06c-0.15,0-0.3,0.04-0.46,0.11c-0.16,0.07-0.31,0.16-0.46,0.27v2.36h-0.53v-3.16h0.53v0.35
					c0.17-0.14,0.34-0.25,0.52-0.32c0.18-0.08,0.36-0.12,0.55-0.12c0.34,0,0.6,0.1,0.78,0.31c0.18,0.21,0.27,0.5,0.27,0.89V52.84z"
					/>
				<path d="M319.07,52.81c-0.1,0.03-0.21,0.05-0.33,0.06c-0.12,0.02-0.22,0.03-0.32,0.03c-0.32,0-0.57-0.09-0.74-0.26
					c-0.17-0.17-0.25-0.45-0.25-0.84v-1.68h-0.36v-0.45h0.36v-0.91h0.53v0.91h1.1v0.45h-1.1v1.44c0,0.17,0,0.3,0.01,0.39
					c0.01,0.09,0.03,0.18,0.08,0.26c0.04,0.08,0.1,0.13,0.17,0.17c0.07,0.04,0.18,0.05,0.33,0.05c0.09,0,0.18-0.01,0.27-0.04
					s0.16-0.05,0.2-0.06h0.03V52.81z"/>
				<path d="M321.98,51.93c0,0.29-0.12,0.53-0.36,0.71c-0.24,0.18-0.57,0.28-0.98,0.28c-0.23,0-0.45-0.03-0.64-0.08
					c-0.2-0.06-0.36-0.12-0.49-0.18v-0.6h0.03c0.17,0.13,0.35,0.23,0.56,0.3c0.21,0.08,0.4,0.11,0.59,0.11
					c0.23,0,0.42-0.04,0.55-0.11c0.13-0.08,0.2-0.19,0.2-0.36c0-0.12-0.04-0.22-0.11-0.28c-0.07-0.06-0.21-0.12-0.41-0.17
					c-0.08-0.02-0.17-0.04-0.3-0.06c-0.12-0.02-0.23-0.05-0.33-0.07c-0.28-0.07-0.47-0.18-0.59-0.32s-0.17-0.32-0.17-0.53
					c0-0.13,0.03-0.25,0.08-0.37s0.14-0.22,0.25-0.31c0.11-0.09,0.24-0.16,0.4-0.21s0.35-0.08,0.55-0.08c0.19,0,0.38,0.02,0.57,0.07
					c0.19,0.05,0.35,0.1,0.48,0.17v0.57h-0.03c-0.14-0.1-0.3-0.18-0.5-0.25c-0.19-0.07-0.38-0.1-0.57-0.1
					c-0.2,0-0.36,0.04-0.49,0.11c-0.13,0.07-0.2,0.19-0.2,0.33c0,0.13,0.04,0.23,0.12,0.29c0.08,0.07,0.21,0.12,0.38,0.16
					c0.1,0.02,0.21,0.05,0.33,0.07s0.22,0.04,0.3,0.06c0.25,0.06,0.44,0.15,0.57,0.29C321.91,51.51,321.98,51.7,321.98,51.93z"/>
			</g>
		</g>
		<g>
			<g>
				<path d="M330.39,49.48h-0.52v-0.33c-0.15,0.13-0.31,0.23-0.47,0.3c-0.16,0.07-0.34,0.11-0.53,0.11c-0.37,0-0.67-0.14-0.88-0.43
					c-0.22-0.29-0.33-0.68-0.33-1.19c0-0.26,0.04-0.5,0.11-0.7s0.18-0.38,0.3-0.53c0.13-0.14,0.27-0.25,0.44-0.32
					s0.34-0.11,0.52-0.11c0.16,0,0.31,0.02,0.43,0.05s0.26,0.09,0.4,0.16v-1.35h0.52V49.48z M329.87,48.72v-1.78
					c-0.14-0.06-0.27-0.11-0.38-0.13c-0.11-0.02-0.23-0.04-0.37-0.04c-0.29,0-0.52,0.1-0.68,0.31s-0.25,0.49-0.25,0.87
					c0,0.37,0.06,0.65,0.19,0.84s0.33,0.29,0.61,0.29c0.15,0,0.3-0.03,0.45-0.1C329.59,48.9,329.73,48.82,329.87,48.72z"/>
				<path d="M334.02,47.98h-2.29c0,0.19,0.03,0.36,0.09,0.5c0.06,0.14,0.14,0.26,0.24,0.35c0.1,0.09,0.21,0.16,0.34,0.2
					s0.28,0.07,0.44,0.07c0.21,0,0.42-0.04,0.64-0.13c0.21-0.08,0.37-0.17,0.46-0.25h0.03v0.57c-0.18,0.07-0.36,0.14-0.54,0.19
					s-0.38,0.08-0.58,0.08c-0.52,0-0.92-0.14-1.21-0.42s-0.43-0.68-0.43-1.19c0-0.51,0.14-0.91,0.42-1.21s0.64-0.45,1.1-0.45
					c0.42,0,0.74,0.12,0.97,0.37s0.34,0.59,0.34,1.04V47.98z M333.51,47.58c0-0.27-0.07-0.49-0.21-0.64
					c-0.14-0.15-0.34-0.23-0.62-0.23c-0.28,0-0.5,0.08-0.67,0.25s-0.26,0.37-0.28,0.62H333.51z"/>
				<path d="M337.03,48.58c0,0.28-0.12,0.52-0.35,0.7c-0.23,0.18-0.55,0.27-0.96,0.27c-0.23,0-0.44-0.03-0.63-0.08
					c-0.19-0.05-0.35-0.12-0.48-0.18v-0.59h0.03c0.17,0.12,0.35,0.22,0.55,0.3c0.2,0.07,0.4,0.11,0.58,0.11
					c0.23,0,0.41-0.04,0.54-0.11s0.2-0.19,0.2-0.35c0-0.12-0.04-0.21-0.11-0.28c-0.07-0.06-0.21-0.12-0.41-0.16
					c-0.07-0.02-0.17-0.04-0.29-0.06c-0.12-0.02-0.23-0.05-0.33-0.07c-0.27-0.07-0.47-0.18-0.58-0.32
					c-0.11-0.14-0.17-0.31-0.17-0.52c0-0.13,0.03-0.25,0.08-0.36s0.13-0.21,0.24-0.3c0.1-0.09,0.24-0.16,0.4-0.21
					c0.16-0.05,0.34-0.08,0.54-0.08c0.19,0,0.37,0.02,0.56,0.07c0.19,0.05,0.35,0.1,0.47,0.17v0.56h-0.03
					c-0.13-0.1-0.3-0.18-0.49-0.25c-0.19-0.07-0.38-0.1-0.56-0.1c-0.19,0-0.35,0.04-0.48,0.11c-0.13,0.07-0.2,0.18-0.2,0.33
					c0,0.13,0.04,0.22,0.12,0.29c0.08,0.07,0.2,0.12,0.38,0.16c0.1,0.02,0.21,0.04,0.32,0.07c0.12,0.02,0.22,0.04,0.3,0.06
					c0.24,0.06,0.43,0.15,0.56,0.29C336.97,48.18,337.03,48.36,337.03,48.58z"/>
				<path d="M339.4,49.45c-0.1,0.03-0.21,0.05-0.32,0.06c-0.12,0.02-0.22,0.02-0.31,0.02c-0.32,0-0.56-0.08-0.72-0.26
					c-0.17-0.17-0.25-0.44-0.25-0.82v-1.65h-0.35v-0.44h0.35v-0.89h0.52v0.89h1.08v0.44h-1.08v1.42c0,0.16,0,0.29,0.01,0.38
					s0.03,0.18,0.08,0.26c0.04,0.07,0.1,0.13,0.17,0.16c0.07,0.04,0.18,0.05,0.33,0.05c0.09,0,0.17-0.01,0.27-0.04
					c0.09-0.03,0.16-0.05,0.2-0.06h0.03V49.45z"/>
				<path d="M341.97,46.94h-0.03c-0.08-0.02-0.15-0.03-0.23-0.04c-0.07-0.01-0.16-0.01-0.26-0.01c-0.16,0-0.32,0.04-0.47,0.11
					s-0.29,0.16-0.43,0.28v2.21h-0.52v-3.11h0.52v0.46c0.21-0.17,0.39-0.29,0.55-0.36c0.16-0.07,0.32-0.1,0.49-0.1
					c0.09,0,0.16,0,0.2,0.01c0.04,0,0.1,0.01,0.18,0.03V46.94z"/>
				<path d="M345.04,49.48h-0.52v-0.35c-0.18,0.14-0.35,0.25-0.51,0.32s-0.34,0.11-0.53,0.11c-0.33,0-0.58-0.1-0.76-0.3
					s-0.27-0.49-0.27-0.88v-2.02h0.52v1.77c0,0.16,0.01,0.29,0.02,0.41s0.05,0.21,0.09,0.29c0.05,0.08,0.12,0.14,0.2,0.18
					c0.08,0.04,0.2,0.06,0.35,0.06c0.14,0,0.28-0.04,0.44-0.11c0.16-0.07,0.31-0.16,0.45-0.27v-2.32h0.52V49.48z"/>
				<path d="M348.37,49.29c-0.17,0.08-0.34,0.15-0.5,0.2c-0.16,0.05-0.32,0.07-0.5,0.07c-0.22,0-0.43-0.03-0.62-0.1
					c-0.19-0.07-0.35-0.17-0.48-0.3c-0.14-0.13-0.24-0.3-0.31-0.51s-0.11-0.44-0.11-0.72c0-0.51,0.14-0.91,0.42-1.2
					c0.28-0.29,0.65-0.43,1.11-0.43c0.18,0,0.35,0.03,0.52,0.08s0.33,0.11,0.47,0.18v0.58h-0.03c-0.16-0.12-0.32-0.22-0.49-0.29
					c-0.17-0.07-0.34-0.1-0.5-0.1c-0.3,0-0.53,0.1-0.7,0.3c-0.17,0.2-0.26,0.49-0.26,0.88c0,0.38,0.08,0.66,0.25,0.86
					s0.4,0.3,0.71,0.3c0.11,0,0.21-0.01,0.32-0.04c0.11-0.03,0.21-0.06,0.29-0.11c0.08-0.04,0.15-0.08,0.21-0.12
					c0.07-0.04,0.12-0.08,0.16-0.11h0.03V49.29z"/>
				<path d="M350.65,49.45c-0.1,0.03-0.21,0.05-0.32,0.06s-0.22,0.02-0.31,0.02c-0.32,0-0.56-0.08-0.72-0.26s-0.25-0.44-0.25-0.82
					v-1.65h-0.35v-0.44h0.35v-0.89h0.52v0.89h1.08v0.44h-1.08v1.42c0,0.16,0,0.29,0.01,0.38c0.01,0.09,0.03,0.18,0.08,0.26
					c0.04,0.07,0.1,0.13,0.17,0.16c0.07,0.04,0.18,0.05,0.33,0.05c0.08,0,0.17-0.01,0.27-0.04c0.09-0.03,0.16-0.05,0.2-0.06h0.03
					V49.45z"/>
				<path d="M351.85,45.85h-0.59v-0.54h0.59V45.85z M351.81,49.48h-0.52v-3.11h0.52V49.48z"/>
				<path d="M355.5,47.93c0,0.51-0.13,0.91-0.39,1.2s-0.61,0.44-1.04,0.44c-0.44,0-0.79-0.15-1.05-0.44s-0.39-0.69-0.39-1.2
					c0-0.51,0.13-0.91,0.39-1.2s0.61-0.44,1.05-0.44c0.44,0,0.78,0.15,1.04,0.44S355.5,47.42,355.5,47.93z M354.96,47.93
					c0-0.4-0.08-0.7-0.24-0.9c-0.16-0.2-0.38-0.29-0.66-0.29c-0.28,0-0.5,0.1-0.66,0.29c-0.16,0.2-0.24,0.5-0.24,0.9
					c0,0.39,0.08,0.69,0.24,0.89c0.16,0.2,0.38,0.3,0.66,0.3c0.28,0,0.5-0.1,0.66-0.3C354.88,48.62,354.96,48.32,354.96,47.93z"/>
				<path d="M358.91,49.48h-0.52v-1.77c0-0.14-0.01-0.28-0.03-0.4c-0.02-0.12-0.05-0.22-0.09-0.29c-0.05-0.08-0.11-0.14-0.2-0.17
					c-0.09-0.04-0.2-0.06-0.34-0.06c-0.14,0-0.29,0.04-0.45,0.11c-0.16,0.07-0.31,0.16-0.45,0.27v2.32h-0.52v-3.11h0.52v0.35
					c0.16-0.14,0.33-0.24,0.51-0.32c0.17-0.08,0.35-0.11,0.54-0.11c0.33,0,0.59,0.1,0.77,0.3c0.18,0.2,0.26,0.49,0.26,0.87V49.48z"
					/>
				<path d="M362.14,48.58c0,0.28-0.12,0.52-0.35,0.7c-0.23,0.18-0.55,0.27-0.96,0.27c-0.23,0-0.44-0.03-0.63-0.08
					c-0.19-0.05-0.35-0.12-0.48-0.18v-0.59h0.03c0.17,0.12,0.35,0.22,0.55,0.3c0.2,0.07,0.4,0.11,0.58,0.11
					c0.23,0,0.41-0.04,0.54-0.11s0.2-0.19,0.2-0.35c0-0.12-0.04-0.21-0.11-0.28c-0.07-0.06-0.21-0.12-0.41-0.16
					c-0.07-0.02-0.17-0.04-0.29-0.06c-0.12-0.02-0.23-0.05-0.33-0.07c-0.27-0.07-0.47-0.18-0.58-0.32
					c-0.11-0.14-0.17-0.31-0.17-0.52c0-0.13,0.03-0.25,0.08-0.36s0.13-0.21,0.24-0.3c0.1-0.09,0.24-0.16,0.4-0.21
					c0.16-0.05,0.34-0.08,0.54-0.08c0.19,0,0.37,0.02,0.56,0.07c0.19,0.05,0.35,0.1,0.47,0.17v0.56h-0.03
					c-0.13-0.1-0.3-0.18-0.49-0.25c-0.19-0.07-0.38-0.1-0.56-0.1c-0.19,0-0.35,0.04-0.48,0.11c-0.13,0.07-0.2,0.18-0.2,0.33
					c0,0.13,0.04,0.22,0.12,0.29c0.08,0.07,0.2,0.12,0.38,0.16c0.1,0.02,0.21,0.04,0.32,0.07c0.12,0.02,0.22,0.04,0.3,0.06
					c0.24,0.06,0.43,0.15,0.56,0.29C362.07,48.18,362.14,48.36,362.14,48.58z"/>
			</g>
		</g>
		<g>
			<path d="M66.82,28.1h-1.72v-0.45h0.57v-3.47h-0.57v-0.45h1.72v0.45h-0.57v3.47h0.57V28.1z"/>
			<path d="M69.34,28.1h-1.72v-0.45h0.57v-3.47h-0.57v-0.45h1.72v0.45h-0.57v3.47h0.57V28.1z"/>
		</g>
		<g>
			<path d="M105.11,28.1h-1.72v-0.45h0.57v-3.47h-0.57v-0.45h1.72v0.45h-0.57v3.47h0.57V28.1z"/>
			<path d="M107.64,28.1h-1.72v-0.45h0.57v-3.47h-0.57v-0.45h1.72v0.45h-0.57v3.47h0.57V28.1z"/>
			<path d="M110.16,28.1h-1.72v-0.45h0.57v-3.47h-0.57v-0.45h1.72v0.45h-0.57v3.47h0.57V28.1z"/>
		</g>
		<g>
			<path d="M145.47,28.1h-1.72v-0.45h0.57v-3.47h-0.57v-0.45h1.72v0.45h-0.57v3.47h0.57V28.1z"/>
			<path d="M149.9,23.74l-1.59,4.36h-0.77l-1.59-4.36h0.62l1.37,3.84l1.37-3.84H149.9z"/>
		</g>
		<g>
			<path d="M188.57,23.74l-1.59,4.36h-0.77l-1.59-4.36h0.62l1.37,3.84l1.37-3.84H188.57z"/>
		</g>
		<g>
			<path d="M227.24,23.73l-1.59,4.36h-0.77l-1.59-4.36h0.62l1.37,3.84l1.37-3.84H227.24z"/>
			<path d="M229.44,28.1h-1.72v-0.45h0.57v-3.47h-0.57v-0.45h1.72v0.45h-0.57v3.47h0.57V28.1z"/>
		</g>
		<g>
			<path d="M265.92,23.73l-1.59,4.36h-0.77l-1.59-4.36h0.62l1.37,3.84l1.37-3.84H265.92z"/>
			<path d="M268.12,28.1h-1.72v-0.45h0.57v-3.47h-0.57v-0.45h1.72v0.45h-0.57v3.47h0.57V28.1z"/>
			<path d="M270.65,28.1h-1.72v-0.45h0.57v-3.47h-0.57v-0.45h1.72v0.45h-0.57v3.47h0.57V28.1z"/>
		</g>
		<g>
			<path d="M304.61,23.74l-1.59,4.36h-0.77l-1.59-4.36h0.62l1.37,3.84l1.37-3.84H304.61z"/>
			<path d="M306.81,28.1h-1.72v-0.45h0.57v-3.47h-0.57v-0.45h1.72v0.45h-0.57v3.47h0.57V28.1z"/>
			<path d="M309.33,28.1h-1.72v-0.45h0.57v-3.47h-0.57v-0.45h1.72v0.45h-0.57v3.47h0.57V28.1z"/>
			<path d="M311.86,28.1h-1.72v-0.45h0.57v-3.47h-0.57v-0.45h1.72v0.45h-0.57v3.47h0.57V28.1z"/>
		</g>
		<g>
			<path d="M343.67,28.1h-1.72v-0.45h0.57v-3.47h-0.57v-0.45h1.72v0.45h-0.57v3.47h0.57V28.1z"/>
			<path d="M347.99,23.73l-1.51,2.16l1.5,2.21h-0.67l-1.19-1.8l-1.22,1.8h-0.63l1.52-2.18l-1.49-2.18h0.67l1.17,1.77l1.2-1.77
				H347.99z"/>
		</g>
	</g>
</g>
<g id="Englisch">
</g>
<g id="Deutsch">
</g>
</svg>
