<?xml version="1.0" encoding="utf-8"?>
<!-- Generator: Adobe Illustrator 27.0.1, SVG Export Plug-In . SVG Version: 6.00 Build 0)  -->
<svg version="1.1" xmlns="http://www.w3.org/2000/svg" xmlns:xlink="http://www.w3.org/1999/xlink" x="0px" y="0px"
	 viewBox="0 0 363.07 61.06" style="enable-background:new 0 0 363.07 61.06;" xml:space="preserve">
<style type="text/css">
	
		.st0{clip-path:url(#SVGID_00000045605077019318998780000006954335594564681403_);fill:url(#SVGID_00000145771544227996329420000018068293844152526985_);}
	.st1{fill:#D3D3D3;}
	.st2{fill:none;stroke:#FFFFFF;stroke-width:0.5;stroke-miterlimit:10;}
	
		.st3{clip-path:url(#SVGID_00000090289654393357072950000016092420226279346065_);fill:url(#SVGID_00000004515100813926190850000012700386987995288511_);}
	.st4{font-family:'Verdana';}
	.st5{font-size:6px;}
	
		.st6{clip-path:url(#SVGID_00000080905716895804791080000003495995034236343952_);fill:url(#SVGID_00000009591434976441423580000011121391451501439153_);}
	.st7{display:none;}
	.st8{display:inline;fill:none;stroke:#A7A9AC;stroke-width:0.25;stroke-miterlimit:10;}
	
		.st9{clip-path:url(#SVGID_00000019639706011545067490000005368690492266267571_);fill:url(#SVGID_00000150788272716920265660000004260912718201738925_);}
</style>
<g id="Hilfslinien">
</g>
<g id="Italienisch">
</g>
<g id="Französisch">
</g>
<g id="Englisch">
	<g>
		<text transform="matrix(1 0 0 1 16.9864 28.0987)" class="st4 st5">Intensity</text>
	</g>
	<g>
		<text transform="matrix(1 0 0 1 22.538 48.6889)" class="st4 st5">Impact</text>
	</g>
	<g>
		<defs>
			<rect id="SVGID_00000018954292958633680920000002498651744984067771_" x="47.92" width="315.15" height="18.61"/>
		</defs>
		<clipPath id="SVGID_00000030465870100076180130000011999442072001388444_">
			<use xlink:href="#SVGID_00000018954292958633680920000002498651744984067771_"  style="overflow:visible;"/>
		</clipPath>
		
			<linearGradient id="SVGID_00000134941517038559219650000008589274436231854768_" gradientUnits="userSpaceOnUse" x1="794.5431" y1="539.6767" x2="2015.76" y2="539.6767" gradientTransform="matrix(0.2581 0 0 1.1175 -157.1173 -593.7833)">
			<stop  offset="0" style="stop-color:#B2B1D8"/>
			<stop  offset="0.1192" style="stop-color:#B2B1D8"/>
			<stop  offset="0.162" style="stop-color:#6DCAD2"/>
			<stop  offset="0.2095" style="stop-color:#7DC46A"/>
			<stop  offset="0.2893" style="stop-color:#AACB3B"/>
			<stop  offset="0.339" style="stop-color:#D3DE28"/>
			<stop  offset="0.4119" style="stop-color:#F5EB10"/>
			<stop  offset="0.4655" style="stop-color:#FFCD2B"/>
			<stop  offset="0.5365" style="stop-color:#F2882D"/>
			<stop  offset="0.5898" style="stop-color:#F58020"/>
			<stop  offset="0.6661" style="stop-color:#EA4624"/>
			<stop  offset="0.7217" style="stop-color:#E01F26"/>
			<stop  offset="0.7931" style="stop-color:#E01F26"/>
			<stop  offset="0.8446" style="stop-color:#6F0F10"/>
			<stop  offset="0.8865" style="stop-color:#431211"/>
		</linearGradient>
		
			<rect x="47.92" style="clip-path:url(#SVGID_00000030465870100076180130000011999442072001388444_);fill:url(#SVGID_00000134941517038559219650000008589274436231854768_);" width="315.15" height="18.61"/>
	</g>
	<rect x="47.95" y="18.61" class="st1" width="315.11" height="15.77"/>
	<g>
		<line class="st2" x1="326.4" y1="0" x2="326.4" y2="18.61"/>
		<line class="st2" x1="86.74" y1="0" x2="86.74" y2="18.61"/>
		<line class="st2" x1="126.68" y1="0" x2="126.68" y2="18.61"/>
		<line class="st2" x1="166.63" y1="0" x2="166.63" y2="18.61"/>
		<line class="st2" x1="246.51" y1="0" x2="246.51" y2="18.61"/>
		<line class="st2" x1="286.46" y1="0" x2="286.46" y2="18.61"/>
		<line class="st2" x1="206.57" y1="0" x2="206.57" y2="18.61"/>
	</g>
	<rect x="47.95" y="34.38" class="st1" width="315.11" height="26.68"/>
	<g>
		<text transform="matrix(1 0 0 1 55.0609 45.8803)"><tspan x="0" y="0" class="st4 st5">scarcely</tspan><tspan x="7.31" y="7.2" class="st4 st5">felt</tspan></text>
	</g>
	<g>
		<text transform="matrix(1 0 0 1 98.9568 49.4803)" class="st4 st5">weak</text>
	</g>
	<g>
		<text transform="matrix(1 0 0 1 136.499 45.8801)"><tspan x="0" y="0" class="st4 st5">largely</tspan><tspan x="-3.59" y="7.2" class="st4 st5">observed</tspan></text>
	</g>
	<g>
		<text transform="matrix(1 0 0 1 176.9817 49.4804)" class="st4 st5">strong</text>
	</g>
	<g>
		<text transform="matrix(1 0 0 1 215.7687 45.8804)"><tspan x="0" y="0" class="st4 st5">slightly</tspan><tspan x="-4.09" y="7.2" class="st4 st5">damaging</tspan></text>
	</g>
	<g>
		<text transform="matrix(1 0 0 1 251.6197 49.4806)" class="st4 st5">damaging</text>
	</g>
	<g>
		<text transform="matrix(1 0 0 1 295.7349 45.8804)"><tspan x="0" y="0" class="st4 st5">heavily</tspan><tspan x="-4.17" y="7.2" class="st4 st5">damaging</tspan></text>
	</g>
	<g>
		<text transform="matrix(1 0 0 1 328.1575 49.4804)" class="st4 st5">destructive</text>
	</g>
	<text transform="matrix(1 0 0 1 64.6922 28.0983)" class="st4 st5">II</text>
	<text transform="matrix(1 0 0 1 102.9877 28.0982)" class="st4 st5">III</text>
	<text transform="matrix(1 0 0 1 143.3461 28.0978)" class="st4 st5">IV</text>
	<text transform="matrix(1 0 0 1 184.545 28.0983)" class="st4 st5">V</text>
	<text transform="matrix(1 0 0 1 223.2133 28.0975)" class="st4 st5">VI</text>
	<text transform="matrix(1 0 0 1 261.8945 28.0974)" class="st4 st5">VII</text>
	<text transform="matrix(1 0 0 1 300.5809 28.098)" class="st4 st5">VIII</text>
	<text transform="matrix(1 0 0 1 341.5502 28.0974)" class="st4 st5">IX</text>
	<g>
		<line class="st2" x1="326.4" y1="18.61" x2="326.4" y2="61.06"/>
		<line class="st2" x1="86.74" y1="18.61" x2="86.74" y2="61.06"/>
		<line class="st2" x1="126.68" y1="18.61" x2="126.68" y2="61.06"/>
		<line class="st2" x1="166.62" y1="18.61" x2="166.62" y2="61.06"/>
		<line class="st2" x1="246.51" y1="18.61" x2="246.51" y2="61.06"/>
		<line class="st2" x1="286.46" y1="18.61" x2="286.46" y2="61.06"/>
		<line class="st2" x1="206.57" y1="18.61" x2="206.57" y2="61.06"/>
	</g>
	<line class="st2" x1="363.07" y1="18.61" x2="47.92" y2="18.61"/>
	<line class="st2" x1="363.07" y1="34.38" x2="47.94" y2="34.38"/>
</g>
<g id="Deutsch">
</g>
</svg>
