<?xml version="1.0" encoding="UTF-8"?>
<svg id="Deutsch" xmlns="http://www.w3.org/2000/svg" xmlns:xlink="http://www.w3.org/1999/xlink" viewBox="0 0 363.07 61.06">
  <defs>
    <style>
      .cls-1 {
        letter-spacing: 0em;
      }

      .cls-2 {
        fill: #231f20;
        font-family: Verdana, Verdana;
        font-size: 6px;
      }

      .cls-3 {
        letter-spacing: 0em;
      }

      .cls-4 {
        stroke: #fff;
        stroke-miterlimit: 10;
        stroke-width: .5px;
      }

      .cls-4, .cls-5 {
        fill: none;
      }

      .cls-6 {
        clip-path: url(#clippath);
      }

      .cls-7 {
        fill: #d3d3d3;
      }

      .cls-8 {
        letter-spacing: 0em;
      }

      .cls-9 {
        letter-spacing: 0em;
      }

      .cls-10 {
        fill: url(#linear-gradient);
      }
    </style>
    <clipPath id="clippath">
      <rect class="cls-5" x="47.92" width="315.15" height="18.61"/>
    </clipPath>
    <linearGradient id="linear-gradient" x1="794.54" y1="547.55" x2="2015.76" y2="547.55" gradientTransform="translate(-157.12 -602.58) scale(.26 1.12)" gradientUnits="userSpaceOnUse">
      <stop offset="0" stop-color="#b2b1d8"/>
      <stop offset=".12" stop-color="#b2b1d8"/>
      <stop offset=".16" stop-color="#6dcad2"/>
      <stop offset=".21" stop-color="#7dc46a"/>
      <stop offset=".29" stop-color="#aacb3b"/>
      <stop offset=".34" stop-color="#d3de28"/>
      <stop offset=".41" stop-color="#f5eb10"/>
      <stop offset=".47" stop-color="#ffcd2b"/>
      <stop offset=".54" stop-color="#f2882d"/>
      <stop offset=".59" stop-color="#f58020"/>
      <stop offset=".67" stop-color="#ea4624"/>
      <stop offset=".72" stop-color="#e01f26"/>
      <stop offset=".79" stop-color="#e01f26"/>
      <stop offset=".84" stop-color="#6f0f10"/>
      <stop offset=".89" stop-color="#431211"/>
    </linearGradient>
  </defs>
  <text class="cls-2" transform="translate(16.57 28.1)"><tspan x="0" y="0">Intensität</tspan></text>
  <text class="cls-2" transform="translate(3.69 48.69)"><tspan class="cls-8" x="0" y="0">A</tspan><tspan x="4.07" y="0">uswirkungen</tspan></text>
  <g class="cls-6">
    <rect class="cls-10" x="47.92" width="315.15" height="18.61"/>
  </g>
  <rect class="cls-7" x="47.95" y="18.61" width="315.11" height="15.77"/>
  <g>
    <line class="cls-4" x1="326.4" y1="0" x2="326.4" y2="18.61"/>
    <line class="cls-4" x1="86.74" y1="0" x2="86.74" y2="18.61"/>
    <line class="cls-4" x1="126.68" y1="0" x2="126.68" y2="18.61"/>
    <line class="cls-4" x1="166.63" y1="0" x2="166.63" y2="18.61"/>
    <line class="cls-4" x1="246.51" y1="0" x2="246.51" y2="18.61"/>
    <line class="cls-4" x1="286.46" y1="0" x2="286.46" y2="18.61"/>
    <line class="cls-4" x1="206.57" y1="0" x2="206.57" y2="18.61"/>
  </g>
  <rect class="cls-7" x="47.95" y="34.38" width="315.11" height="26.68"/>
  <text class="cls-2" transform="translate(58.82 45.88)"><tspan x="0" y="0">kaum</tspan><tspan x="-7.97" y="7.2">bemerkbar</tspan></text>
  <text class="cls-2" transform="translate(94.08 45.88)"><tspan x="0" y="0">sc</tspan><tspan class="cls-8" x="6.25" y="0">h</tspan><tspan class="cls-9" x="10.02" y="0">w</tspan><tspan x="14.87" y="0">ach</tspan><tspan class="cls-3" x=".09" y="7.2">v</tspan><tspan x="3.59" y="7.2">erspürt</tspan></text>
  <text class="cls-2" transform="translate(134.81 45.88)"><tspan x="0" y="0">deutlich</tspan><tspan class="cls-3" x="-.76" y="7.2">v</tspan><tspan x="2.73" y="7.2">erspürt</tspan></text>
  <text class="cls-2" transform="translate(178.99 45.88)"><tspan x="0" y="0">stark</tspan><tspan class="cls-3" x="-5.01" y="7.2">v</tspan><tspan x="-1.51" y="7.2">erspürt</tspan></text>
  <text class="cls-2" transform="translate(216.66 42.28)"><tspan x="0" y="0">leichte</tspan><tspan x="-4.84" y="7.2">Gebäude-</tspan><tspan x="-2.52" y="14.4">schäden</tspan></text>
  <text class="cls-2" transform="translate(251.77 45.88)"><tspan x="0" y="0">Gebäude-</tspan><tspan x="2.32" y="7.2">schäden</tspan></text>
  <text class="cls-2" transform="translate(294.1 42.28)"><tspan x="0" y="0">sc</tspan><tspan class="cls-8" x="6.25" y="0">h</tspan><tspan x="10.02" y="0">were</tspan><tspan x="-2.38" y="7.2">Gebäude-</tspan><tspan x="-.06" y="14.4">schäden</tspan></text>
  <text class="cls-2" transform="translate(328.83 49.48)"><tspan class="cls-1" x="0" y="0">z</tspan><tspan x="3.12" y="0">erstörend</tspan></text>
  <text class="cls-2" transform="translate(64.69 28.1)"><tspan x="0" y="0">II</tspan></text>
  <text class="cls-2" transform="translate(102.99 28.1)"><tspan x="0" y="0">III</tspan></text>
  <text class="cls-2" transform="translate(143.35 28.1)"><tspan x="0" y="0">IV</tspan></text>
  <text class="cls-2" transform="translate(184.55 28.1)"><tspan x="0" y="0">V</tspan></text>
  <text class="cls-2" transform="translate(223.21 28.1)"><tspan x="0" y="0">VI</tspan></text>
  <text class="cls-2" transform="translate(261.89 28.1)"><tspan x="0" y="0">VII</tspan></text>
  <text class="cls-2" transform="translate(300.58 28.1)"><tspan x="0" y="0">VIII</tspan></text>
  <text class="cls-2" transform="translate(341.54 28.1)"><tspan x="0" y="0">IX</tspan></text>
  <g>
    <line class="cls-4" x1="326.4" y1="18.61" x2="326.4" y2="61.06"/>
    <line class="cls-4" x1="86.74" y1="18.61" x2="86.74" y2="61.06"/>
    <line class="cls-4" x1="126.68" y1="18.61" x2="126.68" y2="61.06"/>
    <line class="cls-4" x1="166.62" y1="18.61" x2="166.62" y2="61.06"/>
    <line class="cls-4" x1="246.51" y1="18.61" x2="246.51" y2="61.06"/>
    <line class="cls-4" x1="286.46" y1="18.61" x2="286.46" y2="61.06"/>
    <line class="cls-4" x1="206.57" y1="18.61" x2="206.57" y2="61.06"/>
  </g>
  <line class="cls-4" x1="363.07" y1="18.61" x2="47.92" y2="18.61"/>
  <line class="cls-4" x1="363.07" y1="34.38" x2="47.94" y2="34.38"/>
</svg>