<?xml version="1.0" encoding="utf-8"?>
<!-- Generator: Adobe Illustrator 27.0.1, SVG Export Plug-In . SVG Version: 6.00 Build 0)  -->
<svg version="1.1" xmlns="http://www.w3.org/2000/svg" xmlns:xlink="http://www.w3.org/1999/xlink"
	x="0px" y="0px"
	viewBox="0 0 363.07 61.06" style="enable-background:new 0 0 363.07 61.06;" xml:space="preserve">
<style type="text/css">
	svg {font-size: 62.5%;}
	.st0{clip-path:url(#SVGID_00000092439320788454773950000005173471677982591129_);fill:url(#SVGID_00000034774548774871791350000000425327490538070461_);}
	.st1{fill:#D3D3D3;}
	.st2{fill:none;stroke:#FFFFFF;stroke-width:0.5;stroke-miterlimit:10;}
	.st3{font-family:'Verdana';}
	.st4{font-size:0.6rem;}
	
		.st5{clip-path:url(#SVGID_00000143602072885342196730000009845553354646021549_);fill:url(#SVGID_00000010300604853088332850000006546870144910630552_);}
	.st6{font-size:0.58rem;}
	.st7{font-size:0.57rem;}
	
		.st8{clip-path:url(#SVGID_00000015341393552436763150000004002343415457447101_);fill:url(#SVGID_00000047018817558005017460000009143333089746652075_);}
	.st9{display:none;}
	.st10{display:inline;fill:none;stroke:#A7A9AC;stroke-width:0.25;stroke-miterlimit:10;}
	
		.st11{clip-path:url(#SVGID_00000048501806108023674590000010958194581822389433_);fill:url(#SVGID_00000153673851060903206930000018150535142695872400_);}
</style>
<g id="Hilfslinien">
</g>
<g id="Italienisch">
</g>
<g id="Französisch">
	<g>
		<text transform="matrix(1 0 0 1 16.963 28.0987)" class="st3 st4">Intensité</text>
	</g>
	<g>
		<text transform="matrix(1 0 0 1 26.651 48.6757)" class="st3 st4">Effets</text>
	</g>
	<g>
		<defs>
			<rect id="SVGID_00000020393582384619213740000015128361561943883420_" x="47.92" width="315.15" height="18.61"/>
		</defs>
		<clipPath id="SVGID_00000075875747191187749150000007591564090365510581_">
			<use xlink:href="#SVGID_00000020393582384619213740000015128361561943883420_"  style="overflow:visible;"/>
		</clipPath>
		
			<linearGradient id="SVGID_00000031202877701926936510000005113099691320588181_" gradientUnits="userSpaceOnUse" x1="794.5431" y1="531.5331" x2="2015.76" y2="531.5331" gradientTransform="matrix(0.2581 0 0 1.1175 -157.1173 -584.6828)">
			<stop  offset="0" style="stop-color:#B2B1D8"/>
			<stop  offset="0.1192" style="stop-color:#B2B1D8"/>
			<stop  offset="0.162" style="stop-color:#6DCAD2"/>
			<stop  offset="0.2095" style="stop-color:#7DC46A"/>
			<stop  offset="0.2893" style="stop-color:#AACB3B"/>
			<stop  offset="0.339" style="stop-color:#D3DE28"/>
			<stop  offset="0.4119" style="stop-color:#F5EB10"/>
			<stop  offset="0.4655" style="stop-color:#FFCD2B"/>
			<stop  offset="0.5365" style="stop-color:#F2882D"/>
			<stop  offset="0.5898" style="stop-color:#F58020"/>
			<stop  offset="0.6661" style="stop-color:#EA4624"/>
			<stop  offset="0.7217" style="stop-color:#E01F26"/>
			<stop  offset="0.7931" style="stop-color:#E01F26"/>
			<stop  offset="0.8446" style="stop-color:#6F0F10"/>
			<stop  offset="0.8865" style="stop-color:#431211"/>
		</linearGradient>
		
			<rect x="47.92" style="clip-path:url(#SVGID_00000075875747191187749150000007591564090365510581_);fill:url(#SVGID_00000031202877701926936510000005113099691320588181_);" width="315.15" height="18.61"/>
	</g>
	<rect x="47.95" y="18.61" class="st1" width="315.11" height="15.77"/>
	<g>
		<line class="st2" x1="326.4" y1="0" x2="326.4" y2="18.61"/>
		<line class="st2" x1="86.74" y1="0" x2="86.74" y2="18.61"/>
		<line class="st2" x1="126.68" y1="0" x2="126.68" y2="18.61"/>
		<line class="st2" x1="166.63" y1="0" x2="166.63" y2="18.61"/>
		<line class="st2" x1="246.51" y1="0" x2="246.51" y2="18.61"/>
		<line class="st2" x1="286.46" y1="0" x2="286.46" y2="18.61"/>
		<line class="st2" x1="206.57" y1="0" x2="206.57" y2="18.61"/>
	</g>
	<rect x="47.95" y="34.38" class="st1" width="315.11" height="26.68"/>
	<g>
		<text transform="matrix(1 0 0 1 53.7467 45.8801)"><tspan x="0" y="0" class="st3 st6">rarement</tspan><tspan x="1.98" y="6.96" class="st3 st6">ressenti</tspan></text>
	</g>
	<g>
		<text transform="matrix(1 0 0 1 98.8886 49.4806)" class="st3 st6">faible</text>
	</g>
	<g>
		<text transform="matrix(1 0 0 1 131.8237 45.8802)"><tspan x="0" y="0" class="st3 st6">largement</tspan><tspan x="3.35" y="6.96" class="st3 st6">observé</tspan></text>
	</g>
	<g>
		<text transform="matrix(1 0 0 1 181.436 49.4807)" class="st3 st6">fort</text>
	</g>
	<g>
		<text transform="matrix(1 0 0 1 216.7903 45.8802)"><tspan x="0" y="0" class="st3 st6">dégâts</tspan><tspan x="0.93" y="6.96" class="st3 st6">légers</tspan></text>
	</g>
	<g>
		<text transform="matrix(1 0 0 1 256.7344 49.4803)" class="st3 st6">dégâts</text>
	</g>
	<g>
		<text transform="matrix(1 0 0 1 296.6832 45.8798)"><tspan x="0" y="0" class="st3 st6">dégâts</tspan><tspan x="-6.06" y="6.96" class="st3 st6">importants</tspan></text>
	</g>
	<g>
		<text transform="matrix(1 0 0 1 327.3521 49.4803)" class="st3 st7">destructions</text>
	</g>
	<text transform="matrix(1 0 0 1 64.6922 28.0983)" class="st3 st4">II</text>
	<text transform="matrix(1 0 0 1 102.9877 28.0982)" class="st3 st4">III</text>
	<text transform="matrix(1 0 0 1 143.3461 28.0978)" class="st3 st4">IV</text>
	<text transform="matrix(1 0 0 1 184.545 28.0983)" class="st3 st4">V</text>
	<text transform="matrix(1 0 0 1 223.2133 28.0974)" class="st3 st4">VI</text>
	<text transform="matrix(1 0 0 1 261.8945 28.0974)" class="st3 st4">VII</text>
	<text transform="matrix(1 0 0 1 300.5809 28.098)" class="st3 st4">VIII</text>
	<text transform="matrix(1 0 0 1 341.5502 28.0974)" class="st3 st4">IX</text>
	<g>
		<line class="st2" x1="326.4" y1="18.61" x2="326.4" y2="61.06"/>
		<line class="st2" x1="86.74" y1="18.61" x2="86.74" y2="61.06"/>
		<line class="st2" x1="126.68" y1="18.61" x2="126.68" y2="61.06"/>
		<line class="st2" x1="166.62" y1="18.61" x2="166.62" y2="61.06"/>
		<line class="st2" x1="246.51" y1="18.61" x2="246.51" y2="61.06"/>
		<line class="st2" x1="286.46" y1="18.61" x2="286.46" y2="61.06"/>
		<line class="st2" x1="206.57" y1="18.61" x2="206.57" y2="61.06"/>
	</g>
	<line class="st2" x1="363.07" y1="18.61" x2="47.92" y2="18.61"/>
	<line class="st2" x1="363.07" y1="34.38" x2="47.94" y2="34.38"/>
</g>
<g id="Englisch">
</g>
<g id="Deutsch">
</g>
</svg>