<?xml version="1.0" encoding="utf-8"?>
<!-- Generator: Adobe Illustrator 27.0.1, SVG Export Plug-In . SVG Version: 6.00 Build 0)  -->
<svg version="1.1" xmlns="http://www.w3.org/2000/svg" xmlns:xlink="http://www.w3.org/1999/xlink" x="0px" y="0px"
	 viewBox="0 0 363.07 61.06" style="enable-background:new 0 0 363.07 61.06;" xml:space="preserve">
<style type="text/css">
	
		.st0{clip-path:url(#SVGID_00000166648635984941866720000003370879949257273278_);fill:url(#SVGID_00000141422482436803427840000004388518690449394058_);}
	.st1{fill:#D3D3D3;}
	.st2{fill:none;stroke:#FFFFFF;stroke-width:0.5;stroke-miterlimit:10;}
	
		.st3{clip-path:url(#SVGID_00000151528852290667060560000013844144233881466535_);fill:url(#SVGID_00000102524518260831788900000005826707805466682020_);}
	
		.st4{clip-path:url(#SVGID_00000154408550421242458070000010146894424572044959_);fill:url(#SVGID_00000046332794213400337270000008089932660225793947_);}
	.st5{display:none;}
	.st6{display:inline;fill:none;stroke:#A7A9AC;stroke-width:0.25;stroke-miterlimit:10;}
	.st7{font-family:'Verdana';}
	.st8{font-size:6px;}
	
		.st9{clip-path:url(#SVGID_00000021836775763356775690000010179105288701612676_);fill:url(#SVGID_00000142886684355676784230000007418945307975181200_);}
</style>
<g id="Hilfslinien">
</g>
<g id="Italienisch">
</g>
<g id="Französisch">
</g>
<g id="Englisch">
</g>
<g id="Deutsch">
	<g class="st5">
		<line class="st6" x1="98.39" y1="-9.73" x2="98.39" y2="10.39"/>
		<line class="st6" x1="150.97" y1="-9.73" x2="150.97" y2="10.39"/>
		<line class="st6" x1="177.25" y1="-9.73" x2="177.25" y2="10.39"/>
		<line class="st6" x1="203.54" y1="-9.73" x2="203.54" y2="10.39"/>
		<line class="st6" x1="229.83" y1="-9.73" x2="229.83" y2="10.39"/>
		<line class="st6" x1="124.68" y1="-9.73" x2="124.68" y2="10.39"/>
	</g>
	<g>
		<text transform="matrix(1 0 0 1 14.5694 28.0987)" class="st7 st8">Intensität</text>
	</g>
	<g>
		<text transform="matrix(1 0 0 1 1.3344 48.689)" class="st7 st8">Auswirkungen</text>
	</g>
	<g>
		<defs>
			<rect id="SVGID_00000080198005715310773020000005479069901802464648_" x="47.92" width="315.15" height="18.61"/>
		</defs>
		<clipPath id="SVGID_00000062193806833473126230000016786042119313417133_">
			<use xlink:href="#SVGID_00000080198005715310773020000005479069901802464648_"  style="overflow:visible;"/>
		</clipPath>
		
			<linearGradient id="SVGID_00000065055517156249419400000010089612390018370201_" gradientUnits="userSpaceOnUse" x1="794.5431" y1="547.5511" x2="2015.76" y2="547.5511" gradientTransform="matrix(0.2581 0 0 1.1175 -157.1173 -602.5829)">
			<stop  offset="0" style="stop-color:#B2B1D8"/>
			<stop  offset="0.1192" style="stop-color:#B2B1D8"/>
			<stop  offset="0.162" style="stop-color:#6DCAD2"/>
			<stop  offset="0.2095" style="stop-color:#7DC46A"/>
			<stop  offset="0.2893" style="stop-color:#AACB3B"/>
			<stop  offset="0.339" style="stop-color:#D3DE28"/>
			<stop  offset="0.4119" style="stop-color:#F5EB10"/>
			<stop  offset="0.4655" style="stop-color:#FFCD2B"/>
			<stop  offset="0.5365" style="stop-color:#F2882D"/>
			<stop  offset="0.5898" style="stop-color:#F58020"/>
			<stop  offset="0.6661" style="stop-color:#EA4624"/>
			<stop  offset="0.7217" style="stop-color:#E01F26"/>
			<stop  offset="0.7931" style="stop-color:#E01F26"/>
			<stop  offset="0.8446" style="stop-color:#6F0F10"/>
			<stop  offset="0.8865" style="stop-color:#431211"/>
		</linearGradient>
		
			<rect x="47.92" style="clip-path:url(#SVGID_00000062193806833473126230000016786042119313417133_);fill:url(#SVGID_00000065055517156249419400000010089612390018370201_);" width="315.15" height="18.61"/>
	</g>
	<rect x="47.95" y="18.61" class="st1" width="315.11" height="15.77"/>
	<g>
		<line class="st2" x1="326.4" y1="0" x2="326.4" y2="18.61"/>
		<line class="st2" x1="86.74" y1="0" x2="86.74" y2="18.61"/>
		<line class="st2" x1="126.68" y1="0" x2="126.68" y2="18.61"/>
		<line class="st2" x1="166.63" y1="0" x2="166.63" y2="18.61"/>
		<line class="st2" x1="246.51" y1="0" x2="246.51" y2="18.61"/>
		<line class="st2" x1="286.46" y1="0" x2="286.46" y2="18.61"/>
		<line class="st2" x1="206.57" y1="0" x2="206.57" y2="18.61"/>
	</g>
	<rect x="47.95" y="34.38" class="st1" width="315.11" height="26.68"/>
	<g>
		<text transform="matrix(1 0 0 1 58.8243 45.8805)"><tspan x="0" y="0" class="st7 st8">kaum</tspan><tspan x="-7.97" y="7.2" class="st7 st8">bemerkbar</tspan></text>
	</g>
	<g>
		<text transform="matrix(1 0 0 1 94.0333 45.8805)"><tspan x="0" y="0" class="st7 st8">schwach</tspan><tspan x="0.11" y="7.2" class="st7 st8">verspürt</tspan></text>
	</g>
	<g>
		<text transform="matrix(1 0 0 1 134.8146 45.8802)"><tspan x="0" y="0" class="st7 st8">deutlich</tspan><tspan x="-0.79" y="7.2" class="st7 st8">verspürt</tspan></text>
	</g>
	<g>
		<text transform="matrix(1 0 0 1 178.9929 45.8805)"><tspan x="0" y="0" class="st7 st8">stark</tspan><tspan x="-5.03" y="7.2" class="st7 st8">verspürt</tspan></text>
	</g>
	<g>
		<text transform="matrix(1 0 0 1 216.6635 42.2799)"><tspan x="0" y="0" class="st7 st8">leichte</tspan><tspan x="-4.84" y="7.2" class="st7 st8">Gebäude-</tspan><tspan x="-2.52" y="14.4" class="st7 st8">schäden</tspan></text>
	</g>
	<g>
		<text transform="matrix(1 0 0 1 251.7695 45.8805)"><tspan x="0" y="0" class="st7 st8">Gebäude-</tspan><tspan x="2.32" y="7.2" class="st7 st8">schäden</tspan></text>
	</g>
	<g>
		<text transform="matrix(1 0 0 1 294.0851 42.2797)"><tspan x="0" y="0" class="st7 st8">schwere</tspan><tspan x="-2.37" y="7.2" class="st7 st8">Gebäude-</tspan><tspan x="-0.05" y="14.4" class="st7 st8">schäden</tspan></text>
	</g>
	<g>
		<text transform="matrix(1 0 0 1 328.8171 49.48)" class="st7 st8">zerstörend</text>
	</g>
	<text transform="matrix(1 0 0 1 64.6922 28.0983)" class="st7 st8">II</text>
	<text transform="matrix(1 0 0 1 102.9877 28.0982)" class="st7 st8">III</text>
	<text transform="matrix(1 0 0 1 143.3457 28.0978)" class="st7 st8">IV</text>
	<text transform="matrix(1 0 0 1 184.5457 28.098)" class="st7 st8">V</text>
	<text transform="matrix(1 0 0 1 223.2133 28.098)" class="st7 st8">VI</text>
	<text transform="matrix(1 0 0 1 261.8927 28.0977)" class="st7 st8">VII</text>
	<text transform="matrix(1 0 0 1 300.5808 28.0981)" class="st7 st8">VIII</text>
	<text transform="matrix(1 0 0 1 341.5435 28.0979)" class="st7 st8">IX</text>
	<g>
		<line class="st2" x1="326.4" y1="18.61" x2="326.4" y2="61.06"/>
		<line class="st2" x1="86.74" y1="18.61" x2="86.74" y2="61.06"/>
		<line class="st2" x1="126.68" y1="18.61" x2="126.68" y2="61.06"/>
		<line class="st2" x1="166.62" y1="18.61" x2="166.62" y2="61.06"/>
		<line class="st2" x1="246.51" y1="18.61" x2="246.51" y2="61.06"/>
		<line class="st2" x1="286.46" y1="18.61" x2="286.46" y2="61.06"/>
		<line class="st2" x1="206.57" y1="18.61" x2="206.57" y2="61.06"/>
	</g>
	<line class="st2" x1="363.07" y1="18.61" x2="47.92" y2="18.61"/>
	<line class="st2" x1="363.07" y1="34.38" x2="47.94" y2="34.38"/>
</g>
</svg>
