<?xml version="1.0" encoding="utf-8"?>
<!-- Generator: Adobe Illustrator 27.0.1, SVG Export Plug-In . SVG Version: 6.00 Build 0)  -->
<svg version="1.1" xmlns="http://www.w3.org/2000/svg" xmlns:xlink="http://www.w3.org/1999/xlink" x="0px" y="0px"
	 viewBox="0 0 363.07 61.06" style="enable-background:new 0 0 363.07 61.06;" xml:space="preserve">
<style type="text/css">
	
		.st0{clip-path:url(#SVGID_00000032634192589112366510000007646204932446898623_);fill:url(#SVGID_00000080907885347473798920000011275465330727867808_);}
	.st1{fill:#D3D3D3;}
	.st2{fill:none;stroke:#FFFFFF;stroke-width:0.5;stroke-miterlimit:10;}
	
		.st3{clip-path:url(#SVGID_00000018205337273287936970000001186245659813167789_);fill:url(#SVGID_00000144304368897613507660000006889086506643885717_);}
	
		.st4{clip-path:url(#SVGID_00000106138550055957311530000007980095479964539014_);fill:url(#SVGID_00000078031939065489972150000015278789398544774589_);}
	
		.st5{clip-path:url(#SVGID_00000154390336677352383460000013383980158781326490_);fill:url(#SVGID_00000067946438162998383200000014807517214517393551_);}
</style>
<g id="Hilfslinien">
</g>
<g id="Italienisch">
</g>
<g id="Französisch">
</g>
<g id="Englisch">
</g>
<g id="Deutsch">
	<g>
		<defs>
			<rect id="SVGID_00000037680804162811442540000001995433472911424163_" x="47.92" width="315.15" height="18.61"/>
		</defs>
		<clipPath id="SVGID_00000166657595130527520790000003112355549838494384_">
			<use xlink:href="#SVGID_00000037680804162811442540000001995433472911424163_"  style="overflow:visible;"/>
		</clipPath>
		
			<linearGradient id="SVGID_00000109001126040980960480000006074646136612190651_" gradientUnits="userSpaceOnUse" x1="794.5431" y1="547.5511" x2="2015.76" y2="547.5511" gradientTransform="matrix(0.2581 0 0 1.1175 -157.1173 -602.5829)">
			<stop  offset="0" style="stop-color:#B2B1D8"/>
			<stop  offset="0.1192" style="stop-color:#B2B1D8"/>
			<stop  offset="0.162" style="stop-color:#6DCAD2"/>
			<stop  offset="0.2095" style="stop-color:#7DC46A"/>
			<stop  offset="0.2893" style="stop-color:#AACB3B"/>
			<stop  offset="0.339" style="stop-color:#D3DE28"/>
			<stop  offset="0.4119" style="stop-color:#F5EB10"/>
			<stop  offset="0.4655" style="stop-color:#FFCD2B"/>
			<stop  offset="0.5365" style="stop-color:#F2882D"/>
			<stop  offset="0.5898" style="stop-color:#F58020"/>
			<stop  offset="0.6661" style="stop-color:#EA4624"/>
			<stop  offset="0.7217" style="stop-color:#E01F26"/>
			<stop  offset="0.7931" style="stop-color:#E01F26"/>
			<stop  offset="0.8446" style="stop-color:#6F0F10"/>
			<stop  offset="0.8865" style="stop-color:#431211"/>
		</linearGradient>
		
			<rect x="47.92" style="clip-path:url(#SVGID_00000166657595130527520790000003112355549838494384_);fill:url(#SVGID_00000109001126040980960480000006074646136612190651_);" width="315.15" height="18.61"/>
	</g>
	<rect x="47.95" y="18.61" class="st1" width="315.11" height="15.77"/>
	<g>
		<line class="st2" x1="326.4" y1="0" x2="326.4" y2="18.61"/>
		<line class="st2" x1="86.74" y1="0" x2="86.74" y2="18.61"/>
		<line class="st2" x1="126.68" y1="0" x2="126.68" y2="18.61"/>
		<line class="st2" x1="166.63" y1="0" x2="166.63" y2="18.61"/>
		<line class="st2" x1="246.51" y1="0" x2="246.51" y2="18.61"/>
		<line class="st2" x1="286.46" y1="0" x2="286.46" y2="18.61"/>
		<line class="st2" x1="206.57" y1="0" x2="206.57" y2="18.61"/>
	</g>
	<rect x="47.95" y="34.38" class="st1" width="315.11" height="26.68"/>
	<g>
		<line class="st2" x1="326.4" y1="18.61" x2="326.4" y2="61.06"/>
		<line class="st2" x1="86.74" y1="18.61" x2="86.74" y2="61.06"/>
		<line class="st2" x1="126.68" y1="18.61" x2="126.68" y2="61.06"/>
		<line class="st2" x1="166.62" y1="18.61" x2="166.62" y2="61.06"/>
		<line class="st2" x1="246.51" y1="18.61" x2="246.51" y2="61.06"/>
		<line class="st2" x1="286.46" y1="18.61" x2="286.46" y2="61.06"/>
		<line class="st2" x1="206.57" y1="18.61" x2="206.57" y2="61.06"/>
	</g>
	<line class="st2" x1="363.07" y1="18.61" x2="47.92" y2="18.61"/>
	<line class="st2" x1="363.07" y1="34.38" x2="47.94" y2="34.38"/>
	<g id="Vektorisierter_Text">
		<g>
			<g>
				<path d="M16.69,28.1h-1.72v-0.45h0.57v-3.47h-0.57v-0.45h1.72v0.45h-0.57v3.47h0.57V28.1z"/>
				<path d="M20.37,28.1h-0.55v-1.86c0-0.15-0.01-0.29-0.03-0.42s-0.05-0.23-0.1-0.31c-0.05-0.08-0.12-0.14-0.21-0.18
					s-0.21-0.06-0.36-0.06c-0.15,0-0.31,0.04-0.47,0.11s-0.32,0.17-0.47,0.28v2.44h-0.55v-3.27h0.55v0.36
					c0.17-0.14,0.35-0.25,0.53-0.33s0.37-0.12,0.57-0.12c0.35,0,0.62,0.11,0.81,0.32s0.28,0.52,0.28,0.92V28.1z"/>
				<path d="M23.13,28.07c-0.1,0.03-0.22,0.05-0.34,0.07s-0.23,0.03-0.33,0.03c-0.33,0-0.59-0.09-0.76-0.27s-0.26-0.47-0.26-0.86
					v-1.74h-0.37v-0.46h0.37v-0.94H22v0.94h1.14v0.46H22v1.49c0,0.17,0,0.31,0.01,0.4s0.04,0.19,0.08,0.27
					c0.04,0.08,0.1,0.14,0.18,0.17s0.19,0.05,0.34,0.05c0.09,0,0.18-0.01,0.28-0.04s0.17-0.05,0.21-0.07h0.03V28.07z"/>
				<path d="M26.54,26.52h-2.41c0,0.2,0.03,0.38,0.09,0.53s0.14,0.27,0.25,0.37c0.1,0.09,0.22,0.16,0.36,0.21s0.29,0.07,0.46,0.07
					c0.22,0,0.45-0.04,0.67-0.13s0.39-0.18,0.48-0.26h0.03v0.6c-0.19,0.08-0.38,0.14-0.57,0.2s-0.4,0.08-0.61,0.08
					c-0.54,0-0.97-0.15-1.27-0.44s-0.46-0.71-0.46-1.25c0-0.54,0.15-0.96,0.44-1.27s0.68-0.47,1.15-0.47c0.44,0,0.78,0.13,1.02,0.39
					s0.36,0.62,0.36,1.1V26.52z M26,26.1c0-0.29-0.07-0.51-0.22-0.67s-0.36-0.24-0.65-0.24c-0.29,0-0.53,0.09-0.7,0.26
					s-0.27,0.39-0.3,0.65H26z"/>
				<path d="M30.11,28.1h-0.55v-1.86c0-0.15-0.01-0.29-0.03-0.42s-0.05-0.23-0.1-0.31c-0.05-0.08-0.12-0.14-0.21-0.18
					s-0.21-0.06-0.36-0.06c-0.15,0-0.31,0.04-0.47,0.11s-0.32,0.17-0.47,0.28v2.44h-0.55v-3.27h0.55v0.36
					c0.17-0.14,0.35-0.25,0.53-0.33s0.37-0.12,0.57-0.12c0.35,0,0.62,0.11,0.81,0.32s0.28,0.52,0.28,0.92V28.1z"/>
				<path d="M33.51,27.16c0,0.3-0.12,0.54-0.37,0.74s-0.58,0.29-1.01,0.29c-0.24,0-0.46-0.03-0.67-0.09s-0.37-0.12-0.51-0.19v-0.62
					h0.03c0.17,0.13,0.37,0.23,0.58,0.31s0.42,0.12,0.61,0.12c0.24,0,0.43-0.04,0.57-0.12s0.21-0.2,0.21-0.37
					c0-0.13-0.04-0.23-0.11-0.29s-0.22-0.12-0.43-0.17c-0.08-0.02-0.18-0.04-0.31-0.06c-0.13-0.02-0.24-0.05-0.34-0.08
					c-0.29-0.08-0.49-0.19-0.61-0.34s-0.18-0.33-0.18-0.54c0-0.13,0.03-0.26,0.08-0.38s0.14-0.23,0.25-0.32
					c0.11-0.09,0.25-0.16,0.42-0.22s0.36-0.08,0.57-0.08c0.2,0,0.39,0.02,0.59,0.07s0.37,0.11,0.5,0.17v0.59h-0.03
					c-0.14-0.1-0.31-0.19-0.51-0.26s-0.4-0.11-0.59-0.11c-0.2,0-0.37,0.04-0.51,0.12s-0.21,0.19-0.21,0.34
					c0,0.13,0.04,0.24,0.13,0.3c0.08,0.07,0.21,0.12,0.4,0.17c0.1,0.02,0.22,0.05,0.34,0.07s0.23,0.04,0.31,0.06
					c0.26,0.06,0.45,0.16,0.59,0.3C33.44,26.73,33.51,26.92,33.51,27.16z"/>
				<path d="M34.89,24.28h-0.62v-0.57h0.62V24.28z M34.85,28.1H34.3v-3.27h0.55V28.1z"/>
				<path d="M37.64,28.07c-0.1,0.03-0.22,0.05-0.34,0.07s-0.23,0.03-0.33,0.03c-0.33,0-0.59-0.09-0.76-0.27s-0.26-0.47-0.26-0.86
					v-1.74h-0.37v-0.46h0.37v-0.94h0.55v0.94h1.14v0.46H36.5v1.49c0,0.17,0,0.31,0.01,0.4s0.04,0.19,0.08,0.27
					c0.04,0.08,0.1,0.14,0.18,0.17s0.19,0.05,0.34,0.05c0.09,0,0.18-0.01,0.28-0.04s0.17-0.05,0.21-0.07h0.03V28.07z"/>
				<path d="M40.85,28.1H40.3v-0.35c-0.05,0.03-0.11,0.08-0.2,0.14s-0.16,0.11-0.24,0.14c-0.09,0.04-0.2,0.08-0.32,0.11
					s-0.26,0.05-0.42,0.05c-0.29,0-0.54-0.1-0.75-0.29s-0.31-0.44-0.31-0.75c0-0.25,0.05-0.45,0.16-0.6s0.26-0.27,0.46-0.36
					c0.2-0.09,0.44-0.15,0.72-0.18s0.58-0.05,0.9-0.07v-0.08c0-0.12-0.02-0.23-0.07-0.31s-0.11-0.15-0.19-0.19
					c-0.08-0.04-0.17-0.08-0.28-0.09s-0.22-0.02-0.34-0.02c-0.14,0-0.31,0.02-0.48,0.06s-0.36,0.09-0.55,0.17h-0.03V24.9
					c0.11-0.03,0.26-0.06,0.47-0.1s0.4-0.05,0.6-0.05c0.23,0,0.43,0.02,0.6,0.06s0.32,0.1,0.44,0.19c0.12,0.09,0.22,0.21,0.28,0.35
					s0.1,0.32,0.1,0.53V28.1z M40.3,27.29v-0.91c-0.17,0.01-0.37,0.02-0.59,0.04s-0.41,0.05-0.54,0.08
					c-0.16,0.04-0.29,0.11-0.38,0.21s-0.15,0.23-0.15,0.39c0,0.19,0.06,0.33,0.17,0.42s0.29,0.14,0.52,0.14
					c0.19,0,0.37-0.04,0.53-0.11S40.16,27.4,40.3,27.29z M39.27,24.28h-0.58v-0.57h0.58V24.28z M40.48,24.28h-0.58v-0.57h0.58V24.28
					z"/>
				<path d="M43.61,28.07c-0.1,0.03-0.22,0.05-0.34,0.07s-0.23,0.03-0.33,0.03c-0.33,0-0.59-0.09-0.76-0.27s-0.26-0.47-0.26-0.86
					v-1.74h-0.37v-0.46h0.37v-0.94h0.55v0.94h1.14v0.46h-1.14v1.49c0,0.17,0,0.31,0.01,0.4s0.04,0.19,0.08,0.27
					c0.04,0.08,0.1,0.14,0.18,0.17s0.19,0.05,0.34,0.05c0.09,0,0.18-0.01,0.28-0.04s0.17-0.05,0.21-0.07h0.03V28.07z"/>
			</g>
		</g>
		<g>
			<g>
				<path d="M5.39,48.69H4.77l-0.43-1.22H2.46l-0.43,1.22H1.44l1.59-4.36H3.8L5.39,48.69z M4.16,46.97L3.4,44.83l-0.77,2.14H4.16z"
					/>
				<path d="M8.69,48.69H8.14v-0.36c-0.19,0.15-0.36,0.26-0.53,0.34s-0.36,0.12-0.56,0.12c-0.34,0-0.61-0.1-0.8-0.31
					s-0.29-0.52-0.29-0.92v-2.12h0.55v1.86c0,0.17,0.01,0.31,0.02,0.43s0.05,0.22,0.1,0.3c0.05,0.09,0.12,0.15,0.21,0.19
					s0.21,0.06,0.37,0.06c0.14,0,0.3-0.04,0.47-0.11s0.33-0.17,0.47-0.28v-2.44h0.55V48.69z"/>
				<path d="M12.11,47.75c0,0.3-0.12,0.54-0.37,0.74s-0.58,0.29-1.01,0.29c-0.24,0-0.46-0.03-0.67-0.09s-0.37-0.12-0.51-0.19v-0.62
					h0.03c0.17,0.13,0.37,0.24,0.58,0.31s0.42,0.12,0.61,0.12c0.24,0,0.43-0.04,0.57-0.12s0.21-0.2,0.21-0.37
					c0-0.13-0.04-0.23-0.11-0.29s-0.22-0.12-0.43-0.17c-0.08-0.02-0.18-0.04-0.31-0.06s-0.24-0.05-0.34-0.08
					c-0.29-0.08-0.49-0.19-0.61-0.33s-0.18-0.33-0.18-0.54c0-0.13,0.03-0.26,0.08-0.38s0.14-0.23,0.25-0.32
					c0.11-0.09,0.25-0.16,0.42-0.22s0.36-0.08,0.57-0.08c0.2,0,0.39,0.02,0.59,0.07s0.37,0.11,0.5,0.17v0.59h-0.03
					c-0.14-0.1-0.31-0.19-0.51-0.26s-0.4-0.11-0.59-0.11c-0.2,0-0.37,0.04-0.51,0.12s-0.21,0.19-0.21,0.34
					c0,0.13,0.04,0.24,0.13,0.3c0.08,0.07,0.21,0.12,0.4,0.17c0.1,0.02,0.22,0.05,0.34,0.07s0.23,0.04,0.31,0.06
					c0.26,0.06,0.45,0.16,0.59,0.3C12.04,47.32,12.11,47.51,12.11,47.75z"/>
				<path d="M17.02,45.42l-0.85,3.27h-0.51l-0.84-2.52l-0.83,2.52h-0.51l-0.86-3.27h0.57l0.6,2.53l0.82-2.53h0.45l0.84,2.53
					l0.57-2.53H17.02z"/>
				<path d="M18.4,44.87h-0.62V44.3h0.62V44.87z M18.37,48.69h-0.55v-3.27h0.55V48.69z"/>
				<path d="M21.5,46.02h-0.03c-0.08-0.02-0.16-0.03-0.24-0.04s-0.17-0.01-0.27-0.01c-0.17,0-0.33,0.04-0.49,0.11
					s-0.31,0.17-0.46,0.29v2.32h-0.55v-3.27h0.55v0.48c0.22-0.18,0.41-0.3,0.58-0.37s0.34-0.11,0.51-0.11c0.1,0,0.17,0,0.21,0.01
					s0.11,0.01,0.19,0.03V46.02z"/>
				<path d="M24.99,48.69h-0.73l-1.31-1.43l-0.36,0.34v1.09h-0.55v-4.56h0.55v2.92l1.59-1.64h0.69l-1.52,1.51L24.99,48.69z"/>
				<path d="M28.28,48.69h-0.55v-0.36c-0.19,0.15-0.36,0.26-0.53,0.34s-0.36,0.12-0.56,0.12c-0.34,0-0.61-0.1-0.8-0.31
					s-0.29-0.52-0.29-0.92v-2.12h0.55v1.86c0,0.17,0.01,0.31,0.02,0.43s0.05,0.22,0.1,0.3c0.05,0.09,0.12,0.15,0.21,0.19
					s0.21,0.06,0.37,0.06c0.14,0,0.3-0.04,0.47-0.11s0.33-0.17,0.47-0.28v-2.44h0.55V48.69z"/>
				<path d="M32.1,48.69h-0.55v-1.86c0-0.15-0.01-0.29-0.03-0.42s-0.05-0.24-0.1-0.31c-0.05-0.08-0.12-0.14-0.21-0.18
					s-0.21-0.06-0.36-0.06c-0.15,0-0.31,0.04-0.47,0.11s-0.32,0.17-0.47,0.28v2.44h-0.55v-3.27h0.55v0.36
					c0.17-0.14,0.35-0.25,0.53-0.33s0.37-0.12,0.57-0.12c0.35,0,0.62,0.11,0.81,0.32c0.19,0.21,0.28,0.52,0.28,0.92V48.69z"/>
				<path d="M35.82,48.32c0,0.55-0.13,0.96-0.38,1.22s-0.64,0.39-1.16,0.39c-0.17,0-0.34-0.01-0.51-0.04s-0.33-0.06-0.49-0.1v-0.56
					h0.03c0.09,0.04,0.23,0.08,0.43,0.13s0.39,0.08,0.59,0.08c0.19,0,0.34-0.02,0.47-0.07s0.22-0.11,0.29-0.19
					c0.07-0.08,0.12-0.17,0.15-0.28s0.04-0.23,0.04-0.36v-0.3c-0.17,0.13-0.32,0.23-0.48,0.3s-0.34,0.1-0.58,0.1
					c-0.39,0-0.7-0.14-0.93-0.42s-0.34-0.68-0.34-1.19c0-0.28,0.04-0.52,0.12-0.73s0.19-0.38,0.32-0.53
					c0.13-0.14,0.28-0.25,0.46-0.32s0.36-0.12,0.54-0.12c0.19,0,0.35,0.02,0.48,0.06s0.26,0.1,0.41,0.17l0.04-0.14h0.52V48.32z
					 M35.27,47.79v-1.78c-0.15-0.07-0.28-0.11-0.41-0.14s-0.25-0.04-0.38-0.04c-0.3,0-0.54,0.1-0.71,0.3s-0.26,0.5-0.26,0.88
					c0,0.37,0.06,0.65,0.19,0.83s0.34,0.28,0.64,0.28c0.16,0,0.32-0.03,0.48-0.09S35.13,47.89,35.27,47.79z"/>
				<path d="M39.64,47.11h-2.41c0,0.2,0.03,0.38,0.09,0.53s0.14,0.27,0.25,0.37c0.1,0.09,0.22,0.16,0.36,0.21s0.29,0.07,0.46,0.07
					c0.22,0,0.45-0.04,0.67-0.13s0.39-0.18,0.48-0.26h0.03v0.6c-0.19,0.08-0.38,0.14-0.57,0.2s-0.4,0.08-0.61,0.08
					c-0.54,0-0.97-0.15-1.27-0.44s-0.46-0.71-0.46-1.25c0-0.54,0.15-0.96,0.44-1.27s0.68-0.47,1.15-0.47c0.44,0,0.78,0.13,1.02,0.39
					s0.36,0.62,0.36,1.1V47.11z M39.1,46.69c0-0.29-0.07-0.51-0.22-0.67s-0.36-0.24-0.65-0.24c-0.29,0-0.53,0.09-0.7,0.26
					s-0.27,0.39-0.3,0.65H39.1z"/>
				<path d="M43.21,48.69h-0.55v-1.86c0-0.15-0.01-0.29-0.03-0.42s-0.05-0.24-0.1-0.31c-0.05-0.08-0.12-0.14-0.21-0.18
					s-0.21-0.06-0.36-0.06c-0.15,0-0.31,0.04-0.47,0.11s-0.32,0.17-0.47,0.28v2.44h-0.55v-3.27h0.55v0.36
					c0.17-0.14,0.35-0.25,0.53-0.33s0.37-0.12,0.57-0.12c0.35,0,0.62,0.11,0.81,0.32s0.28,0.52,0.28,0.92V48.69z"/>
			</g>
		</g>
		<g>
			<g>
				<path d="M62.34,45.88h-0.73l-1.31-1.43l-0.36,0.34v1.09h-0.55v-4.56h0.55v2.92l1.59-1.64h0.69l-1.52,1.51L62.34,45.88z"/>
				<path d="M65.46,45.88h-0.55v-0.35c-0.05,0.03-0.11,0.08-0.2,0.14s-0.16,0.11-0.24,0.14c-0.09,0.04-0.2,0.08-0.32,0.11
					s-0.26,0.04-0.42,0.04c-0.29,0-0.54-0.1-0.75-0.29s-0.31-0.44-0.31-0.75c0-0.25,0.05-0.45,0.16-0.6s0.26-0.27,0.46-0.36
					c0.2-0.09,0.44-0.15,0.72-0.18s0.58-0.05,0.9-0.07v-0.08c0-0.12-0.02-0.23-0.07-0.31s-0.11-0.15-0.19-0.19
					c-0.08-0.04-0.17-0.08-0.28-0.09s-0.22-0.02-0.34-0.02c-0.14,0-0.31,0.02-0.48,0.06s-0.36,0.09-0.55,0.17h-0.03v-0.56
					c0.11-0.03,0.26-0.06,0.47-0.1s0.4-0.05,0.6-0.05c0.23,0,0.43,0.02,0.6,0.06s0.32,0.1,0.44,0.19c0.12,0.09,0.22,0.21,0.28,0.35
					s0.1,0.32,0.1,0.53V45.88z M64.91,45.07v-0.91c-0.17,0.01-0.37,0.02-0.59,0.04s-0.41,0.05-0.54,0.08
					c-0.16,0.04-0.29,0.12-0.38,0.21s-0.15,0.22-0.15,0.39c0,0.19,0.06,0.33,0.17,0.42s0.29,0.14,0.52,0.14
					c0.19,0,0.37-0.04,0.53-0.11S64.78,45.18,64.91,45.07z"/>
				<path d="M69.23,45.88h-0.55v-0.36c-0.19,0.15-0.36,0.26-0.53,0.34s-0.36,0.12-0.56,0.12c-0.34,0-0.61-0.1-0.8-0.31
					s-0.29-0.52-0.29-0.92v-2.12h0.55v1.86c0,0.17,0.01,0.31,0.02,0.43s0.05,0.22,0.1,0.3c0.05,0.09,0.12,0.15,0.21,0.19
					s0.21,0.06,0.37,0.06c0.14,0,0.3-0.04,0.47-0.11s0.33-0.17,0.47-0.28v-2.44h0.55V45.88z"/>
				<path d="M75.09,45.88h-0.55v-1.86c0-0.14-0.01-0.28-0.02-0.41s-0.04-0.24-0.08-0.31c-0.04-0.08-0.11-0.15-0.19-0.19
					s-0.21-0.06-0.36-0.06c-0.15,0-0.31,0.04-0.46,0.12s-0.31,0.17-0.46,0.29c0.01,0.04,0.01,0.1,0.01,0.16s0.01,0.12,0.01,0.18
					v2.09h-0.55v-1.86c0-0.14-0.01-0.28-0.02-0.41s-0.04-0.23-0.08-0.31c-0.04-0.08-0.11-0.15-0.19-0.19s-0.21-0.06-0.36-0.06
					c-0.15,0-0.3,0.04-0.45,0.11s-0.3,0.17-0.45,0.28v2.44h-0.55v-3.27h0.55v0.36c0.17-0.14,0.34-0.25,0.51-0.33
					s0.35-0.12,0.55-0.12c0.22,0,0.41,0.05,0.57,0.14s0.27,0.22,0.35,0.39c0.22-0.19,0.43-0.32,0.61-0.41s0.38-0.12,0.59-0.12
					c0.36,0,0.62,0.11,0.8,0.33s0.26,0.52,0.26,0.91V45.88z"/>
				<path d="M54.27,51.42c0,0.27-0.04,0.52-0.12,0.74s-0.18,0.4-0.31,0.55c-0.14,0.15-0.29,0.27-0.46,0.35s-0.35,0.12-0.55,0.12
					c-0.19,0-0.35-0.02-0.49-0.07s-0.28-0.1-0.41-0.18l-0.04,0.15h-0.52v-4.56h0.55v1.63c0.15-0.13,0.32-0.23,0.49-0.31
					s0.37-0.12,0.59-0.12c0.39,0,0.69,0.15,0.92,0.45S54.27,50.88,54.27,51.42z M53.7,51.43c0-0.39-0.06-0.69-0.19-0.89
					s-0.34-0.3-0.62-0.3c-0.16,0-0.32,0.04-0.49,0.1s-0.32,0.16-0.46,0.27v1.88c0.16,0.07,0.29,0.12,0.4,0.15s0.24,0.04,0.38,0.04
					c0.3,0,0.54-0.1,0.72-0.3S53.7,51.86,53.7,51.43z"/>
				<path d="M57.87,51.5h-2.41c0,0.2,0.03,0.38,0.09,0.53s0.14,0.27,0.25,0.37c0.1,0.09,0.22,0.16,0.36,0.21s0.29,0.07,0.46,0.07
					c0.22,0,0.45-0.04,0.67-0.13s0.39-0.18,0.48-0.26h0.03v0.6c-0.19,0.08-0.38,0.14-0.57,0.2s-0.4,0.08-0.61,0.08
					c-0.54,0-0.97-0.15-1.27-0.44S54.9,52,54.9,51.46c0-0.54,0.15-0.96,0.44-1.27s0.68-0.47,1.15-0.47c0.44,0,0.78,0.13,1.02,0.39
					s0.36,0.62,0.36,1.1V51.5z M57.33,51.08c0-0.29-0.07-0.51-0.22-0.67s-0.36-0.24-0.66-0.24c-0.29,0-0.53,0.09-0.7,0.26
					s-0.27,0.39-0.3,0.65H57.33z"/>
				<path d="M63.48,53.08h-0.55v-1.86c0-0.14-0.01-0.28-0.02-0.41s-0.04-0.24-0.08-0.31c-0.04-0.08-0.11-0.15-0.19-0.19
					s-0.21-0.06-0.36-0.06c-0.15,0-0.31,0.04-0.46,0.12s-0.31,0.17-0.46,0.29c0.01,0.04,0.01,0.1,0.01,0.16s0.01,0.12,0.01,0.18
					v2.09h-0.55v-1.86c0-0.14-0.01-0.28-0.02-0.41s-0.04-0.23-0.08-0.31c-0.04-0.08-0.11-0.15-0.19-0.19s-0.21-0.06-0.36-0.06
					c-0.15,0-0.3,0.04-0.45,0.11s-0.3,0.17-0.45,0.28v2.44H58.7v-3.27h0.55v0.36c0.17-0.14,0.34-0.25,0.51-0.33s0.35-0.12,0.55-0.12
					c0.22,0,0.41,0.05,0.57,0.14s0.27,0.22,0.35,0.39c0.22-0.19,0.43-0.32,0.61-0.41s0.38-0.12,0.59-0.12c0.36,0,0.62,0.11,0.8,0.33
					s0.26,0.52,0.26,0.91V53.08z"/>
				<path d="M67.28,51.5h-2.41c0,0.2,0.03,0.38,0.09,0.53s0.14,0.27,0.25,0.37c0.1,0.09,0.22,0.16,0.36,0.21s0.29,0.07,0.46,0.07
					c0.22,0,0.45-0.04,0.67-0.13s0.39-0.18,0.48-0.26h0.03v0.6c-0.19,0.08-0.38,0.14-0.57,0.2s-0.4,0.08-0.61,0.08
					c-0.54,0-0.97-0.15-1.27-0.44s-0.46-0.71-0.46-1.25c0-0.54,0.15-0.96,0.44-1.27s0.68-0.47,1.15-0.47c0.44,0,0.78,0.13,1.02,0.39
					s0.36,0.62,0.36,1.1V51.5z M66.74,51.08c0-0.29-0.07-0.51-0.22-0.67s-0.36-0.24-0.66-0.24c-0.29,0-0.53,0.09-0.7,0.26
					s-0.27,0.39-0.3,0.65H66.74z"/>
				<path d="M70.16,50.41h-0.03c-0.08-0.02-0.16-0.03-0.24-0.04s-0.17-0.01-0.27-0.01c-0.17,0-0.33,0.04-0.49,0.11
					s-0.31,0.17-0.46,0.29v2.32h-0.55v-3.27h0.55v0.48c0.22-0.18,0.41-0.3,0.58-0.37s0.34-0.11,0.51-0.11c0.1,0,0.17,0,0.21,0.01
					s0.11,0.01,0.19,0.03V50.41z"/>
				<path d="M73.65,53.08h-0.73l-1.31-1.43l-0.36,0.34v1.09H70.7v-4.56h0.55v2.92l1.59-1.64h0.69l-1.52,1.51L73.65,53.08z"/>
				<path d="M77.11,51.42c0,0.27-0.04,0.52-0.12,0.74s-0.18,0.4-0.31,0.55c-0.14,0.15-0.29,0.27-0.46,0.35s-0.35,0.12-0.55,0.12
					c-0.19,0-0.35-0.02-0.49-0.07s-0.28-0.1-0.41-0.18l-0.04,0.15h-0.52v-4.56h0.55v1.63c0.15-0.13,0.32-0.23,0.49-0.31
					s0.37-0.12,0.59-0.12c0.39,0,0.69,0.15,0.92,0.45S77.11,50.88,77.11,51.42z M76.54,51.43c0-0.39-0.06-0.69-0.19-0.89
					s-0.34-0.3-0.62-0.3c-0.16,0-0.32,0.04-0.49,0.1s-0.32,0.16-0.46,0.27v1.88c0.16,0.07,0.29,0.12,0.4,0.15s0.24,0.04,0.38,0.04
					c0.3,0,0.54-0.1,0.72-0.3S76.54,51.86,76.54,51.43z"/>
				<path d="M80.51,53.08h-0.55v-0.35c-0.05,0.03-0.11,0.08-0.2,0.14s-0.16,0.11-0.24,0.14c-0.09,0.04-0.2,0.08-0.32,0.11
					s-0.26,0.04-0.42,0.04c-0.29,0-0.54-0.1-0.75-0.29s-0.31-0.44-0.31-0.75c0-0.25,0.05-0.45,0.16-0.6s0.26-0.27,0.46-0.36
					c0.2-0.09,0.44-0.15,0.72-0.18s0.58-0.05,0.9-0.07v-0.08c0-0.12-0.02-0.23-0.07-0.31s-0.11-0.15-0.19-0.19
					c-0.08-0.04-0.17-0.08-0.28-0.09s-0.22-0.02-0.34-0.02c-0.14,0-0.31,0.02-0.48,0.06s-0.36,0.09-0.55,0.17h-0.03v-0.56
					c0.11-0.03,0.26-0.06,0.47-0.1s0.4-0.05,0.6-0.05c0.23,0,0.43,0.02,0.6,0.06s0.32,0.1,0.44,0.19c0.12,0.09,0.22,0.21,0.28,0.35
					s0.1,0.32,0.1,0.53V53.08z M79.96,52.27v-0.91c-0.17,0.01-0.37,0.02-0.59,0.04s-0.41,0.05-0.54,0.08
					c-0.16,0.04-0.29,0.12-0.38,0.21s-0.15,0.22-0.15,0.39c0,0.19,0.06,0.33,0.17,0.42s0.29,0.14,0.52,0.14
					c0.19,0,0.37-0.04,0.53-0.11S79.82,52.38,79.96,52.27z"/>
				<path d="M83.61,50.41h-0.03c-0.08-0.02-0.16-0.03-0.24-0.04s-0.17-0.01-0.27-0.01c-0.17,0-0.33,0.04-0.49,0.11
					s-0.31,0.17-0.46,0.29v2.32h-0.55v-3.27h0.55v0.48c0.22-0.18,0.41-0.3,0.58-0.37s0.34-0.11,0.51-0.11c0.1,0,0.17,0,0.21,0.01
					s0.11,0.01,0.19,0.03V50.41z"/>
			</g>
		</g>
		<g>
			<g>
				<path d="M96.96,44.94c0,0.3-0.12,0.54-0.37,0.74s-0.58,0.29-1.01,0.29c-0.24,0-0.46-0.03-0.67-0.09s-0.37-0.12-0.51-0.19v-0.62
					h0.03c0.17,0.13,0.37,0.24,0.58,0.31s0.42,0.12,0.61,0.12c0.24,0,0.43-0.04,0.57-0.12s0.21-0.2,0.21-0.37
					c0-0.13-0.04-0.23-0.11-0.29s-0.22-0.12-0.43-0.17c-0.08-0.02-0.18-0.04-0.31-0.06s-0.24-0.05-0.34-0.08
					c-0.29-0.08-0.49-0.19-0.61-0.33s-0.18-0.33-0.18-0.54c0-0.13,0.03-0.26,0.08-0.38s0.14-0.23,0.25-0.32
					c0.11-0.09,0.25-0.16,0.42-0.22s0.36-0.08,0.57-0.08c0.2,0,0.39,0.02,0.59,0.07s0.37,0.11,0.5,0.17v0.59H96.8
					c-0.14-0.1-0.31-0.19-0.51-0.26s-0.4-0.11-0.59-0.11c-0.2,0-0.37,0.04-0.51,0.12s-0.21,0.19-0.21,0.34
					c0,0.13,0.04,0.24,0.13,0.3c0.08,0.07,0.21,0.12,0.4,0.17c0.1,0.02,0.22,0.05,0.34,0.07s0.23,0.04,0.31,0.06
					c0.26,0.06,0.45,0.16,0.59,0.3C96.89,44.51,96.96,44.7,96.96,44.94z"/>
				<path d="M100.16,45.68c-0.18,0.09-0.36,0.16-0.52,0.21s-0.34,0.07-0.53,0.07c-0.24,0-0.45-0.03-0.65-0.1s-0.37-0.17-0.51-0.32
					c-0.14-0.14-0.25-0.32-0.33-0.53s-0.12-0.47-0.12-0.75c0-0.54,0.15-0.96,0.44-1.26s0.68-0.46,1.16-0.46
					c0.19,0,0.37,0.03,0.55,0.08s0.35,0.12,0.5,0.19v0.61h-0.03c-0.17-0.13-0.34-0.23-0.52-0.3s-0.35-0.11-0.52-0.11
					c-0.31,0-0.56,0.11-0.74,0.32s-0.27,0.52-0.27,0.92c0,0.39,0.09,0.7,0.27,0.91s0.43,0.32,0.75,0.32c0.11,0,0.22-0.01,0.34-0.04
					s0.22-0.07,0.31-0.11c0.08-0.04,0.16-0.08,0.23-0.13s0.13-0.09,0.17-0.12h0.03V45.68z"/>
				<path d="M103.61,45.88h-0.55v-1.86c0-0.15-0.01-0.29-0.03-0.42s-0.05-0.24-0.1-0.31c-0.05-0.08-0.12-0.14-0.21-0.18
					s-0.21-0.06-0.36-0.06c-0.15,0-0.31,0.04-0.47,0.11s-0.32,0.17-0.47,0.28v2.44h-0.55v-4.56h0.55v1.65
					c0.17-0.14,0.35-0.25,0.53-0.33s0.37-0.12,0.57-0.12c0.35,0,0.62,0.11,0.81,0.32s0.28,0.52,0.28,0.92V45.88z"/>
				<path d="M108.75,42.61l-0.85,3.27h-0.51l-0.84-2.52l-0.83,2.52h-0.51l-0.86-3.27h0.57l0.6,2.53l0.82-2.53h0.45l0.84,2.53
					l0.57-2.53H108.75z"/>
				<path d="M112.03,45.88h-0.55v-0.35c-0.05,0.03-0.11,0.08-0.2,0.14s-0.16,0.11-0.24,0.14c-0.09,0.04-0.2,0.08-0.32,0.11
					s-0.26,0.04-0.42,0.04c-0.29,0-0.54-0.1-0.75-0.29s-0.31-0.44-0.31-0.75c0-0.25,0.05-0.45,0.16-0.6s0.26-0.27,0.46-0.36
					c0.2-0.09,0.44-0.15,0.72-0.18s0.58-0.05,0.9-0.07v-0.08c0-0.12-0.02-0.23-0.07-0.31s-0.11-0.15-0.19-0.19
					c-0.08-0.04-0.17-0.08-0.28-0.09s-0.22-0.02-0.34-0.02c-0.14,0-0.31,0.02-0.48,0.06s-0.36,0.09-0.55,0.17h-0.03v-0.56
					c0.11-0.03,0.26-0.06,0.47-0.1s0.4-0.05,0.6-0.05c0.23,0,0.43,0.02,0.6,0.06s0.32,0.1,0.44,0.19c0.12,0.09,0.22,0.21,0.28,0.35
					s0.1,0.32,0.1,0.53V45.88z M111.49,45.07v-0.91c-0.17,0.01-0.37,0.02-0.59,0.04s-0.41,0.05-0.54,0.08
					c-0.16,0.04-0.29,0.12-0.38,0.21s-0.15,0.22-0.15,0.39c0,0.19,0.06,0.33,0.17,0.42s0.29,0.14,0.52,0.14
					c0.19,0,0.37-0.04,0.53-0.11S111.35,45.18,111.49,45.07z"/>
				<path d="M115.51,45.68c-0.18,0.09-0.36,0.16-0.52,0.21s-0.34,0.07-0.53,0.07c-0.24,0-0.45-0.03-0.65-0.1s-0.37-0.17-0.51-0.32
					c-0.14-0.14-0.25-0.32-0.33-0.53s-0.12-0.47-0.12-0.75c0-0.54,0.15-0.96,0.44-1.26s0.68-0.46,1.16-0.46
					c0.19,0,0.37,0.03,0.55,0.08s0.35,0.12,0.5,0.19v0.61h-0.03c-0.17-0.13-0.34-0.23-0.52-0.3s-0.35-0.11-0.52-0.11
					c-0.31,0-0.56,0.11-0.74,0.32s-0.27,0.52-0.27,0.92c0,0.39,0.09,0.7,0.27,0.91s0.43,0.32,0.75,0.32c0.11,0,0.22-0.01,0.34-0.04
					s0.22-0.07,0.31-0.11c0.08-0.04,0.16-0.08,0.23-0.13s0.13-0.09,0.17-0.12h0.03V45.68z"/>
				<path d="M118.96,45.88h-0.55v-1.86c0-0.15-0.01-0.29-0.03-0.42s-0.05-0.24-0.1-0.31c-0.05-0.08-0.12-0.14-0.21-0.18
					s-0.21-0.06-0.36-0.06c-0.15,0-0.31,0.04-0.47,0.11s-0.32,0.17-0.47,0.28v2.44h-0.55v-4.56h0.55v1.65
					c0.17-0.14,0.35-0.25,0.53-0.33s0.37-0.12,0.57-0.12c0.35,0,0.62,0.11,0.81,0.32s0.28,0.52,0.28,0.92V45.88z"/>
				<path d="M97.54,49.81l-1.32,3.27h-0.55l-1.32-3.27h0.6l1.01,2.6l1-2.6H97.54z"/>
				<path d="M100.95,51.5h-2.41c0,0.2,0.03,0.38,0.09,0.53s0.14,0.27,0.25,0.37c0.1,0.09,0.22,0.16,0.36,0.21s0.29,0.07,0.46,0.07
					c0.22,0,0.45-0.04,0.67-0.13s0.39-0.18,0.48-0.26h0.03v0.6c-0.19,0.08-0.38,0.14-0.57,0.2s-0.4,0.08-0.61,0.08
					c-0.54,0-0.97-0.15-1.27-0.44s-0.46-0.71-0.46-1.25c0-0.54,0.15-0.96,0.44-1.27s0.68-0.47,1.15-0.47c0.44,0,0.78,0.13,1.02,0.39
					s0.36,0.62,0.36,1.1V51.5z M100.41,51.08c0-0.29-0.07-0.51-0.22-0.67s-0.36-0.24-0.65-0.24c-0.29,0-0.53,0.09-0.7,0.26
					s-0.27,0.39-0.3,0.65H100.41z"/>
				<path d="M103.82,50.41h-0.03c-0.08-0.02-0.16-0.03-0.24-0.04s-0.17-0.01-0.27-0.01c-0.17,0-0.33,0.04-0.49,0.11
					s-0.31,0.17-0.46,0.29v2.32h-0.55v-3.27h0.55v0.48c0.22-0.18,0.41-0.3,0.58-0.37s0.34-0.11,0.51-0.11c0.1,0,0.17,0,0.21,0.01
					s0.11,0.01,0.19,0.03V50.41z"/>
				<path d="M106.68,52.14c0,0.3-0.12,0.54-0.37,0.74s-0.58,0.29-1.01,0.29c-0.24,0-0.46-0.03-0.67-0.09s-0.37-0.12-0.51-0.19v-0.62
					h0.03c0.17,0.13,0.37,0.24,0.58,0.31s0.42,0.12,0.61,0.12c0.24,0,0.43-0.04,0.57-0.12s0.21-0.2,0.21-0.37
					c0-0.13-0.04-0.23-0.11-0.29s-0.22-0.12-0.43-0.17c-0.08-0.02-0.18-0.04-0.31-0.06s-0.24-0.05-0.34-0.08
					c-0.29-0.08-0.49-0.19-0.61-0.33s-0.18-0.33-0.18-0.54c0-0.13,0.03-0.26,0.08-0.38s0.14-0.23,0.25-0.32
					c0.11-0.09,0.25-0.16,0.42-0.22s0.36-0.08,0.57-0.08c0.2,0,0.39,0.02,0.59,0.07s0.37,0.11,0.5,0.17v0.59h-0.03
					c-0.14-0.1-0.31-0.19-0.51-0.26s-0.4-0.11-0.59-0.11c-0.2,0-0.37,0.04-0.51,0.12s-0.21,0.19-0.21,0.34
					c0,0.13,0.04,0.24,0.13,0.3c0.08,0.07,0.21,0.12,0.4,0.17c0.1,0.02,0.22,0.05,0.34,0.07s0.23,0.04,0.31,0.06
					c0.26,0.06,0.45,0.16,0.59,0.3C106.61,51.71,106.68,51.9,106.68,52.14z"/>
				<path d="M110.35,51.4c0,0.27-0.04,0.51-0.11,0.73s-0.18,0.41-0.32,0.56c-0.13,0.14-0.28,0.26-0.46,0.34s-0.36,0.12-0.56,0.12
					c-0.17,0-0.32-0.02-0.46-0.06s-0.28-0.09-0.42-0.17v1.37h-0.55v-4.48h0.55v0.34c0.15-0.12,0.31-0.23,0.49-0.31
					s0.38-0.12,0.58-0.12c0.39,0,0.7,0.15,0.92,0.45S110.35,50.88,110.35,51.4z M109.78,51.42c0-0.39-0.07-0.69-0.2-0.88
					s-0.34-0.29-0.62-0.29c-0.16,0-0.32,0.03-0.48,0.1s-0.31,0.16-0.46,0.27v1.85c0.16,0.07,0.29,0.12,0.4,0.14s0.24,0.04,0.38,0.04
					c0.31,0,0.55-0.1,0.72-0.31S109.78,51.83,109.78,51.42z"/>
				<path d="M113.92,53.08h-0.55v-0.36c-0.19,0.15-0.36,0.26-0.53,0.34s-0.36,0.12-0.56,0.12c-0.34,0-0.61-0.1-0.8-0.31
					s-0.29-0.52-0.29-0.92v-2.12h0.55v1.86c0,0.17,0.01,0.31,0.02,0.43s0.05,0.22,0.1,0.3c0.05,0.09,0.12,0.15,0.21,0.19
					s0.21,0.06,0.37,0.06c0.14,0,0.3-0.04,0.47-0.11s0.33-0.17,0.47-0.28v-2.44h0.55V53.08z M112.25,49.26h-0.58v-0.57h0.58V49.26z
					 M113.46,49.26h-0.58v-0.57h0.58V49.26z"/>
				<path d="M117.04,50.41h-0.03c-0.08-0.02-0.16-0.03-0.24-0.04s-0.17-0.01-0.27-0.01c-0.17,0-0.33,0.04-0.49,0.11
					s-0.31,0.17-0.46,0.29v2.32H115v-3.27h0.55v0.48c0.22-0.18,0.41-0.3,0.58-0.37s0.34-0.11,0.51-0.11c0.1,0,0.17,0,0.21,0.01
					s0.11,0.01,0.19,0.03V50.41z"/>
				<path d="M119.26,53.05c-0.1,0.03-0.22,0.05-0.34,0.07s-0.23,0.03-0.33,0.03c-0.33,0-0.59-0.09-0.76-0.27s-0.26-0.47-0.26-0.86
					v-1.74h-0.37v-0.46h0.37v-0.94h0.55v0.94h1.14v0.46h-1.14v1.49c0,0.17,0,0.31,0.01,0.4s0.04,0.19,0.08,0.27
					c0.04,0.08,0.1,0.14,0.18,0.17s0.19,0.05,0.34,0.05c0.09,0,0.18-0.01,0.28-0.04s0.17-0.05,0.21-0.07h0.03V53.05z"/>
			</g>
		</g>
		<g>
			<g>
				<path d="M138.01,45.88h-0.55v-0.34c-0.16,0.14-0.32,0.24-0.5,0.32s-0.36,0.11-0.56,0.11c-0.39,0-0.7-0.15-0.93-0.45
					s-0.34-0.72-0.34-1.25c0-0.28,0.04-0.52,0.12-0.74s0.19-0.4,0.32-0.55c0.13-0.15,0.29-0.26,0.46-0.34s0.36-0.12,0.55-0.12
					c0.17,0,0.32,0.02,0.46,0.05s0.27,0.09,0.42,0.17v-1.42h0.55V45.88z M137.46,45.07V43.2c-0.15-0.07-0.28-0.11-0.4-0.14
					s-0.25-0.04-0.38-0.04c-0.31,0-0.55,0.11-0.72,0.32s-0.26,0.52-0.26,0.91c0,0.39,0.07,0.68,0.2,0.89s0.35,0.3,0.64,0.3
					c0.16,0,0.31-0.04,0.47-0.1S137.32,45.18,137.46,45.07z"/>
				<path d="M141.83,44.3h-2.41c0,0.2,0.03,0.38,0.09,0.53s0.14,0.27,0.25,0.37c0.1,0.09,0.22,0.16,0.36,0.21s0.29,0.07,0.46,0.07
					c0.22,0,0.45-0.04,0.67-0.13s0.39-0.18,0.48-0.26h0.03v0.6c-0.19,0.08-0.38,0.14-0.57,0.2s-0.4,0.08-0.61,0.08
					c-0.54,0-0.97-0.15-1.27-0.44s-0.46-0.71-0.46-1.25c0-0.54,0.15-0.96,0.44-1.27s0.68-0.47,1.15-0.47c0.44,0,0.78,0.13,1.02,0.39
					s0.36,0.62,0.36,1.1V44.3z M141.3,43.88c0-0.29-0.07-0.51-0.22-0.67s-0.36-0.24-0.66-0.24c-0.29,0-0.53,0.09-0.7,0.26
					s-0.27,0.39-0.3,0.65H141.3z"/>
				<path d="M145.38,45.88h-0.55v-0.36c-0.19,0.15-0.36,0.26-0.53,0.34s-0.36,0.12-0.56,0.12c-0.34,0-0.61-0.11-0.8-0.32
					s-0.29-0.52-0.29-0.92v-2.12h0.55v1.86c0,0.17,0.01,0.31,0.02,0.43s0.05,0.22,0.1,0.3c0.05,0.09,0.12,0.15,0.21,0.19
					s0.21,0.06,0.37,0.06c0.14,0,0.3-0.04,0.47-0.11s0.33-0.17,0.47-0.28v-2.44h0.55V45.88z"/>
				<path d="M148.16,45.85c-0.1,0.03-0.22,0.05-0.34,0.07s-0.23,0.03-0.33,0.03c-0.33,0-0.59-0.09-0.76-0.27s-0.26-0.47-0.26-0.86
					v-1.74h-0.37v-0.46h0.37v-0.94h0.55v0.94h1.14v0.46h-1.14v1.49c0,0.17,0,0.31,0.01,0.4s0.04,0.19,0.08,0.27
					c0.04,0.08,0.1,0.13,0.18,0.17s0.19,0.05,0.34,0.05c0.09,0,0.18-0.01,0.28-0.04s0.17-0.05,0.21-0.07h0.03V45.85z"/>
				<path d="M149.39,45.88h-0.55v-4.56h0.55V45.88z"/>
				<path d="M151.07,42.06h-0.62v-0.57h0.62V42.06z M151.03,45.88h-0.55v-3.27h0.55V45.88z"/>
				<path d="M154.54,45.68c-0.18,0.09-0.36,0.16-0.52,0.21s-0.34,0.07-0.53,0.07c-0.24,0-0.45-0.04-0.65-0.1s-0.37-0.17-0.51-0.31
					c-0.14-0.14-0.25-0.32-0.33-0.53s-0.12-0.47-0.12-0.75c0-0.54,0.15-0.96,0.44-1.26s0.68-0.46,1.16-0.46
					c0.19,0,0.37,0.03,0.55,0.08s0.35,0.12,0.5,0.19v0.61h-0.03c-0.17-0.13-0.34-0.23-0.52-0.3s-0.35-0.11-0.52-0.11
					c-0.31,0-0.56,0.1-0.74,0.31s-0.27,0.52-0.27,0.92c0,0.39,0.09,0.7,0.27,0.91s0.42,0.32,0.75,0.32c0.11,0,0.22-0.01,0.34-0.04
					s0.22-0.07,0.31-0.11c0.08-0.04,0.16-0.08,0.23-0.13s0.13-0.08,0.17-0.12h0.03V45.68z"/>
				<path d="M157.99,45.88h-0.55v-1.86c0-0.15-0.01-0.29-0.03-0.42s-0.05-0.23-0.1-0.31c-0.05-0.08-0.12-0.14-0.21-0.18
					s-0.21-0.06-0.36-0.06c-0.15,0-0.31,0.04-0.47,0.11s-0.32,0.17-0.47,0.28v2.44h-0.55v-4.56h0.55v1.65
					c0.17-0.14,0.35-0.25,0.53-0.33s0.37-0.12,0.57-0.12c0.35,0,0.62,0.11,0.81,0.32s0.28,0.52,0.28,0.92V45.88z"/>
				<path d="M137.42,49.81l-1.32,3.27h-0.55l-1.31-3.27h0.6l1.01,2.6l1-2.6H137.42z"/>
				<path d="M140.83,51.5h-2.41c0,0.2,0.03,0.38,0.09,0.53s0.14,0.27,0.25,0.37c0.1,0.09,0.22,0.16,0.36,0.21s0.29,0.07,0.46,0.07
					c0.22,0,0.45-0.04,0.67-0.13s0.39-0.18,0.48-0.26h0.03v0.6c-0.19,0.08-0.38,0.14-0.57,0.2s-0.4,0.08-0.61,0.08
					c-0.54,0-0.97-0.15-1.27-0.44s-0.46-0.71-0.46-1.25c0-0.54,0.15-0.96,0.44-1.27s0.68-0.47,1.15-0.47c0.44,0,0.78,0.13,1.02,0.39
					s0.36,0.62,0.36,1.1V51.5z M140.29,51.08c0-0.29-0.07-0.51-0.22-0.67s-0.36-0.24-0.66-0.24c-0.29,0-0.53,0.09-0.7,0.26
					s-0.27,0.39-0.3,0.65H140.29z"/>
				<path d="M143.71,50.41h-0.03c-0.08-0.02-0.16-0.03-0.24-0.04s-0.17-0.01-0.27-0.01c-0.17,0-0.33,0.04-0.49,0.11
					s-0.31,0.17-0.46,0.29v2.32h-0.55v-3.27h0.55v0.48c0.22-0.18,0.41-0.3,0.58-0.37s0.34-0.11,0.51-0.11c0.1,0,0.17,0,0.21,0.01
					s0.11,0.01,0.19,0.03V50.41z"/>
				<path d="M146.56,52.14c0,0.3-0.12,0.54-0.37,0.74s-0.58,0.29-1.01,0.29c-0.24,0-0.46-0.03-0.67-0.09s-0.37-0.12-0.51-0.19v-0.62
					h0.03c0.17,0.13,0.37,0.23,0.58,0.31s0.42,0.12,0.61,0.12c0.24,0,0.43-0.04,0.57-0.12s0.21-0.2,0.21-0.37
					c0-0.13-0.04-0.23-0.11-0.29s-0.22-0.12-0.43-0.17c-0.08-0.02-0.18-0.04-0.31-0.06s-0.24-0.05-0.34-0.08
					c-0.29-0.08-0.49-0.19-0.61-0.34s-0.18-0.33-0.18-0.54c0-0.13,0.03-0.26,0.08-0.38s0.14-0.23,0.25-0.32
					c0.11-0.09,0.25-0.17,0.42-0.22s0.36-0.08,0.57-0.08c0.2,0,0.39,0.02,0.59,0.07s0.37,0.11,0.5,0.17v0.59h-0.03
					c-0.14-0.1-0.31-0.19-0.51-0.26s-0.4-0.11-0.59-0.11c-0.2,0-0.37,0.04-0.51,0.12s-0.21,0.19-0.21,0.34
					c0,0.13,0.04,0.24,0.13,0.3c0.08,0.07,0.21,0.12,0.4,0.17c0.1,0.02,0.22,0.05,0.34,0.07s0.23,0.04,0.31,0.06
					c0.26,0.06,0.45,0.16,0.59,0.3C146.49,51.71,146.56,51.9,146.56,52.14z"/>
				<path d="M150.23,51.4c0,0.27-0.04,0.51-0.11,0.73s-0.18,0.41-0.32,0.56c-0.13,0.14-0.28,0.26-0.46,0.33s-0.36,0.12-0.56,0.12
					c-0.17,0-0.32-0.02-0.46-0.06s-0.28-0.09-0.42-0.17v1.37h-0.55v-4.48h0.55v0.34c0.15-0.12,0.31-0.23,0.49-0.31
					s0.38-0.12,0.58-0.12c0.39,0,0.7,0.15,0.92,0.45S150.23,50.88,150.23,51.4z M149.66,51.42c0-0.39-0.07-0.69-0.2-0.88
					s-0.34-0.29-0.62-0.29c-0.16,0-0.32,0.03-0.48,0.1s-0.31,0.16-0.46,0.27v1.85c0.16,0.07,0.29,0.12,0.4,0.14s0.24,0.04,0.38,0.04
					c0.31,0,0.55-0.1,0.72-0.31S149.66,51.83,149.66,51.42z"/>
				<path d="M153.8,53.08h-0.55v-0.36c-0.19,0.15-0.36,0.26-0.53,0.34s-0.36,0.12-0.56,0.12c-0.34,0-0.61-0.11-0.8-0.32
					s-0.29-0.52-0.29-0.92v-2.12h0.55v1.86c0,0.17,0.01,0.31,0.02,0.43s0.05,0.22,0.1,0.3c0.05,0.09,0.12,0.15,0.21,0.19
					s0.21,0.06,0.37,0.06c0.14,0,0.3-0.04,0.47-0.11s0.33-0.17,0.47-0.28v-2.44h0.55V53.08z M152.13,49.26h-0.58v-0.57h0.58V49.26z
					 M153.34,49.26h-0.58v-0.57h0.58V49.26z"/>
				<path d="M156.93,50.41h-0.03c-0.08-0.02-0.16-0.03-0.24-0.04s-0.17-0.01-0.27-0.01c-0.17,0-0.33,0.04-0.49,0.11
					s-0.31,0.17-0.46,0.29v2.32h-0.55v-3.27h0.55v0.48c0.22-0.18,0.41-0.3,0.58-0.37s0.34-0.11,0.51-0.11c0.1,0,0.17,0,0.21,0.01
					s0.11,0.01,0.19,0.03V50.41z"/>
				<path d="M159.15,53.05c-0.1,0.03-0.22,0.05-0.34,0.07s-0.23,0.03-0.33,0.03c-0.33,0-0.59-0.09-0.76-0.27s-0.26-0.47-0.26-0.86
					v-1.74h-0.37v-0.46h0.37v-0.94h0.55v0.94h1.14v0.46h-1.14v1.49c0,0.17,0,0.31,0.01,0.4s0.04,0.19,0.08,0.27
					c0.04,0.08,0.1,0.13,0.18,0.17s0.19,0.05,0.34,0.05c0.09,0,0.18-0.01,0.28-0.04s0.17-0.05,0.21-0.07h0.03V53.05z"/>
			</g>
		</g>
		<g>
			<g>
				<path d="M181.87,44.94c0,0.3-0.12,0.54-0.37,0.74s-0.58,0.29-1.01,0.29c-0.24,0-0.46-0.03-0.67-0.09s-0.37-0.12-0.51-0.19v-0.62
					h0.03c0.17,0.13,0.37,0.24,0.58,0.31s0.42,0.12,0.61,0.12c0.24,0,0.43-0.04,0.57-0.12s0.21-0.2,0.21-0.37
					c0-0.13-0.04-0.23-0.11-0.29s-0.22-0.12-0.43-0.17c-0.08-0.02-0.18-0.04-0.31-0.06s-0.24-0.05-0.34-0.08
					c-0.29-0.08-0.49-0.19-0.61-0.33s-0.18-0.33-0.18-0.54c0-0.13,0.03-0.26,0.08-0.38s0.14-0.23,0.25-0.32
					c0.11-0.09,0.25-0.16,0.42-0.22s0.36-0.08,0.57-0.08c0.2,0,0.39,0.02,0.59,0.07s0.37,0.11,0.5,0.17v0.59h-0.03
					c-0.14-0.1-0.31-0.19-0.51-0.26s-0.4-0.11-0.59-0.11c-0.2,0-0.37,0.04-0.51,0.12s-0.21,0.19-0.21,0.34
					c0,0.13,0.04,0.24,0.13,0.3c0.08,0.07,0.21,0.12,0.4,0.17c0.1,0.02,0.21,0.05,0.34,0.07s0.23,0.04,0.32,0.06
					c0.26,0.06,0.45,0.16,0.59,0.3C181.8,44.51,181.87,44.7,181.87,44.94z"/>
				<path d="M184.36,45.85c-0.1,0.03-0.22,0.05-0.34,0.07s-0.23,0.03-0.33,0.03c-0.33,0-0.59-0.09-0.76-0.27s-0.26-0.47-0.26-0.86
					v-1.74h-0.37v-0.46h0.37v-0.94h0.55v0.94h1.14v0.46h-1.14v1.49c0,0.17,0,0.31,0.01,0.4s0.04,0.19,0.08,0.27
					c0.04,0.08,0.1,0.14,0.18,0.17s0.19,0.05,0.34,0.05c0.09,0,0.18-0.01,0.28-0.04s0.17-0.05,0.21-0.07h0.03V45.85z"/>
				<path d="M187.57,45.88h-0.55v-0.35c-0.05,0.03-0.12,0.08-0.2,0.14s-0.16,0.11-0.24,0.14c-0.09,0.04-0.2,0.08-0.32,0.11
					s-0.26,0.04-0.42,0.04c-0.29,0-0.54-0.1-0.75-0.29s-0.31-0.44-0.31-0.75c0-0.25,0.05-0.45,0.16-0.6s0.26-0.27,0.46-0.36
					c0.2-0.09,0.44-0.15,0.72-0.18s0.58-0.05,0.9-0.07v-0.08c0-0.12-0.02-0.23-0.07-0.31s-0.11-0.15-0.19-0.19
					c-0.08-0.04-0.17-0.08-0.28-0.09s-0.22-0.02-0.34-0.02c-0.14,0-0.31,0.02-0.48,0.06s-0.36,0.09-0.55,0.17h-0.03v-0.56
					c0.11-0.03,0.26-0.06,0.47-0.1s0.4-0.05,0.6-0.05c0.23,0,0.43,0.02,0.6,0.06s0.32,0.1,0.44,0.19c0.12,0.09,0.22,0.21,0.28,0.35
					s0.1,0.32,0.1,0.53V45.88z M187.02,45.07v-0.91c-0.17,0.01-0.37,0.02-0.59,0.04s-0.41,0.05-0.54,0.08
					c-0.16,0.04-0.29,0.12-0.38,0.21s-0.15,0.22-0.15,0.39c0,0.19,0.06,0.33,0.17,0.42s0.29,0.14,0.52,0.14
					c0.19,0,0.37-0.04,0.53-0.11S186.88,45.18,187.02,45.07z"/>
				<path d="M190.67,43.21h-0.03c-0.08-0.02-0.16-0.03-0.24-0.04s-0.17-0.01-0.27-0.01c-0.17,0-0.33,0.04-0.49,0.11
					s-0.31,0.17-0.46,0.29v2.32h-0.55v-3.27h0.55v0.48c0.22-0.18,0.41-0.3,0.58-0.37s0.34-0.11,0.51-0.11c0.1,0,0.17,0,0.21,0.01
					s0.11,0.01,0.19,0.03V43.21z"/>
				<path d="M194.16,45.88h-0.73l-1.31-1.43l-0.36,0.34v1.09h-0.55v-4.56h0.55v2.92l1.59-1.64h0.69l-1.52,1.51L194.16,45.88z"/>
				<path d="M177.36,49.81l-1.32,3.27h-0.55l-1.32-3.27h0.6l1.01,2.6l1-2.6H177.36z"/>
				<path d="M180.77,51.5h-2.41c0,0.2,0.03,0.38,0.09,0.53s0.14,0.27,0.25,0.37c0.1,0.09,0.22,0.16,0.36,0.21s0.29,0.07,0.46,0.07
					c0.22,0,0.45-0.04,0.67-0.13s0.39-0.18,0.48-0.26h0.03v0.6c-0.19,0.08-0.38,0.14-0.57,0.2s-0.4,0.08-0.61,0.08
					c-0.54,0-0.97-0.15-1.27-0.44s-0.46-0.71-0.46-1.25c0-0.54,0.15-0.96,0.44-1.27s0.68-0.47,1.15-0.47c0.44,0,0.78,0.13,1.02,0.39
					s0.36,0.62,0.36,1.1V51.5z M180.23,51.08c0-0.29-0.08-0.51-0.22-0.67s-0.36-0.24-0.65-0.24c-0.29,0-0.53,0.09-0.71,0.26
					s-0.27,0.39-0.3,0.65H180.23z"/>
				<path d="M183.64,50.41h-0.03c-0.08-0.02-0.16-0.03-0.24-0.04s-0.17-0.01-0.27-0.01c-0.17,0-0.33,0.04-0.49,0.11
					s-0.31,0.17-0.46,0.29v2.32h-0.55v-3.27h0.55v0.48c0.22-0.18,0.41-0.3,0.58-0.37s0.34-0.11,0.51-0.11c0.1,0,0.17,0,0.21,0.01
					s0.11,0.01,0.19,0.03V50.41z"/>
				<path d="M186.5,52.14c0,0.3-0.12,0.54-0.37,0.74s-0.58,0.29-1.01,0.29c-0.24,0-0.46-0.03-0.67-0.09s-0.37-0.12-0.51-0.19v-0.62
					h0.03c0.17,0.13,0.37,0.24,0.58,0.31s0.42,0.12,0.61,0.12c0.24,0,0.43-0.04,0.57-0.12s0.21-0.2,0.21-0.37
					c0-0.13-0.04-0.23-0.11-0.29s-0.22-0.12-0.43-0.17c-0.08-0.02-0.18-0.04-0.31-0.06s-0.24-0.05-0.34-0.08
					c-0.29-0.08-0.49-0.19-0.61-0.33s-0.18-0.33-0.18-0.54c0-0.13,0.03-0.26,0.08-0.38s0.14-0.23,0.25-0.32
					c0.11-0.09,0.25-0.16,0.42-0.22s0.36-0.08,0.57-0.08c0.2,0,0.39,0.02,0.59,0.07s0.37,0.11,0.5,0.17v0.59h-0.03
					c-0.14-0.1-0.31-0.19-0.51-0.26s-0.4-0.11-0.59-0.11c-0.2,0-0.37,0.04-0.51,0.12s-0.21,0.19-0.21,0.34
					c0,0.13,0.04,0.24,0.13,0.3c0.08,0.07,0.21,0.12,0.4,0.17c0.1,0.02,0.21,0.05,0.34,0.07s0.23,0.04,0.32,0.06
					c0.26,0.06,0.45,0.16,0.59,0.3C186.43,51.71,186.5,51.9,186.5,52.14z"/>
				<path d="M190.17,51.4c0,0.27-0.04,0.51-0.11,0.73s-0.18,0.41-0.32,0.56c-0.13,0.14-0.28,0.26-0.46,0.34s-0.36,0.12-0.55,0.12
					c-0.17,0-0.32-0.02-0.46-0.06s-0.28-0.09-0.42-0.17v1.37h-0.55v-4.48h0.55v0.34c0.15-0.12,0.31-0.23,0.49-0.31
					s0.38-0.12,0.58-0.12c0.39,0,0.7,0.15,0.92,0.45S190.17,50.88,190.17,51.4z M189.6,51.42c0-0.39-0.07-0.69-0.2-0.88
					s-0.34-0.29-0.62-0.29c-0.16,0-0.32,0.03-0.48,0.1s-0.31,0.16-0.46,0.27v1.85c0.16,0.07,0.29,0.12,0.4,0.14s0.24,0.04,0.38,0.04
					c0.31,0,0.55-0.1,0.72-0.31S189.6,51.83,189.6,51.42z"/>
				<path d="M193.74,53.08h-0.55v-0.36c-0.19,0.15-0.36,0.26-0.53,0.34s-0.36,0.12-0.56,0.12c-0.34,0-0.61-0.1-0.8-0.31
					S191,52.34,191,51.93v-2.12h0.55v1.86c0,0.17,0.01,0.31,0.02,0.43s0.05,0.22,0.1,0.3c0.05,0.09,0.12,0.15,0.21,0.19
					s0.21,0.06,0.37,0.06c0.14,0,0.3-0.04,0.47-0.11s0.33-0.17,0.47-0.28v-2.44h0.55V53.08z M192.07,49.26h-0.58v-0.57h0.58V49.26z
					 M193.28,49.26h-0.58v-0.57h0.58V49.26z"/>
				<path d="M196.86,50.41h-0.03c-0.08-0.02-0.16-0.03-0.24-0.04s-0.17-0.01-0.27-0.01c-0.17,0-0.33,0.04-0.49,0.11
					s-0.31,0.17-0.46,0.29v2.32h-0.55v-3.27h0.55v0.48c0.22-0.18,0.41-0.3,0.58-0.37s0.34-0.11,0.51-0.11c0.1,0,0.17,0,0.21,0.01
					s0.11,0.01,0.19,0.03V50.41z"/>
				<path d="M199.08,53.05c-0.1,0.03-0.22,0.05-0.34,0.07s-0.23,0.03-0.33,0.03c-0.33,0-0.59-0.09-0.76-0.27s-0.26-0.47-0.26-0.86
					v-1.74h-0.37v-0.46h0.37v-0.94h0.55v0.94h1.14v0.46h-1.14v1.49c0,0.17,0,0.31,0.01,0.4s0.04,0.19,0.08,0.27
					c0.04,0.08,0.1,0.14,0.18,0.17s0.19,0.05,0.34,0.05c0.09,0,0.18-0.01,0.28-0.04s0.17-0.05,0.21-0.07h0.03V53.05z"/>
			</g>
		</g>
		<g>
			<g>
				<path d="M217.76,42.28h-0.55v-4.56h0.55V42.28z"/>
				<path d="M221.59,40.7h-2.41c0,0.2,0.03,0.38,0.09,0.53s0.14,0.27,0.25,0.37c0.1,0.09,0.22,0.16,0.36,0.21s0.29,0.07,0.46,0.07
					c0.22,0,0.45-0.04,0.67-0.13s0.39-0.18,0.48-0.26h0.03v0.6c-0.19,0.08-0.38,0.14-0.57,0.2s-0.4,0.08-0.61,0.08
					c-0.54,0-0.97-0.15-1.27-0.44s-0.46-0.71-0.46-1.25c0-0.54,0.15-0.96,0.44-1.27s0.68-0.47,1.15-0.47c0.44,0,0.78,0.13,1.02,0.39
					s0.36,0.62,0.36,1.1V40.7z M221.06,40.28c0-0.29-0.08-0.51-0.22-0.67s-0.36-0.24-0.65-0.24c-0.29,0-0.53,0.09-0.71,0.26
					s-0.27,0.39-0.3,0.65H221.06z"/>
				<path d="M223.02,38.46h-0.62v-0.57h0.62V38.46z M222.98,42.28h-0.55v-3.27h0.55V42.28z"/>
				<path d="M226.49,42.07c-0.18,0.09-0.36,0.16-0.52,0.21s-0.34,0.07-0.53,0.07c-0.24,0-0.45-0.03-0.65-0.1s-0.37-0.17-0.51-0.32
					c-0.14-0.14-0.25-0.32-0.33-0.53s-0.12-0.47-0.12-0.75c0-0.54,0.15-0.96,0.44-1.26s0.68-0.46,1.17-0.46
					c0.19,0,0.37,0.03,0.55,0.08s0.35,0.12,0.5,0.19v0.61h-0.03c-0.17-0.13-0.34-0.23-0.52-0.3s-0.35-0.11-0.52-0.11
					c-0.31,0-0.56,0.11-0.74,0.32s-0.27,0.52-0.27,0.92c0,0.39,0.09,0.7,0.26,0.91s0.43,0.32,0.75,0.32c0.11,0,0.22-0.01,0.34-0.04
					s0.22-0.07,0.31-0.11c0.08-0.04,0.16-0.08,0.23-0.13s0.13-0.09,0.17-0.12h0.03V42.07z"/>
				<path d="M229.94,42.28h-0.55v-1.86c0-0.15-0.01-0.29-0.03-0.42s-0.05-0.24-0.1-0.31c-0.05-0.08-0.12-0.14-0.21-0.18
					s-0.21-0.06-0.36-0.06c-0.15,0-0.31,0.04-0.47,0.11s-0.32,0.17-0.47,0.28v2.44h-0.55v-4.56h0.55v1.65
					c0.17-0.14,0.35-0.25,0.53-0.33s0.37-0.12,0.57-0.12c0.35,0,0.62,0.11,0.81,0.32s0.28,0.52,0.28,0.92V42.28z"/>
				<path d="M232.7,42.25c-0.1,0.03-0.22,0.05-0.34,0.07s-0.23,0.03-0.33,0.03c-0.33,0-0.59-0.09-0.76-0.27s-0.26-0.47-0.26-0.86
					v-1.74h-0.37v-0.46h0.37v-0.94h0.55v0.94h1.14v0.46h-1.14v1.49c0,0.17,0,0.31,0.01,0.4s0.04,0.19,0.08,0.27
					c0.04,0.08,0.1,0.14,0.18,0.17s0.19,0.05,0.34,0.05c0.09,0,0.18-0.01,0.28-0.04s0.17-0.05,0.21-0.07h0.03V42.25z"/>
				<path d="M236.1,40.7h-2.41c0,0.2,0.03,0.38,0.09,0.53s0.14,0.27,0.25,0.37c0.1,0.09,0.22,0.16,0.36,0.21s0.29,0.07,0.46,0.07
					c0.22,0,0.45-0.04,0.67-0.13s0.39-0.18,0.48-0.26h0.03v0.6c-0.19,0.08-0.38,0.14-0.57,0.2s-0.4,0.08-0.61,0.08
					c-0.54,0-0.97-0.15-1.27-0.44s-0.46-0.71-0.46-1.25c0-0.54,0.15-0.96,0.44-1.27s0.68-0.47,1.15-0.47c0.44,0,0.78,0.13,1.02,0.39
					s0.36,0.62,0.36,1.1V40.7z M235.56,40.28c0-0.29-0.08-0.51-0.22-0.67s-0.36-0.24-0.65-0.24c-0.29,0-0.53,0.09-0.71,0.26
					s-0.27,0.39-0.3,0.65H235.56z"/>
				<path d="M216.05,49.16c-0.24,0.11-0.5,0.21-0.78,0.29s-0.55,0.12-0.82,0.12c-0.34,0-0.65-0.05-0.93-0.14s-0.52-0.23-0.72-0.42
					c-0.2-0.19-0.36-0.43-0.47-0.71s-0.16-0.62-0.16-1c0-0.7,0.2-1.25,0.61-1.65s0.97-0.61,1.68-0.61c0.25,0,0.5,0.03,0.76,0.09
					s0.54,0.16,0.84,0.3v0.69H216c-0.06-0.05-0.15-0.11-0.26-0.18s-0.23-0.14-0.34-0.19c-0.13-0.06-0.29-0.11-0.46-0.15
					s-0.36-0.06-0.58-0.06c-0.49,0-0.88,0.16-1.16,0.47s-0.43,0.74-0.43,1.27c0,0.56,0.15,1,0.45,1.32s0.7,0.47,1.21,0.47
					c0.19,0,0.37-0.02,0.56-0.06s0.35-0.08,0.49-0.14V47.8h-1.17v-0.51h1.74V49.16z"/>
				<path d="M219.76,47.9h-2.41c0,0.2,0.03,0.38,0.09,0.53s0.14,0.27,0.25,0.37c0.1,0.09,0.22,0.16,0.36,0.21s0.29,0.07,0.46,0.07
					c0.22,0,0.45-0.04,0.67-0.13s0.39-0.18,0.48-0.26h0.03v0.6c-0.19,0.08-0.38,0.14-0.57,0.2s-0.4,0.08-0.61,0.08
					c-0.54,0-0.97-0.15-1.27-0.44s-0.46-0.71-0.46-1.25c0-0.54,0.15-0.96,0.44-1.27s0.68-0.47,1.15-0.47c0.44,0,0.78,0.13,1.02,0.39
					s0.36,0.62,0.36,1.1V47.9z M219.22,47.48c0-0.29-0.08-0.51-0.22-0.67s-0.36-0.24-0.65-0.24c-0.29,0-0.53,0.09-0.71,0.26
					s-0.27,0.39-0.3,0.65H219.22z"/>
				<path d="M223.48,47.82c0,0.27-0.04,0.52-0.12,0.74s-0.18,0.4-0.31,0.55c-0.14,0.15-0.29,0.27-0.46,0.35s-0.35,0.12-0.55,0.12
					c-0.19,0-0.35-0.02-0.49-0.07s-0.28-0.1-0.41-0.18l-0.04,0.15h-0.52v-4.56h0.55v1.63c0.15-0.13,0.32-0.23,0.49-0.31
					s0.37-0.12,0.59-0.12c0.39,0,0.69,0.15,0.92,0.45S223.48,47.28,223.48,47.82z M222.91,47.83c0-0.39-0.06-0.69-0.19-0.89
					s-0.34-0.3-0.62-0.3c-0.16,0-0.32,0.04-0.49,0.1s-0.32,0.16-0.46,0.27v1.88c0.16,0.07,0.29,0.12,0.4,0.15s0.24,0.04,0.38,0.04
					c0.3,0,0.54-0.1,0.72-0.3S222.91,48.26,222.91,47.83z"/>
				<path d="M226.88,49.48h-0.55v-0.35c-0.05,0.03-0.12,0.08-0.2,0.14s-0.16,0.11-0.24,0.14c-0.09,0.04-0.2,0.08-0.32,0.11
					s-0.26,0.04-0.42,0.04c-0.29,0-0.54-0.1-0.75-0.29s-0.31-0.44-0.31-0.75c0-0.25,0.05-0.45,0.16-0.6s0.26-0.27,0.46-0.36
					c0.2-0.09,0.44-0.15,0.72-0.18s0.58-0.05,0.9-0.07v-0.08c0-0.12-0.02-0.23-0.07-0.31s-0.11-0.15-0.19-0.19
					c-0.08-0.04-0.17-0.08-0.28-0.09s-0.22-0.02-0.34-0.02c-0.14,0-0.31,0.02-0.48,0.06s-0.36,0.09-0.55,0.17h-0.03v-0.56
					c0.11-0.03,0.26-0.06,0.47-0.1s0.4-0.05,0.6-0.05c0.23,0,0.43,0.02,0.6,0.06s0.32,0.1,0.44,0.19c0.12,0.09,0.22,0.21,0.28,0.35
					s0.1,0.32,0.1,0.53V49.48z M226.33,48.67v-0.91c-0.17,0.01-0.37,0.02-0.59,0.04s-0.41,0.05-0.54,0.08
					c-0.16,0.04-0.29,0.12-0.38,0.21s-0.15,0.22-0.15,0.39c0,0.19,0.06,0.33,0.17,0.42s0.29,0.14,0.52,0.14
					c0.19,0,0.37-0.04,0.53-0.11S226.19,48.78,226.33,48.67z M225.29,45.66h-0.58v-0.57h0.58V45.66z M226.5,45.66h-0.58v-0.57h0.58
					V45.66z"/>
				<path d="M230.65,49.48h-0.55v-0.36c-0.19,0.15-0.36,0.26-0.53,0.34s-0.36,0.12-0.56,0.12c-0.34,0-0.61-0.1-0.8-0.31
					s-0.29-0.52-0.29-0.92v-2.12h0.55v1.86c0,0.17,0.01,0.31,0.02,0.43s0.05,0.22,0.1,0.3c0.05,0.09,0.12,0.15,0.21,0.19
					s0.21,0.06,0.37,0.06c0.14,0,0.3-0.04,0.47-0.11s0.33-0.17,0.47-0.28v-2.44h0.55V49.48z"/>
				<path d="M234.39,49.48h-0.55v-0.34c-0.16,0.14-0.32,0.24-0.5,0.32s-0.36,0.11-0.56,0.11c-0.39,0-0.7-0.15-0.93-0.45
					s-0.34-0.72-0.34-1.25c0-0.28,0.04-0.52,0.12-0.74s0.19-0.4,0.32-0.55c0.13-0.15,0.29-0.26,0.46-0.34s0.36-0.12,0.55-0.12
					c0.17,0,0.32,0.02,0.46,0.05s0.27,0.09,0.42,0.17v-1.42h0.55V49.48z M233.84,48.67V46.8c-0.15-0.07-0.28-0.11-0.4-0.14
					s-0.25-0.04-0.38-0.04c-0.31,0-0.55,0.11-0.72,0.32s-0.26,0.52-0.26,0.91c0,0.39,0.07,0.68,0.2,0.89s0.35,0.3,0.64,0.3
					c0.16,0,0.31-0.03,0.47-0.1S233.7,48.78,233.84,48.67z"/>
				<path d="M238.21,47.9h-2.41c0,0.2,0.03,0.38,0.09,0.53s0.14,0.27,0.25,0.37c0.1,0.09,0.22,0.16,0.36,0.21s0.29,0.07,0.46,0.07
					c0.22,0,0.45-0.04,0.67-0.13s0.39-0.18,0.48-0.26h0.03v0.6c-0.19,0.08-0.38,0.14-0.57,0.2s-0.4,0.08-0.61,0.08
					c-0.54,0-0.97-0.15-1.27-0.44s-0.46-0.71-0.46-1.25c0-0.54,0.15-0.96,0.44-1.27s0.68-0.47,1.15-0.47c0.44,0,0.78,0.13,1.02,0.39
					s0.36,0.62,0.36,1.1V47.9z M237.68,47.48c0-0.29-0.08-0.51-0.22-0.67s-0.36-0.24-0.65-0.24c-0.29,0-0.53,0.09-0.71,0.26
					s-0.27,0.39-0.3,0.65H237.68z"/>
				<path d="M240.78,47.84h-1.83v-0.53h1.83V47.84z"/>
				<path d="M217.03,55.74c0,0.3-0.12,0.54-0.37,0.74s-0.58,0.29-1.01,0.29c-0.24,0-0.46-0.03-0.67-0.09s-0.37-0.12-0.51-0.19v-0.62
					h0.03c0.17,0.13,0.37,0.23,0.58,0.31s0.42,0.12,0.61,0.12c0.24,0,0.43-0.04,0.57-0.12s0.21-0.2,0.21-0.37
					c0-0.13-0.04-0.23-0.11-0.29s-0.22-0.12-0.43-0.17c-0.08-0.02-0.18-0.04-0.31-0.06s-0.24-0.05-0.34-0.08
					c-0.29-0.08-0.49-0.19-0.61-0.34s-0.18-0.33-0.18-0.54c0-0.13,0.03-0.26,0.08-0.38s0.14-0.23,0.25-0.32
					c0.11-0.09,0.25-0.17,0.42-0.22s0.36-0.08,0.57-0.08c0.2,0,0.39,0.02,0.59,0.07s0.37,0.11,0.5,0.17v0.59h-0.03
					c-0.14-0.1-0.31-0.19-0.51-0.26s-0.4-0.11-0.59-0.11c-0.2,0-0.37,0.04-0.51,0.12s-0.21,0.19-0.21,0.34
					c0,0.13,0.04,0.24,0.13,0.3c0.08,0.07,0.21,0.12,0.4,0.17c0.1,0.02,0.21,0.05,0.34,0.07s0.23,0.04,0.32,0.06
					c0.26,0.06,0.45,0.16,0.59,0.3C216.96,55.31,217.03,55.5,217.03,55.74z"/>
				<path d="M220.24,56.47c-0.18,0.09-0.36,0.16-0.52,0.21s-0.34,0.07-0.53,0.07c-0.24,0-0.45-0.04-0.65-0.1s-0.37-0.17-0.51-0.31
					c-0.14-0.14-0.25-0.32-0.33-0.53s-0.12-0.47-0.12-0.75c0-0.54,0.15-0.96,0.44-1.26s0.68-0.46,1.17-0.46
					c0.19,0,0.37,0.03,0.55,0.08s0.35,0.12,0.5,0.19v0.61h-0.03c-0.17-0.13-0.34-0.23-0.52-0.3s-0.35-0.11-0.52-0.11
					c-0.31,0-0.56,0.1-0.74,0.31s-0.27,0.52-0.27,0.92c0,0.39,0.09,0.7,0.26,0.91s0.43,0.32,0.75,0.32c0.11,0,0.22-0.01,0.34-0.04
					s0.22-0.07,0.31-0.11c0.08-0.04,0.16-0.08,0.23-0.13s0.13-0.08,0.17-0.12h0.03V56.47z"/>
				<path d="M223.68,56.68h-0.55v-1.86c0-0.15-0.01-0.29-0.03-0.42s-0.05-0.23-0.1-0.31c-0.05-0.08-0.12-0.14-0.21-0.18
					s-0.21-0.06-0.36-0.06c-0.15,0-0.31,0.04-0.47,0.11s-0.32,0.17-0.47,0.28v2.44h-0.55v-4.56h0.55v1.65
					c0.17-0.14,0.35-0.25,0.53-0.33s0.37-0.12,0.57-0.12c0.35,0,0.62,0.11,0.81,0.32s0.28,0.52,0.28,0.92V56.68z"/>
				<path d="M227.28,56.68h-0.55v-0.35c-0.05,0.03-0.12,0.08-0.2,0.14s-0.16,0.11-0.24,0.14c-0.09,0.04-0.2,0.08-0.32,0.11
					s-0.26,0.05-0.42,0.05c-0.29,0-0.54-0.1-0.75-0.29s-0.31-0.44-0.31-0.75c0-0.25,0.05-0.45,0.16-0.6s0.26-0.27,0.46-0.36
					c0.2-0.09,0.44-0.15,0.72-0.18s0.58-0.05,0.9-0.07v-0.08c0-0.12-0.02-0.23-0.07-0.31s-0.11-0.15-0.19-0.19
					c-0.08-0.04-0.17-0.08-0.28-0.09s-0.22-0.02-0.34-0.02c-0.14,0-0.31,0.02-0.48,0.06s-0.36,0.09-0.55,0.17h-0.03v-0.56
					c0.11-0.03,0.26-0.06,0.47-0.1s0.4-0.05,0.6-0.05c0.23,0,0.43,0.02,0.6,0.06s0.32,0.1,0.44,0.2c0.12,0.09,0.22,0.21,0.28,0.35
					s0.1,0.32,0.1,0.53V56.68z M226.73,55.87v-0.91c-0.17,0.01-0.37,0.02-0.59,0.04s-0.41,0.05-0.54,0.08
					c-0.16,0.04-0.29,0.11-0.38,0.21s-0.15,0.23-0.15,0.39c0,0.19,0.06,0.33,0.17,0.42s0.29,0.14,0.52,0.14
					c0.19,0,0.37-0.04,0.53-0.11S226.6,55.98,226.73,55.87z M225.7,52.86h-0.58v-0.57h0.58V52.86z M226.91,52.86h-0.58v-0.57h0.58
					V52.86z"/>
				<path d="M231,56.68h-0.55v-0.34c-0.16,0.14-0.32,0.24-0.5,0.32s-0.36,0.11-0.56,0.11c-0.39,0-0.7-0.15-0.93-0.45
					s-0.34-0.72-0.34-1.25c0-0.28,0.04-0.52,0.12-0.74s0.19-0.4,0.32-0.55c0.13-0.15,0.29-0.26,0.46-0.34s0.36-0.12,0.55-0.12
					c0.17,0,0.32,0.02,0.46,0.05s0.27,0.09,0.42,0.17v-1.42H231V56.68z M230.45,55.87V54c-0.15-0.07-0.28-0.11-0.4-0.14
					s-0.25-0.04-0.38-0.04c-0.31,0-0.55,0.11-0.72,0.32s-0.26,0.52-0.26,0.91c0,0.39,0.07,0.68,0.2,0.89s0.35,0.3,0.64,0.3
					c0.16,0,0.31-0.04,0.47-0.1S230.31,55.98,230.45,55.87z"/>
				<path d="M234.82,55.1h-2.41c0,0.2,0.03,0.38,0.09,0.53s0.14,0.27,0.25,0.37c0.1,0.09,0.22,0.16,0.36,0.21s0.29,0.07,0.46,0.07
					c0.22,0,0.45-0.04,0.67-0.13s0.39-0.18,0.48-0.26h0.03v0.6c-0.19,0.08-0.38,0.14-0.57,0.2s-0.4,0.08-0.61,0.08
					c-0.54,0-0.97-0.15-1.27-0.44s-0.46-0.71-0.46-1.25c0-0.54,0.15-0.96,0.44-1.27s0.68-0.47,1.15-0.47c0.44,0,0.78,0.13,1.02,0.39
					s0.36,0.62,0.36,1.1V55.1z M234.28,54.68c0-0.29-0.08-0.51-0.22-0.67s-0.36-0.24-0.65-0.24c-0.29,0-0.53,0.09-0.71,0.26
					s-0.27,0.39-0.3,0.65H234.28z"/>
				<path d="M238.39,56.68h-0.55v-1.86c0-0.15-0.01-0.29-0.03-0.42s-0.05-0.23-0.1-0.31c-0.05-0.08-0.12-0.14-0.21-0.18
					s-0.21-0.06-0.36-0.06c-0.15,0-0.31,0.04-0.47,0.11s-0.32,0.17-0.47,0.28v2.44h-0.55v-3.27h0.55v0.36
					c0.17-0.14,0.35-0.25,0.53-0.33s0.37-0.12,0.57-0.12c0.35,0,0.62,0.11,0.81,0.32s0.28,0.52,0.28,0.92V56.68z"/>
			</g>
		</g>
		<g>
			<g>
				<path d="M255.99,45.56c-0.24,0.11-0.5,0.21-0.78,0.29s-0.56,0.12-0.82,0.12c-0.34,0-0.65-0.05-0.93-0.14s-0.52-0.23-0.72-0.42
					c-0.2-0.19-0.36-0.43-0.47-0.71s-0.16-0.62-0.16-1c0-0.7,0.2-1.25,0.61-1.65s0.97-0.61,1.68-0.61c0.25,0,0.5,0.03,0.76,0.09
					s0.54,0.16,0.84,0.3v0.69h-0.05c-0.06-0.05-0.15-0.11-0.26-0.18s-0.23-0.14-0.34-0.19c-0.13-0.06-0.29-0.11-0.46-0.15
					s-0.37-0.06-0.58-0.06c-0.49,0-0.87,0.16-1.16,0.47s-0.43,0.74-0.43,1.27c0,0.56,0.15,1,0.45,1.32s0.7,0.47,1.21,0.47
					c0.19,0,0.38-0.02,0.56-0.06s0.35-0.08,0.49-0.14V44.2h-1.17v-0.51h1.74V45.56z"/>
				<path d="M259.7,44.3h-2.41c0,0.2,0.03,0.38,0.09,0.53s0.14,0.27,0.25,0.37c0.1,0.09,0.22,0.16,0.36,0.21s0.29,0.07,0.46,0.07
					c0.22,0,0.45-0.04,0.67-0.13s0.39-0.18,0.48-0.26h0.03v0.6c-0.19,0.08-0.38,0.14-0.57,0.2s-0.4,0.08-0.61,0.08
					c-0.54,0-0.97-0.15-1.27-0.44s-0.46-0.71-0.46-1.25c0-0.54,0.15-0.96,0.44-1.27s0.68-0.47,1.15-0.47c0.44,0,0.78,0.13,1.02,0.39
					s0.36,0.62,0.36,1.1V44.3z M259.17,43.88c0-0.29-0.07-0.51-0.22-0.67s-0.36-0.24-0.66-0.24c-0.29,0-0.53,0.09-0.7,0.26
					s-0.27,0.39-0.3,0.65H259.17z"/>
				<path d="M263.42,44.22c0,0.27-0.04,0.52-0.12,0.74s-0.18,0.4-0.31,0.55c-0.14,0.15-0.29,0.27-0.46,0.35s-0.35,0.12-0.55,0.12
					c-0.19,0-0.35-0.02-0.49-0.07s-0.28-0.1-0.41-0.18l-0.04,0.15h-0.52v-4.56h0.55v1.63c0.15-0.13,0.32-0.23,0.49-0.31
					s0.37-0.12,0.59-0.12c0.39,0,0.69,0.15,0.92,0.45S263.42,43.68,263.42,44.22z M262.85,44.23c0-0.39-0.06-0.69-0.19-0.89
					s-0.34-0.3-0.62-0.3c-0.16,0-0.32,0.04-0.49,0.1s-0.32,0.16-0.46,0.27v1.88c0.16,0.07,0.29,0.12,0.4,0.15s0.24,0.04,0.38,0.04
					c0.3,0,0.54-0.1,0.72-0.3S262.85,44.66,262.85,44.23z"/>
				<path d="M266.82,45.88h-0.55v-0.35c-0.05,0.03-0.11,0.08-0.2,0.14s-0.16,0.11-0.24,0.14c-0.09,0.04-0.2,0.08-0.32,0.11
					s-0.26,0.04-0.42,0.04c-0.29,0-0.54-0.1-0.75-0.29s-0.31-0.44-0.31-0.75c0-0.25,0.05-0.45,0.16-0.6s0.26-0.27,0.46-0.36
					c0.2-0.09,0.44-0.15,0.72-0.18s0.58-0.05,0.9-0.07v-0.08c0-0.12-0.02-0.23-0.07-0.31s-0.11-0.15-0.19-0.19
					c-0.08-0.04-0.17-0.08-0.28-0.09s-0.22-0.02-0.34-0.02c-0.14,0-0.31,0.02-0.48,0.06s-0.36,0.09-0.55,0.17h-0.03v-0.56
					c0.11-0.03,0.26-0.06,0.47-0.1s0.4-0.05,0.6-0.05c0.23,0,0.43,0.02,0.6,0.06s0.32,0.1,0.44,0.19c0.12,0.09,0.22,0.21,0.28,0.35
					s0.1,0.32,0.1,0.53V45.88z M266.27,45.07v-0.91c-0.17,0.01-0.37,0.02-0.59,0.04s-0.41,0.05-0.54,0.08
					c-0.16,0.04-0.29,0.12-0.38,0.21s-0.15,0.22-0.15,0.39c0,0.19,0.06,0.33,0.17,0.42s0.29,0.14,0.52,0.14
					c0.19,0,0.37-0.04,0.53-0.11S266.13,45.18,266.27,45.07z M265.24,42.06h-0.58v-0.57h0.58V42.06z M266.45,42.06h-0.58v-0.57h0.58
					V42.06z"/>
				<path d="M270.59,45.88h-0.55v-0.36c-0.19,0.15-0.36,0.26-0.53,0.34s-0.36,0.12-0.56,0.12c-0.34,0-0.61-0.1-0.8-0.31
					s-0.29-0.52-0.29-0.92v-2.12h0.55v1.86c0,0.17,0.01,0.31,0.02,0.43s0.05,0.22,0.1,0.3c0.05,0.09,0.12,0.15,0.21,0.19
					s0.21,0.06,0.37,0.06c0.14,0,0.3-0.04,0.47-0.11s0.33-0.17,0.47-0.28v-2.44h0.55V45.88z"/>
				<path d="M274.33,45.88h-0.55v-0.34c-0.16,0.14-0.32,0.24-0.5,0.32s-0.36,0.11-0.56,0.11c-0.39,0-0.7-0.15-0.93-0.45
					s-0.34-0.72-0.34-1.25c0-0.28,0.04-0.52,0.12-0.74s0.19-0.4,0.32-0.55c0.13-0.15,0.29-0.26,0.46-0.34s0.36-0.12,0.55-0.12
					c0.17,0,0.32,0.02,0.46,0.05s0.27,0.09,0.42,0.17v-1.42h0.55V45.88z M273.78,45.07V43.2c-0.15-0.07-0.28-0.11-0.4-0.14
					s-0.25-0.04-0.38-0.04c-0.31,0-0.55,0.11-0.72,0.32s-0.26,0.52-0.26,0.91c0,0.39,0.07,0.68,0.2,0.89s0.35,0.3,0.64,0.3
					c0.16,0,0.31-0.03,0.47-0.1S273.64,45.18,273.78,45.07z"/>
				<path d="M278.15,44.3h-2.41c0,0.2,0.03,0.38,0.09,0.53s0.14,0.27,0.25,0.37c0.1,0.09,0.22,0.16,0.36,0.21s0.29,0.07,0.46,0.07
					c0.22,0,0.45-0.04,0.67-0.13s0.39-0.18,0.48-0.26h0.03v0.6c-0.19,0.08-0.38,0.14-0.57,0.2s-0.4,0.08-0.61,0.08
					c-0.54,0-0.97-0.15-1.27-0.44s-0.46-0.71-0.46-1.25c0-0.54,0.15-0.96,0.44-1.27s0.68-0.47,1.15-0.47c0.44,0,0.78,0.13,1.02,0.39
					s0.36,0.62,0.36,1.1V44.3z M277.62,43.88c0-0.29-0.07-0.51-0.22-0.67s-0.36-0.24-0.66-0.24c-0.29,0-0.53,0.09-0.7,0.26
					s-0.27,0.39-0.3,0.65H277.62z"/>
				<path d="M280.72,44.24h-1.83v-0.53h1.83V44.24z"/>
				<path d="M256.97,52.14c0,0.3-0.12,0.54-0.37,0.74s-0.58,0.29-1.01,0.29c-0.24,0-0.46-0.03-0.67-0.09s-0.37-0.12-0.51-0.19v-0.62
					h0.03c0.17,0.13,0.37,0.24,0.58,0.31s0.42,0.12,0.61,0.12c0.24,0,0.43-0.04,0.57-0.12s0.21-0.2,0.21-0.37
					c0-0.13-0.04-0.23-0.11-0.29s-0.22-0.12-0.43-0.17c-0.08-0.02-0.18-0.04-0.31-0.06s-0.24-0.05-0.34-0.08
					c-0.29-0.08-0.49-0.19-0.61-0.33s-0.18-0.33-0.18-0.54c0-0.13,0.03-0.26,0.08-0.38s0.14-0.23,0.25-0.32
					c0.11-0.09,0.25-0.16,0.42-0.22s0.36-0.08,0.57-0.08c0.2,0,0.39,0.02,0.59,0.07s0.37,0.11,0.5,0.17v0.59h-0.03
					c-0.14-0.1-0.31-0.19-0.51-0.26s-0.4-0.11-0.59-0.11c-0.2,0-0.37,0.04-0.51,0.12s-0.21,0.19-0.21,0.34
					c0,0.13,0.04,0.24,0.13,0.3c0.08,0.07,0.21,0.12,0.4,0.17c0.1,0.02,0.22,0.05,0.34,0.07s0.23,0.04,0.31,0.06
					c0.26,0.06,0.45,0.16,0.59,0.3C256.9,51.71,256.97,51.9,256.97,52.14z"/>
				<path d="M260.18,52.88c-0.18,0.09-0.36,0.16-0.52,0.21s-0.34,0.07-0.53,0.07c-0.24,0-0.45-0.03-0.65-0.1s-0.37-0.17-0.51-0.32
					c-0.14-0.14-0.25-0.32-0.33-0.53s-0.12-0.47-0.12-0.75c0-0.54,0.15-0.96,0.44-1.26s0.68-0.46,1.16-0.46
					c0.19,0,0.37,0.03,0.55,0.08s0.35,0.12,0.5,0.19v0.61h-0.03c-0.17-0.13-0.34-0.23-0.52-0.3s-0.35-0.11-0.52-0.11
					c-0.31,0-0.56,0.11-0.74,0.32s-0.27,0.52-0.27,0.92c0,0.39,0.09,0.7,0.27,0.91s0.42,0.32,0.75,0.32c0.11,0,0.22-0.01,0.34-0.04
					s0.22-0.07,0.31-0.11c0.08-0.04,0.16-0.08,0.23-0.13s0.13-0.09,0.17-0.12h0.03V52.88z"/>
				<path d="M263.62,53.08h-0.55v-1.86c0-0.15-0.01-0.29-0.03-0.42s-0.05-0.24-0.1-0.31c-0.05-0.08-0.12-0.14-0.21-0.18
					s-0.21-0.06-0.36-0.06c-0.15,0-0.31,0.04-0.47,0.11s-0.32,0.17-0.47,0.28v2.44h-0.55v-4.56h0.55v1.65
					c0.17-0.14,0.35-0.25,0.53-0.33s0.37-0.12,0.57-0.12c0.35,0,0.62,0.11,0.81,0.32s0.28,0.52,0.28,0.92V53.08z"/>
				<path d="M267.22,53.08h-0.55v-0.35c-0.05,0.03-0.11,0.08-0.2,0.14s-0.16,0.11-0.24,0.14c-0.09,0.04-0.2,0.08-0.32,0.11
					s-0.26,0.04-0.42,0.04c-0.29,0-0.54-0.1-0.75-0.29s-0.31-0.44-0.31-0.75c0-0.25,0.05-0.45,0.16-0.6s0.26-0.27,0.46-0.36
					c0.2-0.09,0.44-0.15,0.72-0.18s0.58-0.05,0.9-0.07v-0.08c0-0.12-0.02-0.23-0.07-0.31s-0.11-0.15-0.19-0.19
					c-0.08-0.04-0.17-0.08-0.28-0.09s-0.22-0.02-0.34-0.02c-0.14,0-0.31,0.02-0.48,0.06s-0.36,0.09-0.55,0.17h-0.03v-0.56
					c0.11-0.03,0.26-0.06,0.47-0.1s0.4-0.05,0.6-0.05c0.23,0,0.43,0.02,0.6,0.06s0.32,0.1,0.44,0.19c0.12,0.09,0.22,0.21,0.28,0.35
					s0.1,0.32,0.1,0.53V53.08z M266.68,52.27v-0.91c-0.17,0.01-0.37,0.02-0.59,0.04s-0.41,0.05-0.54,0.08
					c-0.16,0.04-0.29,0.12-0.38,0.21s-0.15,0.22-0.15,0.39c0,0.19,0.06,0.33,0.17,0.42s0.29,0.14,0.52,0.14
					c0.19,0,0.37-0.04,0.53-0.11S266.54,52.38,266.68,52.27z M265.64,49.26h-0.58v-0.57h0.58V49.26z M266.85,49.26h-0.58v-0.57h0.58
					V49.26z"/>
				<path d="M270.94,53.08h-0.55v-0.34c-0.16,0.14-0.32,0.24-0.5,0.32s-0.36,0.11-0.56,0.11c-0.39,0-0.7-0.15-0.93-0.45
					s-0.34-0.72-0.34-1.25c0-0.28,0.04-0.52,0.12-0.74s0.19-0.4,0.32-0.55c0.13-0.15,0.29-0.26,0.46-0.34s0.36-0.12,0.55-0.12
					c0.17,0,0.32,0.02,0.46,0.05s0.27,0.09,0.42,0.17v-1.42h0.55V53.08z M270.39,52.27V50.4c-0.15-0.07-0.28-0.11-0.4-0.14
					s-0.25-0.04-0.38-0.04c-0.31,0-0.55,0.11-0.72,0.32s-0.26,0.52-0.26,0.91c0,0.39,0.07,0.68,0.2,0.89s0.35,0.3,0.64,0.3
					c0.16,0,0.31-0.03,0.47-0.1S270.25,52.38,270.39,52.27z"/>
				<path d="M274.76,51.5h-2.41c0,0.2,0.03,0.38,0.09,0.53s0.14,0.27,0.25,0.37c0.1,0.09,0.22,0.16,0.36,0.21s0.29,0.07,0.46,0.07
					c0.22,0,0.45-0.04,0.67-0.13s0.39-0.18,0.48-0.26h0.03v0.6c-0.19,0.08-0.38,0.14-0.57,0.2s-0.4,0.08-0.61,0.08
					c-0.54,0-0.97-0.15-1.27-0.44s-0.46-0.71-0.46-1.25c0-0.54,0.15-0.96,0.44-1.27s0.68-0.47,1.15-0.47c0.44,0,0.78,0.13,1.02,0.39
					s0.36,0.62,0.36,1.1V51.5z M274.23,51.08c0-0.29-0.07-0.51-0.22-0.67s-0.36-0.24-0.66-0.24c-0.29,0-0.53,0.09-0.7,0.26
					s-0.27,0.39-0.3,0.65H274.23z"/>
				<path d="M278.33,53.08h-0.55v-1.86c0-0.15-0.01-0.29-0.03-0.42s-0.05-0.24-0.1-0.31c-0.05-0.08-0.12-0.14-0.21-0.18
					s-0.21-0.06-0.36-0.06c-0.15,0-0.31,0.04-0.47,0.11s-0.32,0.17-0.47,0.28v2.44h-0.55v-3.27h0.55v0.36
					c0.17-0.14,0.35-0.25,0.53-0.33s0.37-0.12,0.57-0.12c0.35,0,0.62,0.11,0.81,0.32s0.28,0.52,0.28,0.92V53.08z"/>
			</g>
		</g>
		<g>
			<g>
				<path d="M296.98,41.34c0,0.3-0.12,0.54-0.37,0.74s-0.58,0.29-1.01,0.29c-0.24,0-0.46-0.03-0.67-0.09s-0.37-0.12-0.51-0.19v-0.62
					h0.03c0.17,0.13,0.37,0.24,0.58,0.31s0.42,0.12,0.61,0.12c0.24,0,0.43-0.04,0.57-0.12s0.21-0.2,0.21-0.37
					c0-0.13-0.04-0.23-0.11-0.29s-0.22-0.12-0.43-0.17c-0.08-0.02-0.18-0.04-0.31-0.06s-0.24-0.05-0.34-0.08
					c-0.29-0.08-0.49-0.19-0.61-0.33s-0.18-0.33-0.18-0.54c0-0.13,0.03-0.26,0.08-0.38s0.14-0.23,0.25-0.32
					c0.11-0.09,0.25-0.16,0.42-0.22s0.36-0.08,0.57-0.08c0.2,0,0.39,0.02,0.59,0.07s0.37,0.11,0.5,0.17v0.59h-0.03
					c-0.14-0.1-0.31-0.19-0.51-0.26s-0.4-0.11-0.59-0.11c-0.2,0-0.37,0.04-0.51,0.12S295,39.7,295,39.85c0,0.13,0.04,0.24,0.13,0.3
					c0.08,0.07,0.21,0.12,0.4,0.17c0.1,0.02,0.22,0.05,0.34,0.07s0.23,0.04,0.31,0.06c0.26,0.06,0.45,0.16,0.59,0.3
					C296.91,40.91,296.98,41.1,296.98,41.34z"/>
				<path d="M300.19,42.07c-0.18,0.09-0.36,0.16-0.52,0.21s-0.34,0.07-0.53,0.07c-0.24,0-0.45-0.03-0.65-0.1s-0.37-0.17-0.51-0.32
					c-0.14-0.14-0.25-0.32-0.33-0.53s-0.12-0.47-0.12-0.75c0-0.54,0.15-0.96,0.44-1.26s0.68-0.46,1.16-0.46
					c0.19,0,0.37,0.03,0.55,0.08s0.35,0.12,0.5,0.19v0.61h-0.03c-0.17-0.13-0.34-0.23-0.52-0.3s-0.35-0.11-0.52-0.11
					c-0.31,0-0.56,0.11-0.74,0.32s-0.27,0.52-0.27,0.92c0,0.39,0.09,0.7,0.27,0.91s0.42,0.32,0.75,0.32c0.11,0,0.22-0.01,0.34-0.04
					s0.22-0.07,0.31-0.11c0.08-0.04,0.16-0.08,0.23-0.13s0.13-0.09,0.17-0.12h0.03V42.07z"/>
				<path d="M303.63,42.28h-0.55v-1.86c0-0.15-0.01-0.29-0.03-0.42s-0.05-0.24-0.1-0.31c-0.05-0.08-0.12-0.14-0.21-0.18
					s-0.21-0.06-0.36-0.06c-0.15,0-0.31,0.04-0.47,0.11s-0.32,0.17-0.47,0.28v2.44h-0.55v-4.56h0.55v1.65
					c0.17-0.14,0.35-0.25,0.53-0.33s0.37-0.12,0.57-0.12c0.35,0,0.62,0.11,0.81,0.32s0.28,0.52,0.28,0.92V42.28z"/>
				<path d="M308.78,39.01l-0.85,3.27h-0.51l-0.84-2.52l-0.83,2.52h-0.51l-0.86-3.27h0.57l0.6,2.53l0.82-2.53h0.45l0.84,2.53
					l0.57-2.53H308.78z"/>
				<path d="M312.31,40.7h-2.41c0,0.2,0.03,0.38,0.09,0.53s0.14,0.27,0.25,0.37c0.1,0.09,0.22,0.16,0.36,0.21s0.29,0.07,0.46,0.07
					c0.22,0,0.45-0.04,0.67-0.13s0.39-0.18,0.48-0.26h0.03v0.6c-0.19,0.08-0.38,0.14-0.57,0.2s-0.4,0.08-0.61,0.08
					c-0.54,0-0.97-0.15-1.27-0.44s-0.46-0.71-0.46-1.25c0-0.54,0.15-0.96,0.44-1.27s0.68-0.47,1.15-0.47c0.44,0,0.78,0.13,1.02,0.39
					s0.36,0.62,0.36,1.1V40.7z M311.77,40.28c0-0.29-0.07-0.51-0.22-0.67s-0.36-0.24-0.66-0.24c-0.29,0-0.53,0.09-0.7,0.26
					s-0.27,0.39-0.3,0.65H311.77z"/>
				<path d="M315.19,39.61h-0.03c-0.08-0.02-0.16-0.03-0.24-0.04s-0.17-0.01-0.27-0.01c-0.17,0-0.33,0.04-0.49,0.11
					s-0.31,0.17-0.46,0.29v2.32h-0.55v-3.27h0.55v0.48c0.22-0.18,0.41-0.3,0.58-0.37s0.34-0.11,0.51-0.11c0.1,0,0.17,0,0.21,0.01
					s0.11,0.01,0.19,0.03V39.61z"/>
				<path d="M318.45,40.7h-2.41c0,0.2,0.03,0.38,0.09,0.53s0.14,0.27,0.25,0.37c0.1,0.09,0.22,0.16,0.36,0.21s0.29,0.07,0.46,0.07
					c0.22,0,0.45-0.04,0.67-0.13s0.39-0.18,0.48-0.26h0.03v0.6c-0.19,0.08-0.38,0.14-0.57,0.2s-0.4,0.08-0.61,0.08
					c-0.54,0-0.97-0.15-1.27-0.44s-0.46-0.71-0.46-1.25c0-0.54,0.15-0.96,0.44-1.27s0.68-0.47,1.15-0.47c0.44,0,0.78,0.13,1.02,0.39
					s0.36,0.62,0.36,1.1V40.7z M317.91,40.28c0-0.29-0.07-0.51-0.22-0.67s-0.36-0.24-0.66-0.24c-0.29,0-0.53,0.09-0.7,0.26
					s-0.27,0.39-0.3,0.65H317.91z"/>
				<path d="M295.94,49.16c-0.24,0.11-0.5,0.21-0.78,0.29s-0.56,0.12-0.82,0.12c-0.34,0-0.65-0.05-0.93-0.14s-0.52-0.23-0.72-0.42
					c-0.2-0.19-0.36-0.43-0.47-0.71s-0.16-0.62-0.16-1c0-0.7,0.2-1.25,0.61-1.65s0.97-0.61,1.68-0.61c0.25,0,0.5,0.03,0.76,0.09
					s0.54,0.16,0.84,0.3v0.69h-0.05c-0.06-0.05-0.15-0.11-0.26-0.18s-0.23-0.14-0.34-0.19c-0.13-0.06-0.29-0.11-0.46-0.15
					s-0.37-0.06-0.58-0.06c-0.49,0-0.87,0.16-1.16,0.47s-0.43,0.74-0.43,1.27c0,0.56,0.15,1,0.45,1.32s0.7,0.47,1.21,0.47
					c0.19,0,0.38-0.02,0.56-0.06s0.35-0.08,0.49-0.14V47.8h-1.17v-0.51h1.74V49.16z"/>
				<path d="M299.65,47.9h-2.41c0,0.2,0.03,0.38,0.09,0.53s0.14,0.27,0.25,0.37c0.1,0.09,0.22,0.16,0.36,0.21s0.29,0.07,0.46,0.07
					c0.22,0,0.45-0.04,0.67-0.13s0.39-0.18,0.48-0.26h0.03v0.6c-0.19,0.08-0.38,0.14-0.57,0.2s-0.4,0.08-0.61,0.08
					c-0.54,0-0.97-0.15-1.27-0.44s-0.46-0.71-0.46-1.25c0-0.54,0.15-0.96,0.44-1.27s0.68-0.47,1.15-0.47c0.44,0,0.78,0.13,1.02,0.39
					s0.36,0.62,0.36,1.1V47.9z M299.12,47.48c0-0.29-0.07-0.51-0.22-0.67s-0.36-0.24-0.66-0.24c-0.29,0-0.53,0.09-0.7,0.26
					s-0.27,0.39-0.3,0.65H299.12z"/>
				<path d="M303.37,47.82c0,0.27-0.04,0.52-0.12,0.74s-0.18,0.4-0.31,0.55c-0.14,0.15-0.29,0.27-0.46,0.35s-0.35,0.12-0.55,0.12
					c-0.19,0-0.35-0.02-0.49-0.07s-0.28-0.1-0.41-0.18L301,49.48h-0.52v-4.56h0.55v1.63c0.15-0.13,0.32-0.23,0.49-0.31
					s0.37-0.12,0.59-0.12c0.39,0,0.69,0.15,0.92,0.45S303.37,47.28,303.37,47.82z M302.8,47.83c0-0.39-0.06-0.69-0.19-0.89
					s-0.34-0.3-0.62-0.3c-0.16,0-0.32,0.04-0.49,0.1s-0.32,0.16-0.46,0.27v1.88c0.16,0.07,0.29,0.12,0.4,0.15s0.24,0.04,0.38,0.04
					c0.3,0,0.54-0.1,0.72-0.3S302.8,48.26,302.8,47.83z"/>
				<path d="M306.77,49.48h-0.55v-0.35c-0.05,0.03-0.11,0.08-0.2,0.14s-0.16,0.11-0.24,0.14c-0.09,0.04-0.2,0.08-0.32,0.11
					s-0.26,0.04-0.42,0.04c-0.29,0-0.54-0.1-0.75-0.29s-0.31-0.44-0.31-0.75c0-0.25,0.05-0.45,0.16-0.6s0.26-0.27,0.46-0.36
					c0.2-0.09,0.44-0.15,0.72-0.18s0.58-0.05,0.9-0.07v-0.08c0-0.12-0.02-0.23-0.07-0.31s-0.11-0.15-0.19-0.19
					c-0.08-0.04-0.17-0.08-0.28-0.09s-0.22-0.02-0.34-0.02c-0.14,0-0.31,0.02-0.48,0.06s-0.36,0.09-0.55,0.17h-0.03v-0.56
					c0.11-0.03,0.26-0.06,0.47-0.1s0.4-0.05,0.6-0.05c0.23,0,0.43,0.02,0.6,0.06s0.32,0.1,0.44,0.19c0.12,0.09,0.22,0.21,0.28,0.35
					s0.1,0.32,0.1,0.53V49.48z M306.22,48.67v-0.91c-0.17,0.01-0.37,0.02-0.59,0.04s-0.41,0.05-0.54,0.08
					c-0.16,0.04-0.29,0.12-0.38,0.21s-0.15,0.22-0.15,0.39c0,0.19,0.06,0.33,0.17,0.42s0.29,0.14,0.52,0.14
					c0.19,0,0.37-0.04,0.53-0.11S306.08,48.78,306.22,48.67z M305.19,45.66h-0.58v-0.57h0.58V45.66z M306.4,45.66h-0.58v-0.57h0.58
					V45.66z"/>
				<path d="M310.54,49.48h-0.55v-0.36c-0.19,0.15-0.36,0.26-0.53,0.34s-0.36,0.12-0.56,0.12c-0.34,0-0.61-0.1-0.8-0.31
					s-0.29-0.52-0.29-0.92v-2.12h0.55v1.86c0,0.17,0.01,0.31,0.02,0.43s0.05,0.22,0.1,0.3c0.05,0.09,0.12,0.15,0.21,0.19
					s0.21,0.06,0.37,0.06c0.14,0,0.3-0.04,0.47-0.11s0.33-0.17,0.47-0.28v-2.44h0.55V49.48z"/>
				<path d="M314.28,49.48h-0.55v-0.34c-0.16,0.14-0.32,0.24-0.5,0.32s-0.36,0.11-0.56,0.11c-0.39,0-0.7-0.15-0.93-0.45
					s-0.34-0.72-0.34-1.25c0-0.28,0.04-0.52,0.12-0.74s0.19-0.4,0.32-0.55c0.13-0.15,0.29-0.26,0.46-0.34s0.36-0.12,0.55-0.12
					c0.17,0,0.32,0.02,0.46,0.05s0.27,0.09,0.42,0.17v-1.42h0.55V49.48z M313.73,48.67V46.8c-0.15-0.07-0.28-0.11-0.4-0.14
					s-0.25-0.04-0.38-0.04c-0.31,0-0.55,0.11-0.72,0.32s-0.26,0.52-0.26,0.91c0,0.39,0.07,0.68,0.2,0.89s0.35,0.3,0.64,0.3
					c0.16,0,0.31-0.03,0.47-0.1S313.59,48.78,313.73,48.67z"/>
				<path d="M318.1,47.9h-2.41c0,0.2,0.03,0.38,0.09,0.53s0.14,0.27,0.25,0.37c0.1,0.09,0.22,0.16,0.36,0.21s0.29,0.07,0.46,0.07
					c0.22,0,0.45-0.04,0.67-0.13s0.39-0.18,0.48-0.26h0.03v0.6c-0.19,0.08-0.38,0.14-0.57,0.2s-0.4,0.08-0.61,0.08
					c-0.54,0-0.97-0.15-1.27-0.44s-0.46-0.71-0.46-1.25c0-0.54,0.15-0.96,0.44-1.27s0.68-0.47,1.15-0.47c0.44,0,0.78,0.13,1.02,0.39
					s0.36,0.62,0.36,1.1V47.9z M317.57,47.48c0-0.29-0.07-0.51-0.22-0.67s-0.36-0.24-0.66-0.24c-0.29,0-0.53,0.09-0.7,0.26
					s-0.27,0.39-0.3,0.65H317.57z"/>
				<path d="M320.67,47.84h-1.83v-0.53h1.83V47.84z"/>
				<path d="M296.92,55.74c0,0.3-0.12,0.54-0.37,0.74s-0.58,0.29-1.01,0.29c-0.24,0-0.46-0.03-0.67-0.09s-0.37-0.12-0.51-0.19v-0.62
					h0.03c0.17,0.13,0.37,0.23,0.58,0.31s0.42,0.12,0.61,0.12c0.24,0,0.43-0.04,0.57-0.12s0.21-0.2,0.21-0.37
					c0-0.13-0.04-0.23-0.11-0.29s-0.22-0.12-0.43-0.17c-0.08-0.02-0.18-0.04-0.31-0.06s-0.24-0.05-0.34-0.08
					c-0.29-0.08-0.49-0.19-0.61-0.34s-0.18-0.33-0.18-0.54c0-0.13,0.03-0.26,0.08-0.38s0.14-0.23,0.25-0.32
					c0.11-0.09,0.25-0.17,0.42-0.22s0.36-0.08,0.57-0.08c0.2,0,0.39,0.02,0.59,0.07s0.37,0.11,0.5,0.17v0.59h-0.03
					c-0.14-0.1-0.31-0.19-0.51-0.26s-0.4-0.11-0.59-0.11c-0.2,0-0.37,0.04-0.51,0.12s-0.21,0.19-0.21,0.34
					c0,0.13,0.04,0.24,0.13,0.3c0.08,0.07,0.21,0.12,0.4,0.17c0.1,0.02,0.22,0.05,0.34,0.07s0.23,0.04,0.31,0.06
					c0.26,0.06,0.45,0.16,0.59,0.3C296.85,55.31,296.92,55.5,296.92,55.74z"/>
				<path d="M300.13,56.47c-0.18,0.09-0.36,0.16-0.52,0.21s-0.34,0.07-0.53,0.07c-0.24,0-0.45-0.04-0.65-0.1s-0.37-0.17-0.51-0.31
					c-0.14-0.14-0.25-0.32-0.33-0.53s-0.12-0.47-0.12-0.75c0-0.54,0.15-0.96,0.44-1.26s0.68-0.46,1.16-0.46
					c0.19,0,0.37,0.03,0.55,0.08s0.35,0.12,0.5,0.19v0.61h-0.03c-0.17-0.13-0.34-0.23-0.52-0.3s-0.35-0.11-0.52-0.11
					c-0.31,0-0.56,0.1-0.74,0.31s-0.27,0.52-0.27,0.92c0,0.39,0.09,0.7,0.27,0.91s0.42,0.32,0.75,0.32c0.11,0,0.22-0.01,0.34-0.04
					s0.22-0.07,0.31-0.11c0.08-0.04,0.16-0.08,0.23-0.13s0.13-0.08,0.17-0.12h0.03V56.47z"/>
				<path d="M303.57,56.68h-0.55v-1.86c0-0.15-0.01-0.29-0.03-0.42s-0.05-0.23-0.1-0.31c-0.05-0.08-0.12-0.14-0.21-0.18
					s-0.21-0.06-0.36-0.06c-0.15,0-0.31,0.04-0.47,0.11s-0.32,0.17-0.47,0.28v2.44h-0.55v-4.56h0.55v1.65
					c0.17-0.14,0.35-0.25,0.53-0.33s0.37-0.12,0.57-0.12c0.35,0,0.62,0.11,0.81,0.32s0.28,0.52,0.28,0.92V56.68z"/>
				<path d="M307.17,56.68h-0.55v-0.35c-0.05,0.03-0.11,0.08-0.2,0.14s-0.16,0.11-0.24,0.14c-0.09,0.04-0.2,0.08-0.32,0.11
					s-0.26,0.05-0.42,0.05c-0.29,0-0.54-0.1-0.75-0.29s-0.31-0.44-0.31-0.75c0-0.25,0.05-0.45,0.16-0.6s0.26-0.27,0.46-0.36
					c0.2-0.09,0.44-0.15,0.72-0.18s0.58-0.05,0.9-0.07v-0.08c0-0.12-0.02-0.23-0.07-0.31s-0.11-0.15-0.19-0.19
					c-0.08-0.04-0.17-0.08-0.28-0.09s-0.22-0.02-0.34-0.02c-0.14,0-0.31,0.02-0.48,0.06s-0.36,0.09-0.55,0.17h-0.03v-0.56
					c0.11-0.03,0.26-0.06,0.47-0.1s0.4-0.05,0.6-0.05c0.23,0,0.43,0.02,0.6,0.06s0.32,0.1,0.44,0.2c0.12,0.09,0.22,0.21,0.28,0.35
					s0.1,0.32,0.1,0.53V56.68z M306.62,55.87v-0.91c-0.17,0.01-0.37,0.02-0.59,0.04s-0.41,0.05-0.54,0.08
					c-0.16,0.04-0.29,0.11-0.38,0.21s-0.15,0.23-0.15,0.39c0,0.19,0.06,0.33,0.17,0.42s0.29,0.14,0.52,0.14
					c0.19,0,0.37-0.04,0.53-0.11S306.49,55.98,306.62,55.87z M305.59,52.86h-0.58v-0.57h0.58V52.86z M306.8,52.86h-0.58v-0.57h0.58
					V52.86z"/>
				<path d="M310.89,56.68h-0.55v-0.34c-0.16,0.14-0.32,0.24-0.5,0.32s-0.36,0.11-0.56,0.11c-0.39,0-0.7-0.15-0.93-0.45
					s-0.34-0.72-0.34-1.25c0-0.28,0.04-0.52,0.12-0.74s0.19-0.4,0.32-0.55c0.13-0.15,0.29-0.26,0.46-0.34s0.36-0.12,0.55-0.12
					c0.17,0,0.32,0.02,0.46,0.05s0.27,0.09,0.42,0.17v-1.42h0.55V56.68z M310.34,55.87V54c-0.15-0.07-0.28-0.11-0.4-0.14
					s-0.25-0.04-0.38-0.04c-0.31,0-0.55,0.11-0.72,0.32s-0.26,0.52-0.26,0.91c0,0.39,0.07,0.68,0.2,0.89s0.35,0.3,0.64,0.3
					c0.16,0,0.31-0.04,0.47-0.1S310.2,55.98,310.34,55.87z"/>
				<path d="M314.71,55.1h-2.41c0,0.2,0.03,0.38,0.09,0.53s0.14,0.27,0.25,0.37c0.1,0.09,0.22,0.16,0.36,0.21s0.29,0.07,0.46,0.07
					c0.22,0,0.45-0.04,0.67-0.13s0.39-0.18,0.48-0.26h0.03v0.6c-0.19,0.08-0.38,0.14-0.57,0.2s-0.4,0.08-0.61,0.08
					c-0.54,0-0.97-0.15-1.27-0.44s-0.46-0.71-0.46-1.25c0-0.54,0.15-0.96,0.44-1.27s0.68-0.47,1.15-0.47c0.44,0,0.78,0.13,1.02,0.39
					s0.36,0.62,0.36,1.1V55.1z M314.17,54.68c0-0.29-0.07-0.51-0.22-0.67s-0.36-0.24-0.66-0.24c-0.29,0-0.53,0.09-0.7,0.26
					s-0.27,0.39-0.3,0.65H314.17z"/>
				<path d="M318.28,56.68h-0.55v-1.86c0-0.15-0.01-0.29-0.03-0.42s-0.05-0.23-0.1-0.31c-0.05-0.08-0.12-0.14-0.21-0.18
					s-0.21-0.06-0.36-0.06c-0.15,0-0.31,0.04-0.47,0.11s-0.32,0.17-0.47,0.28v2.44h-0.55v-3.27h0.55v0.36
					c0.17-0.14,0.35-0.25,0.53-0.33s0.37-0.12,0.57-0.12c0.35,0,0.62,0.11,0.81,0.32s0.28,0.52,0.28,0.92V56.68z"/>
			</g>
		</g>
		<g>
			<g>
				<path d="M331.75,49.48h-2.64v-0.41l1.91-2.41h-1.87v-0.46h2.55v0.39l-1.92,2.41h1.97V49.48z"/>
				<path d="M335.23,47.9h-2.41c0,0.2,0.03,0.38,0.09,0.53s0.14,0.27,0.25,0.37c0.1,0.09,0.22,0.16,0.36,0.21s0.29,0.07,0.46,0.07
					c0.22,0,0.45-0.04,0.67-0.13s0.39-0.18,0.48-0.26h0.03v0.6c-0.19,0.08-0.38,0.14-0.57,0.2s-0.4,0.08-0.61,0.08
					c-0.54,0-0.97-0.15-1.27-0.44s-0.46-0.71-0.46-1.25c0-0.54,0.15-0.96,0.44-1.27s0.68-0.47,1.15-0.47c0.44,0,0.78,0.13,1.02,0.39
					s0.36,0.62,0.36,1.1V47.9z M334.7,47.48c0-0.29-0.08-0.51-0.22-0.67s-0.36-0.24-0.65-0.24c-0.29,0-0.53,0.09-0.71,0.26
					s-0.27,0.39-0.3,0.65H334.7z"/>
				<path d="M338.11,46.81h-0.03c-0.08-0.02-0.16-0.03-0.24-0.04s-0.17-0.01-0.27-0.01c-0.17,0-0.33,0.04-0.49,0.11
					s-0.31,0.17-0.46,0.29v2.32h-0.55v-3.27h0.55v0.48c0.22-0.18,0.41-0.3,0.58-0.37s0.34-0.11,0.51-0.11c0.1,0,0.17,0,0.21,0.01
					s0.11,0.01,0.19,0.03V46.81z"/>
				<path d="M340.97,48.54c0,0.3-0.12,0.54-0.37,0.74s-0.58,0.29-1.01,0.29c-0.24,0-0.46-0.03-0.67-0.09s-0.37-0.12-0.51-0.19v-0.62
					h0.03c0.17,0.13,0.37,0.24,0.58,0.31s0.42,0.12,0.61,0.12c0.24,0,0.43-0.04,0.57-0.12s0.21-0.2,0.21-0.37
					c0-0.13-0.04-0.23-0.11-0.29s-0.22-0.12-0.43-0.17c-0.08-0.02-0.18-0.04-0.31-0.06s-0.24-0.05-0.34-0.08
					c-0.29-0.08-0.49-0.19-0.61-0.33s-0.18-0.33-0.18-0.54c0-0.13,0.03-0.26,0.08-0.38s0.14-0.23,0.25-0.32
					c0.11-0.09,0.25-0.16,0.42-0.22s0.36-0.08,0.57-0.08c0.2,0,0.39,0.02,0.59,0.07s0.37,0.11,0.5,0.17v0.59h-0.03
					c-0.14-0.1-0.31-0.19-0.51-0.26s-0.4-0.11-0.59-0.11c-0.2,0-0.37,0.04-0.51,0.12s-0.21,0.19-0.21,0.34
					c0,0.13,0.04,0.24,0.13,0.3c0.08,0.07,0.21,0.12,0.4,0.17c0.1,0.02,0.21,0.05,0.34,0.07s0.23,0.04,0.32,0.06
					c0.26,0.06,0.45,0.16,0.59,0.3C340.9,48.11,340.97,48.3,340.97,48.54z"/>
				<path d="M343.45,49.45c-0.1,0.03-0.22,0.05-0.34,0.07s-0.23,0.03-0.33,0.03c-0.33,0-0.59-0.09-0.76-0.27s-0.26-0.47-0.26-0.86
					v-1.74h-0.37v-0.46h0.37v-0.94h0.55v0.94h1.14v0.46h-1.14v1.49c0,0.17,0,0.31,0.01,0.4s0.04,0.19,0.08,0.27
					c0.04,0.08,0.1,0.14,0.18,0.17s0.19,0.05,0.34,0.05c0.09,0,0.18-0.01,0.28-0.04s0.17-0.05,0.21-0.07h0.03V49.45z"/>
				<path d="M346.91,47.85c0,0.53-0.14,0.95-0.41,1.26s-0.64,0.46-1.1,0.46c-0.46,0-0.83-0.15-1.1-0.46s-0.41-0.73-0.41-1.26
					s0.14-0.95,0.41-1.26s0.64-0.46,1.1-0.46c0.46,0,0.83,0.16,1.1,0.46S346.91,47.31,346.91,47.85z M346.34,47.85
					c0-0.42-0.08-0.74-0.25-0.94s-0.4-0.31-0.69-0.31c-0.3,0-0.53,0.1-0.7,0.31s-0.25,0.52-0.25,0.94c0,0.41,0.08,0.72,0.25,0.93
					s0.4,0.32,0.69,0.32c0.29,0,0.52-0.1,0.69-0.31S346.34,48.26,346.34,47.85z M345.09,45.66h-0.58v-0.57h0.58V45.66z M346.3,45.66
					h-0.58v-0.57h0.58V45.66z"/>
				<path d="M349.8,46.81h-0.03c-0.08-0.02-0.16-0.03-0.24-0.04s-0.17-0.01-0.27-0.01c-0.17,0-0.33,0.04-0.49,0.11
					s-0.31,0.17-0.46,0.29v2.32h-0.55v-3.27h0.55v0.48c0.22-0.18,0.41-0.3,0.58-0.37s0.34-0.11,0.51-0.11c0.1,0,0.17,0,0.21,0.01
					s0.11,0.01,0.19,0.03V46.81z"/>
				<path d="M353.06,47.9h-2.41c0,0.2,0.03,0.38,0.09,0.53s0.14,0.27,0.25,0.37c0.1,0.09,0.22,0.16,0.36,0.21s0.29,0.07,0.46,0.07
					c0.22,0,0.45-0.04,0.67-0.13s0.39-0.18,0.48-0.26H353v0.6c-0.19,0.08-0.38,0.14-0.57,0.2s-0.4,0.08-0.61,0.08
					c-0.54,0-0.97-0.15-1.27-0.44s-0.46-0.71-0.46-1.25c0-0.54,0.15-0.96,0.44-1.27s0.68-0.47,1.15-0.47c0.44,0,0.78,0.13,1.02,0.39
					s0.36,0.62,0.36,1.1V47.9z M352.52,47.48c0-0.29-0.08-0.51-0.22-0.67s-0.36-0.24-0.65-0.24c-0.29,0-0.53,0.09-0.71,0.26
					s-0.27,0.39-0.3,0.65H352.52z"/>
				<path d="M356.63,49.48h-0.55v-1.86c0-0.15-0.01-0.29-0.03-0.42s-0.05-0.24-0.1-0.31c-0.05-0.08-0.12-0.14-0.21-0.18
					s-0.21-0.06-0.36-0.06c-0.15,0-0.31,0.04-0.47,0.11s-0.32,0.17-0.47,0.28v2.44h-0.55v-3.27h0.55v0.36
					c0.17-0.14,0.35-0.25,0.53-0.33s0.37-0.12,0.57-0.12c0.35,0,0.62,0.11,0.81,0.32s0.28,0.52,0.28,0.92V49.48z"/>
				<path d="M360.35,49.48h-0.55v-0.34c-0.16,0.14-0.32,0.24-0.5,0.32s-0.36,0.11-0.56,0.11c-0.39,0-0.7-0.15-0.93-0.45
					s-0.34-0.72-0.34-1.25c0-0.28,0.04-0.52,0.12-0.74s0.19-0.4,0.32-0.55c0.13-0.15,0.29-0.26,0.46-0.34s0.36-0.12,0.55-0.12
					c0.17,0,0.32,0.02,0.46,0.05s0.27,0.09,0.42,0.17v-1.42h0.55V49.48z M359.8,48.67V46.8c-0.15-0.07-0.28-0.11-0.4-0.14
					s-0.25-0.04-0.38-0.04c-0.31,0-0.55,0.11-0.72,0.32s-0.26,0.52-0.26,0.91c0,0.39,0.07,0.68,0.2,0.89s0.35,0.3,0.64,0.3
					c0.16,0,0.31-0.03,0.47-0.1S359.66,48.78,359.8,48.67z"/>
			</g>
		</g>
		<g>
			<path d="M66.82,28.1h-1.72v-0.45h0.57v-3.47h-0.57v-0.45h1.72v0.45h-0.57v3.47h0.57V28.1z"/>
			<path d="M69.34,28.1h-1.72v-0.45h0.57v-3.47h-0.57v-0.45h1.72v0.45h-0.57v3.47h0.57V28.1z"/>
		</g>
		<g>
			<path d="M105.11,28.1h-1.72v-0.45h0.57v-3.47h-0.57v-0.45h1.72v0.45h-0.57v3.47h0.57V28.1z"/>
			<path d="M107.64,28.1h-1.72v-0.45h0.57v-3.47h-0.57v-0.45h1.72v0.45h-0.57v3.47h0.57V28.1z"/>
			<path d="M110.16,28.1h-1.72v-0.45h0.57v-3.47h-0.57v-0.45h1.72v0.45h-0.57v3.47h0.57V28.1z"/>
		</g>
		<g>
			<path d="M145.47,28.1h-1.72v-0.45h0.57v-3.47h-0.57v-0.45h1.72v0.45h-0.57v3.47h0.57V28.1z"/>
			<path d="M149.9,23.74l-1.59,4.36h-0.77l-1.59-4.36h0.62l1.37,3.84l1.37-3.84H149.9z"/>
		</g>
		<g>
			<path d="M188.57,23.74l-1.59,4.36h-0.77l-1.59-4.36h0.62l1.37,3.84l1.37-3.84H188.57z"/>
		</g>
		<g>
			<path d="M227.24,23.74l-1.59,4.36h-0.77l-1.59-4.36h0.62l1.37,3.84l1.37-3.84H227.24z"/>
			<path d="M229.44,28.1h-1.72v-0.45h0.57v-3.47h-0.57v-0.45h1.72v0.45h-0.57v3.47h0.57V28.1z"/>
		</g>
		<g>
			<path d="M265.92,23.74l-1.59,4.36h-0.77l-1.59-4.36h0.62l1.37,3.84l1.37-3.84H265.92z"/>
			<path d="M268.12,28.1h-1.72v-0.45h0.57v-3.47h-0.57v-0.45h1.72v0.45h-0.57v3.47h0.57V28.1z"/>
			<path d="M270.64,28.1h-1.72v-0.45h0.57v-3.47h-0.57v-0.45h1.72v0.45h-0.57v3.47h0.57V28.1z"/>
		</g>
		<g>
			<path d="M304.61,23.74l-1.59,4.36h-0.77l-1.59-4.36h0.62l1.37,3.84l1.37-3.84H304.61z"/>
			<path d="M306.81,28.1h-1.72v-0.45h0.57v-3.47h-0.57v-0.45h1.72v0.45h-0.57v3.47h0.57V28.1z"/>
			<path d="M309.33,28.1h-1.72v-0.45h0.57v-3.47h-0.57v-0.45h1.72v0.45h-0.57v3.47h0.57V28.1z"/>
			<path d="M311.86,28.1h-1.72v-0.45h0.57v-3.47h-0.57v-0.45h1.72v0.45h-0.57v3.47h0.57V28.1z"/>
		</g>
		<g>
			<path d="M343.67,28.1h-1.72v-0.45h0.57v-3.47h-0.57v-0.45h1.72v0.45h-0.57v3.47h0.57V28.1z"/>
			<path d="M347.98,23.74l-1.51,2.16l1.5,2.21h-0.67l-1.19-1.8l-1.22,1.8h-0.63l1.52-2.18l-1.49-2.18h0.67l1.17,1.77l1.2-1.77
				H347.98z"/>
		</g>
	</g>
</g>
</svg>
