<?xml version="1.0" encoding="utf-8"?>
<!-- Generator: Adobe Illustrator 27.0.1, SVG Export Plug-In . SVG Version: 6.00 Build 0)  -->
<svg version="1.1" xmlns="http://www.w3.org/2000/svg" xmlns:xlink="http://www.w3.org/1999/xlink"
	x="0px" y="0px"
	viewBox="0 0 363.07 61.06" style="enable-background:new 0 0 363.07 61.06;" xml:space="preserve">
<style type="text/css">
	svg {font-size: 62.5%;}
	.st0{font-family:'Verdana';}
	.st1{font-size:0.6rem;}
	
	.st2{clip-path:url(#SVGID_00000067924496093179985480000017647125672878229895_);fill:url(#SVGID_00000059293957244018168910000010660200096083046048_);}
	.st3{fill:#D3D3D3;}
	.st4{fill:none;stroke:#FFFFFF;stroke-width:0.5;stroke-miterlimit:10;}
	
	.st5{clip-path:url(#SVGID_00000103236761762342867870000016706734777595979445_);fill:url(#SVGID_00000112607012726702127640000008278198272414552210_);}
	
	.st6{clip-path:url(#SVGID_00000048475144102126442700000004127092328473672336_);fill:url(#SVGID_00000127002185535376867080000003703596868809195912_);}
	.st7{display:none;}
	.st8{display:inline;fill:none;stroke:#A7A9AC;stroke-width:0.25;stroke-miterlimit:10;}
	
	.st9{clip-path:url(#SVGID_00000059269024499002236720000006302506282906085284_);fill:url(#SVGID_00000072249823191781991330000016112987665877206460_);}
</style>
<g id="Hilfslinien">
</g>
<g id="Italienisch">
	<g>
		<text transform="matrix(1 0 0 1 16.9337 28.0987)" class="st0 st1">Intensità</text>
	</g>
	<g>
		<text transform="matrix(1 0 0 1 19.6581 48.689)" class="st0 st1">Impatto</text>
	</g>
	<g>
		<defs>
			<rect id="SVGID_1_" x="47.92" width="315.15" height="18.61"/>
		</defs>
		<clipPath id="SVGID_00000078747045703954269130000008977824223821625987_">
			<use xlink:href="#SVGID_1_"  style="overflow:visible;"/>
		</clipPath>
		
			<linearGradient id="SVGID_00000064336485768196655520000010985035333773186720_" gradientUnits="userSpaceOnUse" x1="794.5431" y1="523.2549" x2="2015.76" y2="523.2549" gradientTransform="matrix(0.2581 0 0 1.1175 -157.1173 -575.4319)">
			<stop  offset="0" style="stop-color:#B2B1D8"/>
			<stop  offset="0.1192" style="stop-color:#B2B1D8"/>
			<stop  offset="0.162" style="stop-color:#6DCAD2"/>
			<stop  offset="0.2095" style="stop-color:#7DC46A"/>
			<stop  offset="0.2893" style="stop-color:#AACB3B"/>
			<stop  offset="0.339" style="stop-color:#D3DE28"/>
			<stop  offset="0.4119" style="stop-color:#F5EB10"/>
			<stop  offset="0.4655" style="stop-color:#FFCD2B"/>
			<stop  offset="0.5365" style="stop-color:#F2882D"/>
			<stop  offset="0.5898" style="stop-color:#F58020"/>
			<stop  offset="0.6661" style="stop-color:#EA4624"/>
			<stop  offset="0.7217" style="stop-color:#E01F26"/>
			<stop  offset="0.7931" style="stop-color:#E01F26"/>
			<stop  offset="0.8446" style="stop-color:#6F0F10"/>
			<stop  offset="0.8865" style="stop-color:#431211"/>
		</linearGradient>
		
			<rect x="47.92" style="clip-path:url(#SVGID_00000078747045703954269130000008977824223821625987_);fill:url(#SVGID_00000064336485768196655520000010985035333773186720_);" width="315.15" height="18.61"/>
	</g>
	<rect x="47.95" y="18.61" class="st3" width="315.11" height="15.77"/>
	<g>
		<line class="st4" x1="326.4" y1="0" x2="326.4" y2="18.61"/>
		<line class="st4" x1="86.74" y1="0" x2="86.74" y2="18.61"/>
		<line class="st4" x1="126.68" y1="0" x2="126.68" y2="18.61"/>
		<line class="st4" x1="166.63" y1="0" x2="166.63" y2="18.61"/>
		<line class="st4" x1="246.51" y1="0" x2="246.51" y2="18.61"/>
		<line class="st4" x1="286.46" y1="0" x2="286.46" y2="18.61"/>
		<line class="st4" x1="206.57" y1="0" x2="206.57" y2="18.61"/>
	</g>
	<rect x="47.95" y="34.38" class="st3" width="315.11" height="26.68"/>
	<g>
		<text transform="matrix(1 0 0 1 53.7898 45.8802)"><tspan x="0" y="0" class="st0 st1">avvertito</tspan><tspan x="-2.31" y="7.2" class="st0 st1">raramente</tspan></text>
	</g>
	<g>
		<text transform="matrix(1 0 0 1 96.8196 49.4805)" class="st0 st1">debole</text>
	</g>
	<g>
		<text transform="matrix(1 0 0 1 127.8725 45.8806)"><tspan x="0" y="0" class="st0 st1">ampiamente</tspan><tspan x="7.49" y="7.2" class="st0 st1">rilevato</tspan></text>
	</g>
	<g>
		<text transform="matrix(1 0 0 1 179.4708 49.4804)" class="st0 st1">forte</text>
	</g>
	<g>
		<text transform="matrix(1 0 0 1 207.538 45.8804)"><tspan x="0" y="0" class="st0 st1">leggermente</tspan><tspan x="6.32" y="7.2" class="st0 st1">dannoso</tspan></text>
	</g>
	<g>
		<text transform="matrix(1 0 0 1 253.797 49.4807)" class="st0 st1">dannoso</text>
	</g>
	<g>
		<text transform="matrix(1 0 0 1 289.7218 45.8803)"><tspan x="0" y="0" class="st0 st1">fortemente</tspan><tspan x="4.03" y="7.2" class="st0 st1">dannoso</tspan></text>
	</g>
	<g>
		<text transform="matrix(1 0 0 1 329.4689 49.4804)" class="st0 st1">distruttivo</text>
	</g>
	<text transform="matrix(1 0 0 1 64.6922 28.0983)" class="st0 st1">II</text>
	<text transform="matrix(1 0 0 1 102.9877 28.0982)" class="st0 st1">III</text>
	<text transform="matrix(1 0 0 1 143.3461 28.0978)" class="st0 st1">IV</text>
	<text transform="matrix(1 0 0 1 184.545 28.0983)" class="st0 st1">V</text>
	<text transform="matrix(1 0 0 1 223.2133 28.0974)" class="st0 st1">VI</text>
	<text transform="matrix(1 0 0 1 261.8945 28.0974)" class="st0 st1">VII</text>
	<text transform="matrix(1 0 0 1 300.5809 28.098)" class="st0 st1">VIII</text>
	<text transform="matrix(1 0 0 1 341.5502 28.0974)" class="st0 st1">IX</text>
	<g>
		<line class="st4" x1="326.4" y1="18.61" x2="326.4" y2="61.06"/>
		<line class="st4" x1="86.74" y1="18.61" x2="86.74" y2="61.06"/>
		<line class="st4" x1="126.68" y1="18.61" x2="126.68" y2="61.06"/>
		<line class="st4" x1="166.62" y1="18.61" x2="166.62" y2="61.06"/>
		<line class="st4" x1="246.51" y1="18.61" x2="246.51" y2="61.06"/>
		<line class="st4" x1="286.46" y1="18.61" x2="286.46" y2="61.06"/>
		<line class="st4" x1="206.57" y1="18.61" x2="206.57" y2="61.06"/>
	</g>
	<line class="st4" x1="363.07" y1="18.61" x2="47.92" y2="18.61"/>
	<line class="st4" x1="363.07" y1="34.38" x2="47.94" y2="34.38"/>
</g>
<g id="Französisch">
</g>
<g id="Englisch">
</g>
<g id="Deutsch">
</g>
</svg>