<?xml version="1.0" encoding="UTF-8"?><svg id="Französisch" xmlns="http://www.w3.org/2000/svg" xmlns:xlink="http://www.w3.org/1999/xlink" viewBox="0 0 363.07 61.06"><defs><style>.cls-1,.cls-2{fill:none;}.cls-3{fill:url(#linear-gradient);}.cls-4{clip-path:url(#clippath);}.cls-5{letter-spacing:-.02em;}.cls-6{fill:#d3d3d3;}.cls-7{font-size:5.7px;}.cls-7,.cls-8,.cls-9{fill:#231f20;font-family:Verdana, Verdana;}.cls-8{font-size:5.8px;}.cls-9{font-size:6px;}.cls-2{stroke:#fff;stroke-miterlimit:10;stroke-width:.5px;}</style><clipPath id="clippath"><rect class="cls-1" x="47.92" width="315.15" height="18.61"/></clipPath><linearGradient id="linear-gradient" x1="794.54" y1="531.53" x2="2015.76" y2="531.53" gradientTransform="translate(-157.12 -584.68) scale(.26 1.12)" gradientUnits="userSpaceOnUse"><stop offset="0" stop-color="#b2b1d8"/><stop offset=".12" stop-color="#b2b1d8"/><stop offset=".16" stop-color="#6dcad2"/><stop offset=".21" stop-color="#7dc46a"/><stop offset=".29" stop-color="#aacb3b"/><stop offset=".34" stop-color="#d3de28"/><stop offset=".41" stop-color="#f5eb10"/><stop offset=".47" stop-color="#ffcd2b"/><stop offset=".54" stop-color="#f2882d"/><stop offset=".59" stop-color="#f58020"/><stop offset=".67" stop-color="#ea4624"/><stop offset=".72" stop-color="#e01f26"/><stop offset=".79" stop-color="#e01f26"/><stop offset=".84" stop-color="#6f0f10"/><stop offset=".89" stop-color="#431211"/></linearGradient></defs><text class="cls-9" transform="translate(18.96 28.1)"><tspan x="0" y="0">Intensité</tspan></text><text class="cls-9" transform="translate(28.65 48.69)"><tspan x="0" y="0">Effets</tspan></text><g class="cls-4"><rect class="cls-3" x="47.92" width="315.15" height="18.61"/></g><rect class="cls-6" x="47.95" y="18.61" width="315.11" height="15.77"/><g><line class="cls-2" x1="326.4" y1="0" x2="326.4" y2="18.61"/><line class="cls-2" x1="86.74" y1="0" x2="86.74" y2="18.61"/><line class="cls-2" x1="126.68" y1="0" x2="126.68" y2="18.61"/><line class="cls-2" x1="166.63" y1="0" x2="166.63" y2="18.61"/><line class="cls-2" x1="246.51" y1="0" x2="246.51" y2="18.61"/><line class="cls-2" x1="286.46" y1="0" x2="286.46" y2="18.61"/><line class="cls-2" x1="206.57" y1="0" x2="206.57" y2="18.61"/></g><rect class="cls-6" x="47.95" y="34.38" width="315.11" height="26.68"/><text class="cls-8" transform="translate(53.8 45.88)"><tspan class="cls-5" x="0" y="0">r</tspan><tspan x="2.37" y="0">arement</tspan><tspan x="1.93" y="6.96">ressenti</tspan></text><text class="cls-8" transform="translate(98.89 49.48)"><tspan x="0" y="0">faible</tspan></text><text class="cls-8" transform="translate(131.82 45.88)"><tspan x="0" y="0">largement</tspan><tspan x="3.35" y="6.96">observé</tspan></text><text class="cls-8" transform="translate(181.44 49.48)"><tspan x="0" y="0">fort</tspan></text><text class="cls-8" transform="translate(216.79 45.88)"><tspan x="0" y="0">dégâts</tspan><tspan x=".93" y="6.96">légers</tspan></text><text class="cls-8" transform="translate(256.73 49.48)"><tspan x="0" y="0">dégâts</tspan></text><text class="cls-8" transform="translate(296.68 45.88)"><tspan x="0" y="0">dégâts</tspan><tspan x="-6.06" y="6.96">importants</tspan></text><text class="cls-7" transform="translate(327.35 49.48)"><tspan x="0" y="0">destructions</tspan></text><text class="cls-9" transform="translate(64.69 28.1)"><tspan x="0" y="0">II</tspan></text><text class="cls-9" transform="translate(102.99 28.1)"><tspan x="0" y="0">III</tspan></text><text class="cls-9" transform="translate(143.35 28.1)"><tspan x="0" y="0">IV</tspan></text><text class="cls-9" transform="translate(184.55 28.1)"><tspan x="0" y="0">V</tspan></text><text class="cls-9" transform="translate(223.21 28.1)"><tspan x="0" y="0">VI</tspan></text><text class="cls-9" transform="translate(261.89 28.1)"><tspan x="0" y="0">VII</tspan></text><text class="cls-9" transform="translate(300.58 28.1)"><tspan x="0" y="0">VIII</tspan></text><text class="cls-9" transform="translate(341.55 28.1)"><tspan x="0" y="0">IX</tspan></text><g><line class="cls-2" x1="326.4" y1="18.61" x2="326.4" y2="61.06"/><line class="cls-2" x1="86.74" y1="18.61" x2="86.74" y2="61.06"/><line class="cls-2" x1="126.68" y1="18.61" x2="126.68" y2="61.06"/><line class="cls-2" x1="166.62" y1="18.61" x2="166.62" y2="61.06"/><line class="cls-2" x1="246.51" y1="18.61" x2="246.51" y2="61.06"/><line class="cls-2" x1="286.46" y1="18.61" x2="286.46" y2="61.06"/><line class="cls-2" x1="206.57" y1="18.61" x2="206.57" y2="61.06"/></g><line class="cls-2" x1="363.07" y1="18.61" x2="47.92" y2="18.61"/><line class="cls-2" x1="363.07" y1="34.38" x2="47.94" y2="34.38"/></svg>