<?xml version="1.0" encoding="UTF-8"?><svg id="Layer_2" xmlns="http://www.w3.org/2000/svg" viewBox="0 0 387.86 38.34"><defs><style>.cls-1{letter-spacing:.01em;}.cls-2{fill:#fff;}.cls-3{fill:#ed1c24;}.cls-4,.cls-5{fill:#231f20;}.cls-6{letter-spacing:.01em;}.cls-7{letter-spacing:0em;}.cls-8{letter-spacing:-.04em;}.cls-5{font-family:Arial-BoldMT, Arial;font-size:7.3px;font-weight:700;}</style></defs><g id="Layer_1-2"><g><path class="cls-4" d="m29.91,6.54c.31.2.67.31,1.16.31.65,0,1.18-.33,1.18-1.07,0-1.03-2.4-1.16-2.4-2.53,0-.84.74-1.37,1.66-1.37.25,0,.67.04,1.03.17l-.08.47c-.23-.13-.6-.2-.95-.2-.54,0-1.13.23-1.13.9,0,1.05,2.4,1.06,2.4,2.59,0,1.06-.91,1.48-1.72,1.48-.51,0-.91-.11-1.19-.23l.05-.53h0Z"/><path class="cls-4" d="m36.83,3.89c-.25-.11-.56-.19-.82-.19-.92,0-1.44.67-1.44,1.6,0,.87.53,1.6,1.39,1.6.3,0,.58-.07.86-.17l.04.44c-.32.11-.62.13-.98.13-1.23,0-1.83-.94-1.83-2,0-1.18.76-2,1.89-2,.46,0,.79.1.92.15l-.04.45h0Z"/><path class="cls-4" d="m38.26,1.58h.47v2.45h.02c.2-.42.63-.74,1.19-.74,1.03,0,1.31.68,1.31,1.63v2.29h-.47v-2.28c0-.66-.13-1.23-.91-1.23-.84,0-1.13.8-1.13,1.46v2.05h-.47V1.58h0Z"/><polygon class="cls-4" points="46.95 7.2 46.38 7.2 45.33 3.9 45.32 3.9 44.28 7.2 43.71 7.2 42.48 3.38 42.99 3.38 44 6.69 44.01 6.69 45.08 3.38 45.65 3.38 46.66 6.69 46.68 6.69 47.74 3.38 48.21 3.38 46.95 7.2 46.95 7.2"/><path class="cls-4" d="m51.77,5.02c0-.67-.27-1.33-.98-1.33s-1.13.7-1.13,1.33h2.1Zm.23,2.06c-.33.14-.76.21-1.11.21-1.27,0-1.74-.86-1.74-2s.65-2,1.61-2c1.08,0,1.52.87,1.52,1.9v.24h-2.62c0,.81.44,1.46,1.26,1.46.35,0,.85-.14,1.07-.29v.48h0Z"/><path class="cls-4" d="m53.78,3.38h.47v3.83h-.47v-3.83h0Zm.47-1.02h-.47v-.63h.47v.63h0Z"/><polygon class="cls-4" points="55.67 6.81 57.98 3.78 55.76 3.78 55.76 3.38 58.53 3.38 58.53 3.78 56.22 6.8 58.53 6.8 58.53 7.2 55.67 7.2 55.67 6.81 55.67 6.81"/><path class="cls-4" d="m62.28,5.02c0-.67-.27-1.33-.98-1.33s-1.13.7-1.13,1.33h2.1Zm.23,2.06c-.33.14-.76.21-1.11.21-1.27,0-1.74-.86-1.74-2s.65-2,1.61-2c1.08,0,1.52.87,1.52,1.9v.24h-2.62c0,.81.44,1.46,1.26,1.46.35,0,.85-.14,1.07-.29v.48h0Z"/><path class="cls-4" d="m64.28,4.23c0-.42,0-.58-.03-.86h.47v.74h.01c.17-.43.5-.83.98-.83.11,0,.25.02.33.04v.5c-.1-.03-.23-.05-.35-.05-.75,0-.95.84-.95,1.53v1.89h-.47v-2.97h0Z"/><path class="cls-4" d="m67.37,3.38h.47v3.83h-.47v-3.83h0Zm.47-1.02h-.47v-.63h.47v.63h0Z"/><path class="cls-4" d="m69.32,6.65c.29.14.63.24,1,.24.45,0,.85-.25.85-.68,0-.91-1.84-.77-1.84-1.88,0-.76.62-1.04,1.25-1.04.2,0,.61.04.95.17l-.04.41c-.25-.11-.58-.18-.85-.18-.49,0-.83.15-.83.64,0,.71,1.88.62,1.88,1.88,0,.81-.76,1.09-1.34,1.09-.37,0-.74-.04-1.07-.18l.04-.47h0Z"/><path class="cls-4" d="m75.61,3.89c-.25-.11-.56-.19-.82-.19-.92,0-1.44.67-1.44,1.6,0,.87.53,1.6,1.39,1.6.3,0,.58-.07.86-.17l.04.44c-.32.11-.62.13-.98.13-1.23,0-1.83-.94-1.83-2,0-1.18.76-2,1.89-2,.46,0,.79.1.92.15l-.04.45h0Z"/><path class="cls-4" d="m77.04,1.58h.47v2.45h.02c.2-.42.63-.74,1.19-.74,1.03,0,1.31.68,1.31,1.63v2.29h-.47v-2.28c0-.66-.13-1.23-.91-1.23-.84,0-1.13.8-1.13,1.46v2.05h-.47V1.58h0Z"/><path class="cls-4" d="m84.13,5.02c0-.67-.27-1.33-.98-1.33s-1.13.7-1.13,1.33h2.1Zm.23,2.06c-.33.14-.76.21-1.11.21-1.27,0-1.74-.86-1.74-2s.65-2,1.61-2c1.08,0,1.52.87,1.52,1.9v.24h-2.62c0,.81.44,1.46,1.26,1.46.35,0,.85-.14,1.07-.29v.48h0Z"/><polygon class="cls-4" points="88.63 1.97 91.2 1.97 91.2 2.42 89.15 2.42 89.15 4.29 91.09 4.29 91.09 4.74 89.15 4.74 89.15 6.75 91.29 6.75 91.29 7.2 88.63 7.2 88.63 1.97 88.63 1.97"/><path class="cls-4" d="m92.91,3.38h.47v3.83h-.47v-3.83h0Zm.47-1.02h-.47v-.63h.47v.63h0Z"/><path class="cls-4" d="m96.59,6.89c.84,0,1.13-.9,1.13-1.6s-.29-1.6-1.13-1.6c-.9,0-1.13.86-1.13,1.6s.23,1.6,1.13,1.6h0Zm1.61.32h-.47v-.61h-.02c-.25.49-.64.7-1.19.7-1.05,0-1.58-.87-1.58-2s.45-2,1.58-2c.75,0,1.12.55,1.19.74h.02V1.58h.47v5.63h0Z"/><path class="cls-4" d="m101.32,6.8c.85,0,1.16-.81,1.16-1.51,0-.92-.27-1.6-1.13-1.6s-1.13.86-1.13,1.6.3,1.51,1.1,1.51h0Zm1.64.09c0,1.07-.48,1.94-1.79,1.94-.5,0-.96-.14-1.16-.2l.04-.47c.29.15.71.27,1.12.27,1.22,0,1.32-.89,1.32-1.97h-.01c-.25.56-.68.75-1.16.75-1.22,0-1.61-1.07-1.61-1.91,0-1.16.45-2,1.58-2,.51,0,.84.07,1.19.53h.01v-.44h.47v3.51h0Z"/><path class="cls-4" d="m107.01,5.02c0-.67-.27-1.33-.98-1.33s-1.13.7-1.13,1.33h2.1Zm.23,2.06c-.33.14-.76.21-1.11.21-1.27,0-1.74-.86-1.74-2s.64-2,1.61-2c1.08,0,1.52.87,1.52,1.9v.24h-2.62c0,.81.44,1.46,1.26,1.46.35,0,.85-.14,1.07-.29v.48h0Z"/><path class="cls-4" d="m109.02,4.28c0-.29,0-.59-.03-.9h.46v.68h.02c.16-.35.44-.77,1.24-.77.95,0,1.31.63,1.31,1.47v2.45h-.47v-2.33c0-.72-.26-1.19-.91-1.19-.86,0-1.13.76-1.13,1.4v2.12h-.47v-2.93h0Z"/><path class="cls-4" d="m115.27,6.89c.82,0,1.27-.71,1.27-1.6s-.44-1.6-1.27-1.6-1.27.71-1.27,1.6.44,1.6,1.27,1.6h0Zm0-3.6c1.24,0,1.79.96,1.79,2s-.55,2-1.79,2-1.79-.96-1.79-2,.55-2,1.79-2h0Z"/><path class="cls-4" d="m118.24,6.65c.29.14.63.24,1,.24.45,0,.85-.25.85-.68,0-.91-1.84-.77-1.84-1.88,0-.76.61-1.04,1.24-1.04.2,0,.61.04.95.17l-.04.41c-.25-.11-.59-.18-.85-.18-.49,0-.83.15-.83.64,0,.71,1.88.62,1.88,1.88,0,.81-.76,1.09-1.34,1.09-.37,0-.74-.04-1.07-.18l.04-.47h0Z"/><path class="cls-4" d="m121.74,6.65c.29.14.63.24,1,.24.45,0,.85-.25.85-.68,0-.91-1.84-.77-1.84-1.88,0-.76.61-1.04,1.25-1.04.2,0,.61.04.95.17l-.04.41c-.25-.11-.59-.18-.85-.18-.49,0-.83.15-.83.64,0,.71,1.88.62,1.88,1.88,0,.81-.76,1.09-1.34,1.09-.37,0-.74-.04-1.07-.18l.04-.47h0Z"/><path class="cls-4" d="m127.87,5.02c0-.67-.27-1.33-.98-1.33s-1.13.7-1.13,1.33h2.1Zm.23,2.06c-.33.14-.76.21-1.11.21-1.27,0-1.74-.86-1.74-2s.65-2,1.61-2c1.08,0,1.52.87,1.52,1.9v.24h-2.62c0,.81.43,1.46,1.26,1.46.35,0,.85-.14,1.07-.29v.48h0Z"/><path class="cls-4" d="m129.88,4.28c0-.29,0-.59-.03-.9h.46v.68h.01c.16-.35.44-.77,1.24-.77.95,0,1.31.63,1.31,1.47v2.45h-.47v-2.33c0-.72-.26-1.19-.91-1.19-.86,0-1.13.76-1.13,1.4v2.12h-.47v-2.93h0Z"/><path class="cls-4" d="m134.34,6.65c.28.14.63.24,1,.24.45,0,.85-.25.85-.68,0-.91-1.84-.77-1.84-1.88,0-.76.62-1.04,1.25-1.04.2,0,.61.04.95.17l-.05.41c-.25-.11-.59-.18-.85-.18-.49,0-.83.15-.83.64,0,.71,1.88.62,1.88,1.88,0,.81-.76,1.09-1.34,1.09-.37,0-.74-.04-1.07-.18l.05-.47h0Z"/><path class="cls-4" d="m140.63,3.89c-.26-.11-.56-.19-.82-.19-.92,0-1.44.67-1.44,1.6,0,.87.53,1.6,1.39,1.6.3,0,.58-.07.86-.17l.04.44c-.32.11-.62.13-.98.13-1.23,0-1.83-.94-1.83-2,0-1.18.76-2,1.89-2,.46,0,.79.1.92.15l-.04.45h0Z"/><path class="cls-4" d="m142.06,1.58h.47v2.45h.01c.2-.42.63-.74,1.19-.74,1.03,0,1.31.68,1.31,1.63v2.29h-.47v-2.28c0-.66-.13-1.23-.91-1.23-.84,0-1.13.8-1.13,1.46v2.05h-.47V1.58h0Z"/><path class="cls-4" d="m148.97,5.28h-.13c-.82,0-1.79.08-1.79.92,0,.5.36.69.79.69,1.11,0,1.13-.97,1.13-1.38v-.23h0Zm.04,1.31h-.01c-.21.46-.74.71-1.22.71-1.09,0-1.26-.74-1.26-1.08,0-1.28,1.37-1.34,2.36-1.34h.09v-.2c0-.65-.23-.98-.87-.98-.4,0-.77.09-1.13.32v-.46c.29-.14.79-.26,1.13-.26.95,0,1.34.43,1.34,1.43v1.69c0,.31,0,.54.04.8h-.47v-.62h0Z"/><path class="cls-4" d="m151.47,3.78h-.77v-.41h.77v-.28c0-.8.03-1.61,1.01-1.61.15,0,.35.02.44.08l-.03.41c-.1-.05-.24-.08-.38-.08-.64,0-.58.7-.58,1.16v.33h.86v.41h-.86v3.42h-.47v-3.42h0Z"/><path class="cls-4" d="m155.88,3.78h-.87v2.48c0,.35.13.63.51.63.18,0,.3-.04.43-.09l.03.39c-.11.05-.35.11-.58.11-.84,0-.87-.58-.87-1.28v-2.24h-.75v-.41h.75v-.92l.47-.17v1.09h.87v.41h0Z"/><path class="cls-4" d="m33.59,12.9c-.33-.17-.8-.23-1.17-.23-1.36,0-2.12.96-2.12,2.26s.74,2.26,2.12,2.26c.35,0,.87-.04,1.17-.23l.03.45c-.29.17-.87.23-1.2.23-1.65,0-2.64-1.09-2.64-2.71s1.02-2.71,2.64-2.71c.31,0,.93.05,1.2.2l-.03.48h0Z"/><path class="cls-4" d="m36.84,17.24c.83,0,1.27-.71,1.27-1.6s-.44-1.6-1.27-1.6-1.27.71-1.27,1.6.44,1.6,1.27,1.6h0Zm0-3.6c1.24,0,1.79.96,1.79,2s-.55,2-1.79,2-1.79-.96-1.79-2,.55-2,1.79-2h0Z"/><path class="cls-4" d="m40.1,14.63c0-.29,0-.59-.03-.9h.46v.68h.02c.16-.35.44-.77,1.24-.77.95,0,1.31.63,1.31,1.47v2.45h-.47v-2.33c0-.72-.25-1.19-.91-1.19-.86,0-1.13.76-1.13,1.4v2.12h-.47v-2.93h0Z"/><path class="cls-4" d="m45.18,14.13h-.77v-.41h.77v-.28c0-.8.03-1.61,1.01-1.61.15,0,.35.02.44.07l-.03.41c-.1-.05-.24-.08-.38-.08-.65,0-.58.7-.58,1.16v.33h.86v.41h-.86v3.42h-.47v-3.42h0Z"/><path class="cls-4" d="m49.49,12.25h.59l-.95,1.08h-.35l.7-1.08h0Zm.79,3.12c0-.67-.27-1.33-.98-1.33s-1.13.7-1.13,1.33h2.1Zm.23,2.06c-.33.14-.76.21-1.11.21-1.27,0-1.74-.86-1.74-2s.65-2,1.61-2c1.08,0,1.52.87,1.52,1.9v.24h-2.62c0,.81.44,1.46,1.26,1.46.35,0,.85-.14,1.07-.29v.48h0Z"/><path class="cls-4" d="m53.71,17.24c.84,0,1.13-.9,1.13-1.6s-.29-1.6-1.13-1.6c-.9,0-1.13.86-1.13,1.6s.23,1.6,1.13,1.6h0Zm1.61.31h-.47v-.61h-.01c-.26.49-.65.7-1.19.7-1.05,0-1.58-.87-1.58-2s.45-2,1.58-2c.75,0,1.13.55,1.19.74h.01v-2.45h.47v5.63h0Z"/><path class="cls-4" d="m58.59,12.25h.59l-.95,1.08h-.34l.7-1.08h0Zm.79,3.12c0-.67-.27-1.33-.98-1.33s-1.13.7-1.13,1.33h2.1Zm.23,2.06c-.33.14-.76.21-1.11.21-1.27,0-1.74-.86-1.74-2s.65-2,1.61-2c1.08,0,1.52.87,1.52,1.9v.24h-2.62c0,.81.44,1.46,1.26,1.46.35,0,.85-.14,1.07-.29v.48h0Z"/><path class="cls-4" d="m61.38,14.58c0-.42,0-.58-.03-.86h.47v.74h.01c.17-.43.5-.83.98-.83.11,0,.25.02.33.04v.5c-.1-.03-.23-.05-.35-.05-.75,0-.95.84-.95,1.53v1.89h-.47v-2.97h0Z"/><path class="cls-4" d="m66.62,15.63h-.14c-.82,0-1.79.08-1.79.92,0,.5.36.69.8.69,1.11,0,1.13-.97,1.13-1.38v-.23h0Zm.04,1.31h-.02c-.21.46-.74.71-1.22.71-1.09,0-1.26-.74-1.26-1.08,0-1.28,1.37-1.34,2.36-1.34h.09v-.2c0-.65-.23-.98-.87-.98-.4,0-.77.09-1.13.32v-.46c.29-.14.79-.26,1.13-.26.95,0,1.34.43,1.34,1.43v1.69c0,.31,0,.54.04.8h-.47v-.62h0Z"/><path class="cls-4" d="m70.45,14.13h-.87v2.48c0,.35.13.63.51.63.18,0,.3-.04.44-.09l.03.39c-.11.05-.35.11-.58.11-.84,0-.87-.58-.87-1.28v-2.24h-.75v-.41h.75v-.92l.47-.17v1.09h.87v.41h0Z"/><path class="cls-4" d="m71.88,13.73h.47v3.83h-.47v-3.83h0Zm.47-1.02h-.47v-.63h.47v.63h0Z"/><path class="cls-4" d="m75.63,17.24c.83,0,1.27-.71,1.27-1.6s-.44-1.6-1.27-1.6-1.27.71-1.27,1.6.44,1.6,1.27,1.6h0Zm0-3.6c1.24,0,1.79.96,1.79,2s-.55,2-1.79,2-1.79-.96-1.79-2,.55-2,1.79-2h0Z"/><path class="cls-4" d="m78.89,14.63c0-.29,0-.59-.03-.9h.46v.68h.02c.16-.35.44-.77,1.24-.77.95,0,1.31.63,1.31,1.47v2.45h-.47v-2.33c0-.72-.25-1.19-.91-1.19-.86,0-1.13.76-1.13,1.4v2.12h-.47v-2.93h0Z"/><path class="cls-4" d="m85.95,17c.29.14.63.24,1,.24.45,0,.85-.25.85-.68,0-.91-1.84-.77-1.84-1.88,0-.76.62-1.04,1.25-1.04.2,0,.61.04.95.17l-.04.41c-.25-.11-.58-.18-.85-.18-.49,0-.83.15-.83.64,0,.71,1.88.62,1.88,1.88,0,.81-.76,1.09-1.34,1.09-.37,0-.74-.04-1.07-.18l.05-.47h0Z"/><path class="cls-4" d="m92.73,16.65c0,.29,0,.59.03.9h-.46v-.68h-.01c-.16.34-.44.77-1.24.77-.95,0-1.31-.63-1.31-1.47v-2.45h.47v2.33c0,.72.26,1.19.91,1.19.86,0,1.13-.76,1.13-1.4v-2.12h.47v2.93h0Z"/><path class="cls-4" d="m94.51,13.73h.47v3.83h-.47v-3.83h0Zm.47-1.02h-.47v-.63h.47v.63h0Z"/><path class="cls-4" d="m96.46,17c.29.14.63.24,1,.24.45,0,.85-.25.85-.68,0-.91-1.84-.77-1.84-1.88,0-.76.62-1.04,1.25-1.04.2,0,.61.04.95.17l-.04.41c-.25-.11-.59-.18-.85-.18-.49,0-.83.15-.83.64,0,.71,1.88.62,1.88,1.88,0,.81-.76,1.09-1.34,1.09-.37,0-.74-.04-1.07-.18l.04-.47h0Z"/><path class="cls-4" d="m99.97,17c.29.14.63.24,1,.24.45,0,.85-.25.85-.68,0-.91-1.84-.77-1.84-1.88,0-.76.62-1.04,1.25-1.04.2,0,.61.04.94.17l-.04.41c-.25-.11-.58-.18-.85-.18-.49,0-.83.15-.83.64,0,.71,1.88.62,1.88,1.88,0,.81-.76,1.09-1.34,1.09-.37,0-.74-.04-1.07-.18l.05-.47h0Z"/><path class="cls-4" d="m106.1,15.37c0-.67-.27-1.33-.97-1.33s-1.13.7-1.13,1.33h2.1Zm.23,2.06c-.33.14-.76.21-1.11.21-1.27,0-1.74-.86-1.74-2s.65-2,1.61-2c1.08,0,1.52.87,1.52,1.9v.24h-2.62c0,.81.43,1.46,1.26,1.46.35,0,.85-.14,1.07-.29v.48h0Z"/><path class="cls-4" d="m33.59,23.25c-.33-.17-.8-.23-1.17-.23-1.36,0-2.12.96-2.12,2.26s.74,2.26,2.12,2.26c.35,0,.87-.04,1.17-.23l.03.45c-.29.17-.87.23-1.2.23-1.65,0-2.64-1.09-2.64-2.71s1.02-2.71,2.64-2.71c.31,0,.93.05,1.2.19l-.03.48h0Z"/><path class="cls-4" d="m36.84,27.59c.83,0,1.27-.71,1.27-1.6s-.44-1.6-1.27-1.6-1.27.71-1.27,1.6.44,1.6,1.27,1.6h0Zm0-3.6c1.24,0,1.79.96,1.79,2s-.55,2-1.79,2-1.79-.96-1.79-2,.55-2,1.79-2h0Z"/><path class="cls-4" d="m40.1,24.98c0-.29,0-.59-.03-.9h.46v.68h.02c.16-.35.44-.77,1.24-.77.95,0,1.31.63,1.31,1.47v2.45h-.47v-2.33c0-.72-.25-1.19-.91-1.19-.86,0-1.13.76-1.13,1.4v2.12h-.47v-2.93h0Z"/><path class="cls-4" d="m45.18,24.48h-.77v-.41h.77v-.28c0-.8.03-1.61,1.01-1.61.15,0,.35.02.44.08l-.03.41c-.1-.05-.24-.08-.38-.08-.65,0-.58.7-.58,1.16v.33h.86v.41h-.86v3.42h-.47v-3.42h0Z"/><path class="cls-4" d="m50.28,25.72c0-.67-.27-1.33-.98-1.33s-1.13.7-1.13,1.33h2.1Zm.23,2.06c-.33.14-.76.21-1.11.21-1.27,0-1.74-.86-1.74-2s.65-2,1.61-2c1.08,0,1.52.87,1.52,1.9v.24h-2.62c0,.81.44,1.46,1.26,1.46.35,0,.85-.14,1.07-.29v.48h0Z"/><path class="cls-4" d="m53.71,27.59c.84,0,1.13-.9,1.13-1.6s-.29-1.6-1.13-1.6c-.9,0-1.13.86-1.13,1.6s.23,1.6,1.13,1.6h0Zm1.61.32h-.47v-.61h-.01c-.26.49-.65.7-1.19.7-1.05,0-1.58-.87-1.58-2s.45-2,1.58-2c.75,0,1.13.55,1.19.74h.01v-2.45h.47v5.63h0Z"/><path class="cls-4" d="m59.37,25.72c0-.67-.27-1.33-.98-1.33s-1.13.7-1.13,1.33h2.1Zm.23,2.06c-.33.14-.76.21-1.11.21-1.27,0-1.74-.86-1.74-2s.65-2,1.61-2c1.08,0,1.52.87,1.52,1.9v.24h-2.62c0,.81.44,1.46,1.26,1.46.35,0,.85-.14,1.07-.29v.48h0Z"/><path class="cls-4" d="m61.38,24.93c0-.42,0-.58-.03-.86h.47v.74h.01c.17-.43.5-.83.98-.83.11,0,.25.02.33.04v.5c-.1-.03-.23-.05-.35-.05-.75,0-.95.84-.95,1.53v1.89h-.47v-2.97h0Z"/><path class="cls-4" d="m66.62,25.98h-.14c-.82,0-1.79.08-1.79.92,0,.5.36.69.8.69,1.11,0,1.13-.97,1.13-1.38v-.23h0Zm.04,1.31h-.02c-.21.46-.74.71-1.22.71-1.09,0-1.26-.74-1.26-1.08,0-1.28,1.37-1.34,2.36-1.34h.09v-.2c0-.65-.23-.98-.87-.98-.4,0-.77.09-1.13.31v-.46c.29-.14.79-.26,1.13-.26.95,0,1.34.43,1.34,1.43v1.69c0,.31,0,.54.04.8h-.47v-.62h0Z"/><polygon class="cls-4" points="68.45 27.51 70.75 24.48 68.54 24.48 68.54 24.08 71.3 24.08 71.3 24.48 68.99 27.5 71.3 27.5 71.3 27.9 68.45 27.9 68.45 27.51 68.45 27.51"/><path class="cls-4" d="m72.72,24.08h.47v3.83h-.47v-3.83h0Zm.47-1.02h-.47v-.63h.47v.63h0Z"/><path class="cls-4" d="m76.46,27.59c.83,0,1.27-.71,1.27-1.6s-.44-1.6-1.27-1.6-1.27.71-1.27,1.6.44,1.6,1.27,1.6h0Zm0-3.6c1.24,0,1.79.96,1.79,2s-.55,2-1.79,2-1.79-.96-1.79-2,.55-2,1.79-2h0Z"/><path class="cls-4" d="m79.72,24.98c0-.29,0-.59-.03-.9h.46v.68h.02c.16-.35.44-.77,1.24-.77.95,0,1.31.63,1.31,1.47v2.45h-.47v-2.33c0-.72-.25-1.19-.91-1.19-.86,0-1.13.76-1.13,1.4v2.12h-.47v-2.93h0Z"/><path class="cls-4" d="m86.81,25.72c0-.67-.27-1.33-.98-1.33s-1.13.7-1.13,1.33h2.1Zm.23,2.06c-.33.14-.76.21-1.11.21-1.27,0-1.74-.86-1.74-2s.65-2,1.61-2c1.08,0,1.52.87,1.52,1.9v.24h-2.62c0,.81.44,1.46,1.26,1.46.35,0,.85-.14,1.07-.29v.48h0Z"/><path class="cls-4" d="m91.32,27.24c.31.2.67.31,1.15.31.65,0,1.18-.33,1.18-1.07,0-1.03-2.4-1.16-2.4-2.53,0-.84.74-1.37,1.66-1.37.26,0,.67.04,1.03.17l-.08.47c-.23-.13-.6-.2-.95-.2-.54,0-1.13.23-1.13.9,0,1.05,2.4,1.06,2.4,2.59,0,1.06-.91,1.48-1.72,1.48-.51,0-.91-.1-1.19-.23l.05-.53h0Z"/><polygon class="cls-4" points="97.08 27.9 96.52 27.9 95.23 24.08 95.74 24.08 96.8 27.39 96.82 27.39 97.93 24.08 98.42 24.08 97.08 27.9 97.08 27.9"/><path class="cls-4" d="m99.67,24.08h.47v3.83h-.47v-3.83h0Zm.47-1.02h-.47v-.63h.47v.63h0Z"/><polygon class="cls-4" points="101.57 27.51 103.87 24.48 101.66 24.48 101.66 24.08 104.42 24.08 104.42 24.48 102.11 27.5 104.42 27.5 104.42 27.9 101.57 27.9 101.57 27.51 101.57 27.51"/><polygon class="cls-4" points="105.48 27.51 107.79 24.48 105.57 24.48 105.57 24.08 108.33 24.08 108.33 24.48 106.03 27.5 108.33 27.5 108.33 27.9 105.48 27.9 105.48 27.51 105.48 27.51"/><path class="cls-4" d="m112.09,25.72c0-.67-.27-1.33-.98-1.33s-1.13.7-1.13,1.33h2.1Zm.23,2.06c-.33.14-.76.21-1.11.21-1.27,0-1.74-.86-1.74-2s.64-2,1.61-2c1.08,0,1.52.87,1.52,1.9v.24h-2.62c0,.81.44,1.46,1.26,1.46.35,0,.85-.14,1.07-.29v.48h0Z"/><path class="cls-4" d="m114.09,24.93c0-.42,0-.58-.03-.86h.47v.74h.01c.17-.43.5-.83.98-.83.11,0,.25.02.33.04v.5c-.1-.03-.23-.05-.35-.05-.75,0-.95.84-.95,1.53v1.89h-.47v-2.97h0Z"/><path class="cls-4" d="m119.33,25.98h-.13c-.82,0-1.79.08-1.79.92,0,.5.36.69.79.69,1.11,0,1.13-.97,1.13-1.38v-.23h0Zm.05,1.31h-.01c-.21.46-.74.71-1.22.71-1.09,0-1.26-.74-1.26-1.08,0-1.28,1.37-1.34,2.36-1.34h.09v-.2c0-.65-.23-.98-.87-.98-.4,0-.77.09-1.13.31v-.46c.29-.14.79-.26,1.13-.26.95,0,1.34.43,1.34,1.43v1.69c0,.31,0,.54.04.8h-.47v-.62h0Z"/><path class="cls-4" d="m33.59,33.6c-.33-.17-.8-.23-1.17-.23-1.36,0-2.12.96-2.12,2.26s.74,2.26,2.12,2.26c.35,0,.87-.04,1.17-.23l.03.45c-.29.17-.87.23-1.2.23-1.65,0-2.64-1.09-2.64-2.71s1.02-2.71,2.64-2.71c.31,0,.93.05,1.2.19l-.03.48h0Z"/><path class="cls-4" d="m36.84,37.94c.83,0,1.27-.71,1.27-1.6s-.44-1.6-1.27-1.6-1.27.71-1.27,1.6.44,1.6,1.27,1.6h0Zm0-3.6c1.24,0,1.79.96,1.79,2s-.55,2-1.79,2-1.79-.96-1.79-2,.55-2,1.79-2h0Z"/><path class="cls-4" d="m40.1,35.33c0-.29,0-.59-.03-.9h.46v.68h.02c.16-.35.44-.77,1.24-.77.95,0,1.31.63,1.31,1.47v2.45h-.47v-2.33c0-.72-.25-1.19-.91-1.19-.86,0-1.13.76-1.13,1.4v2.12h-.47v-2.93h0Z"/><path class="cls-4" d="m45.18,34.83h-.77v-.41h.77v-.28c0-.8.03-1.61,1.01-1.61.15,0,.35.02.44.08l-.03.41c-.1-.05-.24-.08-.38-.08-.65,0-.58.7-.58,1.16v.33h.86v.41h-.86v3.42h-.47v-3.42h0Z"/><path class="cls-4" d="m50.28,36.07c0-.67-.27-1.33-.98-1.33s-1.13.7-1.13,1.33h2.1Zm.23,2.06c-.33.14-.76.21-1.11.21-1.27,0-1.74-.86-1.74-2s.65-2,1.61-2c1.08,0,1.52.87,1.52,1.9v.24h-2.62c0,.81.44,1.46,1.26,1.46.35,0,.85-.14,1.07-.29v.48h0Z"/><path class="cls-4" d="m53.71,37.94c.84,0,1.13-.9,1.13-1.6s-.29-1.6-1.13-1.6c-.9,0-1.13.86-1.13,1.6s.23,1.6,1.13,1.6h0Zm1.61.31h-.47v-.61h-.01c-.26.49-.65.7-1.19.7-1.05,0-1.58-.87-1.58-2s.45-2,1.58-2c.75,0,1.13.55,1.19.74h.01v-2.45h.47v5.63h0Z"/><path class="cls-4" d="m59.37,36.07c0-.67-.27-1.33-.98-1.33s-1.13.7-1.13,1.33h2.1Zm.23,2.06c-.33.14-.76.21-1.11.21-1.27,0-1.74-.86-1.74-2s.65-2,1.61-2c1.08,0,1.52.87,1.52,1.9v.24h-2.62c0,.81.44,1.46,1.26,1.46.35,0,.85-.14,1.07-.29v.48h0Z"/><path class="cls-4" d="m61.38,35.28c0-.42,0-.58-.03-.86h.47v.74h.01c.17-.43.5-.83.98-.83.11,0,.25.02.33.04v.5c-.1-.03-.23-.05-.35-.05-.75,0-.95.84-.95,1.53v1.89h-.47v-2.97h0Z"/><path class="cls-4" d="m66.62,36.33h-.14c-.82,0-1.79.08-1.79.92,0,.5.36.69.8.69,1.11,0,1.13-.97,1.13-1.38v-.23h0Zm.04,1.31h-.02c-.21.46-.74.71-1.22.71-1.09,0-1.26-.74-1.26-1.08,0-1.28,1.37-1.34,2.36-1.34h.09v-.2c0-.65-.23-.98-.87-.98-.4,0-.77.09-1.13.31v-.46c.29-.14.79-.26,1.13-.26.95,0,1.34.43,1.34,1.43v1.69c0,.31,0,.54.04.8h-.47v-.62h0Z"/><polygon class="cls-4" points="68.45 37.86 70.75 34.83 68.54 34.83 68.54 34.43 71.3 34.43 71.3 34.83 68.99 37.85 71.3 37.85 71.3 38.25 68.45 38.25 68.45 37.86 68.45 37.86"/><path class="cls-4" d="m72.72,34.43h.47v3.83h-.47v-3.83h0Zm.47-1.02h-.47v-.63h.47v.63h0Z"/><path class="cls-4" d="m77.95,37.35c0,.29,0,.59.03.9h-.46v-.68h-.01c-.16.34-.44.77-1.24.77-.95,0-1.31-.63-1.31-1.47v-2.45h.47v2.33c0,.72.26,1.19.91,1.19.86,0,1.13-.76,1.13-1.4v-2.12h.47v2.93h0Z"/><path class="cls-4" d="m79.72,35.33c0-.29,0-.59-.03-.9h.46v.68h.02c.16-.35.44-.77,1.24-.77.95,0,1.31.63,1.31,1.47v2.45h-.47v-2.33c0-.72-.25-1.19-.91-1.19-.86,0-1.13.76-1.13,1.4v2.12h-.47v-2.93h0Z"/><path class="cls-4" d="m86.78,37.7c.29.14.63.24,1,.24.45,0,.85-.25.85-.68,0-.91-1.84-.77-1.84-1.88,0-.76.62-1.04,1.25-1.04.2,0,.61.04.95.17l-.04.41c-.25-.11-.59-.18-.85-.18-.49,0-.83.15-.83.64,0,.71,1.88.62,1.88,1.88,0,.81-.76,1.09-1.34,1.09-.37,0-.74-.04-1.07-.18l.04-.47h0Z"/><polygon class="cls-4" points="91.91 38.25 91.35 38.25 90.06 34.43 90.57 34.43 91.63 37.74 91.65 37.74 92.76 34.43 93.25 34.43 91.91 38.25 91.91 38.25"/><path class="cls-4" d="m94.5,34.43h.47v3.83h-.47v-3.83h0Zm.47-1.02h-.47v-.63h.47v.63h0Z"/><polygon class="cls-4" points="96.4 37.86 98.7 34.83 96.49 34.83 96.49 34.43 99.25 34.43 99.25 34.83 96.94 37.85 99.25 37.85 99.25 38.25 96.4 38.25 96.4 37.86 96.4 37.86"/><path class="cls-4" d="m100.67,35.28c0-.42,0-.58-.03-.86h.47v.74h.01c.17-.43.5-.83.98-.83.11,0,.25.02.33.04v.5c-.1-.03-.22-.05-.35-.05-.75,0-.95.84-.95,1.53v1.89h-.47v-2.97h0Z"/><path class="cls-4" d="m105.9,36.33h-.13c-.82,0-1.79.08-1.79.92,0,.5.36.69.8.69,1.11,0,1.13-.97,1.13-1.38v-.23h0Zm.04,1.31h-.01c-.21.46-.74.71-1.22.71-1.09,0-1.26-.74-1.26-1.08,0-1.28,1.37-1.34,2.36-1.34h.09v-.2c0-.65-.23-.98-.87-.98-.4,0-.77.09-1.12.31v-.46c.29-.14.79-.26,1.12-.26.95,0,1.34.43,1.34,1.43v1.69c0,.31,0,.54.04.8h-.46v-.62h0Z"/><path class="cls-3" d="m21.27,1.74s-3.97-1.74-10.61-1.74h0C4.01,0,.04,1.74.04,1.74.04,1.74-.32,9.43,1.19,13.79c2.66,7.65,9.46,9.8,9.46,9.8h0s6.8-2.15,9.46-9.8c1.51-4.35,1.15-12.05,1.15-12.05h0Z"/><polygon class="cls-2" points="17.71 8.37 17.71 12.61 12.76 12.61 12.76 17.56 8.52 17.56 8.52 12.61 3.57 12.61 3.57 8.37 8.52 8.37 8.52 3.43 12.76 3.43 12.76 8.37 17.71 8.37 17.71 8.37"/></g><text class="cls-5" transform="translate(176.15 27.66)"><tspan class="cls-6" x="0" y="0">Ufficio federale della protezione della popolazione UFP</tspan><tspan class="cls-7" x="194.65" y="0">P</tspan></text><text class="cls-5" transform="translate(176.15 6.53)"><tspan class="cls-6" x="0" y="0">Ufficio federale dell&apos;ambiente U</tspan><tspan class="cls-8" x="110.99" y="0">F</tspan><tspan class="cls-1" x="115.13" y="0">AM</tspan></text></g></svg>