<?xml version="1.0" encoding="UTF-8"?><svg id="Layer_2" xmlns="http://www.w3.org/2000/svg" viewBox="0 0 68.4 51.21"><defs><style>.cls-1{fill:#fff;}.cls-1,.cls-2{stroke:#fff;stroke-miterlimit:10;stroke-width:.25px;}.cls-2{fill:#d3d3d3;}</style></defs><g id="Layer_1-2"><g><g><polygon class="cls-1" points="10.85 2.32 2.76 11.54 2.49 27.22 28.71 32.69 43.48 27.88 36.1 4.58 10.85 2.32"/><g><path class="cls-2" d="M10.85,2.32L2.76,11.54c-.11,.13-.04,.33,.14,.35l24.91,2.84c.08,0,.16-.03,.19-.09l7-10.17c.09-.14,0-.31-.16-.33l-6.28-.49,.03,2-1.69,2.54h-3.4l-.07-4.94-12.43-.99c-.07,0-.13,.02-.17,.07h0Z"/><path class="cls-2" d="M24.04,.31V7.39c0,.11,.09,.18,.18,.18h2.17c.06,0,.12-.03,.16-.08l1.35-1.9s.04-.07,.04-.11V.31c0-.11-.09-.18-.18-.18h-3.52c-.11,0-.18,.09-.18,.18h0Z"/><path class="cls-2" d="M35.7,4.6l-7.26,10.72s-.04,.09-.04,.14v16.99c0,.16,.16,.27,.31,.23l4.75-1.38c.11-.03,.17-.13,.17-.23v-10.92c0-.11,.07-.2,.17-.23l4.92-1.37c.16-.04,.3,.07,.3,.23v10.06c0,.16,.16,.27,.31,.23l4.13-1.21c.11-.03,.17-.13,.17-.23V14.08c0-.06-.02-.11-.05-.15l-7.5-9.35c-.1-.13-.29-.12-.39,.02h0Z"/><path class="cls-2" d="M2.96,12.5l24.38,2.87c.18,.02,.33,.18,.33,.37v16.57c0,.24-.22,.42-.46,.37L2.79,27.59c-.17-.04-.3-.19-.3-.37l.05-14.35c0-.22,.19-.4,.42-.37Zm20.31,11.56v-5.3c0-.13-.1-.23-.22-.25l-4.9-.68c-.16-.02-.29,.1-.29,.25v5.3c0,.13,.1,.23,.22,.25l4.9,.68c.16,.02,.29-.1,.29-.25Zm-11.71-1.72v-5.3c0-.13-.1-.23-.22-.25l-4.9-.68c-.16-.02-.29,.1-.29,.25v5.3c0,.13,.1,.23,.22,.25l4.9,.68c.16,.02,.29-.1,.29-.25Z"/></g></g><g><polygon class="cls-1" points="33.73 10.6 25.21 20.32 24.93 36.83 52.54 42.59 68.09 37.52 60.32 12.99 33.73 10.6"/><g><path class="cls-2" d="M33.73,10.6l-8.51,9.72c-.11,.13-.04,.35,.14,.37l26.24,2.99c.08,0,.16-.03,.2-.09l7.37-10.71c.09-.14,0-.33-.16-.35l-6.62-.52,.03,2.1-1.78,2.67h-3.58l-.07-5.21-13.09-1.04c-.07,0-.13,.02-.18,.07h.01Z"/><path class="cls-2" d="M47.62,8.49v7.45c0,.11,.09,.19,.19,.19h2.29c.06,0,.12-.03,.16-.08l1.42-2s.04-.07,.04-.11v-5.45c0-.11-.09-.19-.19-.19h-3.71c-.11,0-.19,.09-.19,.19h-.01Z"/><path class="cls-2" d="M59.9,13.01l-7.65,11.29s-.04,.09-.04,.14v17.9c0,.16,.16,.29,.33,.25l5-1.45c.11-.03,.18-.13,.18-.25v-11.49c0-.11,.07-.21,.18-.25l5.19-1.44c.16-.04,.32,.07,.32,.25v10.6c0,.16,.16,.29,.33,.25l4.35-1.28c.11-.03,.18-.13,.18-.25v-14.28c0-.06-.02-.11-.05-.15l-7.9-9.85c-.1-.13-.31-.12-.41,.02h-.01Z"/><path class="cls-2" d="M25.42,21.33l25.67,3.02c.19,.02,.35,.19,.35,.39v17.45c0,.26-.23,.44-.48,.39l-25.72-5.36c-.18-.04-.32-.2-.32-.39l.05-15.11c0-.23,.2-.42,.44-.39Zm21.39,12.18v-5.58c0-.13-.1-.25-.23-.27l-5.16-.71c-.16-.02-.31,.1-.31,.27v5.58c0,.13,.1,.25,.23,.27l5.16,.71c.16,.02,.31-.1,.31-.27Zm-12.33-1.81v-5.58c0-.13-.1-.25-.23-.27l-5.16-.71c-.16-.02-.31,.1-.31,.27v5.58c0,.13,.1,.25,.23,.27l5.16,.71c.16,.02,.31-.1,.31-.27Z"/></g></g><g><polygon class="cls-1" points="9.56 16.78 .43 27.2 .13 44.9 29.73 51.07 46.4 45.64 38.07 19.34 9.56 16.78"/><g><path class="cls-2" d="M9.56,16.78L.43,27.2c-.12,.14-.04,.37,.15,.39l28.13,3.21c.09,0,.18-.03,.22-.1l7.9-11.48c.1-.15,0-.35-.18-.37l-7.09-.56,.03,2.25-1.9,2.87h-3.84l-.08-5.58-14.03-1.12c-.08,0-.14,.02-.2,.08h.01Z"/><path class="cls-2" d="M24.46,14.52v7.99c0,.12,.1,.21,.21,.21h2.45c.07,0,.13-.03,.18-.09l1.52-2.15s.04-.08,.04-.12v-5.84c0-.12-.1-.21-.21-.21h-3.97c-.12,0-.21,.1-.21,.21h-.01Z"/><path class="cls-2" d="M37.62,19.36l-8.2,12.1s-.04,.1-.04,.15v19.19c0,.18,.18,.31,.35,.26l5.36-1.55c.12-.03,.2-.14,.2-.26v-12.32c0-.12,.08-.23,.2-.26l5.56-1.54c.18-.04,.34,.08,.34,.26v11.36c0,.18,.18,.31,.35,.26l4.66-1.37c.12-.03,.2-.14,.2-.26v-15.31c0-.07-.02-.12-.05-.16l-8.47-10.56c-.11-.14-.33-.13-.44,.02h-.01Z"/><path class="cls-2" d="M.65,28.28l27.53,3.24c.21,.02,.37,.21,.37,.42v18.7c0,.27-.25,.47-.51,.42L.47,45.31c-.2-.04-.34-.22-.34-.42l.05-16.2c0-.25,.22-.45,.47-.42Zm22.93,13.06v-5.99c0-.14-.11-.26-.25-.28l-5.53-.77c-.18-.02-.33,.11-.33,.28v5.99c0,.14,.11,.26,.25,.28l5.53,.77c.18,.02,.33-.11,.33-.28Zm-13.22-1.94v-5.99c0-.14-.11-.26-.25-.28l-5.53-.77c-.18-.02-.33,.11-.33,.28v5.99c0,.14,.11,.26,.25,.28l5.53,.77c.18,.02,.33-.11,.33-.28Z"/></g></g></g></g></svg>