<?xml version="1.0" encoding="UTF-8"?><svg id="Layer_2" xmlns="http://www.w3.org/2000/svg" viewBox="0 0 70.57 56.12"><defs><style>.cls-1{fill:#fff;}.cls-1,.cls-2{stroke:#fff;stroke-miterlimit:10;stroke-width:.25px;}.cls-2{fill:#d3d3d3;}</style></defs><g id="Layer_1-2"><g><g><polygon class="cls-1" points="31.91 2.21 24.23 10.98 23.97 25.89 48.9 31.09 62.94 26.52 55.93 4.37 31.91 2.21"/><g><path class="cls-2" d="M31.91,2.21l-7.69,8.78c-.1,.12-.04,.31,.13,.33l23.69,2.7c.07,0,.15-.03,.18-.08l6.66-9.67c.08-.13,0-.29-.15-.31l-5.97-.47,.03,1.9-1.6,2.42h-3.24l-.06-4.7-11.82-.94c-.06,0-.12,.02-.17,.06h0Z"/><path class="cls-2" d="M44.46,.3V7.03c0,.1,.08,.18,.18,.18h2.06c.06,0,.11-.03,.15-.07l1.28-1.81s.04-.06,.04-.1V.3c0-.1-.08-.18-.18-.18h-3.35c-.1,0-.18,.08-.18,.18h0Z"/><path class="cls-2" d="M55.55,4.38l-6.9,10.19s-.04,.08-.04,.13V30.87c0,.15,.15,.26,.29,.22l4.52-1.31c.1-.03,.17-.12,.17-.22v-10.38c0-.1,.06-.19,.17-.22l4.68-1.3c.15-.04,.29,.06,.29,.22v9.57c0,.15,.15,.26,.29,.22l3.93-1.15c.1-.03,.17-.12,.17-.22V13.4c0-.06-.02-.1-.05-.14l-7.13-8.9c-.09-.12-.28-.11-.37,.02h0Z"/><path class="cls-2" d="M24.41,11.9l23.18,2.73c.18,.02,.31,.18,.31,.35v15.75c0,.23-.21,.4-.43,.35l-23.22-4.84c-.17-.04-.29-.18-.29-.35l.05-13.64c0-.21,.18-.38,.4-.35Zm19.31,11v-5.04c0-.12-.09-.22-.21-.24l-4.66-.65c-.15-.02-.28,.09-.28,.24v5.04c0,.12,.09,.22,.21,.24l4.66,.65c.15,.02,.28-.09,.28-.24Zm-11.14-1.63v-5.04c0-.12-.09-.22-.21-.24l-4.66-.65c-.15-.02-.28,.09-.28,.24v5.04c0,.12,.09,.22,.21,.24l4.66,.65c.15,.02,.28-.09,.28-.24Z"/></g></g><g><polygon class="cls-1" points="8.07 9.65 .38 18.43 .13 33.33 25.06 38.53 39.1 33.96 32.09 11.81 8.07 9.65"/><g><path class="cls-2" d="M8.07,9.65L.38,18.43c-.1,.12-.04,.31,.13,.33l23.69,2.7c.07,0,.15-.03,.18-.08l6.66-9.67c.08-.13,0-.29-.15-.31l-5.97-.47,.03,1.9-1.6,2.42h-3.24l-.06-4.7-11.82-.94c-.06,0-.12,.02-.17,.06h0Z"/><path class="cls-2" d="M20.62,7.74v6.73c0,.1,.08,.18,.18,.18h2.06c.06,0,.11-.03,.15-.07l1.28-1.81s.04-.06,.04-.1V7.74c0-.1-.08-.18-.18-.18h-3.35c-.1,0-.18,.08-.18,.18h0Z"/><path class="cls-2" d="M31.71,11.83l-6.9,10.19s-.04,.08-.04,.13v16.16c0,.15,.15,.26,.29,.22l4.52-1.31c.1-.03,.17-.12,.17-.22v-10.38c0-.1,.06-.19,.17-.22l4.68-1.3c.15-.04,.29,.06,.29,.22v9.57c0,.15,.15,.26,.29,.22l3.93-1.15c.1-.03,.17-.12,.17-.22v-12.9c0-.06-.02-.1-.05-.14l-7.13-8.9c-.09-.12-.28-.11-.37,.02h0Z"/><path class="cls-2" d="M.57,19.34l23.18,2.73c.18,.02,.31,.18,.31,.35v15.75c0,.23-.21,.4-.43,.35L.41,33.68c-.17-.04-.29-.18-.29-.35l.05-13.64c0-.21,.18-.38,.4-.35Zm19.31,11v-5.04c0-.12-.09-.22-.21-.24l-4.66-.65c-.15-.02-.28,.09-.28,.24v5.04c0,.12,.09,.22,.21,.24l4.66,.65c.15,.02,.28-.09,.28-.24Zm-11.14-1.63v-5.04c0-.12-.09-.22-.21-.24l-4.66-.65c-.15-.02-.28,.09-.28,.24v5.04c0,.12,.09,.22,.21,.24l4.66,.65c.15,.02,.28-.09,.28-.24Z"/></g></g><g><polygon class="cls-1" points="39.25 17.18 31.56 25.95 31.31 40.86 56.24 46.06 70.28 41.49 63.26 19.33 39.25 17.18"/><g><path class="cls-2" d="M39.25,17.18l-7.69,8.78c-.1,.12-.04,.31,.13,.33l23.69,2.7c.07,0,.15-.03,.18-.08l6.66-9.67c.08-.13,0-.29-.15-.31l-5.97-.47,.03,1.9-1.6,2.42h-3.24l-.06-4.7-11.82-.94c-.06,0-.12,.02-.17,.06h0Z"/><path class="cls-2" d="M51.8,15.27v6.73c0,.1,.08,.18,.18,.18h2.06c.06,0,.11-.03,.15-.07l1.28-1.81s.04-.06,.04-.1v-4.92c0-.1-.08-.18-.18-.18h-3.35c-.1,0-.18,.08-.18,.18h0Z"/><path class="cls-2" d="M62.89,19.35l-6.9,10.19s-.04,.08-.04,.13v16.16c0,.15,.15,.26,.29,.22l4.52-1.31c.1-.03,.17-.12,.17-.22v-10.38c0-.1,.06-.19,.17-.22l4.68-1.3c.15-.04,.29,.06,.29,.22v9.57c0,.15,.15,.26,.29,.22l3.93-1.15c.1-.03,.17-.12,.17-.22v-12.9c0-.06-.02-.1-.05-.14l-7.13-8.9c-.09-.12-.28-.11-.37,.02h0Z"/><path class="cls-2" d="M31.75,26.87l23.18,2.73c.18,.02,.31,.18,.31,.35v15.75c0,.23-.21,.4-.43,.35l-23.22-4.84c-.17-.04-.29-.18-.29-.35l.05-13.64c0-.21,.18-.38,.4-.35Zm19.31,11v-5.04c0-.12-.09-.22-.21-.24l-4.66-.65c-.15-.02-.28,.09-.28,.24v5.04c0,.12,.09,.22,.21,.24l4.66,.65c.15,.02,.28-.09,.28-.24Zm-11.14-1.63v-5.04c0-.12-.09-.22-.21-.24l-4.66-.65c-.15-.02-.28,.09-.28,.24v5.04c0,.12,.09,.22,.21,.24l4.66,.65c.15,.02,.28-.09,.28-.24Z"/></g></g><g><polygon class="cls-1" points="15.64 21.41 6.44 31.92 6.13 49.76 35.99 55.99 52.79 50.51 44.4 23.99 15.64 21.41"/><g><path class="cls-2" d="M15.64,21.41L6.44,31.92c-.12,.14-.04,.38,.15,.4l28.36,3.23c.09,0,.18-.03,.22-.1l7.97-11.58c.1-.15,0-.35-.18-.38l-7.15-.56,.03,2.27-1.92,2.89h-3.87l-.08-5.63-14.15-1.13c-.08,0-.14,.02-.2,.08h.01Z"/><path class="cls-2" d="M30.67,19.12v8.06c0,.12,.1,.21,.21,.21h2.47c.07,0,.13-.03,.18-.09l1.53-2.16s.04-.08,.04-.12v-5.89c0-.12-.1-.21-.21-.21h-4.01c-.12,0-.21,.1-.21,.21h-.01Z"/><path class="cls-2" d="M43.94,24.01l-8.27,12.21s-.04,.1-.04,.15v19.35c0,.18,.18,.31,.35,.26l5.41-1.57c.12-.03,.2-.14,.2-.26v-12.43c0-.12,.08-.23,.2-.26l5.61-1.56c.18-.04,.34,.08,.34,.26v11.46c0,.18,.18,.31,.35,.26l4.7-1.38c.12-.03,.2-.14,.2-.26v-15.44c0-.07-.02-.12-.06-.17l-8.54-10.65c-.11-.14-.33-.13-.44,.02h-.01Z"/><path class="cls-2" d="M6.66,33.01l27.76,3.27c.21,.02,.38,.21,.38,.42v18.86c0,.28-.25,.47-.52,.42l-27.8-5.79c-.2-.04-.34-.22-.34-.42l.06-16.33c0-.25,.22-.45,.47-.42Zm23.12,13.17v-6.04c0-.14-.11-.26-.25-.29l-5.57-.77c-.18-.02-.33,.11-.33,.29v6.04c0,.14,.11,.26,.25,.29l5.57,.77c.18,.02,.33-.11,.33-.29Zm-13.33-1.95v-6.04c0-.14-.11-.26-.25-.29l-5.57-.77c-.18-.02-.33,.11-.33,.29v6.04c0,.14,.11,.26,.25,.29l5.57,.77c.18,.02,.33-.11,.33-.29Z"/></g></g></g></g></svg>