<?xml version="1.0" encoding="UTF-8"?><svg id="Layer_2" xmlns="http://www.w3.org/2000/svg" viewBox="0 0 78.32 63.31"><defs><style>.cls-1{fill:#fff;}.cls-1,.cls-2{stroke:#fff;stroke-miterlimit:10;stroke-width:.25px;}.cls-2{fill:#d3d3d3;}</style></defs><g id="Layer_1-2"><g><g><polygon class="cls-1" points="21.85 2.16 14.34 10.73 14.09 25.28 38.43 30.35 52.14 25.89 45.29 4.26 21.85 2.16"/><g><path class="cls-2" d="M21.85,2.16l-7.5,8.57c-.1,.12-.04,.31,.13,.32l23.13,2.64c.07,0,.14-.03,.18-.08l6.5-9.44c.08-.13,0-.29-.14-.31l-5.83-.46,.03,1.85-1.57,2.36h-3.16l-.06-4.59-11.54-.92c-.06,0-.12,.02-.16,.06h0Z"/><path class="cls-2" d="M34.09,.3V6.86c0,.1,.08,.17,.17,.17h2.02c.05,0,.11-.03,.14-.07l1.25-1.76s.04-.06,.04-.1V.3c0-.1-.08-.17-.17-.17h-3.27c-.1,0-.17,.08-.17,.17h0Z"/><path class="cls-2" d="M44.92,4.28l-6.74,9.95s-.04,.08-.04,.13v15.77c0,.14,.14,.25,.29,.22l4.41-1.28c.1-.03,.16-.12,.16-.22v-10.13c0-.1,.06-.19,.16-.22l4.57-1.27c.14-.04,.28,.06,.28,.22v9.34c0,.14,.14,.25,.29,.22l3.83-1.12c.1-.03,.16-.12,.16-.22V13.08c0-.05-.02-.1-.04-.13l-6.96-8.68c-.09-.12-.27-.11-.36,.02h0Z"/><path class="cls-2" d="M14.52,11.62l22.63,2.66c.17,.02,.31,.17,.31,.34v15.38c0,.22-.21,.39-.42,.34l-22.67-4.72c-.16-.04-.28-.18-.28-.34l.04-13.32c0-.21,.18-.37,.39-.34Zm18.85,10.74v-4.92c0-.12-.09-.22-.21-.23l-4.54-.63c-.14-.02-.27,.09-.27,.23v4.92c0,.12,.09,.22,.21,.23l4.54,.63c.14,.02,.27-.09,.27-.23Zm-10.87-1.59v-4.92c0-.12-.09-.22-.21-.23l-4.54-.63c-.14-.02-.27,.09-.27,.23v4.92c0,.12,.09,.22,.21,.23l4.54,.63c.14,.02,.27-.09,.27-.23Z"/></g></g><g><polygon class="cls-1" points="40.24 12.81 32.74 21.38 32.49 35.93 56.83 41 70.53 36.54 63.68 14.92 40.24 12.81"/><g><path class="cls-2" d="M40.24,12.81l-7.5,8.57c-.1,.12-.04,.31,.13,.32l23.13,2.64c.07,0,.14-.03,.18-.08l6.5-9.44c.08-.13,0-.29-.14-.31l-5.83-.46,.03,1.85-1.57,2.36h-3.16l-.06-4.59-11.54-.92c-.06,0-.12,.02-.16,.06h0Z"/><path class="cls-2" d="M52.49,10.95v6.57c0,.1,.08,.17,.17,.17h2.02c.05,0,.11-.03,.14-.07l1.25-1.76s.04-.06,.04-.1v-4.81c0-.1-.08-.17-.17-.17h-3.27c-.1,0-.17,.08-.17,.17h0Z"/><path class="cls-2" d="M63.32,14.94l-6.74,9.95s-.04,.08-.04,.13v15.77c0,.14,.14,.25,.29,.22l4.41-1.28c.1-.03,.16-.12,.16-.22v-10.13c0-.1,.06-.19,.16-.22l4.57-1.27c.14-.04,.28,.06,.28,.22v9.34c0,.14,.14,.25,.29,.22l3.83-1.12c.1-.03,.16-.12,.16-.22v-12.59c0-.05-.02-.1-.04-.13l-6.96-8.68c-.09-.12-.27-.11-.36,.02h0Z"/><path class="cls-2" d="M32.92,22.27l22.63,2.66c.17,.02,.31,.17,.31,.34v15.38c0,.22-.21,.39-.42,.34l-22.67-4.72c-.16-.04-.28-.18-.28-.34l.04-13.32c0-.21,.18-.37,.39-.34Zm18.85,10.74v-4.92c0-.12-.09-.22-.21-.23l-4.54-.63c-.14-.02-.27,.09-.27,.23v4.92c0,.12,.09,.22,.21,.23l4.54,.63c.14,.02,.27-.09,.27-.23Zm-10.87-1.59v-4.92c0-.12-.09-.22-.21-.23l-4.54-.63c-.14-.02-.27,.09-.27,.23v4.92c0,.12,.09,.22,.21,.23l4.54,.63c.14,.02,.27-.09,.27-.23Z"/></g></g><g><polygon class="cls-1" points="9.47 13.83 1.96 22.39 1.71 36.94 26.05 42.02 39.76 37.55 32.91 15.93 9.47 13.83"/><g><path class="cls-2" d="M9.47,13.83L1.96,22.39c-.1,.12-.04,.31,.13,.32l23.13,2.64c.07,0,.14-.03,.18-.08l6.5-9.44c.08-.13,0-.29-.14-.31l-5.83-.46,.03,1.85-1.57,2.36h-3.16l-.06-4.59-11.54-.92c-.06,0-.12,.02-.16,.06h0Z"/><path class="cls-2" d="M21.71,11.96v6.57c0,.1,.08,.17,.17,.17h2.02c.05,0,.11-.03,.14-.07l1.25-1.76s.04-.06,.04-.1v-4.81c0-.1-.08-.17-.17-.17h-3.27c-.1,0-.17,.08-.17,.17h0Z"/><path class="cls-2" d="M32.54,15.95l-6.74,9.95s-.04,.08-.04,.13v15.77c0,.14,.14,.25,.29,.22l4.41-1.28c.1-.03,.16-.12,.16-.22v-10.13c0-.1,.06-.19,.16-.22l4.57-1.27c.14-.04,.28,.06,.28,.22v9.34c0,.14,.14,.25,.29,.22l3.83-1.12c.1-.03,.16-.12,.16-.22v-12.59c0-.05-.02-.1-.04-.13l-6.96-8.68c-.09-.12-.27-.11-.36,.02h0Z"/><path class="cls-2" d="M2.14,23.28l22.63,2.66c.17,.02,.31,.17,.31,.34v15.38c0,.22-.21,.39-.42,.34L1.99,37.28c-.16-.04-.28-.18-.28-.34l.04-13.32c0-.21,.18-.37,.39-.34Zm18.85,10.74v-4.92c0-.12-.09-.22-.21-.23l-4.54-.63c-.14-.02-.27,.09-.27,.23v4.92c0,.12,.09,.22,.21,.23l4.54,.63c.14,.02,.27-.09,.27-.23Zm-10.87-1.59v-4.92c0-.12-.09-.22-.21-.23l-4.54-.63c-.14-.02-.27,.09-.27,.23v4.92c0,.12,.09,.22,.21,.23l4.54,.63c.14,.02,.27-.09,.27-.23Z"/></g></g><g><polygon class="cls-1" points="40.64 21.17 31.38 31.74 31.07 49.68 61.09 55.94 77.99 50.44 69.55 23.77 40.64 21.17"/><g><path class="cls-2" d="M40.64,21.17l-9.26,10.57c-.12,.14-.04,.38,.16,.4l28.52,3.25c.09,0,.18-.03,.22-.1l8.01-11.64c.1-.16,0-.36-.18-.38l-7.19-.57,.03,2.29-1.93,2.91h-3.9l-.08-5.66-14.23-1.13c-.08,0-.14,.02-.2,.08h.01Z"/><path class="cls-2" d="M55.74,18.87v8.1c0,.12,.1,.21,.21,.21h2.49c.07,0,.13-.03,.18-.09l1.54-2.18s.04-.08,.04-.12v-5.93c0-.12-.1-.21-.21-.21h-4.03c-.12,0-.21,.1-.21,.21h-.01Z"/><path class="cls-2" d="M69.09,23.79l-8.31,12.27s-.04,.1-.04,.16v19.45c0,.18,.18,.31,.36,.27l5.44-1.58c.12-.03,.2-.14,.2-.27v-12.5c0-.12,.08-.23,.2-.27l5.64-1.56c.18-.04,.34,.08,.34,.27v11.52c0,.18,.18,.31,.36,.27l4.73-1.39c.12-.03,.2-.14,.2-.27v-15.53c0-.07-.02-.12-.06-.17l-8.59-10.71c-.11-.14-.33-.13-.44,.02h-.01Z"/><path class="cls-2" d="M31.6,32.83l27.91,3.29c.21,.02,.38,.21,.38,.42v18.97c0,.28-.26,.48-.52,.42l-27.96-5.83c-.2-.04-.34-.22-.34-.42l.06-16.43c0-.26,.22-.46,.48-.42Zm23.25,13.24v-6.07c0-.14-.11-.27-.26-.29l-5.6-.78c-.18-.02-.33,.11-.33,.29v6.07c0,.14,.11,.27,.26,.29l5.6,.78c.18,.02,.33-.11,.33-.29Zm-13.41-1.96v-6.07c0-.14-.11-.27-.26-.29l-5.6-.78c-.18-.02-.33,.11-.33,.29v6.07c0,.14,.11,.27,.26,.29l5.6,.78c.18,.02,.33-.11,.33-.29Z"/></g></g><g><polygon class="cls-1" points="9.69 28.4 .44 38.97 .13 56.91 30.15 63.17 47.05 57.67 38.6 31 9.69 28.4"/><g><path class="cls-2" d="M9.69,28.4L.44,38.97c-.12,.14-.04,.38,.16,.4l28.52,3.25c.09,0,.18-.03,.22-.1l8.01-11.64c.1-.16,0-.36-.18-.38l-7.19-.57,.03,2.29-1.93,2.91h-3.9l-.08-5.66-14.23-1.13c-.08,0-.14,.02-.2,.08h.01Z"/><path class="cls-2" d="M24.8,26.11v8.1c0,.12,.1,.21,.21,.21h2.49c.07,0,.13-.03,.18-.09l1.54-2.18s.04-.08,.04-.12v-5.93c0-.12-.1-.21-.21-.21h-4.03c-.12,0-.21,.1-.21,.21h-.01Z"/><path class="cls-2" d="M38.15,31.02l-8.31,12.27s-.04,.1-.04,.16v19.45c0,.18,.18,.31,.36,.27l5.44-1.58c.12-.03,.2-.14,.2-.27v-12.5c0-.12,.08-.23,.2-.27l5.64-1.56c.18-.04,.34,.08,.34,.27v11.52c0,.18,.18,.31,.36,.27l4.73-1.39c.12-.03,.2-.14,.2-.27v-15.53c0-.07-.02-.12-.06-.17l-8.59-10.71c-.11-.14-.33-.13-.44,.02h-.01Z"/><path class="cls-2" d="M.66,40.07l27.91,3.29c.21,.02,.38,.21,.38,.42v18.97c0,.28-.26,.48-.52,.42L.47,57.34c-.2-.04-.34-.22-.34-.42l.06-16.43c0-.26,.22-.46,.48-.42Zm23.25,13.24v-6.07c0-.14-.11-.27-.26-.29l-5.6-.78c-.18-.02-.33,.11-.33,.29v6.07c0,.14,.11,.27,.26,.29l5.6,.78c.18,.02,.33-.11,.33-.29Zm-13.41-1.96v-6.07c0-.14-.11-.27-.26-.29l-5.6-.78c-.18-.02-.33,.11-.33,.29v6.07c0,.14,.11,.27,.26,.29l5.6,.78c.18,.02,.33-.11,.33-.29Z"/></g></g></g></g></svg>