<?xml version="1.0" encoding="UTF-8"?><svg id="Layer_2" xmlns="http://www.w3.org/2000/svg" viewBox="0 0 80.05 76.31"><defs><style>.cls-1{fill:#fff;}.cls-1,.cls-2{stroke:#fff;stroke-miterlimit:10;stroke-width:.25px;}.cls-2{fill:#d3d3d3;}</style></defs><g id="Layer_1-2"><g><g><polygon class="cls-1" points="27.87 1.7 22.06 8.33 21.87 19.58 40.7 23.51 51.3 20.06 46 3.33 27.87 1.7"/><g><path class="cls-2" d="M27.87,1.7l-5.81,6.63c-.08,.09-.03,.24,.1,.25l17.89,2.04c.06,0,.11-.02,.14-.06l5.03-7.3c.06-.1,0-.22-.11-.24l-4.51-.36,.02,1.43-1.21,1.82h-2.44l-.05-3.55-8.92-.71s-.09,.01-.13,.05h0Z"/><path class="cls-2" d="M37.34,.26V5.34c0,.08,.06,.13,.13,.13h1.56s.08-.02,.11-.06l.97-1.36s.03-.05,.03-.08V.26c0-.08-.06-.13-.13-.13h-2.53c-.08,0-.13,.06-.13,.13h0Z"/><path class="cls-2" d="M45.72,3.34l-5.21,7.7s-.03,.06-.03,.1v12.2c0,.11,.11,.19,.22,.17l3.41-.99c.08-.02,.13-.09,.13-.17v-7.84c0-.08,.05-.15,.13-.17l3.54-.98c.11-.03,.22,.05,.22,.17v7.23c0,.11,.11,.19,.22,.17l2.97-.87c.08-.02,.13-.09,.13-.17V10.15s-.01-.08-.03-.1l-5.39-6.72c-.07-.09-.21-.08-.28,.01h0Z"/><path class="cls-2" d="M22.2,9.01l17.51,2.06c.13,.01,.24,.13,.24,.26v11.9c0,.17-.16,.3-.33,.26l-17.54-3.65c-.13-.03-.22-.14-.22-.26l.03-10.3c0-.16,.14-.29,.3-.26Zm14.58,8.3v-3.81c0-.09-.07-.17-.16-.18l-3.52-.49c-.11-.01-.21,.07-.21,.18v3.81c0,.09,.07,.17,.16,.18l3.52,.49c.11,.01,.21-.07,.21-.18Zm-8.41-1.23v-3.81c0-.09-.07-.17-.16-.18l-3.52-.49c-.11-.01-.21,.07-.21,.18v3.81c0,.09,.07,.17,.16,.18l3.52,.49c.11,.01,.21-.07,.21-.18Z"/></g></g><g><polygon class="cls-1" points="52.72 6.3 46.01 13.96 45.79 26.96 67.54 31.49 79.78 27.51 73.67 8.19 52.72 6.3"/><g><path class="cls-2" d="M52.72,6.3l-6.71,7.65c-.09,.1-.03,.27,.11,.29l20.66,2.36c.06,0,.13-.02,.16-.07l5.81-8.43c.07-.11,0-.26-.13-.27l-5.21-.41,.02,1.66-1.4,2.11h-2.82l-.06-4.1-10.31-.82c-.06,0-.1,.02-.14,.06h0Z"/><path class="cls-2" d="M63.66,4.64v5.87c0,.09,.07,.15,.15,.15h1.8s.1-.02,.13-.06l1.12-1.58s.03-.06,.03-.09V4.64c0-.09-.07-.15-.15-.15h-2.92c-.09,0-.15,.07-.15,.15h0Z"/><path class="cls-2" d="M73.34,8.2l-6.02,8.89s-.03,.07-.03,.11v14.09c0,.13,.13,.23,.26,.19l3.94-1.14c.09-.02,.14-.1,.14-.19v-9.05c0-.09,.06-.17,.14-.19l4.08-1.13c.13-.03,.25,.06,.25,.19v8.35c0,.13,.13,.23,.26,.19l3.43-1.01c.09-.02,.14-.1,.14-.19v-11.25s-.02-.09-.04-.12l-6.22-7.76c-.08-.1-.24-.1-.32,.02h0Z"/><path class="cls-2" d="M46.18,14.75l20.22,2.38c.15,.02,.27,.15,.27,.31v13.74c0,.2-.18,.35-.38,.31l-20.25-4.22c-.14-.03-.25-.16-.25-.31l.04-11.9c0-.18,.16-.33,.35-.31Zm16.84,9.59v-4.4c0-.1-.08-.19-.18-.21l-4.06-.56c-.13-.02-.24,.08-.24,.21v4.4c0,.1,.08,.19,.18,.21l4.06,.56c.13,.02,.24-.08,.24-.21Zm-9.71-1.42v-4.4c0-.1-.08-.19-.18-.21l-4.06-.56c-.13-.02-.24,.08-.24,.21v4.4c0,.1,.08,.19,.18,.21l4.06,.56c.13,.02,.24-.08,.24-.21Z"/></g></g><g><polygon class="cls-1" points="22.09 13.64 15.38 21.29 15.16 34.29 36.9 38.83 49.15 34.84 43.03 15.52 22.09 13.64"/><g><path class="cls-2" d="M22.09,13.64l-6.71,7.65c-.09,.1-.03,.27,.11,.29l20.66,2.36c.06,0,.13-.02,.16-.07l5.81-8.43c.07-.11,0-.26-.13-.27l-5.21-.41,.02,1.66-1.4,2.11h-2.82l-.06-4.1-10.31-.82c-.06,0-.1,.02-.14,.06h0Z"/><path class="cls-2" d="M33.03,11.97v5.87c0,.09,.07,.15,.15,.15h1.8s.1-.02,.13-.06l1.12-1.58s.03-.06,.03-.09v-4.29c0-.09-.07-.15-.15-.15h-2.92c-.09,0-.15,.07-.15,.15h0Z"/><path class="cls-2" d="M42.7,15.53l-6.02,8.89s-.03,.07-.03,.11v14.09c0,.13,.13,.23,.26,.19l3.94-1.14c.09-.02,.14-.1,.14-.19v-9.05c0-.09,.06-.17,.14-.19l4.08-1.13c.13-.03,.25,.06,.25,.19v8.35c0,.13,.13,.23,.26,.19l3.43-1.01c.09-.02,.14-.1,.14-.19v-11.25s-.02-.09-.04-.12l-6.22-7.76c-.08-.1-.24-.1-.32,.02h0Z"/><path class="cls-2" d="M15.54,22.09l20.22,2.38c.15,.02,.27,.15,.27,.31v13.74c0,.2-.18,.35-.38,.31l-20.25-4.22c-.14-.03-.25-.16-.25-.31l.04-11.9c0-.18,.16-.33,.35-.31Zm16.84,9.59v-4.4c0-.1-.08-.19-.18-.21l-4.06-.56c-.13-.02-.24,.08-.24,.21v4.4c0,.1,.08,.19,.18,.21l4.06,.56c.13,.02,.24-.08,.24-.21Zm-9.71-1.42v-4.4c0-.1-.08-.19-.18-.21l-4.06-.56c-.13-.02-.24,.08-.24,.21v4.4c0,.1,.08,.19,.18,.21l4.06,.56c.13,.02,.24-.08,.24-.21Z"/></g></g><g><polygon class="cls-1" points="47.63 23.12 40.2 31.6 39.95 46.02 64.06 51.04 77.63 46.62 70.85 25.2 47.63 23.12"/><g><path class="cls-2" d="M47.63,23.12l-7.43,8.49c-.1,.12-.04,.3,.12,.32l22.91,2.61c.07,0,.14-.03,.18-.08l6.44-9.35c.08-.12,0-.29-.14-.3l-5.78-.45,.03,1.84-1.55,2.34h-3.13l-.06-4.55-11.43-.91c-.06,0-.12,.02-.16,.06h0Z"/><path class="cls-2" d="M59.76,21.27v6.51c0,.1,.08,.17,.17,.17h2c.05,0,.11-.03,.14-.07l1.24-1.75s.04-.06,.04-.1v-4.76c0-.1-.08-.17-.17-.17h-3.24c-.1,0-.17,.08-.17,.17h0Z"/><path class="cls-2" d="M70.48,25.22l-6.68,9.86s-.04,.08-.04,.12v15.63c0,.14,.14,.25,.29,.21l4.37-1.27c.1-.03,.16-.12,.16-.21v-10.04c0-.1,.06-.19,.16-.21l4.53-1.26c.14-.04,.28,.06,.28,.21v9.25c0,.14,.14,.25,.29,.21l3.8-1.11c.1-.03,.16-.12,.16-.21v-12.47c0-.05-.02-.1-.04-.13l-6.9-8.6c-.09-.12-.27-.11-.36,.02h0Z"/><path class="cls-2" d="M40.37,32.49l22.42,2.64c.17,.02,.3,.17,.3,.34v15.23c0,.22-.21,.38-.42,.34l-22.45-4.68c-.16-.04-.28-.18-.28-.34l.04-13.19c0-.21,.18-.37,.38-.34Zm18.67,10.63v-4.88c0-.12-.09-.21-.21-.23l-4.5-.62c-.14-.02-.27,.09-.27,.23v4.88c0,.12,.09,.21,.21,.23l4.5,.62c.14,.02,.27-.09,.27-.23Zm-10.77-1.58v-4.88c0-.12-.09-.21-.21-.23l-4.5-.62c-.14-.02-.27,.09-.27,.23v4.88c0,.12,.09,.21,.21,.23l4.5,.62c.14,.02,.27-.09,.27-.23Z"/></g></g><g><polygon class="cls-1" points="7.81 24.43 .38 32.91 .13 47.33 24.24 52.35 37.81 47.93 31.03 26.51 7.81 24.43"/><g><path class="cls-2" d="M7.81,24.43L.38,32.91c-.1,.12-.04,.3,.12,.32l22.91,2.61c.07,0,.14-.03,.18-.08l6.44-9.35c.08-.12,0-.29-.14-.3l-5.78-.45,.03,1.84-1.55,2.34h-3.13l-.06-4.55-11.43-.91c-.06,0-.12,.02-.16,.06h0Z"/><path class="cls-2" d="M19.94,22.58v6.51c0,.1,.08,.17,.17,.17h2c.05,0,.11-.03,.14-.07l1.24-1.75s.04-.06,.04-.1v-4.76c0-.1-.08-.17-.17-.17h-3.24c-.1,0-.17,.08-.17,.17h0Z"/><path class="cls-2" d="M30.66,26.53l-6.68,9.86s-.04,.08-.04,.12v15.63c0,.14,.14,.25,.29,.21l4.37-1.27c.1-.03,.16-.12,.16-.21v-10.04c0-.1,.06-.19,.16-.21l4.53-1.26c.14-.04,.28,.06,.28,.21v9.25c0,.14,.14,.25,.29,.21l3.8-1.11c.1-.03,.16-.12,.16-.21v-12.47c0-.05-.02-.1-.04-.13l-6.9-8.6c-.09-.12-.27-.11-.36,.02h0Z"/><path class="cls-2" d="M.55,33.8l22.42,2.64c.17,.02,.3,.17,.3,.34v15.23c0,.22-.21,.38-.42,.34L.4,47.66c-.16-.04-.28-.18-.28-.34l.04-13.19c0-.21,.18-.37,.38-.34Zm18.67,10.63v-4.88c0-.12-.09-.21-.21-.23l-4.5-.62c-.14-.02-.27,.09-.27,.23v4.88c0,.12,.09,.21,.21,.23l4.5,.62c.14,.02,.27-.09,.27-.23Zm-10.77-1.58v-4.88c0-.12-.09-.21-.21-.23l-4.5-.62c-.14-.02-.27,.09-.27,.23v4.88c0,.12,.09,.21,.21,.23l4.5,.62c.14,.02,.27-.09,.27-.23Z"/></g></g><g><polygon class="cls-1" points="35.46 32.95 26.89 42.74 26.6 59.36 54.41 65.16 70.06 60.06 62.24 35.35 35.46 32.95"/><g><path class="cls-2" d="M35.46,32.95l-8.57,9.79c-.11,.13-.04,.35,.14,.37l26.42,3.01c.08,0,.16-.03,.21-.09l7.42-10.78c.09-.14,0-.33-.16-.35l-6.66-.52,.03,2.12-1.79,2.69h-3.61l-.07-5.24-13.18-1.05c-.07,0-.13,.02-.19,.07h.01Z"/><path class="cls-2" d="M49.45,30.82v7.5c0,.11,.09,.2,.2,.2h2.3c.06,0,.12-.03,.16-.08l1.43-2.01s.04-.07,.04-.11v-5.49c0-.11-.09-.2-.2-.2h-3.73c-.11,0-.2,.09-.2,.2h-.01Z"/><path class="cls-2" d="M61.82,35.38l-7.7,11.37s-.04,.09-.04,.14v18.02c0,.16,.16,.29,.33,.25l5.04-1.46c.11-.03,.19-.13,.19-.25v-11.58c0-.11,.07-.22,.19-.25l5.22-1.45c.16-.04,.32,.07,.32,.25v10.67c0,.16,.16,.29,.33,.25l4.38-1.28c.11-.03,.19-.13,.19-.25v-14.38c0-.06-.02-.11-.05-.15l-7.96-9.92c-.1-.13-.31-.12-.41,.02h-.01Z"/><path class="cls-2" d="M27.09,43.75l25.85,3.04c.2,.02,.35,.2,.35,.39v17.57c0,.26-.24,.44-.48,.39l-25.9-5.4c-.19-.04-.32-.21-.32-.39l.05-15.21c0-.24,.21-.42,.44-.39Zm21.54,12.26v-5.62c0-.13-.1-.25-.24-.27l-5.19-.72c-.16-.02-.31,.1-.31,.27v5.62c0,.13,.1,.25,.24,.27l5.19,.72c.16,.02,.31-.1,.31-.27Zm-12.42-1.82v-5.62c0-.13-.1-.25-.24-.27l-5.19-.72c-.16-.02-.31,.1-.31,.27v5.62c0,.13,.1,.25,.24,.27l5.19,.72c.16,.02,.31-.1,.31-.27Z"/></g></g><g><polygon class="cls-1" points="12.38 40.34 2.85 51.23 2.52 69.72 33.46 76.17 50.88 70.5 42.17 43.02 12.38 40.34"/><g><path class="cls-2" d="M12.38,40.34L2.85,51.23c-.13,.15-.05,.39,.16,.41l29.39,3.35c.09,0,.18-.03,.23-.1l8.26-12c.1-.16,0-.37-.18-.39l-7.41-.58,.03,2.36-1.99,3h-4.01l-.08-5.83-14.66-1.17c-.08,0-.15,.02-.21,.08h.01Z"/><path class="cls-2" d="M27.95,37.97v8.35c0,.13,.1,.22,.22,.22h2.56c.07,0,.14-.03,.18-.09l1.59-2.24s.05-.08,.05-.13v-6.11c0-.13-.1-.22-.22-.22h-4.15c-.13,0-.22,.1-.22,.22h-.01Z"/><path class="cls-2" d="M41.71,43.04l-8.57,12.65s-.05,.1-.05,.16v20.05c0,.18,.18,.32,.37,.27l5.6-1.62c.13-.03,.21-.15,.21-.27v-12.88c0-.13,.08-.24,.21-.27l5.81-1.61c.18-.05,.35,.08,.35,.27v11.87c0,.18,.18,.32,.37,.27l4.87-1.43c.13-.03,.21-.15,.21-.27v-16c0-.07-.02-.13-.06-.17l-8.85-11.04c-.11-.15-.34-.14-.46,.02h-.01Z"/><path class="cls-2" d="M3.07,52.36l28.76,3.39c.22,.02,.39,.22,.39,.43v19.54c0,.29-.26,.49-.54,.43l-28.81-6c-.21-.05-.35-.23-.35-.43l.06-16.93c0-.26,.23-.47,.49-.43Zm23.96,13.64v-6.26c0-.15-.11-.27-.26-.3l-5.78-.8c-.18-.02-.34,.11-.34,.3v6.26c0,.15,.11,.27,.26,.3l5.78,.8c.18,.02,.34-.11,.34-.3Zm-13.81-2.02v-6.26c0-.15-.11-.27-.26-.3l-5.78-.8c-.18-.02-.34,.11-.34,.3v6.26c0,.15,.11,.27,.26,.3l5.78,.8c.18,.02,.34-.11,.34-.3Z"/></g></g></g></g></svg>