<?xml version="1.0" encoding="UTF-8"?>
<svg id="Layer_2" xmlns="http://www.w3.org/2000/svg" viewBox="0 0 29.01 43.61">
    <g>
        <g>
            <g>
                <path d="M8.8,2.61c-.02-1.39,1.05-2.49,2.42-2.49,1.35,0,2.49,1.14,2.47,2.47-.02,1.29-1.1,2.38-2.4,2.42-1.36,.05-2.48-1.03-2.5-2.41Z" />
                <path d="M11.07,17.63c.13,0,.25-.02,.38-.02,.03,.42,.1,.84,.1,1.25,0,3.02,.03,6.04,0,9.06-.01,1.07,.21,1.93,1.42,2.06,.91,.1,1.45-.69,1.45-2.01,0-5.65,0-11.31,.01-16.96,0-.45,0-.9,0-1.35,.15,0,.3,0,.45,0,.02,.41,.06,.81,.06,1.22,0,1.55,0,3.11,0,4.66,0,.82-.11,1.8,1.07,1.84,1.2,.04,1.14-.95,1.14-1.77,.01-2.07,0-4.14,0-6.21,0-.34-.03-.69-.09-1.03-.28-1.62-1.37-2.63-3-2.67-1.85-.05-3.71-.05-5.56,0l-.06-.02c-1.63,.04-2.72,1.05-3,2.67-.06,.34-.08,.69-.09,1.03,0,2.07-.01,4.14,0,6.21,0,.82-.06,1.81,1.14,1.77,1.17-.04,1.07-1.02,1.07-1.84,0-1.55,0-3.11,0-4.66,0-.41,.04-.81,.06-1.22,.15,0,.3,0,.45,0,0,.45,0,.9,0,1.35,0,5.65,0,11.31,.01,16.96,0,1.32,.54,2.11,1.45,2.01,1.22-.13,1.44-.99,1.42-2.06-.03-3.02-.02-6.04,0-9.06,0-.42,.07-.84,.1-1.25l.02,.04Z" />
            </g>
            <g>
                <path d="M3.74,8.49c-.02-1.45,1.1-2.6,2.53-2.6,1.41,0,2.6,1.19,2.58,2.58-.02,1.34-1.15,2.49-2.5,2.53-1.42,.05-2.59-1.08-2.61-2.52Z" />
                <path d="M6.1,24.18c.13,0,.26-.02,.39-.03,.04,.44,.1,.87,.1,1.31,0,3.15,.03,6.31,0,9.46-.01,1.12,.22,2.02,1.49,2.15,.95,.1,1.51-.72,1.51-2.1,0-5.9,.01-11.81,.01-17.71,0-.47,0-.94,0-1.41,.16,0,.32,0,.47,0,.02,.42,.06,.85,.06,1.27,0,1.62,0,3.25,0,4.87,0,.86-.11,1.88,1.12,1.93,1.25,.04,1.19-.99,1.19-1.85,.01-2.16,0-4.33,0-6.49,0-.36-.03-.72-.09-1.07-.29-1.69-1.43-2.74-3.13-2.79-1.94-.05-3.87-.05-5.81,0l-.07-.02c-1.7,.04-2.84,1.1-3.13,2.79-.06,.35-.09,.72-.09,1.07,0,2.16-.01,4.33,0,6.49,0,.86-.06,1.89,1.19,1.85,1.23-.04,1.11-1.07,1.12-1.93,0-1.62,0-3.25,0-4.87,0-.42,.04-.85,.06-1.27,.16,0,.32,0,.47,0,0,.47,0,.94,0,1.41,0,5.9,0,11.81,.01,17.71,0,1.38,.56,2.2,1.51,2.1,1.27-.13,1.5-1.03,1.49-2.15-.04-3.15-.02-6.31,0-9.46,0-.44,.07-.87,.1-1.31l.02,.04Z" />
            </g>
            <g>
                <path d="M15.14,3.57c-.02-1.45,1.1-2.6,2.53-2.6,1.41,0,2.6,1.19,2.58,2.58-.02,1.34-1.15,2.49-2.5,2.53-1.42,.05-2.59-1.08-2.61-2.52Z" />
                <path d="M17.51,19.26c.13,0,.26-.02,.39-.03,.04,.44,.1,.87,.1,1.31,0,3.15,.03,6.31,0,9.46-.01,1.12,.22,2.02,1.49,2.15,.95,.1,1.51-.72,1.51-2.1,0-5.9,.01-11.81,.01-17.71,0-.47,0-.94,0-1.41,.16,0,.32,0,.47,0,.02,.42,.06,.85,.06,1.27,0,1.62,0,3.25,0,4.87,0,.86-.11,1.88,1.12,1.93,1.25,.04,1.19-.99,1.19-1.85,.01-2.16,0-4.33,0-6.49,0-.36-.03-.72-.09-1.07-.29-1.69-1.43-2.74-3.13-2.79-1.94-.05-3.87-.05-5.81,0l-.07-.02c-1.7,.04-2.84,1.1-3.13,2.79-.06,.35-.09,.72-.09,1.07,0,2.16-.01,4.33,0,6.49,0,.86-.06,1.89,1.19,1.85,1.23-.04,1.11-1.07,1.12-1.93,0-1.62,0-3.25,0-4.87,0-.42,.04-.85,.06-1.27,.16,0,.32,0,.47,0,0,.47,0,.94,0,1.41,0,5.9,0,11.81,.01,17.71,0,1.38,.56,2.2,1.51,2.1,1.27-.13,1.5-1.03,1.49-2.15-.04-3.15-.02-6.31,0-9.46,0-.44,.07-.87,.1-1.31l.02,.04Z" />
            </g>
            <g>
                <path d="M20.16,7.91c-.02-1.45,1.1-2.6,2.53-2.6,1.41,0,2.6,1.19,2.58,2.58-.02,1.34-1.15,2.49-2.5,2.53-1.42,.05-2.59-1.08-2.61-2.52Z" />
                <path d="M22.53,23.6c.13,0,.26-.02,.39-.03,.04,.44,.1,.87,.1,1.31,0,3.15,.03,6.31,0,9.46-.01,1.12,.22,2.02,1.49,2.15,.95,.1,1.51-.72,1.51-2.1,0-5.9,.01-11.81,.01-17.71,0-.47,0-.94,0-1.41,.16,0,.32,0,.47,0,.02,.42,.06,.85,.06,1.27,0,1.62,0,3.25,0,4.87,0,.86-.11,1.88,1.12,1.93,1.25,.04,1.19-.99,1.19-1.85,.01-2.16,0-4.33,0-6.49,0-.36-.03-.72-.09-1.07-.29-1.69-1.43-2.74-3.13-2.79-1.94-.05-3.87-.05-5.81,0l-.07-.02c-1.7,.04-2.84,1.1-3.13,2.79-.06,.35-.09,.72-.09,1.07,0,2.16-.01,4.33,0,6.49,0,.86-.06,1.89,1.19,1.85,1.23-.04,1.11-1.07,1.12-1.93,0-1.62,0-3.25,0-4.87,0-.42,.04-.85,.06-1.27,.16,0,.32,0,.47,0,0,.47,0,.94,0,1.41,0,5.9,0,11.81,.01,17.71,0,1.38,.56,2.2,1.51,2.1,1.27-.13,1.5-1.03,1.49-2.15-.04-3.15-.02-6.31,0-9.46,0-.44,.07-.87,.1-1.31l.02,.04Z" />
            </g>
            <g>
                <path d="M7,12.17c-.02-1.56,1.18-2.8,2.72-2.8,1.52,0,2.8,1.28,2.78,2.78-.02,1.45-1.24,2.68-2.7,2.73-1.53,.05-2.79-1.16-2.81-2.71Z" />
                <path d="M9.53,29.01c.14,0,.3,.03,.44,.02,.04,.47,.11,.94,.11,1.41,0,3.4,.03,6.79,0,10.19-.01,1.2,.23,2.17,1.6,2.32,1.02,.11,1.63-.78,1.63-2.26,.01-6.36,.01-12.71,.02-19.07,0-.51,0-1.01,0-1.52,.17,0,.34,0,.51,0,.02,.46,.06,.91,.06,1.37,0,1.75,0,3.49,0,5.24,0,.93-.12,2.03,1.2,2.07,1.35,.05,1.28-1.07,1.28-1.99,.01-2.33,0-4.66,0-6.99,0-.39-.03-.78-.1-1.16-.32-1.82-1.54-2.95-3.37-3-2.08-.05-4.17-.05-6.26,0l-.07-.02c-1.83,.05-3.06,1.18-3.37,3-.07,.38-.09,.77-.1,1.16,0,2.33-.01,4.66,0,6.99,0,.93-.07,2.04,1.28,1.99,1.32-.05,1.2-1.15,1.2-2.07,0-1.75,0-3.49,0-5.24,0-.46,.04-.91,.06-1.37,.17,0,.34,0,.51,0,0,.51,0,1.01,0,1.52,0,6.36,0,12.71,.02,19.07,0,1.49,.61,2.37,1.63,2.26,1.37-.14,1.61-1.11,1.6-2.32-.04-3.4-.02-6.79,0-10.19,0-.47,.07-.94,.11-1.41h0Z" />
            </g>
            <g>
                <path d="M15.41,12.69c-.02-1.56,1.18-2.8,2.72-2.8,1.52,0,2.8,1.28,2.78,2.78-.02,1.45-1.24,2.68-2.7,2.73-1.53,.05-2.79-1.16-2.81-2.71Z" />
                <path d="M17.94,29.54c.14,0,.3,.03,.44,.02,.04,.47,.11,.94,.11,1.41,0,3.4,.03,6.79,0,10.19-.01,1.2,.23,2.17,1.6,2.32,1.02,.11,1.63-.78,1.63-2.26,.01-6.36,.01-12.71,.02-19.07,0-.51,0-1.01,0-1.52,.17,0,.34,0,.51,0,.02,.46,.06,.91,.06,1.37,0,1.75,0,3.49,0,5.24,0,.93-.12,2.03,1.2,2.07,1.35,.05,1.28-1.07,1.28-1.99,.01-2.33,0-4.66,0-6.99,0-.39-.03-.78-.1-1.16-.32-1.82-1.54-2.95-3.37-3-2.08-.05-4.17-.05-6.26,0l-.07-.02c-1.83,.05-3.06,1.18-3.37,3-.07,.38-.09,.77-.1,1.16,0,2.33-.01,4.66,0,6.99,0,.93-.07,2.04,1.28,1.99,1.32-.05,1.2-1.15,1.2-2.07,0-1.75,0-3.49,0-5.24,0-.46,.04-.91,.06-1.37,.17,0,.34,0,.51,0,0,.51,0,1.01,0,1.52,0,6.36,0,12.71,.02,19.07,0,1.49,.61,2.37,1.63,2.26,1.37-.14,1.61-1.11,1.6-2.32-.04-3.4-.02-6.79,0-10.19,0-.47,.07-.94,.11-1.41h0Z" />
            </g>
        </g>
    </g>
</svg>