<?xml version="1.0" encoding="UTF-8"?>
<svg xmlns="http://www.w3.org/2000/svg" viewBox="0 0 35.71 26.89">
    <g>
        <g>
            <g>
                <path d="M27.61,12.82v-3.71c-1.86-.13-3.71-.27-5.58-.4,0,.1-.01,.17-.01,.25,0,.91,0,1.82,0,2.73,0,.22,.06,.33,.28,.36,.44,.06,.88,.14,1.32,.19,.2,.02,.26-.12,.26-.3,0-.65,0-1.3,0-1.94,0-.08,0-.15,0-.26,.56,.04,1.1,.08,1.67,.12,0,.23,0,.44,0,.65,0,.58,0,1.16,0,1.73,0,.2,.08,.3,.28,.32,.59,.08,1.19,.17,1.8,.26Z" />
                <path d="M31.66,8.94c-1.33,.07-2.62,.14-3.92,.21v3.7c.44-.09,.86-.18,1.29-.27,.77-.16,1.54-.33,2.32-.49,.23-.04,.33-.13,.32-.38-.01-.84,0-1.68,0-2.52,0-.08,0-.15,0-.26Z" />
                <path d="M22.32,8.57c1.71,.12,3.42,.25,5.15,.37-.35-.99-.43-2.01-.5-3.1-.95,.64-1.71,1.19-2.31,1.55-.44,.26-1.33,.75-2.34,1.18Z" />
                <path d="M27.12,5.88c.02,1,.15,1.9,.44,2.85,.06,.2,.14,.29,.35,.27,1.15-.08,2.31-.14,3.53-.21-1.65-.71-3.21-1.45-4.32-2.91Z" />
            </g>
            <g>
                <path d="M25.39,7.39V3.68c-1.86-.13-3.71-.27-5.58-.4,0,.1-.01,.17-.01,.25,0,.91,0,1.82,0,2.73,0,.22,.06,.33,.28,.36,.44,.06,.88,.14,1.32,.19,.2,.02,.26-.12,.26-.3,0-.65,0-1.3,0-1.94,0-.08,0-.15,0-.26,.56,.04,1.1,.08,1.67,.12,0,.23,0,.44,0,.65,0,.58,0,1.16,0,1.73,0,.2,.08,.3,.28,.32,.59,.08,1.19,.17,1.8,.26Z" />
                <path d="M29.44,3.52c-1.33,.07-2.62,.14-3.92,.21v3.7c.44-.09,.86-.18,1.29-.27,.77-.16,1.54-.33,2.32-.49,.23-.04,.33-.13,.32-.38-.01-.84,0-1.68,0-2.52,0-.08,0-.15,0-.26Z" />
                <path d="M20.1,3.15c1.71,.12,3.42,.25,5.15,.37-.35-.99-.43-2.01-.5-3.1-.95,.64-1.71,1.19-2.31,1.55-.44,.26-1.33,.75-2.34,1.18Z" />
                <path d="M24.89,.45c.02,1,.15,1.9,.44,2.85,.06,.2,.14,.29,.35,.27,1.15-.08,2.31-.14,3.53-.21-1.65-.71-3.21-1.45-4.32-2.91Z" />
            </g>
            <g>
                <path d="M17.49,6.32V3.14c-1.59-.11-3.18-.23-4.78-.34,0,.09-.01,.15-.01,.21,0,.78,0,1.56,0,2.34,0,.19,.05,.28,.24,.3,.38,.05,.75,.12,1.13,.16,.17,.02,.22-.1,.22-.26,0-.55,0-1.11,0-1.66,0-.06,0-.13,0-.22,.48,.03,.94,.07,1.43,.1,0,.19,0,.38,0,.56,0,.5,0,.99,0,1.49,0,.17,.07,.25,.24,.28,.51,.07,1.02,.15,1.54,.22Z" />
                <path d="M20.96,3c-1.14,.06-2.24,.12-3.36,.18v3.17c.37-.08,.74-.15,1.1-.23,.66-.14,1.32-.29,1.99-.42,.19-.04,.28-.11,.27-.32-.01-.72,0-1.44,0-2.16,0-.06,0-.13,0-.22Z" />
                <path d="M12.96,2.69c1.46,.11,2.93,.21,4.41,.32-.3-.85-.37-1.72-.43-2.65-.81,.55-1.46,1.02-1.98,1.33-.38,.23-1.14,.64-2.01,1.01Z" />
                <path d="M17.06,.38c.02,.86,.13,1.63,.38,2.44,.05,.17,.12,.24,.3,.23,.99-.07,1.98-.12,3.03-.18-1.42-.61-2.75-1.24-3.7-2.5Z" />
            </g>
            <g>
                <path d="M10.07,9.01V4.42c-2.3-.16-4.59-.33-6.91-.5,0,.12-.02,.22-.02,.31,0,1.13,0,2.25,0,3.38,0,.27,.07,.41,.35,.44,.55,.07,1.09,.17,1.64,.23,.25,.03,.32-.15,.32-.37,0-.8,0-1.6,0-2.41,0-.09,0-.19,0-.32,.7,.05,1.36,.1,2.06,.15,0,.28,0,.55,0,.81,0,.72,0,1.43,0,2.15,0,.24,.1,.37,.34,.4,.73,.1,1.47,.21,2.23,.32Z" />
                <path d="M15.09,4.22c-1.64,.09-3.24,.17-4.86,.26v4.58c.54-.11,1.07-.22,1.59-.33,.96-.2,1.91-.41,2.87-.6,.28-.06,.4-.16,.4-.47-.02-1.04,0-2.08,0-3.12,0-.09,0-.19,0-.32Z" />
                <path d="M3.52,3.76c2.12,.15,4.24,.3,6.38,.46-.43-1.22-.54-2.49-.61-3.84-1.18,.79-2.11,1.47-2.86,1.92-.54,.33-1.64,.93-2.9,1.46Z" />
                <path d="M9.46,.42c.03,1.24,.18,2.36,.55,3.53,.08,.24,.17,.35,.43,.34,1.43-.1,2.86-.17,4.37-.26-2.05-.88-3.97-1.79-5.35-3.61Z" />
            </g>
            <g>
                <path d="M28.93,13.14v-4.76c-2.38-.17-4.76-.34-7.16-.51,0,.13-.02,.22-.02,.32,0,1.17,0,2.33,0,3.5,0,.28,.08,.42,.36,.46,.57,.07,1.13,.17,1.7,.24,.26,.03,.33-.15,.33-.38,0-.83,0-1.66,0-2.49,0-.1,0-.19,0-.33,.72,.05,1.41,.1,2.14,.15,0,.29,0,.57,0,.84,0,.74,0,1.48,0,2.22,0,.25,.1,.38,.35,.41,.76,.1,1.52,.22,2.31,.33Z" />
                <path d="M34.12,8.17c-1.7,.09-3.35,.18-5.03,.27v4.74c.56-.11,1.1-.23,1.65-.34,.99-.21,1.98-.43,2.97-.62,.29-.06,.42-.16,.41-.48-.02-1.08,0-2.15,0-3.23,0-.1,0-.19,0-.33Z" />
                <path d="M22.15,7.69c2.19,.16,4.39,.32,6.61,.48-.45-1.27-.56-2.58-.64-3.97-1.22,.82-2.19,1.52-2.97,1.99-.56,.34-1.7,.96-3,1.51Z" />
                <path d="M28.29,4.24c.03,1.28,.19,2.44,.57,3.66,.08,.25,.18,.37,.45,.35,1.48-.1,2.96-.18,4.53-.27-2.12-.91-4.11-1.86-5.54-3.73Z" />
            </g>
            <g>
                <path d="M18.61,11.76V7c-2.38-.17-4.76-.34-7.16-.51,0,.13-.02,.22-.02,.32,0,1.17,0,2.33,0,3.5,0,.28,.08,.42,.36,.46,.57,.07,1.13,.17,1.7,.24,.26,.03,.33-.15,.33-.38,0-.83,0-1.66,0-2.49,0-.1,0-.19,0-.33,.72,.05,1.41,.1,2.14,.15,0,.29,0,.57,0,.84,0,.74,0,1.48,0,2.22,0,.25,.1,.38,.35,.41,.76,.1,1.52,.22,2.31,.33Z" />
                <path d="M23.8,6.8c-1.7,.09-3.35,.18-5.03,.27v4.74c.56-.11,1.1-.23,1.65-.34,.99-.21,1.98-.43,2.97-.62,.29-.06,.42-.16,.41-.48-.02-1.08,0-2.15,0-3.23,0-.1,0-.19,0-.33Z" />
                <path d="M11.83,6.32c2.19,.16,4.39,.32,6.61,.48-.45-1.27-.56-2.58-.64-3.97-1.22,.82-2.19,1.52-2.97,1.99-.56,.34-1.7,.96-3,1.51Z" />
                <path d="M17.97,2.87c.03,1.28,.19,2.44,.57,3.66,.08,.25,.18,.37,.45,.35,1.48-.1,2.96-.18,4.53-.27-2.12-.91-4.11-1.86-5.54-3.73Z" />
            </g>
            <g>
                <path d="M9.95,13.14V7.31c-2.92-.21-5.83-.42-8.77-.63,0,.16-.02,.27-.02,.39,0,1.43,0,2.86,0,4.28,0,.34,.09,.51,.44,.56,.69,.09,1.38,.21,2.08,.29,.32,.04,.4-.19,.4-.47,0-1.02,0-2.03,0-3.05,0-.12,0-.24,0-.4,.88,.06,1.73,.12,2.62,.19,0,.36,0,.69,0,1.03,0,.91,0,1.82,0,2.72,0,.31,.12,.46,.43,.51,.93,.13,1.86,.27,2.83,.41Z" />
                <path d="M16.31,7.06c-2.08,.11-4.11,.22-6.16,.32,0,1.93,0,3.85,0,5.8,.68-.14,1.35-.28,2.02-.42,1.21-.25,2.42-.52,3.64-.76,.36-.07,.51-.2,.5-.59-.02-1.32,0-2.64,0-3.96,0-.12,0-.24,0-.4Z" />
                <path d="M1.65,6.48c2.69,.19,5.37,.39,8.09,.58-.55-1.55-.68-3.16-.78-4.87-1.49,1.01-2.68,1.86-3.63,2.43-.69,.41-2.09,1.17-3.68,1.85Z" />
                <path d="M9.17,2.25c.03,1.57,.23,2.99,.69,4.48,.1,.31,.22,.45,.55,.43,1.81-.12,3.63-.22,5.55-.33-2.6-1.11-5.03-2.28-6.79-4.57Z" />
            </g>
            <g>
                <path d="M22.81,9.77v-3.18c-1.59-.11-3.18-.23-4.78-.34,0,.09-.01,.15-.01,.21,0,.78,0,1.56,0,2.34,0,.19,.05,.28,.24,.3,.38,.05,.75,.12,1.13,.16,.17,.02,.22-.1,.22-.26,0-.55,0-1.11,0-1.66,0-.06,0-.13,0-.22,.48,.03,.94,.07,1.43,.1,0,.19,0,.38,0,.56,0,.5,0,.99,0,1.49,0,.17,.07,.25,.24,.28,.51,.07,1.02,.15,1.54,.22Z" />
                <path d="M26.28,6.45c-1.14,.06-2.24,.12-3.36,.18v3.17c.37-.08,.74-.15,1.1-.23,.66-.14,1.32-.29,1.99-.42,.19-.04,.28-.11,.27-.32-.01-.72,0-1.44,0-2.16,0-.06,0-.13,0-.22Z" />
                <path d="M18.28,6.13c1.46,.11,2.93,.21,4.41,.32-.3-.85-.37-1.72-.43-2.65-.81,.55-1.46,1.02-1.98,1.33-.38,.23-1.14,.64-2.01,1.01Z" />
                <path d="M22.38,3.83c.02,.86,.13,1.63,.38,2.44,.05,.17,.12,.24,.3,.23,.99-.07,1.98-.12,3.03-.18-1.42-.61-2.75-1.24-3.7-2.5Z" />
            </g>
            <g>
                <path d="M13.4,12.73v-4.6c-2.3-.16-4.59-.33-6.91-.5,0,.12-.02,.22-.02,.31,0,1.13,0,2.25,0,3.38,0,.27,.07,.41,.35,.44,.55,.07,1.09,.17,1.64,.23,.25,.03,.32-.15,.32-.37,0-.8,0-1.6,0-2.41,0-.09,0-.19,0-.32,.7,.05,1.36,.1,2.06,.15,0,.28,0,.55,0,.81,0,.72,0,1.43,0,2.15,0,.24,.1,.37,.34,.4,.73,.1,1.47,.21,2.23,.32Z" />
                <path d="M18.41,7.94c-1.64,.09-3.24,.17-4.86,.26v4.58c.54-.11,1.07-.22,1.59-.33,.96-.2,1.91-.41,2.87-.6,.28-.06,.4-.16,.4-.47-.02-1.04,0-2.08,0-3.12,0-.09,0-.19,0-.32Z" />
                <path d="M6.85,7.48c2.12,.15,4.24,.3,6.38,.46-.43-1.22-.54-2.49-.61-3.84-1.18,.79-2.11,1.47-2.86,1.92-.54,.33-1.64,.93-2.9,1.46Z" />
                <path d="M12.78,4.14c.03,1.24,.18,2.36,.55,3.53,.08,.24,.17,.35,.43,.34,1.43-.1,2.86-.17,4.37-.26-2.05-.88-3.97-1.79-5.35-3.61Z" />
            </g>
            <g>
                <path d="M30.27,17.96v-4.76c-2.38-.17-4.76-.34-7.16-.51,0,.13-.02,.22-.02,.32,0,1.17,0,2.33,0,3.5,0,.28,.08,.42,.36,.46,.57,.07,1.13,.17,1.7,.24,.26,.03,.33-.15,.33-.38,0-.83,0-1.66,0-2.49,0-.1,0-.19,0-.33,.72,.05,1.41,.1,2.14,.15,0,.29,0,.57,0,.84,0,.74,0,1.48,0,2.22,0,.25,.1,.38,.35,.41,.76,.1,1.52,.22,2.31,.33Z" />
                <path d="M35.46,13c-1.7,.09-3.35,.18-5.03,.27v4.74c.56-.11,1.1-.23,1.65-.34,.99-.21,1.98-.43,2.97-.62,.29-.06,.42-.16,.41-.48-.02-1.08,0-2.15,0-3.23,0-.1,0-.19,0-.33Z" />
                <path d="M23.49,12.52c2.19,.16,4.39,.32,6.61,.48-.45-1.27-.56-2.58-.64-3.97-1.22,.82-2.19,1.52-2.97,1.99-.56,.34-1.7,.96-3,1.51Z" />
                <path d="M29.63,9.07c.03,1.28,.19,2.44,.57,3.66,.08,.25,.18,.37,.45,.35,1.48-.1,2.96-.18,4.53-.27-2.12-.91-4.11-1.86-5.54-3.73Z" />
            </g>
            <g>
                <path d="M21.94,15.48v-4.76c-2.38-.17-4.76-.34-7.16-.51,0,.13-.02,.22-.02,.32,0,1.17,0,2.33,0,3.5,0,.28,.08,.42,.36,.46,.57,.07,1.13,.17,1.7,.24,.26,.03,.33-.15,.33-.38,0-.83,0-1.66,0-2.49,0-.1,0-.19,0-.33,.72,.05,1.41,.1,2.14,.15,0,.29,0,.57,0,.84,0,.74,0,1.48,0,2.22,0,.25,.1,.38,.35,.41,.76,.1,1.52,.22,2.31,.33Z" />
                <path d="M27.13,10.52c-1.7,.09-3.35,.18-5.03,.27v4.74c.56-.11,1.1-.23,1.65-.34,.99-.21,1.98-.43,2.97-.62,.29-.06,.42-.16,.41-.48-.02-1.08,0-2.15,0-3.23,0-.1,0-.19,0-.33Z" />
                <path d="M15.16,10.04c2.19,.16,4.39,.32,6.61,.48-.45-1.27-.56-2.58-.64-3.97-1.22,.82-2.19,1.52-2.97,1.99-.56,.34-1.7,.96-3,1.51Z" />
                <path d="M21.3,6.59c.03,1.28,.19,2.44,.57,3.66,.08,.25,.18,.37,.45,.35,1.48-.1,2.96-.18,4.53-.27-2.12-.91-4.11-1.86-5.54-3.73Z" />
            </g>
            <g>
                <path d="M13.28,16.86v-5.83c-2.92-.21-5.83-.42-8.77-.63,0,.16-.02,.27-.02,.39,0,1.43,0,2.86,0,4.28,0,.34,.09,.51,.44,.56,.69,.09,1.38,.21,2.08,.29,.32,.04,.4-.19,.4-.47,0-1.02,0-2.03,0-3.05,0-.12,0-.24,0-.4,.88,.06,1.73,.12,2.62,.19,0,.36,0,.69,0,1.03,0,.91,0,1.82,0,2.72,0,.31,.12,.46,.43,.51,.93,.13,1.86,.27,2.83,.41Z" />
                <path d="M19.64,10.78c-2.08,.11-4.11,.22-6.16,.32,0,1.93,0,3.85,0,5.8,.68-.14,1.35-.28,2.02-.42,1.21-.25,2.42-.52,3.64-.76,.36-.07,.51-.2,.5-.59-.02-1.32,0-2.64,0-3.96,0-.12,0-.24,0-.4Z" />
                <path d="M4.97,10.19c2.69,.19,5.37,.39,8.09,.58-.55-1.55-.68-3.16-.78-4.87-1.49,1.01-2.68,1.86-3.63,2.43-.69,.41-2.09,1.17-3.68,1.85Z" />
                <path d="M12.5,5.97c.03,1.57,.23,2.99,.69,4.48,.1,.31,.22,.45,.55,.43,1.81-.12,3.63-.22,5.55-.33-2.6-1.11-5.03-2.28-6.79-4.57Z" />
            </g>
            <g>
                <path d="M10.61,21.19c0-2.33,0-4.62,0-6.95-3.48-.25-6.95-.5-10.45-.75,0,.19-.02,.33-.02,.47,0,1.7,.01,3.41,0,5.11,0,.41,.11,.61,.53,.67,.83,.1,1.65,.25,2.48,.35,.38,.04,.48-.22,.48-.56,0-1.21,0-2.42,0-3.64,0-.14,0-.28,0-.48,1.05,.08,2.06,.15,3.12,.22,0,.43,0,.83,0,1.23,0,1.08,0,2.17,0,3.25,0,.37,.14,.55,.52,.6,1.11,.15,2.22,.32,3.37,.49Z" />
                <path d="M18.2,13.94c-2.48,.13-4.9,.26-7.34,.39,0,2.31,0,4.59,0,6.92,.81-.17,1.61-.33,2.41-.5,1.45-.3,2.89-.62,4.34-.91,.42-.08,.61-.24,.6-.71-.03-1.57-.01-3.15-.01-4.72,0-.14,0-.28,0-.48Z" />
                <path d="M.71,13.24c3.2,.23,6.41,.46,9.65,.69-.65-1.85-.81-3.77-.93-5.8-1.78,1.2-3.19,2.22-4.33,2.9-.82,.49-2.49,1.4-4.39,2.21Z" />
                <path d="M9.68,8.2c.04,1.88,.27,3.56,.83,5.34,.11,.37,.26,.53,.66,.51,2.16-.15,4.33-.26,6.61-.4-3.09-1.33-6-2.71-8.1-5.45Z" />
            </g>
            <g>
                <path d="M24.02,23.05c0-2.31,0-4.58,0-6.9-3.45-.25-6.9-.49-10.37-.74,0,.19-.02,.32-.02,.46,0,1.69,.01,3.38,0,5.07,0,.4,.11,.61,.53,.66,.82,.1,1.64,.25,2.46,.35,.38,.04,.48-.22,.48-.55,0-1.2,0-2.41,0-3.61,0-.14,0-.28,0-.48,1.05,.07,2.05,.15,3.1,.22,0,.42,0,.82,0,1.22,0,1.07,0,2.15,0,3.22,0,.37,.14,.55,.51,.6,1.1,.15,2.2,.32,3.34,.48Z" />
                <path d="M31.55,15.85c-2.47,.13-4.86,.26-7.29,.38v6.87c.81-.17,1.6-.33,2.39-.49,1.44-.3,2.87-.62,4.31-.9,.42-.08,.6-.24,.6-.7-.03-1.56-.01-3.12-.01-4.68,0-.14,0-.28,0-.47Z" />
                <path d="M14.19,15.16c3.18,.23,6.36,.46,9.58,.69-.65-1.84-.81-3.74-.92-5.76-1.77,1.19-3.17,2.2-4.3,2.88-.82,.49-2.47,1.39-4.35,2.19Z" />
                <path d="M23.1,10.16c.04,1.86,.27,3.54,.82,5.3,.11,.36,.26,.53,.65,.5,2.15-.14,4.29-.26,6.56-.39-3.07-1.32-5.96-2.69-8.04-5.41Z" />
            </g>
            <g>
                <path d="M14.69,26.67c0-2.6,0-5.17,0-7.78-3.89-.28-7.78-.56-11.7-.84-.01,.21-.03,.37-.03,.52,0,1.91,.01,3.81-.01,5.72,0,.46,.13,.69,.59,.75,.93,.12,1.85,.28,2.77,.39,.43,.05,.54-.25,.54-.62,0-1.36,0-2.71,0-4.07,0-.16,0-.32,0-.54,1.18,.08,2.31,.16,3.49,.25,0,.48,0,.92,0,1.37,0,1.21,0,2.42,0,3.64,0,.41,.16,.62,.58,.67,1.24,.17,2.49,.36,3.77,.54Z" />
                <path d="M23.18,18.55c-2.78,.15-5.48,.29-8.22,.43v7.75c.91-.19,1.81-.37,2.7-.56,1.62-.34,3.24-.7,4.86-1.02,.48-.09,.68-.27,.67-.79-.03-1.76-.01-3.52-.01-5.28,0-.16,0-.32,0-.53Z" />
                <path d="M3.6,17.77c3.59,.26,7.17,.52,10.8,.78-.73-2.07-.91-4.22-1.04-6.5-1.99,1.34-3.57,2.48-4.85,3.25-.92,.55-2.79,1.57-4.91,2.47Z" />
                <path d="M13.65,12.13c.04,2.1,.31,3.99,.93,5.98,.13,.41,.29,.6,.73,.57,2.42-.16,4.84-.29,7.4-.44-3.46-1.49-6.72-3.04-9.06-6.11Z" />
            </g>
        </g>
    </g>
</svg>