<?xml version="1.0" encoding="UTF-8"?>
<svg id="Layer_2" xmlns="http://www.w3.org/2000/svg" viewBox="0 0 42.7 33.85">
    <defs>
        <style>.cls-1{fill:#d3d3d3;stroke:#fff;stroke-miterlimit:10;stroke-width:.25px;}</style>
    </defs>
    <g id="Layer_1-2">
        <g>
            <path class="cls-1" d="M8.74,2.39L.4,11.91c-.11,.13-.04,.34,.14,.36l25.7,2.93c.08,0,.16-.03,.2-.09l7.22-10.49c.09-.14,0-.32-.16-.34l-6.48-.51,.03,2.06-1.74,2.62h-3.51l-.07-5.1-12.82-1.02c-.07,0-.13,.02-.18,.07Z" />
            <path class="cls-1" d="M22.35,.32V7.62c0,.11,.09,.19,.19,.19h2.24c.06,0,.12-.03,.16-.08l1.39-1.96s.04-.07,.04-.11V.32c0-.11-.09-.19-.19-.19h-3.63c-.11,0-.19,.09-.19,.19Z" />
            <path class="cls-1" d="M34.38,4.75l-7.49,11.06s-.04,.09-.04,.14v17.53c0,.16,.16,.28,.32,.24l4.9-1.42c.11-.03,.18-.13,.18-.24v-11.26c0-.11,.07-.21,.18-.24l5.08-1.41c.16-.04,.31,.07,.31,.24v10.38c0,.16,.16,.28,.32,.24l4.26-1.25c.11-.03,.18-.13,.18-.24V14.53c0-.06-.02-.11-.05-.15l-7.74-9.65c-.1-.13-.3-.12-.4,.02Z" />
            <path class="cls-1" d="M.6,12.9l25.15,2.96c.19,.02,.34,.19,.34,.38v17.09c0,.25-.23,.43-.47,.38L.43,28.46c-.18-.04-.31-.2-.31-.38l.05-14.8c0-.23,.2-.41,.43-.38Zm20.95,11.93v-5.47c0-.13-.1-.24-.23-.26l-5.05-.7c-.16-.02-.3,.1-.3,.26v5.47c0,.13,.1,.24,.23,.26l5.05,.7c.16,.02,.3-.1,.3-.26Zm-12.08-1.77v-5.47c0-.13-.1-.24-.23-.26l-5.05-.7c-.16-.02-.3,.1-.3,.26v5.47c0,.13,.1,.24,.23,.26l5.05,.7c.16,.02,.3-.1,.3-.26Z" />
        </g>
    </g>
</svg>