<?xml version="1.0" encoding="UTF-8"?>
<svg id="a" data-name="Layer 1" xmlns="http://www.w3.org/2000/svg"
  xmlns:xlink="http://www.w3.org/1999/xlink" viewBox="0 0 6.89 7.06">
  <g>
    <path
      d="m5.91,3.54v3.4h-1.77v-1.9s0-.05,0-.07c0-.08-.05-.12-.13-.12-.36,0-.72,0-1.08,0-.08,0-.13.05-.14.12,0,.02,0,.05,0,.07v1.9h-.07c-.54,0-1.08,0-1.62,0-.07,0-.08-.02-.08-.08,0-1.08,0-2.16,0-3.23v-.1h-.08c-.21,0-.42,0-.63,0-.07,0-.14-.01-.17-.08-.03-.07,0-.12.06-.17.86-.83,1.72-1.66,2.59-2.49.19-.18.38-.36.57-.55.09-.09.15-.09.24,0,1.05,1.01,2.1,2.02,3.15,3.03.05.05.09.1.06.17-.03.07-.09.08-.16.08-.21,0-.42,0-.63,0h-.08Z" />
  </g>
</svg>