<?xml version="1.0" encoding="UTF-8"?><svg id="Layer_2" xmlns="http://www.w3.org/2000/svg" viewBox="0 0 65.48 94.97"><defs><style>.cls-1,.cls-2{fill:#fff;}.cls-3,.cls-4{fill:#d3d3d3;}.cls-2,.cls-4{stroke:#fff;stroke-miterlimit:10;stroke-width:.25px;}</style></defs><g id="Layer_1-2"><g><g><path class="cls-2" d="M44.35,40.32c.31-5.39-1.51-10.29-3.41-15.19l-.65-.09c-.04,1.62-.56,3.27-1,4.68-.74,2.31-1.8,4.47-3,6.57-.09,.16-.37,.31-.57,.33-.5,.02-.99-.04-1.49-.05-1.62-.09-2.83,.91-2.94,2.4-.09,1.4,.99,2.61,2.56,2.67,2.12,.07,4.23,.02,6.35-.02,.94-.02,1.88-.16,2.89-.24"/><path class="cls-4" d="M26.3,73.04c-.02-.26-.07-.53-.07-.79,.09-2.78,.2-5.54,.29-8.32,0-.33-.17-.66-.24-1.01-.04-.22-.07-.46-.07-.68,.11-3.66,.24-7.33,.37-10.97v-.5c-.29,.09-.57,.22-.85,.28-1.12,.18-2.19-.57-2.32-1.73-.52-4.36-.72-8.72-.09-13.09,.37-2.52,1.01-4.97,2.41-7.16,1.2-1.86,2.72-3.33,4.95-3.81,1.23-.28,2.5-.31,3.75,.11,1.36,.46,2.72,.37,4.09-.09,.5-.17,1.03-.15,1.62-.24-.04,1.64-.39,3.09-.83,4.53-.74,2.34-1.8,4.53-3,6.66-.09,.17-.37,.31-.57,.33-.5,.02-.99-.04-1.49-.06-1.62-.09-2.83,.92-2.94,2.43-.09,1.42,.99,2.65,2.56,2.71,2.12,.07,4.23,.02,6.35-.02,.94-.02,1.88-.17,2.89-.24v27.22c0,1.71-1.05,3.04-2.58,3.28-1.56,.24-3.02-.64-3.46-2.14-.15-.48-.17-.99-.17-1.47v-22.01h-1.1v10.36c-1.16-.15-2.23-.24-3.26-.46-.83-.17-1.6-.52-2.41-.75-.44-.13-.57-.37-.57-.85v-21.79c0-.59,0-1.2-.06-1.82-.7,.79-1.09,1.75-1.45,2.76,.72,.09,.74,.57,.72,1.14-.18,5.28-.37,10.55-.55,15.83-.13,3.88-.26,7.79-.39,11.67,0,.28-.18,.55-.26,.85-.06,.2-.13,.4-.13,.61-.11,2.83-.2,5.67-.29,8.48,0,.26-.07,.53-.11,.79h-.7l-.04-.04Z"/><path class="cls-4" d="M44.04,40.56c.31-5.47-1.51-10.44-3.41-15.41,1.14-.11,2.08,.22,2.91,.92,1.25,1.03,1.95,2.41,2.48,3.88,.85,2.3,1.27,4.71,1.45,7.14,.04,.57-.2,1.21-.5,1.73-.64,1.07-1.77,1.45-2.96,1.75l.02-.02Z"/><path class="cls-4" d="M35.72,64.24c0,1.05-.5,1.97-1.47,2.56-1.09,.66-2.21,.64-3.28-.02-1.18-.74-1.56-1.88-1.44-3.13,2.04,.18,4.07,.39,6.18,.59Z"/><path class="cls-4" d="M29.54,59.94v-3.35c1.03,.28,2.04,.63,3.09,.83,.85,.17,1.71,.18,2.58,.28,.18,.02,.35,.13,.53,.2-.11,.18-.17,.46-.33,.53-.88,.4-1.77,.85-2.71,1.09-.99,.26-2.04,.28-3.17,.4v.02Z"/><path class="cls-4" d="M35.7,59.75v3.17c-1.36-.07-2.67-.13-3.98-.24-.46-.04-.9-.17-1.34-.28q-.94-.24-.81-1.31c2.08-.04,4.16-.26,6.13-1.34Z"/><g><path class="cls-3" d="M33.26,40.74c-.92-.46-1.34-1.2-1.16-2.04s.94-1.4,1.9-1.4h1.45s-2.19,3.44-2.19,3.44Z"/><path class="cls-1" d="M33.99,37.08v.46h1.03l-1.79,2.8-.06,.09c-.7-.42-1.01-1.01-.85-1.69,.17-.74,.83-1.21,1.67-1.21v-.46m0,0c-1.07,0-1.91,.63-2.12,1.58-.22,.99,.29,1.88,1.47,2.39,.81-1.27,1.62-2.54,2.52-3.96h-1.86l-.02-.02Z"/></g><path class="cls-4" d="M31.3,19.34c-.04-2.87,2.17-5.15,5.01-5.15s5.15,2.36,5.12,5.12c-.04,2.67-2.28,4.93-4.97,5.02-2.82,.09-5.14-2.14-5.17-4.99h.02Z"/></g><g><path class="cls-2" d="M47.54,26.27c.31-5.39-1.51-10.29-3.41-15.19l-.65-.09c-.04,1.62-.56,3.27-1,4.68-.74,2.31-1.8,4.47-3,6.57-.09,.16-.37,.31-.57,.33-.5,.02-.99-.04-1.49-.05-1.62-.09-2.83,.91-2.94,2.4-.09,1.4,.99,2.61,2.56,2.67,2.12,.07,4.23,.02,6.35-.02,.94-.02,1.88-.16,2.89-.24"/><path class="cls-4" d="M29.48,58.99c-.02-.26-.07-.53-.07-.79,.09-2.78,.2-5.54,.29-8.32,0-.33-.17-.66-.24-1.01-.04-.22-.07-.46-.07-.68,.11-3.66,.24-7.33,.37-10.97v-.5c-.29,.09-.57,.22-.85,.28-1.12,.18-2.19-.57-2.32-1.73-.52-4.36-.72-8.72-.09-13.09,.37-2.52,1.01-4.97,2.41-7.16,1.2-1.86,2.72-3.33,4.95-3.81,1.23-.28,2.5-.31,3.75,.11,1.36,.46,2.72,.37,4.09-.09,.5-.17,1.03-.15,1.62-.24-.04,1.64-.39,3.09-.83,4.53-.74,2.34-1.8,4.53-3,6.66-.09,.17-.37,.31-.57,.33-.5,.02-.99-.04-1.49-.06-1.62-.09-2.83,.92-2.94,2.43-.09,1.42,.99,2.65,2.56,2.71,2.12,.07,4.23,.02,6.35-.02,.94-.02,1.88-.17,2.89-.24v27.22c0,1.71-1.05,3.04-2.58,3.28-1.56,.24-3.02-.64-3.46-2.14-.15-.48-.17-.99-.17-1.47v-22.01h-1.1v10.36c-1.16-.15-2.23-.24-3.26-.46-.83-.17-1.6-.52-2.41-.75-.44-.13-.57-.37-.57-.85V18.71c0-.59,0-1.2-.06-1.82-.7,.79-1.09,1.75-1.45,2.76,.72,.09,.74,.57,.72,1.14-.18,5.28-.37,10.55-.55,15.83-.13,3.88-.26,7.79-.39,11.67,0,.28-.18,.55-.26,.85-.06,.2-.13,.4-.13,.61-.11,2.83-.2,5.67-.29,8.48,0,.26-.07,.53-.11,.79h-.7l-.04-.04Z"/><path class="cls-4" d="M47.23,26.5c.31-5.47-1.51-10.44-3.41-15.41,1.14-.11,2.08,.22,2.91,.92,1.25,1.03,1.95,2.41,2.48,3.88,.85,2.3,1.27,4.71,1.45,7.14,.04,.57-.2,1.21-.5,1.73-.64,1.07-1.77,1.45-2.96,1.75l.02-.02Z"/><path class="cls-4" d="M38.91,50.19c0,1.05-.5,1.97-1.47,2.56-1.09,.66-2.21,.64-3.28-.02-1.18-.74-1.56-1.88-1.44-3.13,2.04,.18,4.07,.39,6.18,.59Z"/><path class="cls-4" d="M32.72,45.88v-3.35c1.03,.28,2.04,.63,3.09,.83,.85,.17,1.71,.18,2.58,.28,.18,.02,.35,.13,.53,.2-.11,.18-.17,.46-.33,.53-.88,.4-1.77,.85-2.71,1.09-.99,.26-2.04,.28-3.17,.4v.02Z"/><path class="cls-4" d="M38.89,45.7v3.17c-1.36-.07-2.67-.13-3.98-.24-.46-.04-.9-.17-1.34-.28q-.94-.24-.81-1.31c2.08-.04,4.16-.26,6.13-1.34Z"/><g><path class="cls-3" d="M36.44,26.68c-.92-.46-1.34-1.2-1.16-2.04s.94-1.4,1.9-1.4h1.45s-2.19,3.44-2.19,3.44Z"/><path class="cls-1" d="M37.18,23.02v.46h1.03l-1.79,2.8-.06,.09c-.7-.42-1.01-1.01-.85-1.69,.17-.74,.83-1.21,1.67-1.21v-.46m0,0c-1.07,0-1.91,.63-2.12,1.58-.22,.99,.29,1.88,1.47,2.39,.81-1.27,1.62-2.54,2.52-3.96h-1.86l-.02-.02Z"/></g><path class="cls-4" d="M34.49,5.28c-.04-2.87,2.17-5.15,5.01-5.15s5.15,2.36,5.12,5.12c-.04,2.67-2.28,4.93-4.97,5.02-2.82,.09-5.14-2.14-5.17-4.99h.02Z"/></g><g><path class="cls-2" d="M62.22,34.86c.31-5.39-1.51-10.29-3.41-15.19l-.65-.09c-.04,1.62-.56,3.27-1,4.68-.74,2.31-1.8,4.47-3,6.57-.09,.16-.37,.31-.57,.33-.5,.02-.99-.04-1.49-.05-1.62-.09-2.83,.91-2.94,2.4-.09,1.4,.99,2.61,2.56,2.67,2.12,.07,4.23,.02,6.35-.02,.94-.02,1.88-.16,2.89-.24"/><path class="cls-4" d="M44.17,67.58c-.02-.26-.07-.53-.07-.79,.09-2.78,.2-5.54,.29-8.32,0-.33-.17-.66-.24-1.01-.04-.22-.07-.46-.07-.68,.11-3.66,.24-7.33,.37-10.97v-.5c-.29,.09-.57,.22-.85,.28-1.12,.18-2.19-.57-2.32-1.73-.52-4.36-.72-8.72-.09-13.09,.37-2.52,1.01-4.97,2.41-7.16,1.2-1.86,2.72-3.33,4.95-3.81,1.23-.28,2.5-.31,3.75,.11,1.36,.46,2.72,.37,4.09-.09,.5-.17,1.03-.15,1.62-.24-.04,1.64-.39,3.09-.83,4.53-.74,2.34-1.8,4.53-3,6.66-.09,.17-.37,.31-.57,.33-.5,.02-.99-.04-1.49-.06-1.62-.09-2.83,.92-2.94,2.43-.09,1.42,.99,2.65,2.56,2.71,2.12,.07,4.23,.02,6.35-.02,.94-.02,1.88-.17,2.89-.24v27.22c0,1.71-1.05,3.04-2.58,3.28-1.56,.24-3.02-.64-3.46-2.14-.15-.48-.17-.99-.17-1.47v-22.01h-1.1v10.36c-1.16-.15-2.23-.24-3.26-.46-.83-.17-1.6-.52-2.41-.75-.44-.13-.57-.37-.57-.85V27.31c0-.59,0-1.2-.06-1.82-.7,.79-1.09,1.75-1.45,2.76,.72,.09,.74,.57,.72,1.14-.18,5.28-.37,10.55-.55,15.83-.13,3.88-.26,7.79-.39,11.67,0,.28-.18,.55-.26,.85-.06,.2-.13,.4-.13,.61-.11,2.83-.2,5.67-.29,8.48,0,.26-.07,.53-.11,.79h-.7l-.04-.04Z"/><path class="cls-4" d="M61.91,35.09c.31-5.47-1.51-10.44-3.41-15.41,1.14-.11,2.08,.22,2.91,.92,1.25,1.03,1.95,2.41,2.48,3.88,.85,2.3,1.27,4.71,1.45,7.14,.04,.57-.2,1.21-.5,1.73-.64,1.07-1.77,1.45-2.96,1.75l.02-.02Z"/><path class="cls-4" d="M53.59,58.78c0,1.05-.5,1.97-1.47,2.56-1.09,.66-2.21,.64-3.28-.02-1.18-.74-1.56-1.88-1.44-3.13,2.04,.18,4.07,.39,6.18,.59Z"/><path class="cls-4" d="M47.41,54.47v-3.35c1.03,.28,2.04,.63,3.09,.83,.85,.17,1.71,.18,2.58,.28,.18,.02,.35,.13,.53,.2-.11,.18-.17,.46-.33,.53-.88,.4-1.77,.85-2.71,1.09-.99,.26-2.04,.28-3.17,.4v.02Z"/><path class="cls-4" d="M53.57,54.29v3.17c-1.36-.07-2.67-.13-3.98-.24-.46-.04-.9-.17-1.34-.28q-.94-.24-.81-1.31c2.08-.04,4.16-.26,6.13-1.34Z"/><g><path class="cls-3" d="M51.13,35.28c-.92-.46-1.34-1.2-1.16-2.04s.94-1.4,1.9-1.4h1.45s-2.19,3.44-2.19,3.44Z"/><path class="cls-1" d="M51.86,31.61v.46h1.03l-1.79,2.8-.06,.09c-.7-.42-1.01-1.01-.85-1.69,.17-.74,.83-1.21,1.67-1.21v-.46m0,0c-1.07,0-1.91,.63-2.12,1.58-.22,.99,.29,1.88,1.47,2.39,.81-1.27,1.62-2.54,2.52-3.96h-1.86l-.02-.02Z"/></g><path class="cls-4" d="M49.18,13.87c-.04-2.87,2.17-5.15,5.01-5.15s5.15,2.36,5.12,5.12c-.04,2.67-2.28,4.93-4.97,5.02-2.82,.09-5.14-2.14-5.17-4.99h.02Z"/></g><g><path class="cls-2" d="M29.03,34.68c.31-5.39-1.51-10.29-3.41-15.19l-.65-.09c-.04,1.62-.56,3.27-1,4.68-.74,2.31-1.8,4.47-3,6.57-.09,.16-.37,.31-.57,.33-.5,.02-.99-.04-1.49-.05-1.62-.09-2.83,.91-2.94,2.4-.09,1.4,.99,2.61,2.56,2.67,2.12,.07,4.23,.02,6.35-.02,.94-.02,1.88-.16,2.89-.24"/><path class="cls-4" d="M10.98,67.4c-.02-.26-.07-.53-.07-.79,.09-2.78,.2-5.54,.29-8.32,0-.33-.17-.66-.24-1.01-.04-.22-.07-.46-.07-.68,.11-3.66,.24-7.33,.37-10.97v-.5c-.29,.09-.57,.22-.85,.28-1.12,.18-2.19-.57-2.32-1.73-.52-4.36-.72-8.72-.09-13.09,.37-2.52,1.01-4.97,2.41-7.16,1.2-1.86,2.72-3.33,4.95-3.81,1.23-.28,2.5-.31,3.75,.11,1.36,.46,2.72,.37,4.09-.09,.5-.17,1.03-.15,1.62-.24-.04,1.64-.39,3.09-.83,4.53-.74,2.34-1.8,4.53-3,6.66-.09,.17-.37,.31-.57,.33-.5,.02-.99-.04-1.49-.06-1.62-.09-2.83,.92-2.94,2.43-.09,1.42,.99,2.65,2.56,2.71,2.12,.07,4.23,.02,6.35-.02,.94-.02,1.88-.17,2.89-.24v27.22c0,1.71-1.05,3.04-2.58,3.28-1.56,.24-3.02-.64-3.46-2.14-.15-.48-.17-.99-.17-1.47v-22.01h-1.1v10.36c-1.16-.15-2.23-.24-3.26-.46-.83-.17-1.6-.52-2.41-.75-.44-.13-.57-.37-.57-.85V27.12c0-.59,0-1.2-.06-1.82-.7,.79-1.09,1.75-1.45,2.76,.72,.09,.74,.57,.72,1.14-.18,5.28-.37,10.55-.55,15.83-.13,3.88-.26,7.79-.39,11.67,0,.28-.18,.55-.26,.85-.06,.2-.13,.4-.13,.61-.11,2.83-.2,5.67-.29,8.48,0,.26-.07,.53-.11,.79h-.7l-.04-.04Z"/><path class="cls-4" d="M28.72,34.91c.31-5.47-1.51-10.44-3.41-15.41,1.14-.11,2.08,.22,2.91,.92,1.25,1.03,1.95,2.41,2.48,3.88,.85,2.3,1.27,4.71,1.45,7.14,.04,.57-.2,1.21-.5,1.73-.64,1.07-1.77,1.45-2.96,1.75l.02-.02Z"/><path class="cls-4" d="M20.4,58.6c0,1.05-.5,1.97-1.47,2.56-1.09,.66-2.21,.64-3.28-.02-1.18-.74-1.56-1.88-1.44-3.13,2.04,.18,4.07,.39,6.18,.59Z"/><path class="cls-4" d="M14.22,54.29v-3.35c1.03,.28,2.04,.63,3.09,.83,.85,.17,1.71,.18,2.58,.28,.18,.02,.35,.13,.53,.2-.11,.18-.17,.46-.33,.53-.88,.4-1.77,.85-2.71,1.09-.99,.26-2.04,.28-3.17,.4v.02Z"/><path class="cls-4" d="M20.38,54.11v3.17c-1.36-.07-2.67-.13-3.98-.24-.46-.04-.9-.17-1.34-.28q-.94-.24-.81-1.31c2.08-.04,4.16-.26,6.13-1.34Z"/><g><path class="cls-3" d="M17.94,35.09c-.92-.46-1.34-1.2-1.16-2.04s.94-1.4,1.9-1.4h1.45s-2.19,3.44-2.19,3.44Z"/><path class="cls-1" d="M18.67,31.43v.46h1.03l-1.79,2.8-.06,.09c-.7-.42-1.01-1.01-.85-1.69,.17-.74,.83-1.21,1.67-1.21v-.46m0,0c-1.07,0-1.91,.63-2.12,1.58-.22,.99,.29,1.88,1.47,2.39,.81-1.27,1.62-2.54,2.52-3.96h-1.86l-.02-.02Z"/></g><path class="cls-4" d="M15.99,13.69c-.04-2.87,2.17-5.15,5.01-5.15s5.15,2.36,5.12,5.12c-.04,2.67-2.28,4.93-4.97,5.02-2.82,.09-5.14-2.14-5.17-4.99h.02Z"/></g><g><path class="cls-2" d="M37.16,44.81c.34-5.92-1.66-11.31-3.74-16.7l-.72-.1c-.04,1.78-.61,3.59-1.1,5.14-.81,2.53-1.98,4.91-3.3,7.22-.1,.18-.4,.34-.63,.36-.55,.02-1.09-.04-1.64-.06-1.78-.1-3.11,1-3.24,2.63-.1,1.54,1.09,2.87,2.81,2.93,2.33,.08,4.65,.02,6.98-.02,1.03-.02,2.06-.18,3.18-.26"/><path class="cls-4" d="M17.32,80.77c-.02-.28-.08-.59-.08-.87,.1-3.05,.22-6.09,.32-9.14,0-.36-.18-.73-.26-1.11-.04-.24-.08-.51-.08-.75,.12-4.02,.26-8.05,.4-12.05v-.55c-.32,.1-.63,.24-.93,.3-1.23,.2-2.41-.63-2.55-1.9-.57-4.79-.79-9.59-.1-14.38,.4-2.77,1.11-5.46,2.65-7.87,1.31-2.04,2.99-3.66,5.44-4.19,1.36-.3,2.75-.34,4.13,.12,1.5,.51,2.99,.4,4.49-.1,.55-.18,1.13-.16,1.78-.26-.04,1.8-.42,3.4-.91,4.98-.81,2.57-1.98,4.98-3.3,7.32-.1,.18-.4,.34-.63,.36-.55,.02-1.09-.04-1.64-.06-1.78-.1-3.11,1.01-3.24,2.67-.1,1.56,1.09,2.91,2.81,2.97,2.33,.08,4.65,.02,6.98-.02,1.03-.02,2.06-.18,3.18-.26v29.91c0,1.88-1.15,3.34-2.83,3.6-1.72,.26-3.32-.71-3.8-2.35-.16-.53-.18-1.09-.18-1.62v-24.19h-1.21v11.39c-1.27-.16-2.45-.26-3.58-.51-.91-.18-1.76-.57-2.65-.83-.49-.14-.63-.4-.63-.93v-23.95c0-.65,0-1.31-.06-2-.77,.87-1.19,1.92-1.6,3.03,.79,.1,.81,.63,.79,1.25-.2,5.8-.4,11.59-.61,17.39-.14,4.27-.28,8.56-.42,12.82,0,.3-.2,.61-.28,.93-.06,.22-.14,.44-.14,.67-.12,3.11-.22,6.23-.32,9.32,0,.28-.08,.59-.12,.87h-.77l-.04-.04Z"/><path class="cls-4" d="M36.82,45.07c.34-6.01-1.66-11.47-3.74-16.93,1.25-.12,2.29,.24,3.2,1.01,1.38,1.13,2.14,2.65,2.73,4.27,.93,2.53,1.4,5.18,1.6,7.85,.04,.63-.22,1.33-.55,1.9-.71,1.17-1.94,1.6-3.26,1.92l.02-.02Z"/><path class="cls-4" d="M27.68,71.1c0,1.15-.55,2.16-1.62,2.81-1.19,.73-2.43,.71-3.6-.02-1.29-.81-1.72-2.06-1.58-3.44,2.25,.2,4.47,.42,6.8,.65Z"/><path class="cls-4" d="M20.88,66.37v-3.68c1.13,.3,2.25,.69,3.4,.91,.93,.18,1.88,.2,2.83,.3,.2,.02,.38,.14,.59,.22-.12,.2-.18,.51-.36,.59-.97,.44-1.94,.93-2.97,1.19-1.09,.28-2.25,.3-3.48,.44v.02Z"/><path class="cls-4" d="M27.66,66.16v3.48c-1.5-.08-2.93-.14-4.37-.26-.51-.04-.99-.18-1.48-.3q-1.03-.26-.89-1.44c2.29-.04,4.57-.28,6.74-1.48Z"/><g><path class="cls-3" d="M24.97,45.27c-1.01-.51-1.48-1.31-1.27-2.25s1.03-1.54,2.08-1.54h1.6s-2.41,3.78-2.41,3.78Z"/><path class="cls-1" d="M25.78,41.25v.51h1.13l-1.96,3.07-.06,.1c-.77-.47-1.11-1.11-.93-1.86,.18-.81,.91-1.33,1.84-1.33v-.51m0,0c-1.17,0-2.1,.69-2.33,1.74-.24,1.09,.32,2.06,1.62,2.63,.89-1.4,1.78-2.79,2.77-4.35h-2.04l-.02-.02Z"/></g><path class="cls-4" d="M22.82,21.75c-.04-3.16,2.39-5.66,5.5-5.66s5.66,2.59,5.62,5.62c-.04,2.93-2.51,5.42-5.46,5.52-3.09,.1-5.64-2.35-5.68-5.48h.02Z"/></g><g><path class="cls-2" d="M53.93,55.43c.34-5.92-1.66-11.31-3.74-16.7l-.72-.1c-.04,1.78-.61,3.59-1.1,5.14-.81,2.53-1.98,4.91-3.3,7.22-.1,.18-.4,.34-.63,.36-.55,.02-1.09-.04-1.64-.06-1.78-.1-3.11,1-3.24,2.63-.1,1.54,1.09,2.87,2.81,2.93,2.33,.08,4.65,.02,6.98-.02,1.03-.02,2.06-.18,3.18-.26"/><path class="cls-4" d="M34.09,91.39c-.02-.28-.08-.59-.08-.87,.1-3.05,.22-6.09,.32-9.14,0-.36-.18-.73-.26-1.11-.04-.24-.08-.51-.08-.75,.12-4.02,.26-8.05,.4-12.05v-.55c-.32,.1-.63,.24-.93,.3-1.23,.2-2.41-.63-2.55-1.9-.57-4.79-.79-9.59-.1-14.38,.4-2.77,1.11-5.46,2.65-7.87,1.31-2.04,2.99-3.66,5.44-4.19,1.36-.3,2.75-.34,4.13,.12,1.5,.51,2.99,.4,4.49-.1,.55-.18,1.13-.16,1.78-.26-.04,1.8-.42,3.4-.91,4.98-.81,2.57-1.98,4.98-3.3,7.32-.1,.18-.4,.34-.63,.36-.55,.02-1.09-.04-1.64-.06-1.78-.1-3.11,1.01-3.24,2.67-.1,1.56,1.09,2.91,2.81,2.97,2.33,.08,4.65,.02,6.98-.02,1.03-.02,2.06-.18,3.18-.26v29.91c0,1.88-1.15,3.34-2.83,3.6-1.72,.26-3.32-.71-3.8-2.35-.16-.53-.18-1.09-.18-1.62v-24.19h-1.21v11.39c-1.27-.16-2.45-.26-3.58-.51-.91-.18-1.76-.57-2.65-.83-.49-.14-.63-.4-.63-.93v-23.95c0-.65,0-1.31-.06-2-.77,.87-1.19,1.92-1.6,3.03,.79,.1,.81,.63,.79,1.25-.2,5.8-.4,11.59-.61,17.39-.14,4.27-.28,8.56-.42,12.82,0,.3-.2,.61-.28,.93-.06,.22-.14,.44-.14,.67-.12,3.11-.22,6.23-.32,9.32,0,.28-.08,.59-.12,.87h-.77l-.04-.04Z"/><path class="cls-4" d="M53.58,55.69c.34-6.01-1.66-11.47-3.74-16.93,1.25-.12,2.29,.24,3.2,1.01,1.38,1.13,2.14,2.65,2.73,4.27,.93,2.53,1.4,5.18,1.6,7.85,.04,.63-.22,1.33-.55,1.9-.71,1.17-1.94,1.6-3.26,1.92l.02-.02Z"/><path class="cls-4" d="M44.44,81.72c0,1.15-.55,2.16-1.62,2.81-1.19,.73-2.43,.71-3.6-.02-1.29-.81-1.72-2.06-1.58-3.44,2.25,.2,4.47,.42,6.8,.65Z"/><path class="cls-4" d="M37.65,76.99v-3.68c1.13,.3,2.25,.69,3.4,.91,.93,.18,1.88,.2,2.83,.3,.2,.02,.38,.14,.59,.22-.12,.2-.18,.51-.36,.59-.97,.44-1.94,.93-2.97,1.19-1.09,.28-2.25,.3-3.48,.44v.02Z"/><path class="cls-4" d="M44.42,76.78v3.48c-1.5-.08-2.93-.14-4.37-.26-.51-.04-.99-.18-1.48-.3q-1.03-.26-.89-1.44c2.29-.04,4.57-.28,6.74-1.48Z"/><g><path class="cls-3" d="M41.73,55.89c-1.01-.51-1.48-1.31-1.27-2.25s1.03-1.54,2.08-1.54h1.6s-2.41,3.78-2.41,3.78Z"/><path class="cls-1" d="M42.54,51.87v.51h1.13l-1.96,3.07-.06,.1c-.77-.47-1.11-1.11-.93-1.86,.18-.81,.91-1.33,1.84-1.33v-.51m0,0c-1.17,0-2.1,.69-2.33,1.74-.24,1.09,.32,2.06,1.62,2.63,.89-1.4,1.78-2.79,2.77-4.35h-2.04l-.02-.02Z"/></g><path class="cls-4" d="M39.59,32.37c-.04-3.16,2.39-5.66,5.5-5.66s5.66,2.59,5.62,5.62c-.04,2.93-2.51,5.42-5.46,5.52-3.09,.1-5.64-2.35-5.68-5.48h.02Z"/></g><g><path class="cls-2" d="M23.67,58.85c.34-5.92-1.66-11.31-3.74-16.7l-.72-.1c-.04,1.78-.61,3.59-1.1,5.14-.81,2.53-1.98,4.91-3.3,7.22-.1,.18-.4,.34-.63,.36-.55,.02-1.09-.04-1.64-.06-1.78-.1-3.11,1-3.24,2.63-.1,1.54,1.09,2.87,2.81,2.93,2.33,.08,4.65,.02,6.98-.02,1.03-.02,2.06-.18,3.18-.26"/><path class="cls-4" d="M3.83,94.8c-.02-.28-.08-.59-.08-.87,.1-3.05,.22-6.09,.32-9.14,0-.36-.18-.73-.26-1.11-.04-.24-.08-.51-.08-.75,.12-4.02,.26-8.05,.4-12.05v-.55c-.32,.1-.63,.24-.93,.3-1.23,.2-2.41-.63-2.55-1.9-.57-4.79-.79-9.59-.1-14.38,.4-2.77,1.11-5.46,2.65-7.87,1.31-2.04,2.99-3.66,5.44-4.19,1.36-.3,2.75-.34,4.13,.12,1.5,.51,2.99,.4,4.49-.1,.55-.18,1.13-.16,1.78-.26-.04,1.8-.42,3.4-.91,4.98-.81,2.57-1.98,4.98-3.3,7.32-.1,.18-.4,.34-.63,.36-.55,.02-1.09-.04-1.64-.06-1.78-.1-3.11,1.01-3.24,2.67-.1,1.56,1.09,2.91,2.81,2.97,2.33,.08,4.65,.02,6.98-.02,1.03-.02,2.06-.18,3.18-.26v29.91c0,1.88-1.15,3.34-2.83,3.6-1.72,.26-3.32-.71-3.8-2.35-.16-.53-.18-1.09-.18-1.62v-24.19h-1.21v11.39c-1.27-.16-2.45-.26-3.58-.51-.91-.18-1.76-.57-2.65-.83-.49-.14-.63-.4-.63-.93v-23.95c0-.65,0-1.31-.06-2-.77,.87-1.19,1.92-1.6,3.03,.79,.1,.81,.63,.79,1.25-.2,5.8-.4,11.59-.61,17.39-.14,4.27-.28,8.56-.42,12.82,0,.3-.2,.61-.28,.93-.06,.22-.14,.44-.14,.67-.12,3.11-.22,6.23-.32,9.32,0,.28-.08,.59-.12,.87h-.77l-.04-.04Z"/><path class="cls-4" d="M23.33,59.11c.34-6.01-1.66-11.47-3.74-16.93,1.25-.12,2.29,.24,3.2,1.01,1.38,1.13,2.14,2.65,2.73,4.27,.93,2.53,1.4,5.18,1.6,7.85,.04,.63-.22,1.33-.55,1.9-.71,1.17-1.94,1.6-3.26,1.92l.02-.02Z"/><path class="cls-4" d="M14.18,85.14c0,1.15-.55,2.16-1.62,2.81-1.19,.73-2.43,.71-3.6-.02-1.29-.81-1.72-2.06-1.58-3.44,2.25,.2,4.47,.42,6.8,.65Z"/><path class="cls-4" d="M7.39,80.4v-3.68c1.13,.3,2.25,.69,3.4,.91,.93,.18,1.88,.2,2.83,.3,.2,.02,.38,.14,.59,.22-.12,.2-.18,.51-.36,.59-.97,.44-1.94,.93-2.97,1.19-1.09,.28-2.25,.3-3.48,.44v.02Z"/><path class="cls-4" d="M14.16,80.2v3.48c-1.5-.08-2.93-.14-4.37-.26-.51-.04-.99-.18-1.48-.3q-1.03-.26-.89-1.44c2.29-.04,4.57-.28,6.74-1.48Z"/><g><path class="cls-3" d="M11.47,59.31c-1.01-.51-1.48-1.31-1.27-2.25s1.03-1.54,2.08-1.54h1.6s-2.41,3.78-2.41,3.78Z"/><path class="cls-1" d="M12.28,55.28v.51h1.13l-1.96,3.07-.06,.1c-.77-.47-1.11-1.11-.93-1.86,.18-.81,.91-1.33,1.84-1.33v-.51m0,0c-1.17,0-2.1,.69-2.33,1.74-.24,1.09,.32,2.06,1.62,2.63,.89-1.4,1.78-2.79,2.77-4.35h-2.04l-.02-.02Z"/></g><path class="cls-4" d="M9.33,35.79c-.04-3.16,2.39-5.66,5.5-5.66s5.66,2.59,5.62,5.62c-.04,2.93-2.51,5.42-5.46,5.52-3.09,.1-5.64-2.35-5.68-5.48h.02Z"/></g></g></g></svg>