<?xml version="1.0" encoding="UTF-8"?><svg id="Layer_2" xmlns="http://www.w3.org/2000/svg" viewBox="0 0 72.98 101.15"><defs><style>.cls-1,.cls-2{fill:#fff;}.cls-3,.cls-4{fill:#d3d3d3;}.cls-2,.cls-4{stroke:#fff;stroke-miterlimit:10;stroke-width:.25px;}</style></defs><g id="Layer_1-2"><g><g><path class="cls-2" d="M70.08,29.15c.28-4.77-1.34-9.11-3.01-13.45l-.58-.08c-.03,1.43-.49,2.89-.88,4.14-.65,2.04-1.6,3.95-2.66,5.82-.08,.14-.33,.27-.51,.29-.44,.02-.88-.03-1.32-.05-1.43-.08-2.51,.8-2.61,2.12-.08,1.24,.88,2.31,2.26,2.36,1.87,.06,3.75,.02,5.62-.02,.83-.02,1.66-.14,2.56-.21"/><path class="cls-4" d="M54.1,58.12c-.02-.23-.07-.47-.07-.7,.08-2.46,.18-4.9,.26-7.36,0-.29-.15-.59-.21-.9-.03-.2-.07-.41-.07-.6,.1-3.24,.21-6.48,.33-9.71v-.44c-.26,.08-.51,.2-.75,.24-.99,.16-1.94-.51-2.05-1.53-.46-3.86-.64-7.72-.08-11.58,.33-2.23,.9-4.4,2.13-6.34,1.06-1.65,2.41-2.95,4.38-3.37,1.09-.24,2.22-.28,3.32,.1,1.21,.41,2.41,.33,3.62-.08,.44-.15,.91-.13,1.43-.21-.03,1.45-.34,2.74-.73,4.01-.65,2.07-1.6,4.01-2.66,5.9-.08,.15-.33,.28-.51,.29-.44,.02-.88-.03-1.32-.05-1.43-.08-2.51,.81-2.61,2.15-.08,1.25,.88,2.35,2.26,2.39,1.87,.07,3.75,.02,5.62-.02,.83-.02,1.66-.15,2.56-.21v24.1c0,1.52-.93,2.69-2.28,2.9-1.38,.21-2.67-.57-3.06-1.89-.13-.42-.15-.88-.15-1.3v-19.49h-.98v9.17c-1.03-.13-1.97-.21-2.88-.41-.73-.15-1.42-.46-2.13-.67-.39-.11-.51-.33-.51-.75V22.47c0-.52,0-1.06-.05-1.61-.62,.7-.96,1.55-1.29,2.44,.64,.08,.65,.51,.64,1.01-.16,4.68-.33,9.34-.49,14.01-.11,3.44-.23,6.89-.34,10.33,0,.24-.16,.49-.23,.75-.05,.18-.11,.36-.11,.54-.1,2.51-.18,5.02-.26,7.51,0,.23-.07,.47-.1,.7h-.62l-.03-.03Z"/><path class="cls-4" d="M69.81,29.36c.28-4.84-1.34-9.24-3.01-13.64,1.01-.1,1.84,.2,2.57,.81,1.11,.91,1.73,2.13,2.2,3.44,.75,2.04,1.12,4.17,1.29,6.32,.03,.51-.18,1.08-.44,1.53-.57,.94-1.56,1.29-2.62,1.55l.02-.02Z"/><path class="cls-4" d="M62.45,50.33c0,.93-.44,1.74-1.3,2.26-.96,.59-1.96,.57-2.9-.02-1.04-.65-1.38-1.66-1.27-2.77,1.81,.16,3.6,.34,5.47,.52Z"/><path class="cls-4" d="M56.97,46.52v-2.97c.91,.24,1.81,.55,2.74,.73,.75,.15,1.52,.16,2.28,.24,.16,.02,.31,.11,.47,.18-.1,.16-.15,.41-.29,.47-.78,.36-1.56,.75-2.39,.96-.88,.23-1.81,.24-2.8,.36v.02Z"/><path class="cls-4" d="M62.43,46.35v2.8c-1.21-.07-2.36-.11-3.52-.21-.41-.03-.8-.15-1.19-.24q-.83-.21-.72-1.16c1.84-.03,3.68-.23,5.43-1.19Z"/><g><path class="cls-3" d="M60.26,29.52c-.81-.41-1.19-1.06-1.03-1.81s.83-1.24,1.68-1.24h1.29s-1.94,3.05-1.94,3.05Z"/><path class="cls-1" d="M60.91,26.28v.41h.91l-1.58,2.48-.05,.08c-.62-.37-.9-.9-.75-1.5,.15-.65,.73-1.08,1.48-1.08v-.41m0,0c-.94,0-1.69,.55-1.87,1.4-.2,.88,.26,1.66,1.3,2.12,.72-1.12,1.43-2.25,2.23-3.5h-1.65l-.02-.02Z"/></g><path class="cls-4" d="M58.53,10.57c-.03-2.54,1.92-4.56,4.43-4.56s4.56,2.09,4.53,4.53c-.03,2.36-2.02,4.37-4.4,4.45-2.49,.08-4.55-1.89-4.58-4.42h.02Z"/></g><g><path class="cls-2" d="M53.54,23.26c.28-4.77-1.34-9.11-3.01-13.45l-.58-.08c-.03,1.43-.49,2.89-.88,4.14-.65,2.04-1.6,3.95-2.66,5.82-.08,.14-.33,.27-.51,.29-.44,.02-.88-.03-1.32-.05-1.43-.08-2.51,.8-2.61,2.12-.08,1.24,.88,2.31,2.26,2.36,1.87,.06,3.75,.02,5.62-.02,.83-.02,1.66-.14,2.56-.21"/><path class="cls-4" d="M37.56,52.23c-.02-.23-.07-.47-.07-.7,.08-2.46,.18-4.9,.26-7.36,0-.29-.15-.59-.21-.9-.03-.2-.07-.41-.07-.6,.1-3.24,.21-6.48,.33-9.71v-.44c-.26,.08-.51,.2-.75,.24-.99,.16-1.94-.51-2.05-1.53-.46-3.86-.64-7.72-.08-11.58,.33-2.23,.9-4.4,2.13-6.34,1.06-1.65,2.41-2.95,4.38-3.37,1.09-.24,2.22-.28,3.32,.1,1.21,.41,2.41,.33,3.62-.08,.44-.15,.91-.13,1.43-.21-.03,1.45-.34,2.74-.73,4.01-.65,2.07-1.6,4.01-2.66,5.9-.08,.15-.33,.28-.51,.29-.44,.02-.88-.03-1.32-.05-1.43-.08-2.51,.81-2.61,2.15-.08,1.25,.88,2.35,2.26,2.39,1.87,.07,3.75,.02,5.62-.02,.83-.02,1.66-.15,2.56-.21v24.1c0,1.52-.93,2.69-2.28,2.9-1.38,.21-2.67-.57-3.06-1.89-.13-.42-.15-.88-.15-1.3V28.52h-.98v9.17c-1.03-.13-1.97-.21-2.88-.41-.73-.15-1.42-.46-2.13-.67-.39-.11-.51-.33-.51-.75V16.58c0-.52,0-1.06-.05-1.61-.62,.7-.96,1.55-1.29,2.44,.64,.08,.65,.51,.64,1.01-.16,4.68-.33,9.34-.49,14.01-.11,3.44-.23,6.89-.34,10.33,0,.24-.16,.49-.23,.75-.05,.18-.11,.36-.11,.54-.1,2.51-.18,5.02-.26,7.51,0,.23-.07,.47-.1,.7h-.62l-.03-.03Z"/><path class="cls-4" d="M53.26,23.47c.28-4.84-1.34-9.24-3.01-13.64,1.01-.1,1.84,.2,2.57,.81,1.11,.91,1.73,2.13,2.2,3.44,.75,2.04,1.12,4.17,1.29,6.32,.03,.51-.18,1.08-.44,1.53-.57,.94-1.56,1.29-2.62,1.55l.02-.02Z"/><path class="cls-4" d="M45.9,44.44c0,.93-.44,1.74-1.3,2.26-.96,.59-1.96,.57-2.9-.02-1.04-.65-1.38-1.66-1.27-2.77,1.81,.16,3.6,.34,5.47,.52Z"/><path class="cls-4" d="M40.42,40.63v-2.97c.91,.24,1.81,.55,2.74,.73,.75,.15,1.52,.16,2.28,.24,.16,.02,.31,.11,.47,.18-.1,.16-.15,.41-.29,.47-.78,.36-1.56,.75-2.39,.96-.88,.23-1.81,.24-2.8,.36v.02Z"/><path class="cls-4" d="M45.88,40.46v2.8c-1.21-.07-2.36-.11-3.52-.21-.41-.03-.8-.15-1.19-.24q-.83-.21-.72-1.16c1.84-.03,3.68-.23,5.43-1.19Z"/><g><path class="cls-3" d="M43.72,23.63c-.81-.41-1.19-1.06-1.03-1.81s.83-1.24,1.68-1.24h1.29s-1.94,3.05-1.94,3.05Z"/><path class="cls-1" d="M44.37,20.39v.41h.91l-1.58,2.48-.05,.08c-.62-.37-.9-.9-.75-1.5,.15-.65,.73-1.08,1.48-1.08v-.41m0,0c-.94,0-1.69,.55-1.87,1.4-.2,.88,.26,1.66,1.3,2.12,.72-1.12,1.43-2.25,2.23-3.5h-1.65l-.02-.02Z"/></g><path class="cls-4" d="M41.99,4.69c-.03-2.54,1.92-4.56,4.43-4.56s4.56,2.09,4.53,4.53c-.03,2.36-2.02,4.37-4.4,4.45-2.49,.08-4.55-1.89-4.58-4.42h.02Z"/></g><g><path class="cls-2" d="M22.61,24.49c.28-4.77-1.34-9.11-3.01-13.45l-.58-.08c-.03,1.43-.49,2.89-.88,4.14-.65,2.04-1.6,3.95-2.66,5.82-.08,.14-.33,.27-.51,.29-.44,.02-.88-.03-1.32-.05-1.43-.08-2.51,.8-2.61,2.12-.08,1.24,.88,2.31,2.26,2.36,1.87,.06,3.75,.02,5.62-.02,.83-.02,1.66-.14,2.56-.21"/><path class="cls-4" d="M6.63,53.45c-.02-.23-.07-.47-.07-.7,.08-2.46,.18-4.9,.26-7.36,0-.29-.15-.59-.21-.9-.03-.2-.07-.41-.07-.6,.1-3.24,.21-6.48,.33-9.71v-.44c-.26,.08-.51,.2-.75,.24-.99,.16-1.94-.51-2.05-1.53-.46-3.86-.64-7.72-.08-11.58,.33-2.23,.9-4.4,2.13-6.34,1.06-1.65,2.41-2.95,4.38-3.37,1.09-.24,2.22-.28,3.32,.1,1.21,.41,2.41,.33,3.62-.08,.44-.15,.91-.13,1.43-.21-.03,1.45-.34,2.74-.73,4.01-.65,2.07-1.6,4.01-2.66,5.9-.08,.15-.33,.28-.51,.29-.44,.02-.88-.03-1.32-.05-1.43-.08-2.51,.81-2.61,2.15-.08,1.25,.88,2.35,2.26,2.39,1.87,.07,3.75,.02,5.62-.02,.83-.02,1.66-.15,2.56-.21v24.1c0,1.52-.93,2.69-2.28,2.9-1.38,.21-2.67-.57-3.06-1.89-.13-.42-.15-.88-.15-1.3V29.74h-.98v9.17c-1.03-.13-1.97-.21-2.88-.41-.73-.15-1.42-.46-2.13-.67-.39-.11-.51-.33-.51-.75V17.8c0-.52,0-1.06-.05-1.61-.62,.7-.96,1.55-1.29,2.44,.64,.08,.65,.51,.64,1.01-.16,4.68-.33,9.34-.49,14.01-.11,3.44-.23,6.89-.34,10.33,0,.24-.16,.49-.23,.75-.05,.18-.11,.36-.11,.54-.1,2.51-.18,5.02-.26,7.51,0,.23-.07,.47-.1,.7h-.62l-.03-.03Z"/><path class="cls-4" d="M22.34,24.69c.28-4.84-1.34-9.24-3.01-13.64,1.01-.1,1.84,.2,2.57,.81,1.11,.91,1.73,2.13,2.2,3.44,.75,2.04,1.12,4.17,1.29,6.32,.03,.51-.18,1.08-.44,1.53-.57,.94-1.56,1.29-2.62,1.55l.02-.02Z"/><path class="cls-4" d="M14.97,45.66c0,.93-.44,1.74-1.3,2.26-.96,.59-1.96,.57-2.9-.02-1.04-.65-1.38-1.66-1.27-2.77,1.81,.16,3.6,.34,5.47,.52Z"/><path class="cls-4" d="M9.5,41.85v-2.97c.91,.24,1.81,.55,2.74,.73,.75,.15,1.52,.16,2.28,.24,.16,.02,.31,.11,.47,.18-.1,.16-.15,.41-.29,.47-.78,.36-1.56,.75-2.39,.96-.88,.23-1.81,.24-2.8,.36v.02Z"/><path class="cls-4" d="M14.96,41.69v2.8c-1.21-.07-2.36-.11-3.52-.21-.41-.03-.8-.15-1.19-.24q-.83-.21-.72-1.16c1.84-.03,3.68-.23,5.43-1.19Z"/><g><path class="cls-3" d="M12.79,24.86c-.81-.41-1.19-1.06-1.03-1.81s.83-1.24,1.68-1.24h1.29s-1.94,3.05-1.94,3.05Z"/><path class="cls-1" d="M13.44,21.61v.41h.91l-1.58,2.48-.05,.08c-.62-.37-.9-.9-.75-1.5,.15-.65,.73-1.08,1.48-1.08v-.41m0,0c-.94,0-1.69,.55-1.87,1.4-.2,.88,.26,1.66,1.3,2.12,.72-1.12,1.43-2.25,2.23-3.5h-1.65l-.02-.02Z"/></g><path class="cls-4" d="M11.06,5.91c-.03-2.54,1.92-4.56,4.43-4.56s4.56,2.09,4.53,4.53c-.03,2.36-2.02,4.37-4.4,4.45-2.49,.08-4.55-1.89-4.58-4.42h.02Z"/></g><g><path class="cls-2" d="M65.65,43.54c.31-5.31-1.49-10.13-3.35-14.95l-.64-.09c-.04,1.59-.55,3.21-.98,4.61-.72,2.27-1.78,4.4-2.95,6.47-.09,.16-.36,.3-.56,.32-.49,.02-.98-.04-1.47-.05-1.59-.09-2.79,.89-2.9,2.36-.09,1.38,.98,2.57,2.52,2.63,2.08,.07,4.17,.02,6.25-.02,.92-.02,1.85-.16,2.84-.23"/><path class="cls-4" d="M47.88,75.74c-.02-.25-.07-.53-.07-.78,.09-2.74,.2-5.45,.29-8.19,0-.33-.16-.65-.24-1-.04-.22-.07-.45-.07-.67,.11-3.61,.24-7.21,.36-10.8v-.49c-.29,.09-.56,.22-.83,.27-1.11,.18-2.16-.56-2.28-1.7-.51-4.29-.71-8.59-.09-12.88,.36-2.48,1-4.89,2.37-7.05,1.18-1.83,2.68-3.28,4.87-3.75,1.21-.27,2.46-.31,3.7,.11,1.34,.45,2.68,.36,4.02-.09,.49-.16,1.01-.14,1.59-.24-.04,1.61-.38,3.04-.82,4.46-.72,2.3-1.78,4.46-2.95,6.56-.09,.16-.36,.31-.56,.33-.49,.02-.98-.04-1.47-.05-1.59-.09-2.79,.91-2.9,2.39-.09,1.39,.98,2.61,2.52,2.66,2.08,.07,4.17,.02,6.25-.02,.92-.02,1.85-.16,2.84-.24v26.79c0,1.68-1.03,2.99-2.54,3.22-1.54,.24-2.97-.63-3.41-2.1-.14-.47-.16-.98-.16-1.45v-21.67h-1.09v10.2c-1.14-.14-2.19-.24-3.21-.45-.82-.16-1.58-.51-2.37-.74-.43-.13-.56-.36-.56-.83v-21.45c0-.58,0-1.18-.05-1.79-.69,.78-1.07,1.72-1.43,2.72,.71,.09,.72,.56,.71,1.12-.18,5.2-.36,10.38-.54,15.58-.13,3.82-.25,7.66-.38,11.49,0,.27-.18,.54-.25,.83-.05,.2-.13,.4-.13,.6-.11,2.79-.2,5.58-.29,8.35,0,.25-.07,.53-.11,.78h-.69l-.04-.04Z"/><path class="cls-4" d="M65.34,43.77c.31-5.38-1.49-10.27-3.35-15.16,1.12-.11,2.05,.22,2.86,.91,1.23,1.01,1.92,2.37,2.45,3.82,.83,2.26,1.25,4.64,1.43,7.03,.04,.56-.2,1.2-.49,1.7-.63,1.05-1.74,1.43-2.92,1.72l.02-.02Z"/><path class="cls-4" d="M57.15,67.08c0,1.03-.49,1.94-1.45,2.52-1.07,.65-2.17,.63-3.22-.02-1.16-.72-1.54-1.85-1.41-3.08,2.01,.18,4,.38,6.09,.58Z"/><path class="cls-4" d="M51.07,62.84v-3.3c1.01,.27,2.01,.62,3.04,.82,.83,.16,1.68,.18,2.54,.27,.18,.02,.34,.13,.53,.2-.11,.18-.16,.45-.33,.53-.87,.4-1.74,.83-2.66,1.07-.98,.25-2.01,.27-3.12,.4v.02Z"/><path class="cls-4" d="M57.13,62.66v3.12c-1.34-.07-2.63-.13-3.91-.24-.45-.04-.89-.16-1.32-.27q-.92-.24-.8-1.29c2.05-.04,4.09-.25,6.03-1.32Z"/><g><path class="cls-3" d="M54.72,43.95c-.91-.45-1.32-1.18-1.14-2.01s.92-1.38,1.87-1.38h1.43s-2.16,3.39-2.16,3.39Z"/><path class="cls-1" d="M55.45,40.34v.45h1.01l-1.76,2.75-.05,.09c-.69-.42-1-1-.83-1.67,.16-.72,.82-1.2,1.65-1.2v-.45m0,0c-1.05,0-1.88,.62-2.08,1.56-.22,.98,.29,1.85,1.45,2.36,.8-1.25,1.59-2.5,2.48-3.9h-1.83l-.02-.02Z"/></g><path class="cls-4" d="M52.8,22.88c-.04-2.83,2.14-5.07,4.93-5.07s5.07,2.32,5.04,5.04c-.04,2.63-2.25,4.86-4.89,4.95-2.77,.09-5.05-2.1-5.09-4.91h.02Z"/></g><g><path class="cls-2" d="M38.29,32.18c.3-5.18-1.45-9.88-3.27-14.59l-.63-.08c-.04,1.55-.53,3.14-.96,4.5-.71,2.21-1.73,4.29-2.88,6.31-.09,.16-.35,.3-.55,.31-.48,.02-.95-.03-1.43-.05-1.56-.09-2.72,.87-2.83,2.3-.09,1.34,.95,2.51,2.46,2.56,2.03,.07,4.06,.02,6.1-.02,.9-.02,1.8-.16,2.77-.23"/><path class="cls-4" d="M20.96,63.59c-.02-.25-.07-.51-.07-.76,.09-2.67,.19-5.32,.28-7.99,0-.32-.16-.64-.23-.97-.04-.21-.07-.44-.07-.65,.11-3.52,.23-7.03,.35-10.53v-.48c-.28,.09-.55,.21-.81,.27-1.08,.18-2.1-.55-2.23-1.66-.49-4.19-.69-8.38-.09-12.57,.35-2.42,.97-4.77,2.32-6.87,1.15-1.78,2.62-3.2,4.75-3.66,1.18-.27,2.4-.3,3.61,.11,1.31,.44,2.62,.35,3.92-.09,.48-.16,.99-.14,1.56-.23-.04,1.57-.37,2.97-.8,4.35-.71,2.24-1.73,4.35-2.88,6.4-.09,.16-.35,.3-.55,.32-.48,.02-.95-.04-1.43-.05-1.56-.09-2.72,.88-2.83,2.33-.09,1.36,.95,2.54,2.46,2.6,2.03,.07,4.06,.02,6.1-.02,.9-.02,1.8-.16,2.77-.23v26.14c0,1.64-1.01,2.92-2.47,3.15-1.5,.23-2.9-.62-3.32-2.05-.14-.46-.16-.95-.16-1.41v-21.14h-1.06v9.95c-1.11-.14-2.14-.23-3.13-.44-.8-.16-1.54-.49-2.32-.72-.42-.12-.55-.35-.55-.81V24.93c0-.57,0-1.15-.05-1.75-.67,.76-1.04,1.68-1.4,2.65,.69,.09,.71,.55,.69,1.1-.18,5.07-.35,10.13-.53,15.2-.12,3.73-.25,7.48-.37,11.2,0,.27-.18,.53-.25,.81-.05,.19-.12,.39-.12,.58-.11,2.72-.19,5.44-.28,8.15,0,.25-.07,.51-.11,.76h-.67l-.04-.04Z"/><path class="cls-4" d="M37.99,32.4c.3-5.25-1.45-10.02-3.27-14.79,1.1-.11,2,.21,2.79,.88,1.2,.99,1.87,2.32,2.39,3.73,.81,2.21,1.22,4.52,1.4,6.86,.04,.55-.19,1.17-.48,1.66-.62,1.03-1.7,1.4-2.85,1.68l.02-.02Z"/><path class="cls-4" d="M30,55.15c0,1.01-.48,1.89-1.41,2.46-1.04,.64-2.12,.62-3.15-.02-1.13-.71-1.5-1.8-1.38-3,1.96,.18,3.91,.37,5.94,.57Z"/><path class="cls-4" d="M24.07,51.01v-3.22c.99,.27,1.96,.6,2.97,.8,.81,.16,1.64,.18,2.47,.27,.18,.02,.34,.12,.51,.19-.11,.18-.16,.44-.32,.51-.85,.39-1.7,.81-2.6,1.04-.95,.25-1.96,.27-3.04,.39v.02Z"/><path class="cls-4" d="M29.99,50.83v3.04c-1.31-.07-2.56-.12-3.82-.23-.44-.04-.87-.16-1.29-.27q-.9-.23-.78-1.25c2-.04,3.99-.25,5.89-1.29Z"/><g><path class="cls-3" d="M27.64,32.58c-.88-.44-1.29-1.15-1.11-1.96s.9-1.34,1.82-1.34h1.4s-2.1,3.3-2.1,3.3Z"/><path class="cls-1" d="M28.34,29.06v.44h.99l-1.71,2.69-.05,.09c-.67-.41-.97-.97-.81-1.63,.16-.71,.8-1.17,1.61-1.17v-.44m0,0c-1.03,0-1.84,.6-2.03,1.52-.21,.95,.28,1.8,1.41,2.3,.78-1.22,1.56-2.44,2.42-3.8h-1.78l-.02-.02Z"/></g><path class="cls-4" d="M25.76,12.02c-.04-2.76,2.09-4.95,4.81-4.95s4.95,2.26,4.91,4.91c-.04,2.56-2.19,4.74-4.77,4.82-2.7,.09-4.93-2.05-4.97-4.79h.02Z"/></g><g><path class="cls-2" d="M47.32,53.49c.34-5.92-1.66-11.31-3.74-16.7l-.72-.1c-.04,1.78-.61,3.59-1.1,5.14-.81,2.53-1.98,4.91-3.3,7.22-.1,.18-.4,.34-.63,.36-.55,.02-1.09-.04-1.64-.06-1.78-.1-3.11,1-3.24,2.63-.1,1.54,1.09,2.87,2.81,2.93,2.33,.08,4.65,.02,6.98-.02,1.03-.02,2.06-.18,3.18-.26"/><path class="cls-4" d="M27.48,89.45c-.02-.28-.08-.59-.08-.87,.1-3.05,.22-6.09,.32-9.14,0-.36-.18-.73-.26-1.11-.04-.24-.08-.51-.08-.75,.12-4.02,.26-8.05,.4-12.05v-.55c-.32,.1-.63,.24-.93,.3-1.23,.2-2.41-.63-2.55-1.9-.57-4.79-.79-9.59-.1-14.38,.4-2.77,1.11-5.46,2.65-7.87,1.31-2.04,2.99-3.66,5.44-4.19,1.36-.3,2.75-.34,4.13,.12,1.5,.51,2.99,.4,4.49-.1,.55-.18,1.13-.16,1.78-.26-.04,1.8-.42,3.4-.91,4.98-.81,2.57-1.98,4.98-3.3,7.32-.1,.18-.4,.34-.63,.36-.55,.02-1.09-.04-1.64-.06-1.78-.1-3.11,1.01-3.24,2.67-.1,1.56,1.09,2.91,2.81,2.97,2.33,.08,4.65,.02,6.98-.02,1.03-.02,2.06-.18,3.18-.26v29.91c0,1.88-1.15,3.34-2.83,3.6-1.72,.26-3.32-.71-3.8-2.35-.16-.53-.18-1.09-.18-1.62v-24.19h-1.21v11.39c-1.27-.16-2.45-.26-3.58-.51-.91-.18-1.76-.57-2.65-.83-.49-.14-.63-.4-.63-.93v-23.95c0-.65,0-1.31-.06-2-.77,.87-1.19,1.92-1.6,3.03,.79,.1,.81,.63,.79,1.25-.2,5.8-.4,11.59-.61,17.39-.14,4.27-.28,8.56-.42,12.82,0,.3-.2,.61-.28,.93-.06,.22-.14,.44-.14,.67-.12,3.11-.22,6.23-.32,9.32,0,.28-.08,.59-.12,.87h-.77l-.04-.04Z"/><path class="cls-4" d="M46.98,53.75c.34-6.01-1.66-11.47-3.74-16.93,1.25-.12,2.29,.24,3.2,1.01,1.38,1.13,2.14,2.65,2.73,4.27,.93,2.53,1.4,5.18,1.6,7.85,.04,.63-.22,1.33-.55,1.9-.71,1.17-1.94,1.6-3.26,1.92l.02-.02Z"/><path class="cls-4" d="M37.83,79.78c0,1.15-.55,2.16-1.62,2.81-1.19,.73-2.43,.71-3.6-.02-1.29-.81-1.72-2.06-1.58-3.44,2.25,.2,4.47,.42,6.8,.65Z"/><path class="cls-4" d="M31.04,75.05v-3.68c1.13,.3,2.25,.69,3.4,.91,.93,.18,1.88,.2,2.83,.3,.2,.02,.38,.14,.59,.22-.12,.2-.18,.51-.36,.59-.97,.44-1.94,.93-2.97,1.19-1.09,.28-2.25,.3-3.48,.44v.02Z"/><path class="cls-4" d="M37.81,74.85v3.48c-1.5-.08-2.93-.14-4.37-.26-.51-.04-.99-.18-1.48-.3q-1.03-.26-.89-1.44c2.29-.04,4.57-.28,6.74-1.48Z"/><g><path class="cls-3" d="M35.12,53.95c-1.01-.51-1.48-1.31-1.27-2.25s1.03-1.54,2.08-1.54h1.6s-2.41,3.78-2.41,3.78Z"/><path class="cls-1" d="M35.93,49.93v.51h1.13l-1.96,3.07-.06,.1c-.77-.47-1.11-1.11-.93-1.86,.18-.81,.91-1.33,1.84-1.33v-.51m0,0c-1.17,0-2.1,.69-2.33,1.74-.24,1.09,.32,2.06,1.62,2.63,.89-1.4,1.78-2.79,2.77-4.35h-2.04l-.02-.02Z"/></g><path class="cls-4" d="M32.98,30.43c-.04-3.16,2.39-5.66,5.5-5.66s5.66,2.59,5.62,5.62c-.04,2.93-2.51,5.42-5.46,5.52-3.09,.1-5.64-2.35-5.68-5.48h.02Z"/></g><g><path class="cls-2" d="M23.67,65.03c.34-5.92-1.66-11.31-3.74-16.7l-.72-.1c-.04,1.78-.61,3.59-1.1,5.14-.81,2.53-1.98,4.91-3.3,7.22-.1,.18-.4,.34-.63,.36-.55,.02-1.09-.04-1.64-.06-1.78-.1-3.11,1-3.24,2.63-.1,1.54,1.09,2.87,2.81,2.93,2.33,.08,4.65,.02,6.98-.02,1.03-.02,2.06-.18,3.18-.26"/><path class="cls-4" d="M3.83,100.99c-.02-.28-.08-.59-.08-.87,.1-3.05,.22-6.09,.32-9.14,0-.36-.18-.73-.26-1.11-.04-.24-.08-.51-.08-.75,.12-4.02,.26-8.05,.4-12.05v-.55c-.32,.1-.63,.24-.93,.3-1.23,.2-2.41-.63-2.55-1.9-.57-4.79-.79-9.59-.1-14.38,.4-2.77,1.11-5.46,2.65-7.87,1.31-2.04,2.99-3.66,5.44-4.19,1.36-.3,2.75-.34,4.13,.12,1.5,.51,2.99,.4,4.49-.1,.55-.18,1.13-.16,1.78-.26-.04,1.8-.42,3.4-.91,4.98-.81,2.57-1.98,4.98-3.3,7.32-.1,.18-.4,.34-.63,.36-.55,.02-1.09-.04-1.64-.06-1.78-.1-3.11,1.01-3.24,2.67-.1,1.56,1.09,2.91,2.81,2.97,2.33,.08,4.65,.02,6.98-.02,1.03-.02,2.06-.18,3.18-.26v29.91c0,1.88-1.15,3.34-2.83,3.6-1.72,.26-3.32-.71-3.8-2.35-.16-.53-.18-1.09-.18-1.62v-24.19h-1.21v11.39c-1.27-.16-2.45-.26-3.58-.51-.91-.18-1.76-.57-2.65-.83-.49-.14-.63-.4-.63-.93v-23.95c0-.65,0-1.31-.06-2-.77,.87-1.19,1.92-1.6,3.03,.79,.1,.81,.63,.79,1.25-.2,5.8-.4,11.59-.61,17.39-.14,4.27-.28,8.56-.42,12.82,0,.3-.2,.61-.28,.93-.06,.22-.14,.44-.14,.67-.12,3.11-.22,6.23-.32,9.32,0,.28-.08,.59-.12,.87h-.77l-.04-.04Z"/><path class="cls-4" d="M23.33,65.29c.34-6.01-1.66-11.47-3.74-16.93,1.25-.12,2.29,.24,3.2,1.01,1.38,1.13,2.14,2.65,2.73,4.27,.93,2.53,1.4,5.18,1.6,7.85,.04,.63-.22,1.33-.55,1.9-.71,1.17-1.94,1.6-3.26,1.92l.02-.02Z"/><path class="cls-4" d="M14.18,91.32c0,1.15-.55,2.16-1.62,2.81-1.19,.73-2.43,.71-3.6-.02-1.29-.81-1.72-2.06-1.58-3.44,2.25,.2,4.47,.42,6.8,.65Z"/><path class="cls-4" d="M7.39,86.59v-3.68c1.13,.3,2.25,.69,3.4,.91,.93,.18,1.88,.2,2.83,.3,.2,.02,.38,.14,.59,.22-.12,.2-.18,.51-.36,.59-.97,.44-1.94,.93-2.97,1.19-1.09,.28-2.25,.3-3.48,.44v.02Z"/><path class="cls-4" d="M14.16,86.38v3.48c-1.5-.08-2.93-.14-4.37-.26-.51-.04-.99-.18-1.48-.3q-1.03-.26-.89-1.44c2.29-.04,4.57-.28,6.74-1.48Z"/><g><path class="cls-3" d="M11.47,65.49c-1.01-.51-1.48-1.31-1.27-2.25s1.03-1.54,2.08-1.54h1.6s-2.41,3.78-2.41,3.78Z"/><path class="cls-1" d="M12.28,61.47v.51h1.13l-1.96,3.07-.06,.1c-.77-.47-1.11-1.11-.93-1.86,.18-.81,.91-1.33,1.84-1.33v-.51m0,0c-1.17,0-2.1,.69-2.33,1.74-.24,1.09,.32,2.06,1.62,2.63,.89-1.4,1.78-2.79,2.77-4.35h-2.04l-.02-.02Z"/></g><path class="cls-4" d="M9.33,41.97c-.04-3.16,2.39-5.66,5.5-5.66s5.66,2.59,5.62,5.62c-.04,2.93-2.51,5.42-5.46,5.52-3.09,.1-5.64-2.35-5.68-5.48h.02Z"/></g></g></g></svg>