<?xml version="1.0" encoding="UTF-8"?><svg id="Layer_2" xmlns="http://www.w3.org/2000/svg" viewBox="0 0 48.13 87.25"><defs><style>.cls-1,.cls-2{fill:#fff;}.cls-3,.cls-4{fill:#d3d3d3;}.cls-2,.cls-4{stroke:#fff;stroke-miterlimit:10;stroke-width:.25px;}</style></defs><g id="Layer_1-2"><g><g><path class="cls-2" d="M31.06,28.85c.34-5.92-1.66-11.31-3.74-16.7l-.72-.1c-.04,1.78-.61,3.59-1.1,5.14-.81,2.53-1.98,4.91-3.3,7.22-.1,.18-.4,.34-.63,.36-.55,.02-1.09-.04-1.64-.06-1.78-.1-3.11,1-3.24,2.63-.1,1.54,1.09,2.87,2.81,2.93,2.33,.08,4.65,.02,6.98-.02,1.03-.02,2.06-.18,3.18-.26"/><path class="cls-4" d="M11.22,64.81c-.02-.28-.08-.59-.08-.87,.1-3.05,.22-6.09,.32-9.14,0-.36-.18-.73-.26-1.11-.04-.24-.08-.51-.08-.75,.12-4.02,.26-8.05,.4-12.05v-.55c-.32,.1-.63,.24-.93,.3-1.23,.2-2.41-.63-2.55-1.9-.57-4.79-.79-9.59-.1-14.38,.4-2.77,1.11-5.46,2.65-7.87,1.31-2.04,2.99-3.66,5.44-4.19,1.36-.3,2.75-.34,4.13,.12,1.5,.51,2.99,.4,4.49-.1,.55-.18,1.13-.16,1.78-.26-.04,1.8-.42,3.4-.91,4.98-.81,2.57-1.98,4.98-3.3,7.32-.1,.18-.4,.34-.63,.36-.55,.02-1.09-.04-1.64-.06-1.78-.1-3.11,1.01-3.24,2.67-.1,1.56,1.09,2.91,2.81,2.97,2.33,.08,4.65,.02,6.98-.02,1.03-.02,2.06-.18,3.18-.26v29.91c0,1.88-1.15,3.34-2.83,3.6-1.72,.26-3.32-.71-3.8-2.35-.16-.53-.18-1.09-.18-1.62v-24.19h-1.21v11.39c-1.27-.16-2.45-.26-3.58-.51-.91-.18-1.76-.57-2.65-.83-.49-.14-.63-.4-.63-.93V20.55c0-.65,0-1.31-.06-2-.77,.87-1.19,1.92-1.6,3.03,.79,.1,.81,.63,.79,1.25-.2,5.8-.4,11.59-.61,17.39-.14,4.27-.28,8.56-.42,12.82,0,.3-.2,.61-.28,.93-.06,.22-.14,.44-.14,.67-.12,3.11-.22,6.23-.32,9.32,0,.28-.08,.59-.12,.87h-.77l-.04-.04Z"/><path class="cls-4" d="M30.72,29.11c.34-6.01-1.66-11.47-3.74-16.93,1.25-.12,2.29,.24,3.2,1.01,1.38,1.13,2.14,2.65,2.73,4.27,.93,2.53,1.4,5.18,1.6,7.85,.04,.63-.22,1.33-.55,1.9-.71,1.17-1.94,1.6-3.26,1.92l.02-.02Z"/><path class="cls-4" d="M21.58,55.14c0,1.15-.55,2.16-1.62,2.81-1.19,.73-2.43,.71-3.6-.02-1.29-.81-1.72-2.06-1.58-3.44,2.25,.2,4.47,.42,6.8,.65Z"/><path class="cls-4" d="M14.78,50.41v-3.68c1.13,.3,2.25,.69,3.4,.91,.93,.18,1.88,.2,2.83,.3,.2,.02,.38,.14,.59,.22-.12,.2-.18,.51-.36,.59-.97,.44-1.94,.93-2.97,1.19-1.09,.28-2.25,.3-3.48,.44v.02Z"/><path class="cls-4" d="M21.56,50.2v3.48c-1.5-.08-2.93-.14-4.37-.26-.51-.04-.99-.18-1.48-.3q-1.03-.26-.89-1.44c2.29-.04,4.57-.28,6.74-1.48Z"/><g><path class="cls-3" d="M18.87,29.31c-1.01-.51-1.48-1.31-1.27-2.25s1.03-1.54,2.08-1.54h1.6s-2.41,3.78-2.41,3.78Z"/><path class="cls-1" d="M19.68,25.29v.51h1.13l-1.96,3.07-.06,.1c-.77-.47-1.11-1.11-.93-1.86,.18-.81,.91-1.33,1.84-1.33v-.51m0,0c-1.17,0-2.1,.69-2.33,1.74-.24,1.09,.32,2.06,1.62,2.63,.89-1.4,1.78-2.79,2.77-4.35h-2.04l-.02-.02Z"/></g><path class="cls-4" d="M16.73,5.79c-.04-3.16,2.39-5.66,5.5-5.66s5.66,2.59,5.62,5.62c-.04,2.93-2.51,5.42-5.46,5.52-3.09,.1-5.64-2.35-5.68-5.48h.02Z"/></g><g><path class="cls-2" d="M44.56,39.28c.34-5.92-1.66-11.31-3.74-16.7l-.72-.1c-.04,1.78-.61,3.59-1.1,5.14-.81,2.53-1.98,4.91-3.3,7.22-.1,.18-.4,.34-.63,.36-.55,.02-1.09-.04-1.64-.06-1.78-.1-3.11,1-3.24,2.63-.1,1.54,1.09,2.87,2.81,2.93,2.33,.08,4.65,.02,6.98-.02,1.03-.02,2.06-.18,3.18-.26"/><path class="cls-4" d="M24.72,75.24c-.02-.28-.08-.59-.08-.87,.1-3.05,.22-6.09,.32-9.14,0-.36-.18-.73-.26-1.11-.04-.24-.08-.51-.08-.75,.12-4.02,.26-8.05,.4-12.05v-.55c-.32,.1-.63,.24-.93,.3-1.23,.2-2.41-.63-2.55-1.9-.57-4.79-.79-9.59-.1-14.38,.4-2.77,1.11-5.46,2.65-7.87,1.31-2.04,2.99-3.66,5.44-4.19,1.36-.3,2.75-.34,4.13,.12,1.5,.51,2.99,.4,4.49-.1,.55-.18,1.13-.16,1.78-.26-.04,1.8-.42,3.4-.91,4.98-.81,2.57-1.98,4.98-3.3,7.32-.1,.18-.4,.34-.63,.36-.55,.02-1.09-.04-1.64-.06-1.78-.1-3.11,1.01-3.24,2.67-.1,1.56,1.09,2.91,2.81,2.97,2.33,.08,4.65,.02,6.98-.02,1.03-.02,2.06-.18,3.18-.26v29.91c0,1.88-1.15,3.34-2.83,3.6-1.72,.26-3.32-.71-3.8-2.35-.16-.53-.18-1.09-.18-1.62v-24.19h-1.21v11.39c-1.27-.16-2.45-.26-3.58-.51-.91-.18-1.76-.57-2.65-.83-.49-.14-.63-.4-.63-.93V30.99c0-.65,0-1.31-.06-2-.77,.87-1.19,1.92-1.6,3.03,.79,.1,.81,.63,.79,1.25-.2,5.8-.4,11.59-.61,17.39-.14,4.27-.28,8.56-.42,12.82,0,.3-.2,.61-.28,.93-.06,.22-.14,.44-.14,.67-.12,3.11-.22,6.23-.32,9.32,0,.28-.08,.59-.12,.87h-.77l-.04-.04Z"/><path class="cls-4" d="M44.22,39.54c.34-6.01-1.66-11.47-3.74-16.93,1.25-.12,2.29,.24,3.2,1.01,1.38,1.13,2.14,2.65,2.73,4.27,.93,2.53,1.4,5.18,1.6,7.85,.04,.63-.22,1.33-.55,1.9-.71,1.17-1.94,1.6-3.26,1.92l.02-.02Z"/><path class="cls-4" d="M35.07,65.57c0,1.15-.55,2.16-1.62,2.81-1.19,.73-2.43,.71-3.6-.02-1.29-.81-1.72-2.06-1.58-3.44,2.25,.2,4.47,.42,6.8,.65Z"/><path class="cls-4" d="M28.28,60.84v-3.68c1.13,.3,2.25,.69,3.4,.91,.93,.18,1.88,.2,2.83,.3,.2,.02,.38,.14,.59,.22-.12,.2-.18,.51-.36,.59-.97,.44-1.94,.93-2.97,1.19-1.09,.28-2.25,.3-3.48,.44v.02Z"/><path class="cls-4" d="M35.05,60.64v3.48c-1.5-.08-2.93-.14-4.37-.26-.51-.04-.99-.18-1.48-.3q-1.03-.26-.89-1.44c2.29-.04,4.57-.28,6.74-1.48Z"/><g><path class="cls-3" d="M32.36,39.74c-1.01-.51-1.48-1.31-1.27-2.25s1.03-1.54,2.08-1.54h1.6s-2.41,3.78-2.41,3.78Z"/><path class="cls-1" d="M33.17,35.72v.51h1.13l-1.96,3.07-.06,.1c-.77-.47-1.11-1.11-.93-1.86,.18-.81,.91-1.33,1.84-1.33v-.51m0,0c-1.17,0-2.1,.69-2.33,1.74-.24,1.09,.32,2.06,1.62,2.63,.89-1.4,1.78-2.79,2.77-4.35h-2.04l-.02-.02Z"/></g><path class="cls-4" d="M30.22,16.22c-.04-3.16,2.39-5.66,5.5-5.66s5.66,2.59,5.62,5.62c-.04,2.93-2.51,5.42-5.46,5.52-3.09,.1-5.64-2.35-5.68-5.48h.02Z"/></g><g><path class="cls-2" d="M23.67,51.13c.34-5.92-1.66-11.31-3.74-16.7l-.72-.1c-.04,1.78-.61,3.59-1.1,5.14-.81,2.53-1.98,4.91-3.3,7.22-.1,.18-.4,.34-.63,.36-.55,.02-1.09-.04-1.64-.06-1.78-.1-3.11,1-3.24,2.63-.1,1.54,1.09,2.87,2.81,2.93,2.33,.08,4.65,.02,6.98-.02,1.03-.02,2.06-.18,3.18-.26"/><path class="cls-4" d="M3.83,87.08c-.02-.28-.08-.59-.08-.87,.1-3.05,.22-6.09,.32-9.14,0-.36-.18-.73-.26-1.11-.04-.24-.08-.51-.08-.75,.12-4.02,.26-8.05,.4-12.05v-.55c-.32,.1-.63,.24-.93,.3-1.23,.2-2.41-.63-2.55-1.9-.57-4.79-.79-9.59-.1-14.38,.4-2.77,1.11-5.46,2.65-7.87,1.31-2.04,2.99-3.66,5.44-4.19,1.36-.3,2.75-.34,4.13,.12,1.5,.51,2.99,.4,4.49-.1,.55-.18,1.13-.16,1.78-.26-.04,1.8-.42,3.4-.91,4.98-.81,2.57-1.98,4.98-3.3,7.32-.1,.18-.4,.34-.63,.36-.55,.02-1.09-.04-1.64-.06-1.78-.1-3.11,1.01-3.24,2.67-.1,1.56,1.09,2.91,2.81,2.97,2.33,.08,4.65,.02,6.98-.02,1.03-.02,2.06-.18,3.18-.26v29.91c0,1.88-1.15,3.34-2.83,3.6-1.72,.26-3.32-.71-3.8-2.35-.16-.53-.18-1.09-.18-1.62v-24.19h-1.21v11.39c-1.27-.16-2.45-.26-3.58-.51-.91-.18-1.76-.57-2.65-.83-.49-.14-.63-.4-.63-.93v-23.95c0-.65,0-1.31-.06-2-.77,.87-1.19,1.92-1.6,3.03,.79,.1,.81,.63,.79,1.25-.2,5.8-.4,11.59-.61,17.39-.14,4.27-.28,8.56-.42,12.82,0,.3-.2,.61-.28,.93-.06,.22-.14,.44-.14,.67-.12,3.11-.22,6.23-.32,9.32,0,.28-.08,.59-.12,.87h-.77l-.04-.04Z"/><path class="cls-4" d="M23.33,51.38c.34-6.01-1.66-11.47-3.74-16.93,1.25-.12,2.29,.24,3.2,1.01,1.38,1.13,2.14,2.65,2.73,4.27,.93,2.53,1.4,5.18,1.6,7.85,.04,.63-.22,1.33-.55,1.9-.71,1.17-1.94,1.6-3.26,1.92l.02-.02Z"/><path class="cls-4" d="M14.18,77.41c0,1.15-.55,2.16-1.62,2.81-1.19,.73-2.43,.71-3.6-.02-1.29-.81-1.72-2.06-1.58-3.44,2.25,.2,4.47,.42,6.8,.65Z"/><path class="cls-4" d="M7.39,72.68v-3.68c1.13,.3,2.25,.69,3.4,.91,.93,.18,1.88,.2,2.83,.3,.2,.02,.38,.14,.59,.22-.12,.2-.18,.51-.36,.59-.97,.44-1.94,.93-2.97,1.19-1.09,.28-2.25,.3-3.48,.44v.02Z"/><path class="cls-4" d="M14.16,72.48v3.48c-1.5-.08-2.93-.14-4.37-.26-.51-.04-.99-.18-1.48-.3q-1.03-.26-.89-1.44c2.29-.04,4.57-.28,6.74-1.48Z"/><g><path class="cls-3" d="M11.47,51.59c-1.01-.51-1.48-1.31-1.27-2.25s1.03-1.54,2.08-1.54h1.6s-2.41,3.78-2.41,3.78Z"/><path class="cls-1" d="M12.28,47.56v.51h1.13l-1.96,3.07-.06,.1c-.77-.47-1.11-1.11-.93-1.86,.18-.81,.91-1.33,1.84-1.33v-.51m0,0c-1.17,0-2.1,.69-2.33,1.74-.24,1.09,.32,2.06,1.62,2.63,.89-1.4,1.78-2.79,2.77-4.35h-2.04l-.02-.02Z"/></g><path class="cls-4" d="M9.33,28.06c-.04-3.16,2.39-5.66,5.5-5.66s5.66,2.59,5.62,5.62c-.04,2.93-2.51,5.42-5.46,5.52-3.09,.1-5.64-2.35-5.68-5.48h.02Z"/></g></g></g></svg>