<?xml version="1.0" encoding="UTF-8"?><svg id="Layer_2" xmlns="http://www.w3.org/2000/svg" viewBox="0 0 53.35 90.76"><defs><style>.cls-1,.cls-2{fill:#fff;}.cls-3,.cls-4{fill:#d3d3d3;}.cls-2,.cls-4{stroke:#fff;stroke-miterlimit:10;stroke-width:.25px;}</style></defs><g id="Layer_1-2"><g><g><path class="cls-2" d="M22.17,26.43c.31-5.42-1.52-10.36-3.43-15.29l-.66-.09c-.04,1.63-.56,3.29-1,4.71-.74,2.32-1.82,4.49-3.02,6.61-.09,.16-.37,.31-.57,.33-.5,.02-1-.04-1.5-.05-1.63-.09-2.85,.91-2.96,2.41-.09,1.41,1,2.63,2.57,2.68,2.13,.07,4.26,.02,6.39-.02,.94-.02,1.89-.16,2.91-.24"/><path class="cls-4" d="M4,59.35c-.02-.26-.07-.54-.07-.8,.09-2.8,.2-5.57,.3-8.37,0-.33-.17-.67-.24-1.02-.04-.22-.07-.46-.07-.69,.11-3.69,.24-7.37,.37-11.04v-.5c-.3,.09-.57,.22-.85,.28-1.13,.19-2.2-.57-2.33-1.74-.52-4.39-.72-8.78-.09-13.17,.37-2.54,1.02-5,2.43-7.2,1.2-1.87,2.74-3.35,4.98-3.83,1.24-.28,2.52-.31,3.78,.11,1.37,.46,2.74,.37,4.11-.09,.5-.17,1.04-.15,1.63-.24-.04,1.65-.39,3.11-.83,4.56-.74,2.35-1.82,4.56-3.02,6.7-.09,.17-.37,.31-.57,.33-.5,.02-1-.04-1.5-.06-1.63-.09-2.85,.93-2.96,2.44-.09,1.43,1,2.67,2.57,2.72,2.13,.07,4.26,.02,6.39-.02,.94-.02,1.89-.17,2.91-.24v27.39c0,1.72-1.06,3.06-2.59,3.3-1.57,.24-3.04-.65-3.48-2.15-.15-.48-.17-1-.17-1.48v-22.15h-1.11v10.43c-1.17-.15-2.24-.24-3.28-.46-.83-.17-1.61-.52-2.43-.76-.44-.13-.57-.37-.57-.85V18.83c0-.59,0-1.2-.06-1.83-.7,.8-1.09,1.76-1.46,2.78,.72,.09,.74,.57,.72,1.15-.19,5.32-.37,10.61-.56,15.93-.13,3.91-.26,7.83-.39,11.74,0,.28-.19,.56-.26,.85-.06,.2-.13,.41-.13,.61-.11,2.85-.2,5.7-.3,8.54,0,.26-.07,.54-.11,.8h-.7l-.04-.04Z"/><path class="cls-4" d="M21.85,26.66c.31-5.5-1.52-10.5-3.43-15.5,1.15-.11,2.09,.22,2.93,.93,1.26,1.04,1.96,2.43,2.5,3.91,.85,2.32,1.28,4.74,1.46,7.19,.04,.57-.2,1.22-.5,1.74-.65,1.07-1.78,1.46-2.98,1.76l.02-.02Z"/><path class="cls-4" d="M13.48,50.5c0,1.06-.5,1.98-1.48,2.57-1.09,.67-2.22,.65-3.3-.02-1.19-.74-1.57-1.89-1.44-3.15,2.06,.19,4.09,.39,6.22,.59Z"/><path class="cls-4" d="M7.26,46.17v-3.37c1.04,.28,2.06,.63,3.11,.83,.85,.17,1.72,.19,2.59,.28,.19,.02,.35,.13,.54,.2-.11,.19-.17,.46-.33,.54-.89,.41-1.78,.85-2.72,1.09-1,.26-2.06,.28-3.19,.41v.02Z"/><path class="cls-4" d="M13.47,45.98v3.19c-1.37-.07-2.69-.13-4-.24-.46-.04-.91-.17-1.35-.28q-.94-.24-.81-1.31c2.09-.04,4.19-.26,6.17-1.35Z"/><g><path class="cls-3" d="M11,26.85c-.93-.46-1.35-1.2-1.17-2.06s.94-1.41,1.91-1.41h1.46s-2.2,3.46-2.2,3.46Z"/><path class="cls-1" d="M11.74,23.16v.46h1.04l-1.8,2.82-.06,.09c-.7-.43-1.02-1.02-.85-1.7,.17-.74,.83-1.22,1.69-1.22v-.46m0,0c-1.07,0-1.93,.63-2.13,1.59-.22,1,.3,1.89,1.48,2.41,.81-1.28,1.63-2.56,2.54-3.98h-1.87l-.02-.02Z"/></g><path class="cls-4" d="M9.04,5.31c-.04-2.89,2.19-5.19,5.04-5.19s5.19,2.37,5.15,5.15c-.04,2.69-2.3,4.96-5,5.06-2.83,.09-5.17-2.15-5.2-5.02h.02Z"/></g><g><path class="cls-2" d="M50.08,27.7c.31-5.42-1.52-10.36-3.43-15.29l-.66-.09c-.04,1.63-.56,3.29-1,4.71-.74,2.32-1.82,4.49-3.02,6.61-.09,.16-.37,.31-.57,.33-.5,.02-1-.04-1.5-.05-1.63-.09-2.85,.91-2.96,2.41-.09,1.41,1,2.63,2.57,2.68,2.13,.07,4.26,.02,6.39-.02,.94-.02,1.89-.16,2.91-.24"/><path class="cls-4" d="M31.91,60.62c-.02-.26-.07-.54-.07-.8,.09-2.8,.2-5.57,.3-8.37,0-.33-.17-.67-.24-1.02-.04-.22-.07-.46-.07-.69,.11-3.69,.24-7.37,.37-11.04v-.5c-.3,.09-.57,.22-.85,.28-1.13,.19-2.2-.57-2.33-1.74-.52-4.39-.72-8.78-.09-13.17,.37-2.54,1.02-5,2.43-7.2,1.2-1.87,2.74-3.35,4.98-3.83,1.24-.28,2.52-.31,3.78,.11,1.37,.46,2.74,.37,4.11-.09,.5-.17,1.04-.15,1.63-.24-.04,1.65-.39,3.11-.83,4.56-.74,2.35-1.82,4.56-3.02,6.7-.09,.17-.37,.31-.57,.33-.5,.02-1-.04-1.5-.06-1.63-.09-2.85,.93-2.96,2.44-.09,1.43,1,2.67,2.57,2.72,2.13,.07,4.26,.02,6.39-.02,.94-.02,1.89-.17,2.91-.24v27.39c0,1.72-1.06,3.06-2.59,3.3-1.57,.24-3.04-.65-3.48-2.15-.15-.48-.17-1-.17-1.48v-22.15h-1.11v10.43c-1.17-.15-2.24-.24-3.28-.46-.83-.17-1.61-.52-2.43-.76-.44-.13-.57-.37-.57-.85V20.1c0-.59,0-1.2-.06-1.83-.7,.8-1.09,1.76-1.46,2.78,.72,.09,.74,.57,.72,1.15-.19,5.32-.37,10.61-.56,15.93-.13,3.91-.26,7.83-.39,11.74,0,.28-.19,.56-.26,.85-.06,.2-.13,.41-.13,.61-.11,2.85-.2,5.7-.3,8.54,0,.26-.07,.54-.11,.8h-.7l-.04-.04Z"/><path class="cls-4" d="M49.76,27.93c.31-5.5-1.52-10.5-3.43-15.5,1.15-.11,2.09,.22,2.93,.93,1.26,1.04,1.96,2.43,2.5,3.91,.85,2.32,1.28,4.74,1.46,7.19,.04,.57-.2,1.22-.5,1.74-.65,1.07-1.78,1.46-2.98,1.76l.02-.02Z"/><path class="cls-4" d="M41.39,51.77c0,1.06-.5,1.98-1.48,2.57-1.09,.67-2.22,.65-3.3-.02-1.19-.74-1.57-1.89-1.44-3.15,2.06,.19,4.09,.39,6.22,.59Z"/><path class="cls-4" d="M35.17,47.43v-3.37c1.04,.28,2.06,.63,3.11,.83,.85,.17,1.72,.19,2.59,.28,.19,.02,.35,.13,.54,.2-.11,.19-.17,.46-.33,.54-.89,.41-1.78,.85-2.72,1.09-1,.26-2.06,.28-3.19,.41v.02Z"/><path class="cls-4" d="M41.37,47.25v3.19c-1.37-.07-2.69-.13-4-.24-.46-.04-.91-.17-1.35-.28q-.94-.24-.81-1.31c2.09-.04,4.19-.26,6.17-1.35Z"/><g><path class="cls-3" d="M38.91,28.12c-.93-.46-1.35-1.2-1.17-2.06s.94-1.41,1.91-1.41h1.46s-2.2,3.46-2.2,3.46Z"/><path class="cls-1" d="M39.65,24.43v.46h1.04l-1.8,2.82-.06,.09c-.7-.43-1.02-1.02-.85-1.7,.17-.74,.83-1.22,1.69-1.22v-.46m0,0c-1.07,0-1.93,.63-2.13,1.59-.22,1,.3,1.89,1.48,2.41,.81-1.28,1.63-2.56,2.54-3.98h-1.87l-.02-.02Z"/></g><path class="cls-4" d="M36.95,6.58c-.04-2.89,2.19-5.19,5.04-5.19s5.19,2.37,5.15,5.15c-.04,2.69-2.3,4.96-5,5.06-2.83,.09-5.17-2.15-5.2-5.02h.02Z"/></g><g><path class="cls-2" d="M35.45,34.31c.34-5.92-1.66-11.31-3.74-16.7l-.72-.1c-.04,1.78-.61,3.59-1.1,5.14-.81,2.53-1.98,4.91-3.3,7.22-.1,.18-.4,.34-.63,.36-.55,.02-1.09-.04-1.64-.06-1.78-.1-3.11,1-3.24,2.63-.1,1.54,1.09,2.87,2.81,2.93,2.33,.08,4.65,.02,6.98-.02,1.03-.02,2.06-.18,3.18-.26"/><path class="cls-4" d="M15.61,70.27c-.02-.28-.08-.59-.08-.87,.1-3.05,.22-6.09,.32-9.14,0-.36-.18-.73-.26-1.11-.04-.24-.08-.51-.08-.75,.12-4.02,.26-8.05,.4-12.05v-.55c-.32,.1-.63,.24-.93,.3-1.23,.2-2.41-.63-2.55-1.9-.57-4.79-.79-9.59-.1-14.38,.4-2.77,1.11-5.46,2.65-7.87,1.31-2.04,2.99-3.66,5.44-4.19,1.36-.3,2.75-.34,4.13,.12,1.5,.51,2.99,.4,4.49-.1,.55-.18,1.13-.16,1.78-.26-.04,1.8-.42,3.4-.91,4.98-.81,2.57-1.98,4.98-3.3,7.32-.1,.18-.4,.34-.63,.36-.55,.02-1.09-.04-1.64-.06-1.78-.1-3.11,1.01-3.24,2.67-.1,1.56,1.09,2.91,2.81,2.97,2.33,.08,4.65,.02,6.98-.02,1.03-.02,2.06-.18,3.18-.26v29.91c0,1.88-1.15,3.34-2.83,3.6-1.72,.26-3.32-.71-3.8-2.35-.16-.53-.18-1.09-.18-1.62v-24.19h-1.21v11.39c-1.27-.16-2.45-.26-3.58-.51-.91-.18-1.76-.57-2.65-.83-.49-.14-.63-.4-.63-.93V26.01c0-.65,0-1.31-.06-2-.77,.87-1.19,1.92-1.6,3.03,.79,.1,.81,.63,.79,1.25-.2,5.8-.4,11.59-.61,17.39-.14,4.27-.28,8.56-.42,12.82,0,.3-.2,.61-.28,.93-.06,.22-.14,.44-.14,.67-.12,3.11-.22,6.23-.32,9.32,0,.28-.08,.59-.12,.87h-.77l-.04-.04Z"/><path class="cls-4" d="M35.11,34.57c.34-6.01-1.66-11.47-3.74-16.93,1.25-.12,2.29,.24,3.2,1.01,1.38,1.13,2.14,2.65,2.73,4.27,.93,2.53,1.4,5.18,1.6,7.85,.04,.63-.22,1.33-.55,1.9-.71,1.17-1.94,1.6-3.26,1.92l.02-.02Z"/><path class="cls-4" d="M25.96,60.6c0,1.15-.55,2.16-1.62,2.81-1.19,.73-2.43,.71-3.6-.02-1.29-.81-1.72-2.06-1.58-3.44,2.25,.2,4.47,.42,6.8,.65Z"/><path class="cls-4" d="M19.17,55.87v-3.68c1.13,.3,2.25,.69,3.4,.91,.93,.18,1.88,.2,2.83,.3,.2,.02,.38,.14,.59,.22-.12,.2-.18,.51-.36,.59-.97,.44-1.94,.93-2.97,1.19-1.09,.28-2.25,.3-3.48,.44v.02Z"/><path class="cls-4" d="M25.94,55.66v3.48c-1.5-.08-2.93-.14-4.37-.26-.51-.04-.99-.18-1.48-.3q-1.03-.26-.89-1.44c2.29-.04,4.57-.28,6.74-1.48Z"/><g><path class="cls-3" d="M23.25,34.77c-1.01-.51-1.48-1.31-1.27-2.25s1.03-1.54,2.08-1.54h1.6s-2.41,3.78-2.41,3.78Z"/><path class="cls-1" d="M24.06,30.75v.51h1.13l-1.96,3.07-.06,.1c-.77-.47-1.11-1.11-.93-1.86,.18-.81,.91-1.33,1.84-1.33v-.51m0,0c-1.17,0-2.1,.69-2.33,1.74-.24,1.09,.32,2.06,1.62,2.63,.89-1.4,1.78-2.79,2.77-4.35h-2.04l-.02-.02Z"/></g><path class="cls-4" d="M21.11,11.25c-.04-3.16,2.39-5.66,5.5-5.66s5.66,2.59,5.62,5.62c-.04,2.93-2.51,5.42-5.46,5.52-3.09,.1-5.64-2.35-5.68-5.48h.02Z"/></g><g><path class="cls-2" d="M42.65,44.3c.34-5.92-1.66-11.31-3.74-16.7l-.72-.1c-.04,1.78-.61,3.59-1.1,5.14-.81,2.53-1.98,4.91-3.3,7.22-.1,.18-.4,.34-.63,.36-.55,.02-1.09-.04-1.64-.06-1.78-.1-3.11,1-3.24,2.63-.1,1.54,1.09,2.87,2.81,2.93,2.33,.08,4.65,.02,6.98-.02,1.03-.02,2.06-.18,3.18-.26"/><path class="cls-4" d="M22.81,80.25c-.02-.28-.08-.59-.08-.87,.1-3.05,.22-6.09,.32-9.14,0-.36-.18-.73-.26-1.11-.04-.24-.08-.51-.08-.75,.12-4.02,.26-8.05,.4-12.05v-.55c-.32,.1-.63,.24-.93,.3-1.23,.2-2.41-.63-2.55-1.9-.57-4.79-.79-9.59-.1-14.38,.4-2.77,1.11-5.46,2.65-7.87,1.31-2.04,2.99-3.66,5.44-4.19,1.36-.3,2.75-.34,4.13,.12,1.5,.51,2.99,.4,4.49-.1,.55-.18,1.13-.16,1.78-.26-.04,1.8-.42,3.4-.91,4.98-.81,2.57-1.98,4.98-3.3,7.32-.1,.18-.4,.34-.63,.36-.55,.02-1.09-.04-1.64-.06-1.78-.1-3.11,1.01-3.24,2.67-.1,1.56,1.09,2.91,2.81,2.97,2.33,.08,4.65,.02,6.98-.02,1.03-.02,2.06-.18,3.18-.26v29.91c0,1.88-1.15,3.34-2.83,3.6-1.72,.26-3.32-.71-3.8-2.35-.16-.53-.18-1.09-.18-1.62v-24.19h-1.21v11.39c-1.27-.16-2.45-.26-3.58-.51-.91-.18-1.76-.57-2.65-.83-.49-.14-.63-.4-.63-.93v-23.95c0-.65,0-1.31-.06-2-.77,.87-1.19,1.92-1.6,3.03,.79,.1,.81,.63,.79,1.25-.2,5.8-.4,11.59-.61,17.39-.14,4.27-.28,8.56-.42,12.82,0,.3-.2,.61-.28,.93-.06,.22-.14,.44-.14,.67-.12,3.11-.22,6.23-.32,9.32,0,.28-.08,.59-.12,.87h-.77l-.04-.04Z"/><path class="cls-4" d="M42.31,44.56c.34-6.01-1.66-11.47-3.74-16.93,1.25-.12,2.29,.24,3.2,1.01,1.38,1.13,2.14,2.65,2.73,4.27,.93,2.53,1.4,5.18,1.6,7.85,.04,.63-.22,1.33-.55,1.9-.71,1.17-1.94,1.6-3.26,1.92l.02-.02Z"/><path class="cls-4" d="M33.16,70.59c0,1.15-.55,2.16-1.62,2.81-1.19,.73-2.43,.71-3.6-.02-1.29-.81-1.72-2.06-1.58-3.44,2.25,.2,4.47,.42,6.8,.65Z"/><path class="cls-4" d="M26.37,65.85v-3.68c1.13,.3,2.25,.69,3.4,.91,.93,.18,1.88,.2,2.83,.3,.2,.02,.38,.14,.59,.22-.12,.2-.18,.51-.36,.59-.97,.44-1.94,.93-2.97,1.19-1.09,.28-2.25,.3-3.48,.44v.02Z"/><path class="cls-4" d="M33.14,65.65v3.48c-1.5-.08-2.93-.14-4.37-.26-.51-.04-.99-.18-1.48-.3q-1.03-.26-.89-1.44c2.29-.04,4.57-.28,6.74-1.48Z"/><g><path class="cls-3" d="M30.45,44.76c-1.01-.51-1.48-1.31-1.27-2.25s1.03-1.54,2.08-1.54h1.6s-2.41,3.78-2.41,3.78Z"/><path class="cls-1" d="M31.26,40.73v.51h1.13l-1.96,3.07-.06,.1c-.77-.47-1.11-1.11-.93-1.86,.18-.81,.91-1.33,1.84-1.33v-.51m0,0c-1.17,0-2.1,.69-2.33,1.74-.24,1.09,.32,2.06,1.62,2.63,.89-1.4,1.78-2.79,2.77-4.35h-2.04l-.02-.02Z"/></g><path class="cls-4" d="M28.31,21.23c-.04-3.16,2.39-5.66,5.5-5.66s5.66,2.59,5.62,5.62c-.04,2.93-2.51,5.42-5.46,5.52-3.09,.1-5.64-2.35-5.68-5.48h.02Z"/></g><g><path class="cls-2" d="M23.67,54.64c.34-5.92-1.66-11.31-3.74-16.7l-.72-.1c-.04,1.78-.61,3.59-1.1,5.14-.81,2.53-1.98,4.91-3.3,7.22-.1,.18-.4,.34-.63,.36-.55,.02-1.09-.04-1.64-.06-1.78-.1-3.11,1-3.24,2.63-.1,1.54,1.09,2.87,2.81,2.93,2.33,.08,4.65,.02,6.98-.02,1.03-.02,2.06-.18,3.18-.26"/><path class="cls-4" d="M3.83,90.59c-.02-.28-.08-.59-.08-.87,.1-3.05,.22-6.09,.32-9.14,0-.36-.18-.73-.26-1.11-.04-.24-.08-.51-.08-.75,.12-4.02,.26-8.05,.4-12.05v-.55c-.32,.1-.63,.24-.93,.3-1.23,.2-2.41-.63-2.55-1.9-.57-4.79-.79-9.59-.1-14.38,.4-2.77,1.11-5.46,2.65-7.87,1.31-2.04,2.99-3.66,5.44-4.19,1.36-.3,2.75-.34,4.13,.12,1.5,.51,2.99,.4,4.49-.1,.55-.18,1.13-.16,1.78-.26-.04,1.8-.42,3.4-.91,4.98-.81,2.57-1.98,4.98-3.3,7.32-.1,.18-.4,.34-.63,.36-.55,.02-1.09-.04-1.64-.06-1.78-.1-3.11,1.01-3.24,2.67-.1,1.56,1.09,2.91,2.81,2.97,2.33,.08,4.65,.02,6.98-.02,1.03-.02,2.06-.18,3.18-.26v29.91c0,1.88-1.15,3.34-2.83,3.6-1.72,.26-3.32-.71-3.8-2.35-.16-.53-.18-1.09-.18-1.62v-24.19h-1.21v11.39c-1.27-.16-2.45-.26-3.58-.51-.91-.18-1.76-.57-2.65-.83-.49-.14-.63-.4-.63-.93v-23.95c0-.65,0-1.31-.06-2-.77,.87-1.19,1.92-1.6,3.03,.79,.1,.81,.63,.79,1.25-.2,5.8-.4,11.59-.61,17.39-.14,4.27-.28,8.56-.42,12.82,0,.3-.2,.61-.28,.93-.06,.22-.14,.44-.14,.67-.12,3.11-.22,6.23-.32,9.32,0,.28-.08,.59-.12,.87h-.77l-.04-.04Z"/><path class="cls-4" d="M23.33,54.9c.34-6.01-1.66-11.47-3.74-16.93,1.25-.12,2.29,.24,3.2,1.01,1.38,1.13,2.14,2.65,2.73,4.27,.93,2.53,1.4,5.18,1.6,7.85,.04,.63-.22,1.33-.55,1.9-.71,1.17-1.94,1.6-3.26,1.92l.02-.02Z"/><path class="cls-4" d="M14.18,80.93c0,1.15-.55,2.16-1.62,2.81-1.19,.73-2.43,.71-3.6-.02-1.29-.81-1.72-2.06-1.58-3.44,2.25,.2,4.47,.42,6.8,.65Z"/><path class="cls-4" d="M7.39,76.19v-3.68c1.13,.3,2.25,.69,3.4,.91,.93,.18,1.88,.2,2.83,.3,.2,.02,.38,.14,.59,.22-.12,.2-.18,.51-.36,.59-.97,.44-1.94,.93-2.97,1.19-1.09,.28-2.25,.3-3.48,.44v.02Z"/><path class="cls-4" d="M14.16,75.99v3.48c-1.5-.08-2.93-.14-4.37-.26-.51-.04-.99-.18-1.48-.3q-1.03-.26-.89-1.44c2.29-.04,4.57-.28,6.74-1.48Z"/><g><path class="cls-3" d="M11.47,55.1c-1.01-.51-1.48-1.31-1.27-2.25s1.03-1.54,2.08-1.54h1.6s-2.41,3.78-2.41,3.78Z"/><path class="cls-1" d="M12.28,51.07v.51h1.13l-1.96,3.07-.06,.1c-.77-.47-1.11-1.11-.93-1.86,.18-.81,.91-1.33,1.84-1.33v-.51m0,0c-1.17,0-2.1,.69-2.33,1.74-.24,1.09,.32,2.06,1.62,2.63,.89-1.4,1.78-2.79,2.77-4.35h-2.04l-.02-.02Z"/></g><path class="cls-4" d="M9.33,31.58c-.04-3.16,2.39-5.66,5.5-5.66s5.66,2.59,5.62,5.62c-.04,2.93-2.51,5.42-5.46,5.52-3.09,.1-5.64-2.35-5.68-5.48h.02Z"/></g></g></g></svg>