<?xml version="1.0" encoding="UTF-8"?><svg id="Layer_2" xmlns="http://www.w3.org/2000/svg" viewBox="0 0 28.19 67.26"><defs><style>.cls-1,.cls-2{fill:#fff;}.cls-3,.cls-4{fill:#d3d3d3;}.cls-2,.cls-4{stroke:#fff;stroke-miterlimit:10;stroke-width:.25px;}</style></defs><g id="Layer_1-2"><g><path class="cls-2" d="M24.5,29.87c.36-6.13-1.72-11.71-3.87-17.29l-.74-.1c-.04,1.84-.63,3.72-1.13,5.33-.84,2.62-2.05,5.08-3.41,7.48-.1,.19-.42,.35-.65,.37-.57,.02-1.13-.04-1.7-.06-1.84-.1-3.22,1.03-3.35,2.73-.1,1.59,1.13,2.97,2.91,3.04,2.41,.08,4.82,.02,7.22-.02,1.07-.02,2.14-.19,3.29-.27"/><path class="cls-4" d="M3.96,67.1c-.02-.29-.08-.61-.08-.9,.1-3.16,.23-6.3,.34-9.47,0-.38-.19-.75-.27-1.15-.04-.25-.08-.52-.08-.77,.13-4.17,.27-8.33,.42-12.48v-.57c-.34,.1-.65,.25-.96,.31-1.28,.21-2.49-.65-2.64-1.97-.59-4.96-.82-9.93-.1-14.89,.42-2.87,1.15-5.65,2.74-8.15,1.36-2.12,3.1-3.79,5.63-4.33,1.4-.31,2.85-.36,4.27,.13,1.55,.52,3.1,.42,4.65-.1,.57-.19,1.17-.17,1.84-.27-.04,1.86-.44,3.52-.94,5.15-.84,2.66-2.05,5.15-3.41,7.58-.1,.19-.42,.36-.65,.38-.57,.02-1.13-.04-1.7-.06-1.84-.1-3.22,1.05-3.35,2.76-.1,1.61,1.13,3.02,2.91,3.08,2.41,.08,4.82,.02,7.22-.02,1.07-.02,2.14-.19,3.29-.27v30.97c0,1.95-1.19,3.46-2.93,3.73-1.78,.27-3.43-.73-3.94-2.43-.17-.54-.19-1.13-.19-1.68v-25.05h-1.26v11.79c-1.32-.17-2.53-.27-3.71-.52-.94-.19-1.82-.59-2.74-.86-.5-.15-.65-.42-.65-.96V21.28c0-.67,0-1.36-.06-2.07-.8,.9-1.24,1.99-1.65,3.14,.82,.1,.84,.65,.82,1.3-.21,6.01-.42,12-.63,18.01-.15,4.42-.29,8.86-.44,13.28,0,.31-.21,.63-.29,.96-.06,.23-.15,.46-.15,.69-.13,3.22-.23,6.45-.34,9.65,0,.29-.08,.61-.13,.9h-.8l-.04-.04Z"/><path class="cls-4" d="M24.15,30.13c.36-6.22-1.72-11.87-3.87-17.53,1.3-.13,2.37,.25,3.31,1.05,1.42,1.17,2.22,2.74,2.83,4.42,.96,2.62,1.44,5.36,1.65,8.13,.04,.65-.23,1.38-.57,1.97-.73,1.21-2.01,1.65-3.37,1.99l.02-.02Z"/><path class="cls-4" d="M14.68,57.09c0,1.19-.57,2.24-1.68,2.91-1.24,.75-2.51,.73-3.73-.02-1.34-.84-1.78-2.14-1.63-3.56,2.32,.21,4.63,.44,7.04,.67Z"/><path class="cls-4" d="M7.65,52.18v-3.81c1.17,.31,2.32,.71,3.52,.94,.96,.19,1.95,.21,2.93,.31,.21,.02,.4,.15,.61,.23-.13,.21-.19,.52-.38,.61-1.01,.46-2.01,.96-3.08,1.24-1.13,.29-2.32,.31-3.6,.46v.02Z"/><path class="cls-4" d="M14.66,51.98v3.6c-1.55-.08-3.04-.15-4.52-.27-.52-.04-1.03-.19-1.53-.31q-1.07-.27-.92-1.49c2.37-.04,4.73-.29,6.97-1.53Z"/><g><path class="cls-3" d="M11.88,30.34c-1.05-.52-1.53-1.36-1.32-2.32s1.07-1.59,2.16-1.59h1.65s-2.49,3.92-2.49,3.92Z"/><path class="cls-1" d="M12.71,26.18v.52h1.17l-2.03,3.18-.06,.1c-.8-.48-1.15-1.15-.96-1.93,.19-.84,.94-1.38,1.91-1.38v-.52m0,0c-1.21,0-2.18,.71-2.41,1.8-.25,1.13,.34,2.14,1.68,2.72,.92-1.44,1.84-2.89,2.87-4.5h-2.12l-.02-.02Z"/></g><path class="cls-4" d="M9.66,5.99c-.04-3.27,2.47-5.86,5.7-5.86s5.86,2.68,5.82,5.82c-.04,3.04-2.6,5.61-5.65,5.72-3.2,.1-5.84-2.43-5.88-5.68h.02Z"/></g></g></svg>