<?xml version="1.0" encoding="UTF-8"?><svg id="Layer_2" xmlns="http://www.w3.org/2000/svg" viewBox="0 0 19.44 20.1"><defs><style>.cls-1{fill:#d3d3d3;stroke:#fff;stroke-miterlimit:10;stroke-width:.25px;}</style></defs><g id="Layer_1-2"><g><g><path class="cls-1" d="M10.04,10.64c-1.43-.02-2.54-.21-3.55-.8-.11-.07-.22-.14-.33-.22-.99-.75-1.01-1.83-.03-2.59,.54-.42,1.16-.68,1.82-.83,1.54-.36,3.06-.31,4.52,.3,.42,.18,.83,.44,1.16,.75,.74,.7,.67,1.59-.1,2.25-.62,.53-1.35,.82-2.13,.97-.54,.11-1.08,.14-1.36,.18Z"/><path class="cls-1" d="M4.21,11.8c1.53,.03,2.7,.22,3.74,.9,.07,.05,.14,.09,.2,.15,.98,.79,.97,1.83-.03,2.59-.61,.47-1.31,.72-2.05,.86-1.35,.26-2.7,.21-4.01-.25-.56-.2-1.08-.48-1.49-.92-.56-.59-.57-1.38-.02-1.98,.57-.63,1.31-.94,2.1-1.13,.61-.14,1.25-.19,1.56-.23Z"/><path class="cls-1" d="M.14,15.17c.49,.9,1.3,1.31,2.19,1.57,1.58,.47,3.17,.44,4.72-.12,.75-.27,1.4-.68,1.76-1.44,.21,.43,.04,1.28-.34,1.69-.55,.6-1.26,.91-2.03,1.11-1.16,.31-2.33,.33-3.51,.09-.83-.17-1.62-.45-2.25-1.05-.38-.36-.59-.79-.56-1.33,.01-.17,0-.34,0-.51Z"/><path class="cls-1" d="M8.83,16.9c.25,.72-.04,1.54-.68,2.03-.7,.53-1.51,.79-2.36,.93-1.08,.18-2.15,.13-3.21-.15-.63-.16-1.21-.42-1.72-.81-.66-.51-.8-1.2-.68-2,.14,.2,.26,.4,.42,.57,.51,.57,1.19,.86,1.91,1.06,1.59,.43,3.16,.38,4.69-.22,.69-.27,1.3-.67,1.64-1.42Z"/><path class="cls-1" d="M5.4,9.35c.42,.77,1.1,1.17,1.85,1.45,1.29,.47,2.61,.55,3.95,.29,.79-.15,1.55-.38,2.18-.9,.28-.23,.5-.54,.72-.8,.22,.63-.07,1.47-.7,1.95-.67,.52-1.44,.78-2.26,.92-.89,.16-1.79,.18-2.68,0-.09-.02-.18-.04-.25-.09-.54-.33-1.12-.57-1.74-.73-.56-.14-1.03-.71-1.08-1.29-.02-.27,0-.54,0-.81Z"/><path class="cls-1" d="M14.1,11.05c.18,1.08-.17,1.79-1.1,2.32-.83,.47-1.72,.68-2.66,.74-.28,.02-.56,0-.81,0-.13-.38-.25-.75-.38-1.14,.08,0,.18,0,.27,0,1.2,.03,2.37-.13,3.45-.7,.55-.29,.84-.56,1.23-1.23Z"/><path class="cls-1" d="M14.1,14.58c.18,1.04-.16,1.74-1.13,2.29-.68,.39-1.42,.6-2.19,.68-.42,.05-.84,.06-1.28,.09v-1.12c.61-.07,1.2-.1,1.79-.21,.89-.16,1.74-.46,2.38-1.15,.16-.17,.29-.38,.44-.59Z"/><path class="cls-1" d="M14.12,12.88c.14,1.06-.17,1.69-1.17,2.26-.7,.4-1.47,.61-2.27,.68-.39,.04-.77,.06-1.18,.09v-1.17c.38-.02,.75-.02,1.12-.06,.99-.12,1.95-.34,2.75-.98,.29-.23,.51-.55,.75-.82Z"/></g><path class="cls-1" d="M4.99,1.84c1.53,.03,2.7,.22,3.74,.9,.07,.05,.14,.09,.2,.15,.98,.79,.97,1.83-.03,2.59-.61,.47-1.31,.72-2.05,.86-1.35,.26-2.7,.21-4.01-.25-.56-.2-1.08-.48-1.49-.92-.56-.59-.57-1.38-.02-1.98,.57-.63,1.31-.94,2.1-1.13,.61-.14,1.25-.19,1.56-.23Z"/><path class="cls-1" d="M7.77,6.67c-1.54,.55-3.1,.57-4.66,.11-.89-.26-1.7-.68-2.19-1.57,0,.17,0,.34,0,.51-.03,.54,.17,.97,.56,1.33,.63,.6,1.42,.88,2.25,1.05,.87,.18,1.74,.21,2.6,.09,.35-.6,.83-1.13,1.44-1.52Z"/><path class="cls-1" d="M5.51,8.83c-.91,.09-1.31,0-2.24-.26-.72-.19-1.4-.49-1.91-1.06-.15-.17-.27-.37-.42-.57-.12,.79,.02,1.49,.68,2,.51,.4,1.1,.65,1.72,.81,.77,.2,1.55,.28,2.34,.24,.07-.41-.33-.78-.17-1.17Z"/><path class="cls-1" d="M5.62,10.53c-.84,.04-1.68-.06-2.52-.31-.89-.26-1.7-.68-2.19-1.57,0,.17,0,.34,0,.51-.03,.54,.17,.97,.56,1.33,.63,.6,1.42,.88,2.25,1.05,.65,.13,1.29,.18,1.94,.15-.05-.38-.06-.77-.04-1.16Z"/><path class="cls-1" d="M5.76,12.27c-.83,.05-1.66-.03-2.5-.26-.72-.19-1.4-.49-1.91-1.06-.15-.17-.27-.37-.42-.57-.12,.79,.02,1.49,.68,2,.51,.4,1.1,.65,1.72,.81,.93,.24,1.88,.3,2.83,.19-.18-.35-.31-.73-.41-1.12Z"/><path class="cls-1" d="M10.04,10.64c-1.43-.02-2.54-.21-3.55-.8-.11-.07-.22-.14-.33-.22-.99-.75-1.01-1.83-.03-2.59,.54-.42,1.16-.68,1.82-.83,1.54-.36,3.06-.31,4.52,.3,.42,.18,.83,.44,1.16,.75,.74,.7,.67,1.59-.1,2.25-.62,.53-1.35,.82-2.13,.97-.54,.11-1.08,.14-1.36,.18Z"/><path class="cls-1" d="M4.21,11.8c1.53,.03,2.7,.22,3.74,.9,.07,.05,.14,.09,.2,.15,.98,.79,.97,1.83-.03,2.59-.61,.47-1.31,.72-2.05,.86-1.35,.26-2.7,.21-4.01-.25-.56-.2-1.08-.48-1.49-.92-.56-.59-.57-1.38-.02-1.98,.57-.63,1.31-.94,2.1-1.13,.61-.14,1.25-.19,1.56-.23Z"/><path class="cls-1" d="M.14,15.17c.49,.9,1.3,1.31,2.19,1.57,1.58,.47,3.17,.44,4.72-.12,.75-.27,1.4-.68,1.76-1.44,.21,.43,.04,1.28-.34,1.69-.55,.6-1.26,.91-2.03,1.11-1.16,.31-2.33,.33-3.51,.09-.83-.17-1.62-.45-2.25-1.05-.38-.36-.59-.79-.56-1.33,.01-.17,0-.34,0-.51Z"/><path class="cls-1" d="M8.83,16.9c.25,.72-.04,1.54-.68,2.03-.7,.53-1.51,.79-2.36,.93-1.08,.18-2.15,.13-3.21-.15-.63-.16-1.21-.42-1.72-.81-.66-.51-.8-1.2-.68-2,.14,.2,.26,.4,.42,.57,.51,.57,1.19,.86,1.91,1.06,1.59,.43,3.16,.38,4.69-.22,.69-.27,1.3-.67,1.64-1.42Z"/><path class="cls-1" d="M5.4,9.35c.42,.77,1.1,1.17,1.85,1.45,1.29,.47,2.61,.55,3.95,.29,.79-.15,1.55-.38,2.18-.9,.28-.23,.5-.54,.72-.8,.22,.63-.07,1.47-.7,1.95-.67,.52-1.44,.78-2.26,.92-.89,.16-1.79,.18-2.68,0-.09-.02-.18-.04-.25-.09-.54-.33-1.12-.57-1.74-.73-.56-.14-1.03-.71-1.08-1.29-.02-.27,0-.54,0-.81Z"/><path class="cls-1" d="M14.1,11.05c.18,1.08-.17,1.79-1.1,2.32-.83,.47-1.72,.68-2.66,.74-.28,.02-.56,0-.81,0-.13-.38-.25-.75-.38-1.14,.08,0,.18,0,.27,0,1.2,.03,2.37-.13,3.45-.7,.55-.29,.84-.56,1.23-1.23Z"/><path class="cls-1" d="M14.1,14.58c.18,1.04-.16,1.74-1.13,2.29-.68,.39-1.42,.6-2.19,.68-.42,.05-.84,.06-1.28,.09v-1.12c.61-.07,1.2-.1,1.79-.21,.89-.16,1.74-.46,2.38-1.15,.16-.17,.29-.38,.44-.59Z"/><path class="cls-1" d="M14.12,12.88c.14,1.06-.17,1.69-1.17,2.26-.7,.4-1.47,.61-2.27,.68-.39,.04-.77,.06-1.18,.09v-1.17c.38-.02,.75-.02,1.12-.06,.99-.12,1.95-.34,2.75-.98,.29-.23,.51-.55,.75-.82Z"/><path class="cls-1" d="M15.17,4.8c-1.43-.02-2.54-.21-3.55-.8-.11-.07-.22-.14-.33-.22-.99-.75-1.01-1.83-.03-2.59,.54-.42,1.16-.68,1.82-.83C14.61,0,16.13,.04,17.59,.65c.42,.18,.83,.44,1.16,.75,.74,.7,.67,1.59-.1,2.25-.62,.53-1.35,.82-2.13,.97-.54,.11-1.08,.14-1.36,.18Z"/><path class="cls-1" d="M10.53,3.51c.42,.77,1.1,1.17,1.85,1.45,1.29,.47,2.61,.55,3.95,.29,.79-.15,1.55-.38,2.18-.9,.28-.23,.5-.54,.72-.8,.22,.63-.07,1.47-.7,1.95-.67,.52-1.44,.78-2.26,.92-.89,.16-1.79,.18-2.68,0-.09-.02-.18-.04-.25-.09-.54-.33-1.12-.57-1.74-.73-.56-.14-1.03-.71-1.08-1.29-.02-.27,0-.54,0-.81Z"/><path class="cls-1" d="M19.23,5.21c.18,1.08-.17,1.79-1.1,2.32-.83,.47-1.72,.68-2.66,.74-.28,.02-.56,0-.81,0-.13-.38-.25-.75-.38-1.14,.08,0,.18,0,.27,0,1.2,.03,2.37-.13,3.45-.7,.55-.29,.84-.56,1.23-1.23Z"/><path class="cls-1" d="M19.24,8.74c.18,1.04-.16,1.74-1.13,2.29-.68,.39-1.42,.6-2.19,.68-.42,.05-.84,.06-1.28,.09v-1.12c.61-.07,1.2-.1,1.79-.21,.89-.16,1.74-.46,2.38-1.15,.16-.17,.29-.38,.44-.59Z"/><path class="cls-1" d="M19.25,7.04c.14,1.06-.17,1.69-1.17,2.26-.7,.4-1.47,.61-2.27,.68-.39,.04-.77,.06-1.18,.09v-1.17c.38-.02,.75-.02,1.12-.06,.99-.12,1.95-.34,2.75-.98,.29-.23,.51-.55,.75-.82Z"/></g></g></svg>