<?xml version="1.0" encoding="UTF-8"?>
<svg id="Layer_2" xmlns="http://www.w3.org/2000/svg" viewBox="0 0 40.16 27.11">
    <defs>
        <style>.cls-1{fill:#d3d3d3;stroke:#fff;stroke-miterlimit:10;stroke-width:.25px;}</style>
    </defs>
    <g id="Layer_1-2">
        <g>
            <g id="yDHBCv">
                <g>
                    <path class="cls-1" d="M29.63,21.5c0-3.18,0-6.32,0-9.52-4.76-.34-9.51-.68-14.31-1.03-.01,.26-.03,.45-.03,.64,0,2.33,.01,4.66-.01,6.99,0,.56,.15,.84,.73,.91,1.13,.14,2.26,.35,3.39,.48,.52,.06,.66-.31,.66-.76,0-1.66,0-3.32,0-4.98,0-.19,0-.39,0-.66,1.44,.1,2.83,.2,4.27,.3,0,.58,0,1.13,0,1.68,0,1.48,0,2.96,0,4.45,0,.51,.2,.76,.71,.82,1.52,.21,3.04,.44,4.61,.66Z" />
                    <path class="cls-1" d="M40.02,11.57c-3.4,.18-6.71,.35-10.05,.53,0,3.16,0,6.29,0,9.47,1.12-.23,2.21-.45,3.3-.68,1.98-.42,3.96-.85,5.94-1.24,.58-.11,.83-.33,.82-.97-.04-2.15-.01-4.31-.01-6.46,0-.19,0-.39,0-.65Z" />
                    <path class="cls-1" d="M16.08,10.62c4.38,.32,8.77,.63,13.21,.95-.89-2.54-1.11-5.15-1.27-7.94-2.44,1.64-4.37,3.04-5.93,3.97-1.13,.67-3.41,1.92-6.01,3.02Z" />
                    <path class="cls-1" d="M28.36,3.72c.05,2.57,.38,4.88,1.13,7.31,.16,.5,.36,.73,.9,.69,2.96-.2,5.92-.36,9.05-.54-4.24-1.82-8.22-3.71-11.08-7.47Z" />
                </g>
            </g>
            <g id="yDHBCv-2">
                <g>
                    <path class="cls-1" d="M14.59,18.29c0-3.21,0-6.37,0-9.59-4.8-.34-9.58-.69-14.42-1.03-.01,.26-.03,.45-.03,.64,0,2.35,.01,4.7-.01,7.05,0,.56,.15,.85,.73,.92,1.14,.14,2.27,.35,3.42,.48,.52,.06,.66-.31,.66-.77,0-1.67,0-3.34,0-5.02,0-.2,0-.39,0-.66,1.45,.1,2.85,.2,4.3,.31,0,.59,0,1.14,0,1.69,0,1.49,0,2.99,0,4.48,0,.51,.2,.76,.71,.83,1.53,.21,3.06,.44,4.65,.67Z" />
                    <path class="cls-1" d="M25.05,8.29c-3.43,.18-6.76,.36-10.13,.53v9.55c1.12-.23,2.23-.45,3.33-.68,2-.42,3.99-.86,5.99-1.25,.59-.12,.84-.33,.83-.97-.04-2.17-.01-4.34-.01-6.51,0-.2,0-.39,0-.66Z" />
                    <path class="cls-1" d="M.93,7.33c4.42,.32,8.84,.64,13.31,.96-.9-2.55-1.12-5.19-1.28-8-2.45,1.65-4.4,3.06-5.97,4-1.14,.68-3.43,1.93-6.05,3.04Z" />
                    <path class="cls-1" d="M13.3,.38c.05,2.59,.38,4.91,1.14,7.37,.16,.51,.36,.74,.9,.7,2.98-.2,5.97-.36,9.12-.55-4.27-1.83-8.28-3.74-11.17-7.52Z" />
                </g>
            </g>
            <g id="yDHBCv-3">
                <g>
                    <path class="cls-1" d="M18.54,26.87v-10.74c-5.37-.39-10.73-.77-16.14-1.16-.01,.29-.04,.5-.04,.72,0,2.63,.02,5.26-.01,7.89,0,.63,.17,.95,.82,1.03,1.28,.16,2.55,.39,3.82,.54,.59,.07,.74-.34,.74-.86,0-1.87,0-3.74,0-5.62,0-.22,0-.44,0-.74,1.63,.12,3.19,.23,4.82,.34,0,.66,0,1.28,0,1.89,0,1.67,.01,3.34,0,5.01,0,.57,.22,.85,.8,.93,1.72,.23,3.43,.49,5.2,.75Z" />
                    <path class="cls-1" d="M30.25,15.67c-3.84,.2-7.56,.4-11.34,.6,0,3.56,0,7.09,0,10.69,1.26-.26,2.49-.51,3.72-.77,2.23-.47,4.46-.96,6.7-1.4,.66-.13,.94-.37,.93-1.09-.04-2.43-.02-4.86-.02-7.29,0-.22,0-.44,0-.74Z" />
                    <path class="cls-1" d="M3.25,14.6c4.95,.36,9.89,.71,14.9,1.07-1.01-2.86-1.26-5.81-1.44-8.96-2.75,1.85-4.93,3.43-6.69,4.48-1.27,.76-3.84,2.16-6.78,3.41Z" />
                    <path class="cls-1" d="M17.1,6.82c.06,2.9,.42,5.5,1.28,8.25,.18,.57,.4,.82,1.01,.78,3.34-.23,6.68-.4,10.21-.61-4.78-2.05-9.27-4.19-12.5-8.42Z" />
                </g>
            </g>
        </g>
    </g>
</svg>