<?xml version="1.0" encoding="UTF-8"?><svg id="Layer_2" xmlns="http://www.w3.org/2000/svg" viewBox="0 0 43.24 27.5"><defs><style>.cls-1{fill:#d3d3d3;stroke:#fff;stroke-miterlimit:10;stroke-width:.25px;}</style></defs><g id="Layer_1-2"><g><g id="yDHBCv"><g><path class="cls-1" d="M33.52,10.44V5.93c-2.26-.16-4.51-.32-6.78-.49,0,.12-.01,.21-.01,.3,0,1.11,0,2.21,0,3.32,0,.26,.07,.4,.34,.43,.54,.07,1.07,.16,1.61,.23,.25,.03,.31-.14,.31-.36,0-.79,0-1.57,0-2.36,0-.09,0-.18,0-.31,.68,.05,1.34,.1,2.03,.14,0,.28,0,.54,0,.8,0,.7,0,1.4,0,2.11,0,.24,.09,.36,.33,.39,.72,.1,1.44,.21,2.19,.31Z"/><path class="cls-1" d="M38.44,5.73c-1.61,.08-3.18,.17-4.76,.25v4.49c.53-.11,1.05-.21,1.56-.32,.94-.2,1.88-.41,2.82-.59,.28-.05,.4-.16,.39-.46-.02-1.02,0-2.04,0-3.06,0-.09,0-.18,0-.31Z"/><path class="cls-1" d="M27.09,5.28c2.08,.15,4.16,.3,6.26,.45-.42-1.2-.53-2.44-.6-3.77-1.15,.78-2.07,1.44-2.81,1.88-.53,.32-1.61,.91-2.85,1.43Z"/><path class="cls-1" d="M32.91,2.01c.03,1.22,.18,2.31,.54,3.47,.07,.24,.17,.35,.43,.33,1.4-.09,2.81-.17,4.29-.26-2.01-.86-3.89-1.76-5.25-3.54Z"/></g></g><g id="yDHBCv-2"><g><path class="cls-1" d="M23.64,7.6V3.73c-1.93-.14-3.86-.28-5.81-.42,0,.1-.01,.18-.01,.26,0,.95,0,1.89,0,2.84,0,.23,.06,.34,.29,.37,.46,.06,.92,.14,1.38,.2,.21,.02,.27-.12,.27-.31,0-.67,0-1.35,0-2.02,0-.08,0-.16,0-.27,.59,.04,1.15,.08,1.73,.12,0,.24,0,.46,0,.68,0,.6,0,1.2,0,1.8,0,.21,.08,.31,.29,.33,.62,.08,1.23,.18,1.87,.27Z"/><path class="cls-1" d="M27.85,3.57c-1.38,.07-2.72,.14-4.08,.22v3.85c.45-.09,.9-.18,1.34-.28,.8-.17,1.61-.35,2.41-.51,.24-.05,.34-.13,.33-.39-.02-.87,0-1.75,0-2.62,0-.08,0-.16,0-.27Z"/><path class="cls-1" d="M18.13,3.18c1.78,.13,3.56,.26,5.36,.39-.36-1.03-.45-2.09-.52-3.22-.99,.67-1.77,1.23-2.41,1.61-.46,.27-1.38,.78-2.44,1.23Z"/><path class="cls-1" d="M23.12,.38c.02,1.04,.15,1.98,.46,2.97,.06,.2,.14,.3,.36,.28,1.2-.08,2.4-.15,3.68-.22-1.72-.74-3.33-1.51-4.5-3.03Z"/></g></g><g id="yDHBCv-3"><g><path class="cls-1" d="M36.74,16.69v-5.78c-2.89-.21-5.78-.41-8.69-.62,0,.16-.02,.27-.02,.39,0,1.42,0,2.83,0,4.25,0,.34,.09,.51,.44,.55,.69,.09,1.37,.21,2.06,.29,.32,.04,.4-.19,.4-.46,0-1.01,0-2.02,0-3.03,0-.12,0-.24,0-.4,.88,.06,1.72,.12,2.6,.19,0,.35,0,.69,0,1.02,0,.9,0,1.8,0,2.7,0,.31,.12,.46,.43,.5,.92,.12,1.85,.26,2.8,.4Z"/><path class="cls-1" d="M43.05,10.66c-2.07,.11-4.07,.21-6.11,.32v5.76c.68-.14,1.34-.27,2.01-.41,1.2-.25,2.4-.52,3.61-.76,.35-.07,.51-.2,.5-.59-.02-1.31,0-2.62,0-3.92,0-.12,0-.24,0-.4Z"/><path class="cls-1" d="M28.51,10.08c2.66,.19,5.33,.38,8.02,.58-.54-1.54-.68-3.13-.77-4.83-1.48,1-2.66,1.85-3.6,2.41-.68,.41-2.07,1.16-3.65,1.84Z"/><path class="cls-1" d="M35.97,5.89c.03,1.56,.23,2.96,.69,4.44,.09,.3,.22,.44,.55,.42,1.8-.12,3.6-.22,5.5-.33-2.57-1.11-4.99-2.26-6.73-4.54Z"/></g></g><g id="yDHBCv-4"><g><path class="cls-1" d="M26.62,13.67V7.89c-2.89-.21-5.78-.41-8.69-.62,0,.16-.02,.27-.02,.39,0,1.42,0,2.83,0,4.25,0,.34,.09,.51,.44,.55,.69,.09,1.37,.21,2.06,.29,.32,.04,.4-.19,.4-.46,0-1.01,0-2.02,0-3.03,0-.12,0-.24,0-.4,.88,.06,1.72,.12,2.6,.19,0,.35,0,.69,0,1.02,0,.9,0,1.8,0,2.7,0,.31,.12,.46,.43,.5,.92,.12,1.85,.26,2.8,.4Z"/><path class="cls-1" d="M32.93,7.64c-2.07,.11-4.07,.21-6.11,.32v5.76c.68-.14,1.34-.27,2.01-.41,1.2-.25,2.4-.52,3.61-.76,.35-.07,.51-.2,.5-.59-.02-1.31,0-2.62,0-3.92,0-.12,0-.24,0-.4Z"/><path class="cls-1" d="M18.38,7.06c2.66,.19,5.33,.38,8.02,.58-.54-1.54-.68-3.13-.77-4.83-1.48,1-2.66,1.85-3.6,2.41-.68,.41-2.07,1.16-3.65,1.84Z"/><path class="cls-1" d="M25.85,2.87c.03,1.56,.23,2.96,.69,4.44,.09,.3,.22,.44,.55,.42,1.8-.12,3.6-.22,5.5-.33-2.57-1.11-4.99-2.26-6.73-4.54Z"/></g></g><g id="yDHBCv-5"><g><path class="cls-1" d="M16.11,15.35v-7.08c-3.54-.25-7.08-.51-10.65-.76,0,.19-.02,.33-.02,.47,0,1.74,.01,3.47,0,5.2,0,.42,.11,.62,.54,.68,.84,.11,1.68,.26,2.52,.36,.39,.05,.49-.23,.49-.57,0-1.24,0-2.47,0-3.71,0-.14,0-.29,0-.49,1.07,.08,2.1,.15,3.18,.23,0,.43,0,.84,0,1.25,0,1.1,0,2.21,0,3.31,0,.38,.15,.56,.53,.61,1.13,.15,2.26,.32,3.43,.49Z"/><path class="cls-1" d="M23.83,7.96c-2.53,.13-4.99,.26-7.48,.39v7.05c.83-.17,1.64-.34,2.46-.51,1.47-.31,2.94-.64,4.42-.93,.43-.08,.62-.24,.61-.72-.03-1.6-.01-3.2-.01-4.81,0-.14,0-.29,0-.49Z"/><path class="cls-1" d="M6.02,7.25c3.26,.23,6.53,.47,9.83,.71-.67-1.89-.83-3.84-.95-5.91-1.81,1.22-3.25,2.26-4.41,2.96-.84,.5-2.53,1.43-4.47,2.25Z"/><path class="cls-1" d="M15.16,2.12c.04,1.91,.28,3.63,.84,5.44,.12,.37,.26,.54,.67,.52,2.2-.15,4.41-.27,6.74-.4-3.15-1.35-6.11-2.76-8.25-5.56Z"/></g></g><g id="yDHBCv-6"><g><path class="cls-1" d="M12.86,20.61c0-2.83,0-5.61,0-8.45-4.23-.3-8.44-.61-12.7-.91-.01,.23-.03,.4-.03,.57,0,2.07,.01,4.14-.01,6.21,0,.5,.14,.74,.64,.81,1,.13,2,.31,3.01,.43,.46,.05,.58-.27,.58-.68,0-1.47,0-2.95,0-4.42,0-.17,0-.34,0-.58,1.28,.09,2.51,.18,3.79,.27,0,.52,0,1,0,1.49,0,1.32,0,2.63,0,3.95,0,.45,.18,.67,.63,.73,1.35,.18,2.7,.39,4.09,.59Z"/><path class="cls-1" d="M22.08,11.8c-3.02,.16-5.95,.31-8.92,.47,0,2.8,0,5.58,0,8.41,.99-.2,1.96-.4,2.93-.6,1.76-.37,3.51-.76,5.27-1.1,.52-.1,.74-.29,.73-.86-.03-1.91-.01-3.82-.01-5.73,0-.17,0-.34,0-.58Z"/><path class="cls-1" d="M.83,10.95c3.89,.28,7.78,.56,11.72,.84-.79-2.25-.99-4.57-1.13-7.05-2.16,1.46-3.88,2.7-5.26,3.52-1,.6-3.02,1.7-5.33,2.68Z"/><path class="cls-1" d="M11.73,4.83c.05,2.28,.33,4.33,1,6.49,.14,.45,.32,.65,.8,.62,2.63-.18,5.25-.32,8.03-.48-3.76-1.61-7.29-3.3-9.84-6.63Z"/></g></g><g id="yDHBCv-7"><g><path class="cls-1" d="M29.15,22.87c0-2.8,0-5.57,0-8.38-4.19-.3-8.38-.6-12.6-.9-.01,.23-.03,.39-.03,.56,0,2.05,.01,4.11-.01,6.16,0,.49,.14,.74,.64,.8,1,.13,1.99,.31,2.99,.42,.46,.05,.58-.27,.58-.67,0-1.46,0-2.92,0-4.39,0-.17,0-.34,0-.58,1.27,.09,2.49,.18,3.76,.27,0,.51,0,1,0,1.48,0,1.31,0,2.61,0,3.92,0,.45,.17,.67,.62,.73,1.34,.18,2.68,.38,4.06,.59Z"/><path class="cls-1" d="M38.3,14.13c-2.99,.16-5.91,.31-8.85,.47,0,2.78,0,5.54,0,8.34,.98-.2,1.95-.4,2.91-.6,1.74-.37,3.48-.75,5.23-1.1,.51-.1,.73-.29,.72-.85-.03-1.9-.01-3.79-.01-5.69,0-.17,0-.34,0-.58Z"/><path class="cls-1" d="M17.21,13.29c3.86,.28,7.72,.56,11.63,.84-.79-2.23-.98-4.54-1.12-7-2.15,1.45-3.85,2.68-5.22,3.5-.99,.59-3,1.69-5.29,2.66Z"/><path class="cls-1" d="M28.03,7.21c.05,2.26,.33,4.3,1,6.44,.14,.44,.31,.64,.79,.61,2.61-.18,5.21-.32,7.97-.48-3.73-1.6-7.24-3.27-9.76-6.58Z"/></g></g><g id="yDHBCv-8"><g><path class="cls-1" d="M17.82,27.27v-9.46c-4.73-.34-9.45-.68-14.22-1.02-.01,.25-.03,.44-.03,.63,0,2.32,.01,4.63-.01,6.95,0,.55,.15,.83,.72,.91,1.12,.14,2.24,.34,3.37,.48,.52,.06,.65-.3,.65-.76,0-1.65,0-3.3,0-4.95,0-.19,0-.38,0-.65,1.43,.1,2.81,.2,4.24,.3,0,.58,0,1.12,0,1.67,0,1.47,0,2.94,0,4.42,0,.5,.2,.75,.7,.82,1.51,.2,3.02,.43,4.58,.66Z"/><path class="cls-1" d="M28.13,17.4c-3.38,.18-6.66,.35-9.99,.53v9.41c1.11-.23,2.19-.45,3.28-.68,1.97-.41,3.93-.85,5.9-1.24,.58-.11,.83-.33,.82-.96-.04-2.14-.01-4.28-.01-6.42,0-.19,0-.39,0-.65Z"/><path class="cls-1" d="M4.35,16.46c4.36,.31,8.71,.63,13.12,.94-.89-2.52-1.11-5.12-1.26-7.89-2.42,1.63-4.34,3.02-5.89,3.95-1.12,.67-3.38,1.9-5.97,3Z"/><path class="cls-1" d="M16.55,9.6c.05,2.55,.37,4.85,1.12,7.27,.15,.5,.35,.73,.89,.69,2.94-.2,5.88-.36,8.99-.54-4.21-1.81-8.16-3.69-11.01-7.42Z"/></g></g></g></g></svg>