<?xml version="1.0" encoding="UTF-8"?><svg id="Layer_2" xmlns="http://www.w3.org/2000/svg" viewBox="0 0 42.22 28.26"><defs><style>.cls-1{fill:#d3d3d3;stroke:#fff;stroke-miterlimit:10;stroke-width:.25px;}</style></defs><g id="Layer_1-2"><g><g id="yDHBCv"><g><path class="cls-1" d="M29.24,13.08V6.73c-3.18-.23-6.35-.46-9.56-.69,0,.17-.02,.3-.02,.43,0,1.56,0,3.11,0,4.67,0,.37,.1,.56,.48,.61,.76,.1,1.51,.23,2.26,.32,.35,.04,.44-.2,.44-.51,0-1.11,0-2.22,0-3.32,0-.13,0-.26,0-.44,.96,.07,1.89,.13,2.85,.2,0,.39,0,.75,0,1.12,0,.99,0,1.98,0,2.97,0,.34,.13,.5,.47,.55,1.02,.14,2.03,.29,3.08,.44Z"/><path class="cls-1" d="M36.18,6.45c-2.27,.12-4.48,.24-6.71,.35v6.33c.74-.15,1.48-.3,2.2-.45,1.32-.28,2.64-.57,3.97-.83,.39-.08,.56-.22,.55-.65-.03-1.44,0-2.88,0-4.31,0-.13,0-.26,0-.44Z"/><path class="cls-1" d="M20.19,5.82c2.93,.21,5.86,.42,8.82,.64-.6-1.69-.74-3.44-.85-5.3-1.63,1.1-2.92,2.03-3.96,2.65-.75,.45-2.27,1.28-4.01,2.02Z"/><path class="cls-1" d="M28.39,1.21c.04,1.72,.25,3.26,.76,4.88,.1,.34,.24,.49,.6,.46,1.98-.13,3.95-.24,6.05-.36-2.83-1.21-5.49-2.48-7.4-4.99Z"/></g></g><g id="yDHBCv-2"><g><path class="cls-1" d="M17.69,14.92V7.14c-3.89-.28-7.78-.56-11.7-.84-.01,.21-.03,.37-.03,.52,0,1.91,.01,3.81-.01,5.72,0,.46,.13,.69,.59,.75,.93,.12,1.85,.28,2.77,.39,.43,.05,.54-.25,.54-.62,0-1.36,0-2.71,0-4.07,0-.16,0-.32,0-.54,1.18,.08,2.31,.16,3.49,.25,0,.48,0,.92,0,1.37,0,1.21,0,2.42,0,3.64,0,.41,.16,.62,.58,.67,1.24,.17,2.49,.36,3.77,.54Z"/><path class="cls-1" d="M26.18,6.8c-2.78,.15-5.48,.29-8.22,.43,0,2.58,0,5.14,0,7.75,.91-.19,1.81-.37,2.7-.56,1.62-.34,3.24-.7,4.86-1.02,.48-.09,.68-.27,.67-.79-.03-1.76-.01-3.52-.01-5.28,0-.16,0-.32,0-.53Z"/><path class="cls-1" d="M6.6,6.02c3.59,.26,7.17,.52,10.8,.78-.73-2.07-.91-4.22-1.04-6.5-1.99,1.34-3.57,2.48-4.85,3.25-.92,.55-2.79,1.57-4.91,2.47Z"/><path class="cls-1" d="M16.64,.38c.04,2.1,.31,3.99,.93,5.98,.13,.41,.29,.6,.73,.57,2.42-.16,4.84-.29,7.4-.44-3.47-1.49-6.72-3.04-9.06-6.11Z"/></g></g><g id="yDHBCv-3"><g><path class="cls-1" d="M14.12,20.7V11.42c-4.64-.33-9.28-.67-13.96-1-.01,.25-.03,.44-.03,.62,0,2.27,.01,4.55-.01,6.82,0,.54,.15,.82,.71,.89,1.1,.14,2.2,.34,3.31,.47,.51,.06,.64-.3,.64-.74,0-1.62,0-3.24,0-4.86,0-.19,0-.38,0-.64,1.41,.1,2.76,.2,4.17,.3,0,.57,0,1.1,0,1.64,0,1.45,0,2.89,0,4.34,0,.49,.19,.74,.69,.8,1.48,.2,2.96,.43,4.5,.65Z"/><path class="cls-1" d="M24.25,11.02c-3.32,.17-6.54,.34-9.8,.52v9.24c1.09-.22,2.15-.44,3.22-.66,1.93-.41,3.86-.83,5.8-1.21,.57-.11,.81-.32,.8-.94-.04-2.1-.01-4.2-.01-6.3,0-.19,0-.38,0-.64Z"/><path class="cls-1" d="M.9,10.09c4.28,.31,8.55,.62,12.88,.93-.87-2.47-1.09-5.03-1.24-7.75-2.38,1.6-4.26,2.96-5.78,3.87-1.1,.66-3.32,1.87-5.86,2.95Z"/><path class="cls-1" d="M12.88,3.36c.05,2.51,.37,4.76,1.1,7.13,.15,.49,.35,.71,.88,.68,2.89-.19,5.77-.35,8.83-.53-4.13-1.77-8.01-3.62-10.81-7.28Z"/></g></g><g id="yDHBCv-4"><g><path class="cls-1" d="M32.03,23.19V13.98c-4.61-.33-9.21-.66-13.85-.99-.01,.25-.03,.43-.03,.62,0,2.26,.01,4.51-.01,6.77,0,.54,.15,.81,.7,.88,1.1,.14,2.18,.34,3.28,.47,.5,.06,.64-.3,.63-.74,0-1.61,0-3.21,0-4.82,0-.19,0-.38,0-.63,1.4,.1,2.74,.2,4.14,.29,0,.56,0,1.09,0,1.62,0,1.43,0,2.87,0,4.3,0,.49,.19,.73,.68,.8,1.47,.2,2.94,.42,4.46,.64Z"/><path class="cls-1" d="M42.08,13.58c-3.29,.17-6.49,.34-9.73,.51v9.17c1.08-.22,2.14-.44,3.2-.66,1.92-.4,3.83-.83,5.75-1.2,.56-.11,.81-.32,.8-.94-.04-2.08-.01-4.17-.01-6.25,0-.19,0-.38,0-.63Z"/><path class="cls-1" d="M18.9,12.66c4.24,.31,8.49,.61,12.78,.92-.87-2.45-1.08-4.99-1.23-7.69-2.36,1.59-4.23,2.94-5.74,3.84-1.09,.65-3.3,1.85-5.81,2.92Z"/><path class="cls-1" d="M30.79,5.98c.05,2.49,.36,4.72,1.1,7.08,.15,.49,.34,.71,.87,.67,2.86-.19,5.73-.35,8.76-.52-4.1-1.76-7.95-3.59-10.73-7.23Z"/></g></g><g id="yDHBCv-5"><g><path class="cls-1" d="M19.57,28.02c0-3.48,0-6.9,0-10.39-5.2-.37-10.38-.74-15.62-1.12-.01,.28-.03,.49-.03,.7,0,2.55,.02,5.09-.01,7.64,0,.61,.17,.92,.79,1,1.24,.16,2.46,.38,3.7,.52,.57,.07,.72-.33,.72-.83,0-1.81,0-3.62,0-5.44,0-.21,0-.42,0-.72,1.57,.11,3.09,.22,4.66,.33,0,.64,0,1.23,0,1.83,0,1.62,.01,3.24,0,4.85,0,.55,.22,.83,.77,.9,1.66,.22,3.32,.48,5.04,.73Z"/><path class="cls-1" d="M30.9,17.18c-3.71,.2-7.32,.39-10.97,.58,0,3.45,0,6.86,0,10.34,1.22-.25,2.41-.49,3.6-.74,2.16-.45,4.32-.93,6.49-1.36,.64-.12,.91-.36,.9-1.06-.04-2.35-.02-4.7-.02-7.05,0-.21,0-.42,0-.71Z"/><path class="cls-1" d="M4.77,16.14c4.79,.34,9.57,.69,14.42,1.04-.98-2.77-1.22-5.63-1.39-8.67-2.66,1.79-4.77,3.32-6.47,4.34-1.23,.74-3.72,2.09-6.56,3.3Z"/><path class="cls-1" d="M18.18,8.61c.06,2.8,.41,5.33,1.24,7.99,.17,.55,.39,.8,.98,.76,3.23-.22,6.46-.39,9.89-.59-4.63-1.99-8.97-4.06-12.1-8.15Z"/></g></g></g></g></svg>