<?xml version="1.0" encoding="UTF-8"?><svg id="Layer_2" xmlns="http://www.w3.org/2000/svg" viewBox="0 0 28.65 21.02"><defs><style>.cls-1{fill:#d3d3d3;stroke:#fff;stroke-miterlimit:10;stroke-width:.25px;}</style></defs><g id="Layer_1-2"><g id="yDHBCv"><g><path class="cls-1" d="M16.59,20.78c0-3.65,0-7.25,0-10.92-5.46-.39-10.91-.78-16.42-1.18-.02,.29-.04,.51-.04,.73,0,2.67,.02,5.35-.01,8.02,0,.64,.18,.96,.83,1.05,1.3,.16,2.59,.4,3.89,.55,.6,.07,.75-.35,.75-.88,0-1.9,0-3.81,0-5.71,0-.22,0-.44,0-.75,1.65,.12,3.24,.23,4.9,.35,0,.67,0,1.3,0,1.93,0,1.7,.01,3.4,0,5.1,0,.58,.23,.87,.81,.95,1.75,.24,3.49,.5,5.29,.76Z"/><path class="cls-1" d="M28.51,9.39c-3.9,.21-7.69,.41-11.53,.61v10.87c1.28-.26,2.53-.52,3.79-.78,2.27-.48,4.54-.98,6.82-1.43,.67-.13,.96-.38,.94-1.11-.04-2.47-.02-4.94-.02-7.41,0-.22,0-.44,0-.75Z"/><path class="cls-1" d="M1.04,8.3c5.03,.36,10.06,.72,15.15,1.09-1.03-2.91-1.28-5.91-1.46-9.11-2.79,1.88-5.01,3.49-6.8,4.56-1.29,.77-3.91,2.2-6.89,3.47Z"/><path class="cls-1" d="M15.13,.38c.06,2.95,.43,5.6,1.3,8.39,.18,.58,.41,.84,1.03,.8,3.4-.23,6.79-.41,10.39-.62C22.99,6.86,18.42,4.69,15.13,.38Z"/></g></g></g></svg>