<?xml version="1.0" encoding="UTF-8"?><svg id="Layer_2" xmlns="http://www.w3.org/2000/svg" viewBox="0 0 54.57 43.23"><defs><style>.cls-1{fill:#fff;}.cls-1,.cls-2{stroke:#fff;stroke-miterlimit:10;stroke-width:.25px;}.cls-2{fill:#d3d3d3;}</style></defs><g id="Layer_1-2"><g><polygon class="cls-1" points="11.15 3.02 .48 15.19 .13 35.88 34.73 43.09 54.21 36.75 44.48 6.01 11.15 3.02"/><g><path class="cls-2" d="M11.15,3.02L.48,15.19c-.14,.17-.05,.43,.18,.46l32.88,3.75c.1,0,.2-.04,.26-.12l9.24-13.42c.12-.18,0-.41-.2-.43l-8.29-.65,.04,2.64-2.23,3.35h-4.49l-.09-6.52L11.37,2.94c-.09,0-.17,.03-.23,.09h.01Z"/><path class="cls-2" d="M28.56,.37V9.71c0,.14,.12,.24,.24,.24h2.87c.08,0,.15-.04,.2-.1l1.78-2.51s.05-.09,.05-.14V.37c0-.14-.12-.24-.24-.24h-4.64c-.14,0-.24,.12-.24,.24h-.01Z"/><path class="cls-2" d="M43.95,6.03l-9.58,14.15s-.05,.12-.05,.18v22.42c0,.2,.2,.36,.41,.31l6.27-1.82c.14-.04,.23-.17,.23-.31v-14.4c0-.14,.09-.27,.23-.31l6.5-1.8c.2-.05,.4,.09,.4,.31v13.28c0,.2,.2,.36,.41,.31l5.45-1.6c.14-.04,.23-.17,.23-.31V18.55c0-.08-.03-.14-.06-.19l-9.9-12.34c-.13-.17-.38-.15-.51,.03h-.01Z"/><path class="cls-2" d="M.74,16.46l32.17,3.79c.24,.03,.43,.24,.43,.49v21.86c0,.32-.29,.55-.6,.49L.52,36.36c-.23-.05-.4-.26-.4-.49l.06-18.93c0-.29,.26-.52,.55-.49Zm26.8,15.26v-7c0-.17-.13-.31-.29-.33l-6.46-.9c-.2-.03-.38,.13-.38,.33v7c0,.17,.13,.31,.29,.33l6.46,.9c.2,.03,.38-.13,.38-.33Zm-15.45-2.26v-7c0-.17-.13-.31-.29-.33l-6.46-.9c-.2-.03-.38,.13-.38,.33v7c0,.17,.13,.31,.29,.33l6.46,.9c.2,.03,.38-.13,.38-.33Z"/></g></g></g></svg>