<?xml version="1.0" encoding="UTF-8"?>
<svg id="Layer_2" xmlns="http://www.w3.org/2000/svg" viewBox="0 0 13.53 33.84">
    <defs>
        <style>.cls-1{fill:#d3d3d3;stroke:#fff;stroke-miterlimit:10;stroke-width:.25px;}</style>
    </defs>
    <g id="Layer_1-2">
        <g>
            <path class="cls-1" d="M4.01,2.92c-.02-1.56,1.18-2.8,2.72-2.8,1.52,0,2.8,1.28,2.78,2.78-.02,1.45-1.24,2.68-2.7,2.73-1.53,.05-2.79-1.16-2.81-2.71Z" />
            <path class="cls-1" d="M6.54,19.77c.14,0,.3,.03,.44,.02,.04,.47,.11,.94,.11,1.41,0,3.4,.03,6.79,0,10.19-.01,1.2,.23,2.17,1.6,2.32,1.02,.11,1.63-.78,1.63-2.26,.01-6.36,.01-12.71,.02-19.07,0-.51,0-1.01,0-1.52,.17,0,.34,0,.51,0,.02,.46,.06,.91,.06,1.37,0,1.75,0,3.49,0,5.24,0,.93-.12,2.03,1.2,2.07,1.35,.05,1.28-1.07,1.28-1.99,.01-2.33,0-4.66,0-6.99,0-.39-.03-.78-.1-1.16-.32-1.82-1.54-2.95-3.37-3-2.08-.05-4.17-.05-6.26,0l-.07-.02c-1.83,.05-3.06,1.18-3.37,3-.07,.38-.09,.77-.1,1.16,0,2.33-.01,4.66,0,6.99,0,.93-.07,2.04,1.28,1.99,1.32-.05,1.2-1.15,1.2-2.07,0-1.75,0-3.49,0-5.24,0-.46,.04-.91,.06-1.37,.17,0,.34,0,.51,0,0,.51,0,1.01,0,1.52,0,6.36,0,12.71,.02,19.07,0,1.49,.61,2.37,1.63,2.26,1.37-.14,1.61-1.11,1.6-2.32-.04-3.4-.02-6.79,0-10.19,0-.47,.07-.94,.11-1.41h0Z" />
        </g>
    </g>
</svg>