<?xml version="1.0" encoding="UTF-8"?><svg id="Layer_2" xmlns="http://www.w3.org/2000/svg" viewBox="0 0 13.61 32.22"><defs><style>.cls-1{fill:#fff;}.cls-2,.cls-3{fill:#d3d3d3;}.cls-3{stroke:#fff;stroke-miterlimit:10;stroke-width:.25px;}</style></defs><g id="Layer_1-2"><g><path class="cls-3" d="M1.96,32.1c-.01-.14-.04-.29-.04-.43,.05-1.51,.11-3.01,.16-4.52,0-.18-.09-.36-.13-.55-.02-.12-.04-.25-.04-.37,.06-1.99,.13-3.98,.2-5.96,0-.08,0-.16,0-.27-.16,.05-.31,.12-.46,.15-.61,.1-1.19-.31-1.26-.94C.11,16.84,0,14.47,.34,12.1c.2-1.37,.55-2.7,1.31-3.89,.65-1.01,1.48-1.81,2.69-2.07,.67-.15,1.36-.17,2.04,.06,.74,.25,1.48,.2,2.22-.05,.27-.09,.56-.08,.88-.13-.02,.89-.21,1.68-.45,2.46-.4,1.27-.98,2.46-1.63,3.62-.05,.09-.2,.17-.31,.18-.27,.01-.54-.02-.81-.03-.88-.05-1.54,.5-1.6,1.32-.05,.77,.54,1.44,1.39,1.47,1.15,.04,2.3,.01,3.45-.01,.51-.01,1.02-.09,1.57-.13,0,.1,0,.2,0,.31,0,4.83,0,9.66,0,14.48,0,.93-.57,1.65-1.4,1.78-.85,.13-1.64-.35-1.88-1.16-.08-.26-.09-.54-.09-.8,0-3.85,0-7.71,0-11.56,0-.12,0-.25,0-.4h-.6v5.63c-.63-.08-1.21-.13-1.77-.25-.45-.09-.87-.28-1.31-.41-.24-.07-.31-.2-.31-.46,0-3.95,0-7.9,0-11.84,0-.32,0-.65-.03-.99-.38,.43-.59,.95-.79,1.5,.39,.05,.4,.31,.39,.62-.1,2.87-.2,5.73-.3,8.6-.07,2.11-.14,4.23-.21,6.34,0,.15-.1,.3-.14,.46-.03,.11-.07,.22-.07,.33-.06,1.54-.11,3.08-.16,4.61,0,.14-.04,.29-.06,.43h-.38Z"/><path class="cls-3" d="M11.6,14.45c.17-2.97-.82-5.67-1.85-8.37,.62-.06,1.13,.12,1.58,.5,.68,.56,1.06,1.31,1.35,2.11,.46,1.25,.69,2.56,.79,3.88,.02,.31-.11,.66-.27,.94-.35,.58-.96,.79-1.61,.95Z"/><path class="cls-3" d="M7.08,27.32c0,.57-.27,1.07-.8,1.39-.59,.36-1.2,.35-1.78-.01-.64-.4-.85-1.02-.78-1.7,1.11,.1,2.21,.21,3.36,.32Z"/><path class="cls-3" d="M3.72,24.98v-1.82c.56,.15,1.11,.34,1.68,.45,.46,.09,.93,.1,1.4,.15,.1,.01,.19,.07,.29,.11-.06,.1-.09,.25-.18,.29-.48,.22-.96,.46-1.47,.59-.54,.14-1.11,.15-1.72,.22Z"/><path class="cls-3" d="M7.07,24.88v1.72c-.74-.04-1.45-.07-2.16-.13-.25-.02-.49-.09-.73-.15-.51-.13-.51-.13-.44-.71,1.13-.02,2.26-.14,3.33-.73Z"/><g><path class="cls-2" d="M5.74,14.55c-.5-.25-.73-.65-.63-1.11,.1-.46,.51-.76,1.03-.76h.79s-1.19,1.87-1.19,1.87Z"/><path class="cls-1" d="M6.14,12.56v.25s.35,0,.35,0h.21s-.97,1.52-.97,1.52l-.03,.05c-.38-.23-.55-.55-.46-.92,.09-.4,.45-.66,.91-.66v-.25m0,0c-.58,0-1.04,.34-1.15,.86-.12,.54,.16,1.02,.8,1.3,.44-.69,.88-1.38,1.37-2.15-.25,0-.46,0-.66,0-.12,0-.23,0-.35,0,0,0,0,0,0,0h0Z"/></g><path class="cls-3" d="M4.68,2.92c-.02-1.56,1.18-2.8,2.72-2.8,1.52,0,2.8,1.28,2.78,2.78-.02,1.45-1.24,2.68-2.7,2.73-1.53,.05-2.79-1.16-2.81-2.71Z"/></g></g></svg>